<?xml version="1.0" encoding="utf-8"?>
<!-- Generator: Adobe Illustrator 24.1.1, SVG Export Plug-In . SVG Version: 6.00 Build 0)  -->
<svg version="1.1" id="Capa_1" xmlns="http://www.w3.org/2000/svg" xmlns:xlink="http://www.w3.org/1999/xlink" x="0px" y="0px"
	 viewBox="0 0 349.6 128.8" style="enable-background:new 0 0 349.6 128.8;" xml:space="preserve">
<style type="text/css">
	.st0{fill:#EDEDED;}
	.st1{fill:#F3F4F8;}
</style>
<path class="st0" d="M174.8,107.9c71.2,0,134.6,7.8,174.8,19.9V9.8c0-3.1-5.7-5.6-12.7-5.6H12.7C5.7,4.2,0,6.7,0,9.8v118
	C40.2,115.7,103.5,107.9,174.8,107.9z"/>
<path class="st1" d="M174.8,104.7c71.2,0,134.6,7.9,174.8,20.1V5.6c0-3.1-5.7-5.6-12.7-5.6H12.7C5.7,0,0,2.5,0,5.6v119.2
	C40.2,112.6,103.5,104.7,174.8,104.7z"/>
</svg>
