<?xml version="1.0" encoding="utf-8"?>
<!-- Generator: Adobe Illustrator 24.1.1, SVG Export Plug-In . SVG Version: 6.00 Build 0)  -->
<svg version="1.1" id="Capa_1" xmlns="http://www.w3.org/2000/svg" xmlns:xlink="http://www.w3.org/1999/xlink" x="0px" y="0px"
	 viewBox="0 0 95.9 88.9" style="enable-background:new 0 0 95.9 88.9;" xml:space="preserve">
<style type="text/css">
	.st0{fill:#e5e5e5;}
</style>
<g>
	<circle class="st0" cx="2.7" cy="3.7" r="2.2"/>
	<circle class="st0" cx="12.7" cy="3.7" r="2.2"/>
	<circle class="st0" cx="22.8" cy="3.7" r="2.2"/>
	<circle class="st0" cx="32.9" cy="3.7" r="2.2"/>
	<circle class="st0" cx="42.9" cy="3.7" r="2.2"/>
	<circle class="st0" cx="53" cy="3.7" r="2.2"/>
	<circle class="st0" cx="63.1" cy="3.7" r="2.2"/>
	<circle class="st0" cx="73.1" cy="3.7" r="2.2"/>
	<circle class="st0" cx="83.2" cy="3.7" r="2.2"/>
	<circle class="st0" cx="93.3" cy="3.7" r="2.2"/>
	<circle class="st0" cx="2.7" cy="13.9" r="2.2"/>
	<circle class="st0" cx="12.7" cy="13.9" r="2.2"/>
	<circle class="st0" cx="22.8" cy="13.9" r="2.2"/>
	<circle class="st0" cx="32.9" cy="13.9" r="2.2"/>
	<circle class="st0" cx="42.9" cy="13.9" r="2.2"/>
	<circle class="st0" cx="53" cy="13.9" r="2.2"/>
	<circle class="st0" cx="63.1" cy="13.9" r="2.2"/>
	<circle class="st0" cx="73.1" cy="13.9" r="2.2"/>
	<circle class="st0" cx="83.2" cy="13.9" r="2.2"/>
	<circle class="st0" cx="93.3" cy="13.9" r="2.2"/>
	<circle class="st0" cx="2.7" cy="24.1" r="2.2"/>
	<circle class="st0" cx="12.7" cy="24.1" r="2.2"/>
	<circle class="st0" cx="22.8" cy="24.1" r="2.2"/>
	<circle class="st0" cx="32.9" cy="24.1" r="2.2"/>
	<circle class="st0" cx="42.9" cy="24.1" r="2.2"/>
	<circle class="st0" cx="53" cy="24.1" r="2.2"/>
	<circle class="st0" cx="63.1" cy="24.1" r="2.2"/>
	<circle class="st0" cx="73.1" cy="24.1" r="2.2"/>
	<circle class="st0" cx="83.2" cy="24.1" r="2.2"/>
	<circle class="st0" cx="93.3" cy="24.1" r="2.2"/>
	<circle class="st0" cx="2.7" cy="34.3" r="2.2"/>
	<circle class="st0" cx="12.7" cy="34.3" r="2.2"/>
	<circle class="st0" cx="22.8" cy="34.3" r="2.2"/>
	<circle class="st0" cx="32.9" cy="34.3" r="2.2"/>
	<circle class="st0" cx="42.9" cy="34.3" r="2.2"/>
	<circle class="st0" cx="53" cy="34.3" r="2.2"/>
	<circle class="st0" cx="63.1" cy="34.3" r="2.2"/>
	<circle class="st0" cx="73.1" cy="34.3" r="2.2"/>
	<circle class="st0" cx="83.2" cy="34.3" r="2.2"/>
	<circle class="st0" cx="93.3" cy="34.3" r="2.2"/>
	<circle class="st0" cx="2.7" cy="44.4" r="2.2"/>
	<circle class="st0" cx="12.7" cy="44.4" r="2.2"/>
	<circle class="st0" cx="22.8" cy="44.4" r="2.2"/>
	<circle class="st0" cx="32.9" cy="44.4" r="2.2"/>
	<circle class="st0" cx="42.9" cy="44.4" r="2.2"/>
	<circle class="st0" cx="53" cy="44.4" r="2.2"/>
	<circle class="st0" cx="63.1" cy="44.4" r="2.2"/>
	<circle class="st0" cx="73.1" cy="44.4" r="2.2"/>
	<circle class="st0" cx="83.2" cy="44.4" r="2.2"/>
	<circle class="st0" cx="93.3" cy="44.4" r="2.2"/>
	<circle class="st0" cx="2.7" cy="54.6" r="2.2"/>
	<circle class="st0" cx="12.7" cy="54.6" r="2.2"/>
	<circle class="st0" cx="22.8" cy="54.6" r="2.2"/>
	<circle class="st0" cx="32.9" cy="54.6" r="2.2"/>
	<circle class="st0" cx="42.9" cy="54.6" r="2.2"/>
	<circle class="st0" cx="53" cy="54.6" r="2.2"/>
	<circle class="st0" cx="63.1" cy="54.6" r="2.2"/>
	<circle class="st0" cx="73.1" cy="54.6" r="2.2"/>
	<circle class="st0" cx="83.2" cy="54.6" r="2.2"/>
	<circle class="st0" cx="93.3" cy="54.6" r="2.2"/>
	<circle class="st0" cx="2.7" cy="64.8" r="2.2"/>
	<circle class="st0" cx="12.7" cy="64.8" r="2.2"/>
	<circle class="st0" cx="22.8" cy="64.8" r="2.2"/>
	<circle class="st0" cx="32.9" cy="64.8" r="2.2"/>
	<circle class="st0" cx="42.9" cy="64.8" r="2.2"/>
	<circle class="st0" cx="53" cy="64.8" r="2.2"/>
	<circle class="st0" cx="63.1" cy="64.8" r="2.2"/>
	<circle class="st0" cx="73.1" cy="64.8" r="2.2"/>
	<circle class="st0" cx="83.2" cy="64.8" r="2.2"/>
	<circle class="st0" cx="93.3" cy="64.8" r="2.2"/>
	<circle class="st0" cx="2.7" cy="75" r="2.2"/>
	<circle class="st0" cx="12.7" cy="75" r="2.2"/>
	<circle class="st0" cx="22.8" cy="75" r="2.2"/>
	<circle class="st0" cx="32.9" cy="75" r="2.2"/>
	<circle class="st0" cx="42.9" cy="75" r="2.2"/>
	<circle class="st0" cx="53" cy="75" r="2.2"/>
	<circle class="st0" cx="63.1" cy="75" r="2.2"/>
	<circle class="st0" cx="73.1" cy="75" r="2.2"/>
	<circle class="st0" cx="83.2" cy="75" r="2.2"/>
	<circle class="st0" cx="93.3" cy="75" r="2.2"/>
	<circle class="st0" cx="2.7" cy="85.1" r="2.2"/>
	<circle class="st0" cx="12.7" cy="85.1" r="2.2"/>
	<circle class="st0" cx="22.8" cy="85.1" r="2.2"/>
	<circle class="st0" cx="32.9" cy="85.1" r="2.2"/>
	<circle class="st0" cx="42.9" cy="85.1" r="2.2"/>
	<circle class="st0" cx="53" cy="85.1" r="2.2"/>
	<circle class="st0" cx="63.1" cy="85.1" r="2.2"/>
	<circle class="st0" cx="73.1" cy="85.1" r="2.2"/>
	<circle class="st0" cx="83.2" cy="85.1" r="2.2"/>
	<circle class="st0" cx="93.3" cy="85.1" r="2.2"/>
</g>
</svg>
