<svg xmlns="http://www.w3.org/2000/svg" xmlns:xlink="http://www.w3.org/1999/xlink" viewBox="0 0 1523.26 430.94"><defs><style>.cls-1,.cls-13,.cls-17,.cls-19,.cls-20,.cls-23,.cls-6,.cls-7,.cls-9{fill:none;}.cls-2,.cls-21,.cls-4{fill:#fff;}.cls-2,.cls-23,.cls-4,.cls-8,.cls-9{stroke:#494066;}.cls-13,.cls-17,.cls-19,.cls-2,.cls-20,.cls-23,.cls-4,.cls-6,.cls-7,.cls-8,.cls-9{stroke-miterlimit:10;}.cls-2,.cls-23{stroke-width:7px;}.cls-3{fill:#f3f4f8;}.cls-4{stroke-width:12px;}.cls-5{clip-path:url(#clip-path);}.cls-17,.cls-19,.cls-20,.cls-6,.cls-7,.cls-8{stroke-width:10px;}.cls-6{stroke:url(#Degradado_sin_nombre_36);}.cls-7{stroke:url(#Degradado_sin_nombre_36-2);}.cls-10,.cls-8{fill:#494066;}.cls-9{stroke-width:5px;}.cls-11{fill:url(#Degradado_sin_nombre_36-3);}.cls-12{clip-path:url(#clip-path-2);}.cls-13{stroke:#fff;stroke-width:8px;}.cls-14{clip-path:url(#clip-path-3);}.cls-15{fill:url(#Degradado_sin_nombre_36-4);}.cls-16{clip-path:url(#clip-path-4);}.cls-17{stroke:url(#Degradado_sin_nombre_36-5);}.cls-18{clip-path:url(#clip-path-5);}.cls-19{stroke:url(#Degradado_sin_nombre_36-6);}.cls-20{stroke:url(#Degradado_sin_nombre_36-7);}.cls-22{clip-path:url(#clip-path-6);}.cls-24{fill:url(#Degradado_sin_nombre_36-8);}</style><clipPath id="clip-path" transform="translate(0 0)"><rect class="cls-1" x="700.51" y="74.78" width="219.61" height="212.04"/></clipPath><linearGradient id="Degradado_sin_nombre_36" x1="729.51" y1="286.73" x2="890.25" y2="286.73" gradientUnits="userSpaceOnUse"><stop offset="0" stop-color="#ff2e79"/><stop offset="1" stop-color="#c22998"/></linearGradient><linearGradient id="Degradado_sin_nombre_36-2" x1="761.86" y1="167.69" x2="857.91" y2="167.69" xlink:href="#Degradado_sin_nombre_36"/><linearGradient id="Degradado_sin_nombre_36-3" x1="1304.43" y1="221.98" x2="1513.63" y2="221.98" xlink:href="#Degradado_sin_nombre_36"/><clipPath id="clip-path-2" transform="translate(0 0)"><circle class="cls-1" cx="1409.03" cy="221.98" r="104.6"/></clipPath><clipPath id="clip-path-3" transform="translate(0 0)"><circle class="cls-1" cx="55.38" cy="75.26" r="55.38"/></clipPath><linearGradient id="Degradado_sin_nombre_36-4" x1="385.27" y1="58.69" x2="502.65" y2="58.69" xlink:href="#Degradado_sin_nombre_36"/><clipPath id="clip-path-4" transform="translate(0 0)"><circle class="cls-1" cx="443.96" cy="58.69" r="58.69"/></clipPath><linearGradient id="Degradado_sin_nombre_36-5" x1="151.19" y1="221.98" x2="370.39" y2="221.98" xlink:href="#Degradado_sin_nombre_36"/><clipPath id="clip-path-5" transform="translate(0 0)"><circle class="cls-1" cx="260.79" cy="221.98" r="104.6"/></clipPath><linearGradient id="Degradado_sin_nombre_36-6" x1="180.48" y1="317.03" x2="341.21" y2="317.03" xlink:href="#Degradado_sin_nombre_36"/><linearGradient id="Degradado_sin_nombre_36-7" x1="212.82" y1="197.98" x2="308.87" y2="197.98" xlink:href="#Degradado_sin_nombre_36"/><clipPath id="clip-path-6" transform="translate(0 0)"><circle class="cls-2" cx="1206.45" cy="340.31" r="53.48"/></clipPath><linearGradient id="Degradado_sin_nombre_36-8" x1="1044.39" y1="74.68" x2="1075.52" y2="74.68" xlink:href="#Degradado_sin_nombre_36"/></defs><g id="Capa_2" data-name="Capa 2"><g id="Capa_1-2" data-name="Capa 1"><circle class="cls-3" cx="100.51" cy="214.69" r="3.88"/><circle class="cls-3" cx="118.35" cy="214.69" r="3.88"/><circle class="cls-3" cx="136.18" cy="214.69" r="3.88"/><circle class="cls-3" cx="154.02" cy="214.69" r="3.88"/><circle class="cls-3" cx="171.86" cy="214.69" r="3.88"/><circle class="cls-3" cx="189.69" cy="214.69" r="3.88"/><circle class="cls-3" cx="207.53" cy="214.69" r="3.88"/><circle class="cls-3" cx="225.37" cy="214.69" r="3.88"/><circle class="cls-3" cx="243.2" cy="214.69" r="3.88"/><circle class="cls-3" cx="261.04" cy="214.69" r="3.88"/><circle class="cls-3" cx="100.51" cy="232.72" r="3.88"/><circle class="cls-3" cx="118.35" cy="232.72" r="3.88"/><circle class="cls-3" cx="136.18" cy="232.72" r="3.88"/><circle class="cls-3" cx="154.02" cy="232.72" r="3.88"/><circle class="cls-3" cx="171.86" cy="232.72" r="3.88"/><circle class="cls-3" cx="189.69" cy="232.72" r="3.88"/><circle class="cls-3" cx="207.53" cy="232.72" r="3.88"/><circle class="cls-3" cx="225.37" cy="232.72" r="3.88"/><circle class="cls-3" cx="243.2" cy="232.72" r="3.88"/><circle class="cls-3" cx="261.04" cy="232.72" r="3.88"/><circle class="cls-3" cx="100.51" cy="250.75" r="3.88"/><circle class="cls-3" cx="118.35" cy="250.75" r="3.88"/><circle class="cls-3" cx="136.18" cy="250.75" r="3.88"/><circle class="cls-3" cx="154.02" cy="250.75" r="3.88"/><circle class="cls-3" cx="171.86" cy="250.75" r="3.88"/><circle class="cls-3" cx="189.69" cy="250.75" r="3.88"/><circle class="cls-3" cx="207.53" cy="250.75" r="3.88"/><circle class="cls-3" cx="225.37" cy="250.75" r="3.88"/><circle class="cls-3" cx="243.2" cy="250.75" r="3.88"/><circle class="cls-3" cx="261.04" cy="250.75" r="3.88"/><circle class="cls-3" cx="100.51" cy="268.78" r="3.88"/><circle class="cls-3" cx="118.35" cy="268.78" r="3.88"/><circle class="cls-3" cx="136.18" cy="268.78" r="3.88"/><circle class="cls-3" cx="154.02" cy="268.78" r="3.88"/><circle class="cls-3" cx="171.86" cy="268.78" r="3.88"/><circle class="cls-3" cx="189.69" cy="268.78" r="3.88"/><circle class="cls-3" cx="207.53" cy="268.78" r="3.88"/><circle class="cls-3" cx="225.37" cy="268.78" r="3.88"/><circle class="cls-3" cx="243.2" cy="268.78" r="3.88"/><circle class="cls-3" cx="261.04" cy="268.78" r="3.88"/><circle class="cls-3" cx="100.51" cy="286.82" r="3.88"/><circle class="cls-3" cx="118.35" cy="286.82" r="3.88"/><circle class="cls-3" cx="136.18" cy="286.82" r="3.88"/><circle class="cls-3" cx="154.02" cy="286.82" r="3.88"/><circle class="cls-3" cx="171.86" cy="286.82" r="3.88"/><circle class="cls-3" cx="189.69" cy="286.82" r="3.88"/><circle class="cls-3" cx="207.53" cy="286.82" r="3.88"/><circle class="cls-3" cx="225.37" cy="286.82" r="3.88"/><circle class="cls-3" cx="243.2" cy="286.82" r="3.88"/><circle class="cls-3" cx="261.04" cy="286.82" r="3.88"/><circle class="cls-3" cx="100.51" cy="304.85" r="3.88"/><circle class="cls-3" cx="118.35" cy="304.85" r="3.88"/><circle class="cls-3" cx="136.18" cy="304.85" r="3.88"/><circle class="cls-3" cx="154.02" cy="304.85" r="3.88"/><circle class="cls-3" cx="171.86" cy="304.85" r="3.88"/><circle class="cls-3" cx="189.69" cy="304.85" r="3.88"/><circle class="cls-3" cx="207.53" cy="304.85" r="3.88"/><circle class="cls-3" cx="225.37" cy="304.85" r="3.88"/><circle class="cls-3" cx="243.2" cy="304.85" r="3.88"/><circle class="cls-3" cx="261.04" cy="304.85" r="3.88"/><circle class="cls-3" cx="100.51" cy="322.88" r="3.88"/><circle class="cls-3" cx="118.35" cy="322.88" r="3.88"/><circle class="cls-3" cx="136.18" cy="322.88" r="3.88"/><circle class="cls-3" cx="154.02" cy="322.88" r="3.88"/><circle class="cls-3" cx="171.86" cy="322.88" r="3.88"/><circle class="cls-3" cx="189.69" cy="322.88" r="3.88"/><circle class="cls-3" cx="207.53" cy="322.88" r="3.88"/><circle class="cls-3" cx="225.37" cy="322.88" r="3.88"/><circle class="cls-3" cx="243.2" cy="322.88" r="3.88"/><circle class="cls-3" cx="261.04" cy="322.88" r="3.88"/><circle class="cls-3" cx="100.51" cy="340.91" r="3.88"/><circle class="cls-3" cx="118.35" cy="340.91" r="3.88"/><circle class="cls-3" cx="136.18" cy="340.91" r="3.88"/><circle class="cls-3" cx="154.02" cy="340.91" r="3.88"/><circle class="cls-3" cx="171.86" cy="340.91" r="3.88"/><circle class="cls-3" cx="189.69" cy="340.91" r="3.88"/><circle class="cls-3" cx="207.53" cy="340.91" r="3.88"/><circle class="cls-3" cx="225.37" cy="340.91" r="3.88"/><circle class="cls-3" cx="243.2" cy="340.91" r="3.88"/><circle class="cls-3" cx="261.04" cy="340.91" r="3.88"/><circle class="cls-3" cx="100.51" cy="358.94" r="3.88"/><circle class="cls-3" cx="118.35" cy="358.94" r="3.88"/><circle class="cls-3" cx="136.18" cy="358.94" r="3.88"/><circle class="cls-3" cx="154.02" cy="358.94" r="3.88"/><circle class="cls-3" cx="171.86" cy="358.94" r="3.88"/><circle class="cls-3" cx="189.69" cy="358.94" r="3.88"/><circle class="cls-3" cx="207.53" cy="358.94" r="3.88"/><circle class="cls-3" cx="225.37" cy="358.94" r="3.88"/><circle class="cls-3" cx="243.2" cy="358.94" r="3.88"/><circle class="cls-3" cx="261.04" cy="358.94" r="3.88"/><rect class="cls-4" x="656.41" y="75.05" width="307.93" height="219.34"/><g class="cls-5"><circle class="cls-6" cx="809.88" cy="286.73" r="75.37"/><circle class="cls-7" cx="809.88" cy="167.69" r="43.03"/></g><polygon class="cls-8" points="994.89 355.93 625.71 355.93 656 294.39 964.6 294.39 994.89 355.93"/><polyline class="cls-9" points="964.6 116.43 1218.29 116.43 1218.29 222.45 1415.18 222.45"/><circle class="cls-10" cx="1214.97" cy="115.96" r="20.66"/><circle class="cls-10" cx="443.49" cy="221.98" r="24.84"/><circle class="cls-9" cx="550.49" cy="268.98" r="14.15"/><circle class="cls-11" cx="1409.03" cy="221.98" r="104.6"/><g class="cls-12"><circle class="cls-13" cx="1409.08" cy="317.03" r="75.37"/><circle class="cls-13" cx="1409.08" cy="197.98" r="43.03"/></g><circle class="cls-10" cx="55.38" cy="75.26" r="55.38"/><g class="cls-14"><circle class="cls-13" cx="55.41" cy="125.57" r="39.9"/><circle class="cls-13" cx="55.41" cy="62.55" r="22.78"/></g><circle class="cls-15" cx="443.96" cy="58.69" r="58.69"/><g class="cls-16"><circle class="cls-13" cx="443.99" cy="112.02" r="42.29"/><circle class="cls-13" cx="443.99" cy="45.22" r="24.14"/></g><polyline class="cls-9" points="110.75 74.78 260.32 74.78 260.32 117.38"/><line class="cls-9" x1="364.92" y1="221.98" x2="656.41" y2="221.98"/><circle class="cls-17" cx="260.79" cy="221.98" r="104.6"/><g class="cls-18"><circle class="cls-19" cx="260.85" cy="317.03" r="75.37"/><circle class="cls-20" cx="260.85" cy="197.98" r="43.03"/></g><circle class="cls-21" cx="1206.45" cy="340.31" r="53.48"/><g class="cls-22"><circle class="cls-2" cx="1206.48" cy="388.9" r="38.54"/><circle class="cls-2" cx="1206.48" cy="328.03" r="22"/></g><circle class="cls-23" cx="1206.45" cy="340.31" r="53.48"/><line class="cls-9" x1="443.96" y1="117.38" x2="443.96" y2="221.98"/><line class="cls-9" x1="550.46" y1="223.88" x2="550.46" y2="265.82"/><polyline class="cls-9" points="1060.2 116.43 1060.2 339.83 1152.97 339.83"/><polyline class="cls-9" points="1408.55 326.58 1408.55 370.12 1483.81 370.12"/><path class="cls-10" d="M256.5,35.14v-11h9V35.14h11.05v9H265.53V55.22h-9V44.16H245.45v-9Z" transform="translate(0 0)"/><path class="cls-10" d="M1503.19,365.51V354.45h9v11.06h11v9h-11v11.05h-9V374.53h-11.06v-9Z" transform="translate(0 0)"/><path class="cls-24" d="M1055.44,70.16v-11h9v11h11.06v9h-11.06v11h-9v-11h-11v-9Z" transform="translate(0 0)"/></g></g></svg>