<svg xmlns="http://www.w3.org/2000/svg" xmlns:xlink="http://www.w3.org/1999/xlink" viewBox="0 0 505.86 686.51"><defs><style>.cls-1,.cls-15{fill:none;}.cls-2,.cls-4{fill:#fff;}.cls-15,.cls-2{stroke:#494066;stroke-miterlimit:10;stroke-width:7px;}.cls-3{fill:#f3f4f8;}.cls-5{fill:#494066;}.cls-6{clip-path:url(#clip-path);}.cls-7{fill:url(#Degradado_sin_nombre_36);}.cls-8{fill:url(#Degradado_sin_nombre_36-2);}.cls-9{clip-path:url(#clip-path-2);}.cls-10{fill:url(#Degradado_sin_nombre_36-3);}.cls-11{clip-path:url(#clip-path-3);}.cls-12{fill:url(#Degradado_sin_nombre_36-4);}.cls-13{fill:url(#Degradado_sin_nombre_36-5);}.cls-14{clip-path:url(#clip-path-4);}.cls-16{fill:url(#Degradado_sin_nombre_36-6);}.cls-17{fill:url(#Degradado_sin_nombre_36-7);}.cls-18{clip-path:url(#clip-path-5);}</style><clipPath id="clip-path"><rect class="cls-1" x="174.56" y="233.16" width="166.96" height="161.21"/></clipPath><linearGradient id="Degradado_sin_nombre_36" x1="195.41" y1="394.3" x2="320.01" y2="394.3" gradientUnits="userSpaceOnUse"><stop offset="0" stop-color="#ff2e79"/><stop offset="1" stop-color="#c22998"/></linearGradient><linearGradient id="Degradado_sin_nombre_36-2" x1="220" y1="303.79" x2="295.42" y2="303.79" xlink:href="#Degradado_sin_nombre_36"/><clipPath id="clip-path-2"><circle class="cls-1" cx="259.11" cy="141.93" r="55.38"/></clipPath><linearGradient id="Degradado_sin_nombre_36-3" x1="42.92" y1="559.78" x2="202.36" y2="559.78" xlink:href="#Degradado_sin_nombre_36"/><clipPath id="clip-path-3"><circle class="cls-1" cx="122.64" cy="559.78" r="74.72"/></clipPath><linearGradient id="Degradado_sin_nombre_36-4" x1="63.84" y1="627.67" x2="181.52" y2="627.67" xlink:href="#Degradado_sin_nombre_36"/><linearGradient id="Degradado_sin_nombre_36-5" x1="86.95" y1="542.63" x2="158.42" y2="542.63" xlink:href="#Degradado_sin_nombre_36"/><clipPath id="clip-path-4"><circle class="cls-2" cx="433.53" cy="72.33" r="68.83"/></clipPath><linearGradient id="Degradado_sin_nombre_36-6" x1="243.12" y1="556.35" x2="274.25" y2="556.35" xlink:href="#Degradado_sin_nombre_36"/><linearGradient id="Degradado_sin_nombre_36-7" x1="0" y1="182.37" x2="117.38" y2="182.37" xlink:href="#Degradado_sin_nombre_36"/><clipPath id="clip-path-5"><circle class="cls-1" cx="58.69" cy="182.37" r="58.69"/></clipPath></defs><g id="Capa_2" data-name="Capa 2"><g id="Capa_1-2" data-name="Capa 1"><circle class="cls-3" cx="37.24" cy="351.37" r="3.88"/><circle class="cls-3" cx="55.08" cy="351.37" r="3.88"/><circle class="cls-3" cx="72.91" cy="351.37" r="3.88"/><circle class="cls-3" cx="90.75" cy="351.37" r="3.88"/><circle class="cls-3" cx="108.59" cy="351.37" r="3.88"/><circle class="cls-3" cx="126.42" cy="351.37" r="3.88"/><circle class="cls-3" cx="144.26" cy="351.37" r="3.88"/><circle class="cls-3" cx="162.1" cy="351.37" r="3.88"/><circle class="cls-3" cx="179.93" cy="351.37" r="3.88"/><circle class="cls-3" cx="197.77" cy="351.37" r="3.88"/><circle class="cls-3" cx="37.24" cy="369.4" r="3.88"/><circle class="cls-3" cx="55.08" cy="369.4" r="3.88"/><circle class="cls-3" cx="72.91" cy="369.4" r="3.88"/><circle class="cls-3" cx="90.75" cy="369.4" r="3.88"/><circle class="cls-3" cx="108.59" cy="369.4" r="3.88"/><circle class="cls-3" cx="126.42" cy="369.4" r="3.88"/><circle class="cls-3" cx="144.26" cy="369.4" r="3.88"/><circle class="cls-3" cx="162.1" cy="369.4" r="3.88"/><circle class="cls-3" cx="179.93" cy="369.4" r="3.88"/><circle class="cls-3" cx="197.77" cy="369.4" r="3.88"/><circle class="cls-3" cx="37.24" cy="387.43" r="3.88"/><circle class="cls-3" cx="55.08" cy="387.43" r="3.88"/><circle class="cls-3" cx="72.91" cy="387.43" r="3.88"/><circle class="cls-3" cx="90.75" cy="387.43" r="3.88"/><circle class="cls-3" cx="108.59" cy="387.43" r="3.88"/><circle class="cls-3" cx="126.42" cy="387.43" r="3.88"/><circle class="cls-3" cx="144.26" cy="387.43" r="3.88"/><circle class="cls-3" cx="162.1" cy="387.43" r="3.88"/><circle class="cls-3" cx="179.93" cy="387.43" r="3.88"/><circle class="cls-3" cx="197.77" cy="387.43" r="3.88"/><circle class="cls-3" cx="37.24" cy="405.46" r="3.88"/><circle class="cls-3" cx="55.08" cy="405.46" r="3.88"/><circle class="cls-3" cx="72.91" cy="405.46" r="3.88"/><circle class="cls-3" cx="90.75" cy="405.46" r="3.88"/><circle class="cls-3" cx="108.59" cy="405.46" r="3.88"/><circle class="cls-3" cx="126.42" cy="405.46" r="3.88"/><circle class="cls-3" cx="144.26" cy="405.46" r="3.88"/><circle class="cls-3" cx="162.1" cy="405.46" r="3.88"/><circle class="cls-3" cx="179.93" cy="405.46" r="3.88"/><circle class="cls-3" cx="197.77" cy="405.46" r="3.88"/><circle class="cls-3" cx="37.24" cy="423.49" r="3.88"/><circle class="cls-3" cx="55.08" cy="423.49" r="3.88"/><circle class="cls-3" cx="72.91" cy="423.49" r="3.88"/><circle class="cls-3" cx="90.75" cy="423.49" r="3.88"/><circle class="cls-3" cx="108.59" cy="423.49" r="3.88"/><circle class="cls-3" cx="126.42" cy="423.49" r="3.88"/><circle class="cls-3" cx="144.26" cy="423.49" r="3.88"/><circle class="cls-3" cx="162.1" cy="423.49" r="3.88"/><circle class="cls-3" cx="179.93" cy="423.49" r="3.88"/><circle class="cls-3" cx="197.77" cy="423.49" r="3.88"/><circle class="cls-3" cx="37.24" cy="441.52" r="3.88"/><circle class="cls-3" cx="55.08" cy="441.52" r="3.88"/><circle class="cls-3" cx="72.91" cy="441.52" r="3.88"/><circle class="cls-3" cx="90.75" cy="441.52" r="3.88"/><circle class="cls-3" cx="108.59" cy="441.52" r="3.88"/><circle class="cls-3" cx="126.42" cy="441.52" r="3.88"/><circle class="cls-3" cx="144.26" cy="441.52" r="3.88"/><circle class="cls-3" cx="162.1" cy="441.52" r="3.88"/><circle class="cls-3" cx="179.93" cy="441.52" r="3.88"/><circle class="cls-3" cx="197.77" cy="441.52" r="3.88"/><circle class="cls-3" cx="37.24" cy="459.55" r="3.88"/><circle class="cls-3" cx="55.08" cy="459.55" r="3.88"/><circle class="cls-3" cx="72.91" cy="459.55" r="3.88"/><circle class="cls-3" cx="90.75" cy="459.55" r="3.88"/><circle class="cls-3" cx="108.59" cy="459.55" r="3.88"/><circle class="cls-3" cx="126.42" cy="459.55" r="3.88"/><circle class="cls-3" cx="144.26" cy="459.55" r="3.88"/><circle class="cls-3" cx="162.1" cy="459.55" r="3.88"/><circle class="cls-3" cx="179.93" cy="459.55" r="3.88"/><circle class="cls-3" cx="197.77" cy="459.55" r="3.88"/><circle class="cls-3" cx="37.24" cy="477.58" r="3.88"/><circle class="cls-3" cx="55.08" cy="477.58" r="3.88"/><circle class="cls-3" cx="72.91" cy="477.58" r="3.88"/><circle class="cls-3" cx="90.75" cy="477.58" r="3.88"/><circle class="cls-3" cx="108.59" cy="477.58" r="3.88"/><circle class="cls-3" cx="126.42" cy="477.58" r="3.88"/><circle class="cls-3" cx="144.26" cy="477.58" r="3.88"/><circle class="cls-3" cx="162.1" cy="477.58" r="3.88"/><circle class="cls-3" cx="179.93" cy="477.58" r="3.88"/><circle class="cls-3" cx="197.77" cy="477.58" r="3.88"/><circle class="cls-3" cx="37.24" cy="495.62" r="3.88"/><circle class="cls-3" cx="55.08" cy="495.62" r="3.88"/><circle class="cls-3" cx="72.91" cy="495.62" r="3.88"/><circle class="cls-3" cx="90.75" cy="495.62" r="3.88"/><circle class="cls-3" cx="108.59" cy="495.62" r="3.88"/><circle class="cls-3" cx="126.42" cy="495.62" r="3.88"/><circle class="cls-3" cx="144.26" cy="495.62" r="3.88"/><circle class="cls-3" cx="162.1" cy="495.62" r="3.88"/><circle class="cls-3" cx="179.93" cy="495.62" r="3.88"/><circle class="cls-3" cx="197.77" cy="495.62" r="3.88"/><rect class="cls-4" x="141.04" y="233.37" width="234.11" height="166.76"/><path class="cls-5" d="M381.15,406.12H135V227.36H381.15ZM147,394.12H369.15V239.36H147Z"/><g class="cls-6"><path class="cls-7" d="M257.71,456.6A62.3,62.3,0,1,1,320,394.3,62.37,62.37,0,0,1,257.71,456.6Zm0-114.6A52.3,52.3,0,1,0,310,394.3,52.36,52.36,0,0,0,257.71,342Z"/><path class="cls-8" d="M257.71,341.5a37.71,37.71,0,1,1,37.71-37.71A37.75,37.75,0,0,1,257.71,341.5Zm0-65.42a27.71,27.71,0,1,0,27.71,27.71A27.74,27.74,0,0,0,257.71,276.08Z"/></g><polygon class="cls-5" points="398.36 446.9 117.69 446.9 140.72 400.12 375.33 400.12 398.36 446.9"/><path class="cls-5" d="M406.4,451.9H109.66l28-56.78H378.44Zm-280.67-10h264.6l-18.11-36.78H143.83Z"/><circle class="cls-5" cx="257.7" cy="500.64" r="16.66"/><path class="cls-5" d="M468.22,330.3a16.65,16.65,0,1,1,16.64-16.64A16.66,16.66,0,0,1,468.22,330.3Zm0-28.29a11.65,11.65,0,1,0,11.64,11.65A11.66,11.66,0,0,0,468.22,302Z"/><path class="cls-5" d="M91.22,386.3a16.65,16.65,0,1,1,16.64-16.64A16.66,16.66,0,0,1,91.22,386.3Zm0-28.29a11.65,11.65,0,1,0,11.64,11.65A11.66,11.66,0,0,0,91.22,358Z"/><circle class="cls-5" cx="259.11" cy="141.93" r="55.38"/><g class="cls-9"><path class="cls-4" d="M259.14,236.15a43.9,43.9,0,1,1,43.9-43.9A43.95,43.95,0,0,1,259.14,236.15Zm0-79.8a35.9,35.9,0,1,0,35.9,35.9A35.94,35.94,0,0,0,259.14,156.35Z"/><path class="cls-4" d="M259.14,156a26.78,26.78,0,1,1,26.77-26.77A26.8,26.8,0,0,1,259.14,156Zm0-45.55a18.78,18.78,0,1,0,18.77,18.78A18.8,18.8,0,0,0,259.14,110.45Z"/></g><path class="cls-10" d="M122.64,639.5a79.72,79.72,0,1,1,79.72-79.72A79.81,79.81,0,0,1,122.64,639.5Zm0-149.44a69.72,69.72,0,1,0,69.72,69.72A69.8,69.8,0,0,0,122.64,490.06Z"/><g class="cls-11"><path class="cls-12" d="M122.68,686.51a58.84,58.84,0,1,1,58.84-58.84A58.91,58.91,0,0,1,122.68,686.51Zm0-107.67a48.84,48.84,0,1,0,48.84,48.83A48.89,48.89,0,0,0,122.68,578.84Z"/><path class="cls-13" d="M122.68,578.37a35.74,35.74,0,1,1,35.74-35.74A35.77,35.77,0,0,1,122.68,578.37Zm0-61.47a25.74,25.74,0,1,0,25.74,25.73A25.76,25.76,0,0,0,122.68,516.9Z"/></g><circle class="cls-4" cx="433.53" cy="72.33" r="68.83"/><g class="cls-14"><circle class="cls-2" cx="433.57" cy="134.88" r="49.59"/><circle class="cls-2" cx="433.57" cy="56.54" r="28.31"/></g><circle class="cls-15" cx="433.53" cy="72.33" r="68.83"/><rect class="cls-5" x="88.69" y="314.56" width="5" height="41.94"/><rect class="cls-5" x="256.69" y="192.56" width="5" height="41.94"/><polygon class="cls-5" points="140.86 315.99 56.43 315.99 56.43 226.49 61.43 226.49 61.43 310.99 140.86 310.99 140.86 315.99"/><rect class="cls-5" x="255.78" y="447.49" width="5" height="53.31"/><path class="cls-5" d="M463.23,263.82V252.76h9v11.06h11.05v9H472.26V283.9h-9V272.84H452.18v-9Z"/><path class="cls-5" d="M26.82,299.09v-9.46h7.72v9.46H44v7.72H34.54v9.45H26.82v-9.45H17.36v-7.72Z"/><path class="cls-16" d="M254.17,551.84V540.79h9v11.05h11.06v9H263.19v11h-9v-11h-11v-9Z"/><circle class="cls-17" cx="58.69" cy="182.37" r="58.69"/><g class="cls-18"><path class="cls-4" d="M58.72,282A46.29,46.29,0,1,1,105,235.7,46.34,46.34,0,0,1,58.72,282Zm0-84.57A38.29,38.29,0,1,0,97,235.7,38.33,38.33,0,0,0,58.72,197.41Z"/><path class="cls-4" d="M58.72,197A28.14,28.14,0,1,1,86.86,168.9,28.17,28.17,0,0,1,58.72,197Zm0-48.28A20.14,20.14,0,1,0,78.86,168.9,20.17,20.17,0,0,0,58.72,148.76Z"/></g><polygon class="cls-5" points="435.86 327.99 375.15 327.99 375.15 322.99 430.86 322.99 430.86 141.49 435.86 141.49 435.86 327.99"/></g></g></svg>