<svg xmlns="http://www.w3.org/2000/svg" viewBox="0 0 123.99 30"><defs><style>.cls-18{fill:#fff;}</style></defs><g id="Capa_2" data-name="Capa 2"><g id="Capa_1-2" data-name="Capa 1"><path class="cls-18" d="M13.64,24.63c-3.66,0-6.08-1.89-6.85-6.09,8.15-.41,17.13-1.89,17.13-9.86,0-5.31-3.78-8.68-10-8.68C5.73,0,0,6.5,0,16,0,25,4.78,29.88,12.87,30c5,0,9.22-1.71,11.81-5.85l-3.89-3.24A7.89,7.89,0,0,1,13.64,24.63ZM13.28,5.31C16,5.31,17.36,6.56,17.36,9c0,4.19-6.2,5-11.28,5.13C6.43,8.56,9,5.31,13.28,5.31ZM61.83.77h6.55L57.69,29.29H51L40.33.77h6.91l6.2,17.89,1.13,4.55,1.12-4.55ZM84,24.63c-3.66,0-6.08-1.89-6.85-6.09,8.15-.41,17.13-1.89,17.13-9.86,0-5.31-3.78-8.68-10-8.68C76.12,0,70.39,6.5,70.39,16c0,9,4.78,13.93,12.87,14.05,5,0,9.22-1.71,11.82-5.85l-3.9-3.24A7.89,7.89,0,0,1,84,24.63Zm.18-19.32c2.72,0,4.07,1.25,4.07,3.67,0,4.19-6.2,5-11.28,5.13C77.36,8.56,80,5.31,84.21,5.31Zm39.78,24-5.63-11.37a8.64,8.64,0,0,0,5.09-8.06c0-5.46-4-9.09-10.15-9.09H100.5V29.29h6.42V20a33.1,33.1,0,0,0,5.76-.34l4.53,9.63ZM106.92,15V6h6.67c2.35,0,3.83,1.51,3.83,4C117.42,14.54,111.8,15,106.92,15ZM39.54,17.41h-12V12.59h12Z"/></g></g></svg>