<?xml version="1.0" encoding="utf-8"?>
<!-- Generator: Adobe Illustrator 24.1.1, SVG Export Plug-In . SVG Version: 6.00 Build 0)  -->
<svg version="1.1" id="Capa_1" xmlns="http://www.w3.org/2000/svg" xmlns:xlink="http://www.w3.org/1999/xlink" x="0px" y="0px"
	 viewBox="0 0 118.6 128.1" style="enable-background:new 0 0 118.6 128.1;" xml:space="preserve">
<style type="text/css">
	.st0{fill:#494066;}
	.st1{fill:url(#SVGID_1_);}
	.st2{fill:url(#SVGID_2_);}
	.st3{fill:url(#SVGID_3_);}
	.st4{fill:#FFFFFF;}
</style>
<g>
	<path class="st0" d="M84.4,97.2L27.8,64.6L84.3,32L84.4,97.2L84.4,97.2z M34.5,64.6l46.7,27v-54L34.5,64.6z"/>
	
		<linearGradient id="SVGID_1_" gradientUnits="userSpaceOnUse" x1="15.95" y1="778.5" x2="55.83" y2="778.5" gradientTransform="matrix(1 0 0 1 0 -714)">
		<stop  offset="0" style="stop-color:#FF2E79"/>
		<stop  offset="1" style="stop-color:#C22998"/>
	</linearGradient>
	<circle class="st1" cx="35.8" cy="64.5" r="19.9"/>
	
		<linearGradient id="SVGID_2_" gradientUnits="userSpaceOnUse" x1="62.85" y1="751.3" x2="102.73" y2="751.3" gradientTransform="matrix(1 0 0 1 0 -714)">
		<stop  offset="0" style="stop-color:#FF2E79"/>
		<stop  offset="1" style="stop-color:#C22998"/>
	</linearGradient>
	<circle class="st2" cx="82.8" cy="37.3" r="19.9"/>
	
		<linearGradient id="SVGID_3_" gradientUnits="userSpaceOnUse" x1="62.85" y1="804.9" x2="102.73" y2="804.9" gradientTransform="matrix(1 0 0 1 0 -714)">
		<stop  offset="0" style="stop-color:#FF2E79"/>
		<stop  offset="1" style="stop-color:#C22998"/>
	</linearGradient>
	<circle class="st3" cx="82.8" cy="90.9" r="19.9"/>
	<path class="st0" d="M35.8,86.1c-11.9,0-21.6-9.7-21.6-21.6s9.7-21.6,21.6-21.6s21.6,9.7,21.6,21.6l0,0
		C57.4,76.4,47.8,86.1,35.8,86.1z M35.8,46.2c-10.1,0-18.3,8.2-18.3,18.3c0,10.1,8.2,18.3,18.3,18.3l0,0c10.1,0,18.3-8.2,18.3-18.3
		C54.1,54.4,46,46.2,35.8,46.2z"/>
	<path class="st4" d="M42.3,57.9l-2.4,2.3c-2.2-1.8-5.4-1.8-7.5,0.2c-1.9,1.8-2.4,4.7-1.2,7c1.2,2.3,3.7,3.5,6.3,3
		c2.1-0.5,3.8-2.1,3.8-3.9h-5v-3.1h8.5c0.8,4.2-1.5,9.6-7.4,10.3c-5,0.4-9.4-3.4-9.8-8.4c-0.3-4.6,2.7-8.6,7.2-9.6
		C37.5,55.2,40.3,56,42.3,57.9z"/>
	<path class="st4" d="M80.3,37.5l-1.9-0.1v-3.2h1.9V34c0-0.9,0-1.7,0-2.6c0-0.7,0.2-1.4,0.6-2c0.5-0.6,1.1-1,1.9-1.1
		c0.8-0.2,1.7-0.2,2.6-0.2h1.5v3.4h-0.2c-0.7,0-1.3,0-2,0c-0.4,0-0.5,0.2-0.6,0.5c0,0.7,0,1.4,0,2.1h2.8l-0.3,3.2h-2.5v9.2
		c-1.3,0.1-2.5,0-3.8,0.1V37.5z"/>
	<path class="st4" d="M82.8,101.3c-1.4,0-2.8,0-4.2-0.1c-1.2,0-2.3-0.3-3.3-0.8c-1.4-0.8-2.3-2.1-2.5-3.7c-0.2-0.9-0.2-1.9-0.2-2.8
		c0-2,0-4.1,0-6.1c0-1,0.1-2.1,0.4-3.1c0.6-1.8,2.1-3.2,3.9-3.6c1-0.2,2-0.3,3.1-0.3c2,0,4,0,6.1,0c1.1,0,2.2,0.1,3.2,0.4
		c1.9,0.6,3.2,2.2,3.5,4.1c0.2,0.9,0.2,1.9,0.2,2.8c0,2,0,4.1,0,6.1c0,1.1-0.1,2.1-0.4,3.1c-0.6,1.8-2.1,3.2-3.9,3.6
		c-1,0.2-2,0.3-3,0.3C84.7,101.2,83.8,101.2,82.8,101.3L82.8,101.3z M91.2,91c0,0,0-1.8,0-2.6c0-0.9-0.1-1.7-0.2-2.6
		c-0.1-1.2-0.9-2.2-2-2.7c-0.6-0.3-1.3-0.4-2-0.4c-1.9,0-3.8-0.1-5.6-0.1c-1.2,0-2.3,0-3.5,0.1c-1.7,0.1-3,1.3-3.3,2.9
		c-0.1,0.7-0.2,1.5-0.2,2.3c0,1.4,0,2.8,0,4.3c0,1.3,0,2.5,0.1,3.8c0.1,1.6,1.3,3,2.9,3.3c0.9,0.2,1.9,0.2,2.9,0.2
		c1.7,0,3.4,0,5.1,0c0.8,0,1.6-0.1,2.4-0.1c0.7-0.1,1.4-0.3,2-0.8c0.9-0.7,1.4-1.8,1.4-3C91.2,94,91.2,92.5,91.2,91L91.2,91z"/>
	<path class="st4" d="M82.8,96.3c-2.9,0-5.3-2.4-5.2-5.3s2.3-5.3,5.2-5.3s5.2,2.3,5.2,5.2C88.1,93.8,85.8,96.2,82.8,96.3
		C82.8,96.3,82.8,96.3,82.8,96.3z M82.8,94.4c1.9,0,3.4-1.5,3.4-3.4s-1.5-3.4-3.4-3.4s-3.4,1.5-3.4,3.4l0,0
		C79.3,92.9,80.8,94.4,82.8,94.4z"/>
	<path class="st0" d="M82.8,58.8c-11.9,0-21.6-9.7-21.5-21.6s9.6-21.5,21.5-21.5s21.6,9.7,21.6,21.6S94.7,58.8,82.8,58.8z M82.8,19
		c-10.1,0-18.3,8.2-18.3,18.3s8.2,18.3,18.3,18.3l0,0c10.1,0,18.3-8.2,18.3-18.3S92.8,19,82.8,19L82.8,19z"/>
	<path class="st0" d="M82.8,112.4c-11.9,0-21.6-9.7-21.6-21.6s9.7-21.5,21.6-21.5s21.6,9.7,21.6,21.6l0,0
		C104.3,102.8,94.7,112.4,82.8,112.4z M82.8,72.6c-10.1,0.2-18.1,8.6-17.9,18.7c0.2,9.8,8.1,17.6,17.9,17.9l0,0
		c10.1,0.2,18.5-7.8,18.7-17.9s-7.7-18.5-17.8-18.7C83.3,72.6,83.1,72.6,82.8,72.6z"/>
</g>
</svg>
