<?xml version="1.0" encoding="utf-8"?>
<!-- Generator: Adobe Illustrator 24.1.1, SVG Export Plug-In . SVG Version: 6.00 Build 0)  -->
<svg version="1.1" id="Capa_1" xmlns="http://www.w3.org/2000/svg" xmlns:xlink="http://www.w3.org/1999/xlink" x="0px" y="0px"
	 viewBox="0 0 118.8 128" style="enable-background:new 0 0 118.8 128;" xml:space="preserve">
<style type="text/css">
	.st0{fill:#FFFFFF;}
	.st1{fill:#494066;}
	.st2{fill:none;}
	.st3{fill:url(#SVGID_1_);}
</style>
<g>
	<polygon class="st0" points="108.9,96.4 97.2,96.4 97.3,109.2 79.9,96.4 32.7,96.4 32.7,46.6 108.9,46.6 	"/>
	<path class="st1" d="M98.8,112.1L79.4,97.8H31.2V45.2h79.1v52.6H98.6L98.8,112.1z M34.1,94.9h46.2l15.5,11.4V94.9h11.7V48.1H34.1
		V94.9z"/>
	<line class="st2" x1="43.9" y1="65.2" x2="98.9" y2="65.2"/>
	<rect x="43.9" y="63.8" class="st1" width="55" height="2.9"/>
	<line class="st2" x1="43.9" y1="73.1" x2="98.9" y2="73.1"/>
	<rect x="43.9" y="71.7" class="st1" width="55" height="2.9"/>
	<line class="st2" x1="43.9" y1="81" x2="98.9" y2="81"/>
	<rect x="43.9" y="79.6" class="st1" width="55" height="2.9"/>
	<circle class="st0" cx="32.8" cy="56.5" r="22.8"/>
	<path class="st1" d="M32.8,80.8c-13.4,0-24.3-10.9-24.3-24.3s10.9-24.3,24.3-24.3S57,43,57.1,56.4C57.1,69.9,46.2,80.8,32.8,80.8
		L32.8,80.8z M32.8,35.2c-11.8,0-21.3,9.5-21.3,21.3S21,77.9,32.8,77.9s21.3-9.6,21.3-21.3c0,0,0,0,0-0.1
		C54.1,44.7,44.6,35.2,32.8,35.2L32.8,35.2z"/>
	<path class="st0" d="M44.9,50.1h-9.4l1.9-5.7c0.4-1.9-0.6-2.9-1.7-2.9h-1c-1.1,0-1.7,1.3-1.9,2.2c-0.9,2.2-2.1,4.4-3.4,6.4v17.8
		h11.9c1.2,0,2.2-1,2.2-2.2l0,0c0-1.2-1-2.2-2.2-2.2h0.8c1.2,0,2.2-1,2.2-2.2l0,0c0-1.2-1-2.2-2.2-2.2h1.1c1.2,0,2.2-1,2.2-2.2l0,0
		c0-1.2-1-2.2-2.2-2.2H45c1.2,0,2.2-1,2.2-2.2l0,0C47.1,51,46.1,50.1,44.9,50.1z"/>
	<path class="st1" d="M41.3,69.3H27.9V49.7l0.2-0.4c1.2-1.9,2.3-3.9,3.2-6c0.6-2.1,1.8-3.4,3.4-3.4h1c1,0,1.9,0.5,2.5,1.2
		c0.7,1,1,2.3,0.6,3.5v0.1l-1.3,3.8h7.4c2,0,3.7,1.7,3.7,3.7c0,1.4-0.7,2.6-1.9,3.2c0.1,0.4,0.2,0.8,0.2,1.2c0,1.1-0.5,2.2-1.4,2.9
		c0.2,0.5,0.3,1,0.3,1.6c0,1.1-0.5,2.1-1.3,2.8c0.3,0.5,0.4,1.1,0.4,1.7C44.9,67.7,43.3,69.3,41.3,69.3z M30.9,66.4h10.4
		c0.4,0.1,0.8-0.2,0.8-0.7c0.1-0.4-0.2-0.8-0.7-0.8c-0.1,0-0.1,0-0.2,0V62H42c0.4,0,0.7-0.3,0.7-0.7s-0.3-0.7-0.7-0.7v-2.9h1.1
		c0.4-0.1,0.7-0.4,0.7-0.8c0-0.3-0.3-0.6-0.7-0.7v-2.9h1.8c0.4,0,0.7-0.3,0.7-0.7s-0.3-0.7-0.7-0.7l0,0H33.5l2.5-7.6
		c0.1-0.3,0.1-0.7-0.1-1c0-0.1-0.1-0.1-0.2-0.1h-1c-0.3,0.3-0.5,0.7-0.6,1.1c-0.9,2.3-2,4.5-3.3,6.5L30.9,66.4L30.9,66.4z"/>
	<rect x="21.7" y="50.1" class="st0" width="7.7" height="17.7"/>
	<path class="st1" d="M30.9,69.3H20.2V48.7h10.6L30.9,69.3L30.9,69.3z M23.2,66.4H28V51.6h-4.8V66.4z"/>
	<circle class="st0" cx="85.5" cy="37" r="19.6"/>
	<path class="st1" d="M85.5,58c-11.6,0-21.1-9.4-21.1-21.1s9.5-21,21.1-21s21,9.4,21,21.1C106.5,48.6,97.1,58,85.5,58z M85.5,18.9
		c-10,0-18.1,8.1-18.1,18.1s8.1,18.1,18.1,18.1S103.6,47,103.6,37S95.5,18.8,85.5,18.9L85.5,18.9z"/>
	
		<linearGradient id="SVGID_1_" gradientUnits="userSpaceOnUse" x1="72.9" y1="752.25" x2="98.0265" y2="752.25" gradientTransform="matrix(1 0 0 1 0 -714)">
		<stop  offset="0" style="stop-color:#FF2E79"/>
		<stop  offset="1" style="stop-color:#C22998"/>
	</linearGradient>
	<path class="st3" d="M98,34.8c0-3.6-2.9-6.6-6.5-6.6c-2.6,0-5,1.6-6,4c-1.4-3.3-5.3-4.9-8.6-3.4c-2.4,1-4,3.4-4,6
		c0,0.1,0,0.4,0,0.4c0,7.5,12.2,13.1,12.2,13.1S98,42.7,98,35.2C98,35.2,98,34.9,98,34.8z"/>
</g>
</svg>
