<?xml version="1.0" encoding="utf-8"?>
<!-- Generator: Adobe Illustrator 24.1.1, SVG Export Plug-In . SVG Version: 6.00 Build 0)  -->
<svg version="1.1" id="Capa_1" xmlns="http://www.w3.org/2000/svg" xmlns:xlink="http://www.w3.org/1999/xlink" x="0px" y="0px"
	 viewBox="0 0 124.8 129" style="enable-background:new 0 0 124.8 129;" xml:space="preserve">
<style type="text/css">
	.st0{fill:#FFFFFF;}
	.st1{fill:#494066;}
	.st2{fill:none;}
	.st3{fill:url(#SVGID_1_);}
</style>
<rect x="24.4" y="40.8" class="st0" width="81.7" height="56.5"/>
<g>
	<polygon class="st1" points="108.2,99.5 22.4,99.5 22.4,91.1 24.5,91.1 24.5,97.3 106.1,97.3 106.1,41.3 23.5,41.3 23.5,39.1 
		108.2,39.1 	"/>
	<rect x="17.7" y="30.6" class="st0" width="83.7" height="60.6"/>
	<path class="st1" d="M102.4,92.2H16.6V29.5h85.8V92.2z M18.7,90.1h81.6V31.6H18.7V90.1z"/>
	<rect x="17.7" y="39.1" class="st1" width="83.7" height="2.1"/>
	<line class="st2" x1="60.7" y1="72.3" x2="94.3" y2="72.3"/>
	<rect x="60.7" y="71.2" class="st1" width="33.6" height="2.1"/>
	<line class="st2" x1="60.7" y1="77.7" x2="94.3" y2="77.7"/>
	<rect x="60.7" y="76.6" class="st1" width="33.6" height="2.1"/>
	<line class="st2" x1="60.7" y1="83" x2="94.3" y2="83"/>
	<rect x="60.7" y="81.9" class="st1" width="33.6" height="2.1"/>
	<line class="st2" x1="25" y1="72.3" x2="58.6" y2="72.3"/>
	<rect x="25" y="71.2" class="st1" width="33.6" height="2.1"/>
	<line class="st2" x1="25" y1="77.7" x2="58.6" y2="77.7"/>
	<rect x="25" y="76.6" class="st1" width="33.6" height="2.1"/>
	<line class="st2" x1="25" y1="83" x2="58.6" y2="83"/>
	<rect x="25" y="81.9" class="st1" width="33.6" height="2.1"/>
	<path class="st1" d="M83.2,41.3H71.4V29.5h11.8C83.2,29.5,83.2,41.3,83.2,41.3z M73.5,39.1H81v-7.5h-7.5V39.1z"/>
	<path class="st1" d="M92.8,41.3H81V29.5h11.8V41.3z M83.2,39.1h7.5v-7.5h-7.5V39.1z"/>
	<path class="st1" d="M102.4,41.3H90.7V29.5h11.8L102.4,41.3z M92.8,39.1h7.5v-7.5h-7.5V39.1z"/>
	
		<linearGradient id="SVGID_1_" gradientUnits="userSpaceOnUse" x1="25" y1="768.3" x2="94.1" y2="768.3" gradientTransform="matrix(1 0 0 1 0 -712)">
		<stop  offset="0" style="stop-color:#FF2E79"/>
		<stop  offset="1" style="stop-color:#C22998"/>
	</linearGradient>
	<rect x="25" y="45.8" class="st3" width="69.1" height="21"/>
	<path class="st1" d="M95.2,67.8H23.9V44.7h71.3L95.2,67.8z M26,65.7h67V46.8H26V65.7z"/>
</g>
</svg>
