<?xml version="1.0" encoding="utf-8"?>
<!-- Generator: Adobe Illustrator 24.1.1, SVG Export Plug-In . SVG Version: 6.00 Build 0)  -->
<svg version="1.1" id="Capa_1" xmlns="http://www.w3.org/2000/svg" xmlns:xlink="http://www.w3.org/1999/xlink" x="0px" y="0px"
	 viewBox="0 0 118.4 98.1" style="enable-background:new 0 0 118.4 98.1;" xml:space="preserve">
<style type="text/css">
	.st0{fill:#FFFFFF;}
	.st1{fill:#494066;}
	.st2{fill:url(#SVGID_1_);}
</style>
<g>
	<rect x="22" y="22.1" class="st0" width="74.5" height="53.8"/>
	<path class="st1" d="M97.4,76.9H21V21.1h76.3V76.9z M23,75h72.5v-52H23V75z"/>
	<path class="st1" d="M80.2,31.6H69.8V21.1h10.4V31.6z M71.7,29.7h6.6V23h-6.6V29.7z"/>
	<path class="st1" d="M88.8,31.6H78.4V21.1h10.4L88.8,31.6z M80.2,29.7h6.6V23h-6.6V29.7z"/>
	<path class="st1" d="M97.4,31.6H86.9V21.1h10.4C97.4,21.1,97.4,31.6,97.4,31.6z M88.8,29.7h6.6V23h-6.6V29.7z"/>
	<rect x="22" y="29.7" class="st1" width="74.5" height="1.9"/>
	
		<linearGradient id="SVGID_1_" gradientUnits="userSpaceOnUse" x1="30.1976" y1="-856.8553" x2="87.8632" y2="-856.8553" gradientTransform="matrix(1 0 0 -1 0 -796.1102)">
		<stop  offset="0" style="stop-color:#FF2E79"/>
		<stop  offset="1" style="stop-color:#C22998"/>
	</linearGradient>
	<rect x="30.2" y="45.5" class="st2" width="57.7" height="30.4"/>
	<path class="st1" d="M88.8,76.9H29.3V44.6h59.6L88.8,76.9C88.9,76.9,88.8,76.9,88.8,76.9z M31.1,75h55.8V46.5H31.1V75z"/>
	
		<rect x="45.7" y="47.6" transform="matrix(0.9752 -0.2212 0.2212 0.9752 -10.6617 12.0408)" class="st0" width="5.4" height="12.1"/>
	<path class="st1" d="M46.8,61.3l-3.1-13.7l7.2-1.7L54,59.6L46.8,61.3z M46,49l2.3,10l3.5-0.8l-2.3-10.1L46,49z"/>
	<polygon class="st0" points="72.6,59.6 52.8,58.9 50.1,47 67.7,37.8 	"/>
	<path class="st1" d="M73.9,60.5l-21.8-0.8L49,46.5l19.3-10.2L73.9,60.5z M53.6,58l17.8,0.6L67,39.2l-15.8,8.3L53.6,58z"/>
	
		<rect x="70.1" y="35.3" transform="matrix(0.9748 -0.2233 0.2233 0.9748 -9.0039 17.1875)" class="st0" width="2.7" height="26.3"/>
	<path class="st1" d="M72.4,62.7l-6.4-27.5l4.5-1l6.3,27.5L72.4,62.7z M68.4,36.6l5.4,23.7l0.8-0.2l-5.5-23.7L68.4,36.6z"/>
	<polygon class="st0" points="58.4,69.4 53.9,70.5 51.4,59.3 52.8,58.9 56,59.1 	"/>
	<path class="st1" d="M53.3,71.6l-3-13.1l2.5-0.6l4,0.2l2.7,12L53.3,71.6z M52.5,60l2.1,9.3l2.5-0.6l-2-8.7l-2.3-0.1L52.5,60z"/>
	<polygon class="st0" points="59.4,64.9 57.4,65.4 56,59.1 57.5,59.1 	"/>
	<path class="st1" d="M56.7,66.5l-1.9-8.4l3.5,0.2l2.4,7.4L56.7,66.5z M58,63.5l0.2,0.6l0,0L58,63.5z"/>
</g>
</svg>
