<?xml version="1.0" encoding="utf-8"?>
<!-- Generator: Adobe Illustrator 24.1.1, SVG Export Plug-In . SVG Version: 6.00 Build 0)  -->
<svg version="1.1" id="Capa_1" xmlns="http://www.w3.org/2000/svg" xmlns:xlink="http://www.w3.org/1999/xlink" x="0px" y="0px"
	 viewBox="0 0 118.6 128.1" style="enable-background:new 0 0 118.6 128.1;" xml:space="preserve">
<style type="text/css">
	.st0{fill:#F3F4F8;}
	.st1{fill:#494066;}
	.st2{fill:url(#SVGID_1_);}
	.st3{fill:url(#SVGID_2_);}
</style>
<rect x="30.9" y="35.9" class="st0" width="65.9" height="65.9"/>
<g>
	<path class="st1" d="M99.3,104.3H28.4V33.4h70.9V104.3z M30.9,101.8h65.9V35.9H30.9V101.8z"/>
	
		<linearGradient id="SVGID_1_" gradientUnits="userSpaceOnUse" x1="15.0163" y1="85.3098" x2="61.2463" y2="85.3098" gradientTransform="matrix(1 0 0 -1 0 127.8898)">
		<stop  offset="0" style="stop-color:#FF2E79"/>
		<stop  offset="1" style="stop-color:#C22998"/>
	</linearGradient>
	<path class="st2" d="M54.9,46.9c-0.4,1.3-0.9,2.5-1.6,3.6l4.5,4.2l-6.5,6l-4.5-4.1l-0.3,0.1c-1.2,0.6-2.4,1-3.7,1.4V64h-9.3v-5.9
		c-1.4-0.3-2.7-0.8-3.9-1.5l-4.5,4.2l-6.5-6l4.5-4.2l-0.2-0.2c-0.6-1.1-1.1-2.2-1.5-3.4H15v-8.6h6.4c0.4-1.3,0.9-2.5,1.6-3.6
		l-4.5-4.2l6.5-6.1l4.5,4.2l0.3-0.1c1.2-0.6,2.4-1,3.7-1.4v-5.9h9.3v5.9c1.4,0.4,2.7,0.9,3.9,1.5l4.5-4.2l6.5,6.1l-4.5,4.2l0.2,0.2
		c0.6,1.1,1.1,2.2,1.5,3.4h6.4v8.6H54.9z M38.3,35.1c-4.4,0-8,3.3-8,7.3s3.6,7.4,8,7.4s8-3.3,8-7.4S42.7,35.1,38.3,35.1z"/>
	<path class="st1" d="M44,65.2H32.3V59c-0.8-0.3-1.7-0.6-2.5-1l-4.8,4.4l-8.4-7.7l4.8-4.4c-0.4-0.7-0.7-1.4-1-2.2h-6.7v-11h6.8
		c0.3-0.7,0.6-1.5,1-2.1l-4.8-4.4l8.4-7.7l4.8,4.4c0.8-0.4,1.6-0.7,2.5-0.9V20H44v6.2c0.8,0.3,1.7,0.6,2.5,1l4.7-4.4l8.4,7.7
		L54.8,35c0.4,0.7,0.7,1.4,1,2.1h6.8v11h-6.8c-0.3,0.7-0.6,1.5-0.9,2.1l4.8,4.4l-8.4,7.7L46.4,58c-0.8,0.4-1.6,0.7-2.5,1L44,65.2z
		 M34.8,62.8h6.8v-5.7l0.9-0.2c1.2-0.3,2.3-0.7,3.4-1.3l0.1-0.1l0.9-0.5l4.3,4l4.7-4.4l-4.3-4l0.5-0.9c0.6-1,1.1-2.2,1.5-3.3
		l0.3-0.9H60v-6h-6.1l-0.3-0.9c-0.3-1.1-0.8-2.1-1.3-3.1l-0.1-0.1l-0.6-1l4.3-4l-4.8-4.3l-4.3,4l-0.8-0.4c-1.2-0.6-2.4-1.1-3.7-1.4
		l-0.9-0.2v-5.6h-6.7v5.6l-0.9,0.2c-1.2,0.3-2.3,0.7-3.4,1.3l-0.1,0.1l-0.9,0.5l-4.3-4l-4.7,4.4l4.3,4l-0.5,0.9
		c-0.6,1-1.1,2.2-1.5,3.3l-0.3,0.9h-6.1v6.1h6.1l0.3,0.9c0.3,1.1,0.8,2.1,1.4,3.1l0.1,0.1l0.6,1l-4.3,4l4.7,4.4l4.3-4l0.8,0.4
		c1.2,0.6,2.4,1.1,3.7,1.4l0.9,0.2L34.8,62.8z M38.3,51.1c-5.1,0-9.2-3.9-9.2-8.6s4.1-8.6,9.2-8.6s9.2,3.9,9.2,8.6
		S43.4,51.1,38.3,51.1z M38.3,36.3c-3.7,0-6.7,2.7-6.7,6.1s3,6.1,6.7,6.1s6.7-2.7,6.7-6.1S42,36.3,38.3,36.3z"/>
	
		<linearGradient id="SVGID_2_" gradientUnits="userSpaceOnUse" x1="761.1392" y1="968.2716" x2="786.3392" y2="968.2716" gradientTransform="matrix(0.7071 -0.7071 -0.7071 -0.7071 220.3102 1317.6874)">
		<stop  offset="0" style="stop-color:#FF2E79"/>
		<stop  offset="1" style="stop-color:#C22998"/>
	</linearGradient>
	<path class="st3" d="M67.5,63l8,8l-7.8,7.8l-8-8c-2,3.8-1.3,8.5,1.7,11.5l4,4c3.1,3.1,7.7,3.7,11.6,1.7l17.1,17.1
		c2.2,2.1,5.7,2,7.8-0.3c2-2.1,2-5.5,0-7.6L84.8,80.3c2.1-3.8,1.5-8.6-1.6-11.7l-4-4C76.1,61.5,71.3,60.8,67.5,63z"/>
	<path class="st1" d="M98,108.1c-1.8,0-3.5-0.7-4.8-2L76.7,89.6c-4.1,1.8-9,0.9-12.2-2.3l-4-4c-3.4-3.4-4.2-8.7-1.9-13l0.8-1.5
		l8.3,8.3l6.1-6.1l-8.3-8.3l1.4-0.8c4.3-2.4,9.7-1.7,13.2,1.8l4,4c3.2,3.3,4.1,8.2,2.3,12.3l16.4,16.4c2.7,2.7,2.6,7,0,9.6
		C101.5,107.4,99.8,108.1,98,108.1L98,108.1z M77.2,86.6L95,104.3c1.8,1.6,4.5,1.5,6.1-0.3c1.5-1.6,1.5-4.2,0-5.8L83.3,80.5l0.5-0.8
		c1.9-3.3,1.3-7.5-1.4-10.2l-4-4c-2.3-2.3-5.6-3.1-8.7-2.1l7.6,7.6l-9.6,9.6l-7.5-7.5c-0.9,3-0.1,6.2,2.2,8.5l4,4
		c2.7,2.6,6.7,3.2,10,1.4L77.2,86.6z"/>
</g>
</svg>
