<?xml version="1.0" encoding="utf-8"?>
<!-- Generator: Adobe Illustrator 24.1.1, SVG Export Plug-In . SVG Version: 6.00 Build 0)  -->
<svg version="1.1" id="Capa_1" xmlns="http://www.w3.org/2000/svg" xmlns:xlink="http://www.w3.org/1999/xlink" x="0px" y="0px"
	 viewBox="0 0 118.4 118" style="enable-background:new 0 0 118.4 118;" xml:space="preserve">
<style type="text/css">
	.st0{fill:#FFFFFF;}
	.st1{fill:#494066;}
	.st2{fill:url(#SVGID_1_);}
	.st3{fill:none;}
	.st4{fill:url(#SVGID_2_);}
	.st5{fill:url(#SVGID_3_);}
	.st6{fill:url(#SVGID_4_);}
	.st7{fill:url(#SVGID_5_);}
</style>
<g>
	<rect x="25.4" y="20.6" class="st0" width="67.6" height="82.4"/>
	<path class="st1" d="M94.2,104.3h-70V19.4h70V104.3z M26.6,101.8h65.2v-80H26.6V101.8z"/>
	
		<linearGradient id="SVGID_1_" gradientUnits="userSpaceOnUse" x1="47.7" y1="-797.0103" x2="70.7" y2="-797.0103" gradientTransform="matrix(1 0 0 -1 0 -776.1102)">
		<stop  offset="0" style="stop-color:#FF2E79"/>
		<stop  offset="1" style="stop-color:#C22998"/>
	</linearGradient>
	<rect x="47.7" y="15" class="st2" width="23" height="11.8"/>
	<path class="st1" d="M71.9,27.9H46.5V13.8h25.4V27.9z M48.9,25.5h20.6v-9.4H48.9V25.5z"/>
	<rect x="70.7" y="33.9" class="st0" width="12.2" height="12.2"/>
	<path class="st1" d="M84.2,47.3H69.5V32.7h14.6L84.2,47.3z M71.9,44.9h9.9v-9.8H72L71.9,44.9z"/>
	<rect x="70.7" y="49.7" class="st0" width="12.2" height="12.2"/>
	<path class="st1" d="M84.2,63.1H69.5V48.5h14.6L84.2,63.1z M71.9,60.8h9.8V51h-9.8V60.8z"/>
	<rect x="70.7" y="65.5" class="st0" width="12.2" height="12.2"/>
	<path class="st1" d="M84.2,79H69.5V64.3h14.6L84.2,79z M71.9,76.6h9.9v-9.8H72L71.9,76.6z"/>
	<rect x="70.7" y="81.3" class="st0" width="12.2" height="12.2"/>
	<path class="st1" d="M84.2,94.8H69.5V80.2h14.6L84.2,94.8z M71.9,92.3h9.9v-9.8H72L71.9,92.3z"/>
	<line class="st3" x1="33.6" y1="34.4" x2="66.4" y2="34.4"/>
	<rect x="33.6" y="33.2" class="st1" width="32.8" height="2.4"/>
	<line class="st3" x1="33.6" y1="40" x2="62" y2="40"/>
	<rect x="33.6" y="38.8" class="st1" width="28.5" height="2.4"/>
	<line class="st3" x1="33.6" y1="50.2" x2="66.4" y2="50.2"/>
	<rect x="33.6" y="49" class="st1" width="32.8" height="2.4"/>
	<line class="st3" x1="33.6" y1="55.8" x2="62" y2="55.8"/>
	<rect x="33.6" y="54.6" class="st1" width="28.5" height="2.4"/>
	<line class="st3" x1="33.6" y1="66" x2="66.4" y2="66"/>
	<rect x="33.6" y="64.8" class="st1" width="32.8" height="2.4"/>
	<line class="st3" x1="33.6" y1="71.6" x2="62" y2="71.6"/>
	<rect x="33.6" y="70.4" class="st1" width="28.5" height="2.4"/>
	<line class="st3" x1="33.6" y1="81.8" x2="66.4" y2="81.8"/>
	<rect x="33.6" y="80.6" class="st1" width="32.8" height="2.4"/>
	<line class="st3" x1="33.6" y1="87.5" x2="62" y2="87.5"/>
	<rect x="33.6" y="86.3" class="st1" width="28.5" height="2.4"/>
	
		<linearGradient id="SVGID_2_" gradientUnits="userSpaceOnUse" x1="73.1" y1="-814.1102" x2="87.4" y2="-814.1102" gradientTransform="matrix(1 0 0 -1 0 -776.1102)">
		<stop  offset="0" style="stop-color:#FF2E79"/>
		<stop  offset="1" style="stop-color:#C22998"/>
	</linearGradient>
	<polygon class="st4" points="77.3,43.9 73.1,37.9 75.1,36.6 77.6,40.2 85.7,32.1 87.4,33.8 	"/>
	
		<linearGradient id="SVGID_3_" gradientUnits="userSpaceOnUse" x1="73.1" y1="-829.2102" x2="87.4" y2="-829.2102" gradientTransform="matrix(1 0 0 -1 0 -776.1102)">
		<stop  offset="0" style="stop-color:#FF2E79"/>
		<stop  offset="1" style="stop-color:#C22998"/>
	</linearGradient>
	<polygon class="st5" points="77.3,59 73.1,53 75.1,51.7 77.6,55.3 85.7,47.2 87.4,48.9 	"/>
	
		<linearGradient id="SVGID_4_" gradientUnits="userSpaceOnUse" x1="73.1" y1="-845.0103" x2="87.4" y2="-845.0103" gradientTransform="matrix(1 0 0 -1 0 -776.1102)">
		<stop  offset="0" style="stop-color:#FF2E79"/>
		<stop  offset="1" style="stop-color:#C22998"/>
	</linearGradient>
	<polygon class="st6" points="77.3,74.8 73.1,68.8 75.1,67.5 77.6,71.1 85.7,63 87.4,64.7 	"/>
	
		<linearGradient id="SVGID_5_" gradientUnits="userSpaceOnUse" x1="73.1" y1="-860.6102" x2="87.4" y2="-860.6102" gradientTransform="matrix(1 0 0 -1 0 -776.1102)">
		<stop  offset="0" style="stop-color:#FF2E79"/>
		<stop  offset="1" style="stop-color:#C22998"/>
	</linearGradient>
	<polygon class="st7" points="77.3,90.4 73.1,84.4 75.1,83.1 77.6,86.7 85.7,78.6 87.4,80.3 	"/>
</g>
</svg>
