<?xml version="1.0" encoding="utf-8"?>
<!-- Generator: Adobe Illustrator 24.1.1, SVG Export Plug-In . SVG Version: 6.00 Build 0)  -->
<svg version="1.1" id="Capa_1" xmlns="http://www.w3.org/2000/svg" xmlns:xlink="http://www.w3.org/1999/xlink" x="0px" y="0px"
	 viewBox="0 0 118.6 128" style="enable-background:new 0 0 118.6 128;" xml:space="preserve">
<style type="text/css">
	.st0{fill:#FFFFFF;}
	.st1{fill:#494066;}
	.st2{fill:url(#SVGID_1_);}
	.st3{fill:url(#SVGID_2_);}
</style>
<g>
	<rect x="27.4" y="33" class="st0" width="21.2" height="21.2"/>
	<path class="st1" d="M49.9,55.6H26.2V31.7H50v23.8H49.9z M28.7,52.9h18.7V34.2H28.7V52.9z"/>
	<rect x="27.4" y="54.3" class="st0" width="21.2" height="21.2"/>
	<path class="st1" d="M49.9,76.8H26.2V52.9H50v23.8H49.9z M28.7,74.2h18.7V55.6H28.7V74.2z"/>
	<rect x="48.6" y="33" class="st0" width="21.2" height="21.2"/>
	<path class="st1" d="M71.2,55.6H47.4V31.7h23.8V55.6z M49.9,52.9h18.7V34.2H49.9V52.9z"/>
	<rect x="48.6" y="54.3" class="st0" width="21.2" height="21.2"/>
	<path class="st1" d="M71.2,76.8H47.4V52.9h23.8V76.8z M49.9,74.2h18.7V55.6H49.9V74.2z"/>
	<rect x="48.6" y="75.5" class="st0" width="21.2" height="21.2"/>
	<path class="st1" d="M71.2,98H47.4V74.2h23.8V98z M49.9,95.4h18.7V76.8H49.9V95.4z"/>
	
		<linearGradient id="SVGID_1_" gradientUnits="userSpaceOnUse" x1="69.9007" y1="939.6951" x2="91.1388" y2="939.6951" gradientTransform="matrix(1 0 0 1 0 -896.1102)">
		<stop  offset="0" style="stop-color:#FF2E79"/>
		<stop  offset="1" style="stop-color:#C22998"/>
	</linearGradient>
	<rect x="69.9" y="33" class="st2" width="21.2" height="21.2"/>
	<path class="st1" d="M92.4,55.6H68.6V31.7h23.8V55.6z M71.2,52.9h18.7V34.2H71.2V52.9z"/>
	<rect x="69.9" y="54.3" class="st0" width="21.2" height="21.2"/>
	<path class="st1" d="M92.4,76.8H68.6V52.9h23.8V76.8z M71.2,74.2h18.7V55.6H71.2V74.2z"/>
	<rect x="69.9" y="75.5" class="st0" width="21.2" height="21.2"/>
	<path class="st1" d="M92.4,98H68.6V74.2h23.8V98z M71.2,95.4h18.7V76.8H71.2V95.4z"/>
	<path class="st0" d="M64.1,25.3c1.5,0,2.6-1.3,2.6-2.6v1.7c0,1.5,1.2,2.7,2.6,2.7l0,0c1.5,0,2.6-1.2,2.6-2.6v1.9
		c0,1.5,1.2,2.7,2.7,2.7l0,0c1.5,0,2.6-1.2,2.6-2.6v13.6c0,1.5,1.2,2.7,2.6,2.7l0,0c1.5,0,2.6-1.2,2.6-2.6V20c0-0.3,0.2-0.5,0.5-0.5
		c0.1,0,0.3,0.1,0.4,0.2l1.6,1.6c1.1,1.1,2.7,1.1,3.7,0c1.1-1.1,1.1-2.7,0-3.7c0,0-6.3-9.8-9.8-9.8H64.8c-1.9,0-3.4,1.5-3.4,3.4l0,0
		v11.4C61.4,24.1,62.6,25.3,64.1,25.3L64.1,25.3z"/>
	<path class="st1" d="M80,44c-1.1,0-2-0.4-2.7-1.2c-0.7-0.7-1.2-1.8-1.2-2.8V30c-0.5,0.2-0.9,0.2-1.4,0.2c-1.1,0-2.1-0.4-2.8-1.2
		c-0.3-0.3-0.6-0.7-0.8-1.2c-0.5,0.2-1.1,0.4-1.7,0.4c-1.1,0-2.1-0.4-2.8-1.2c-0.3-0.3-0.6-0.6-0.7-1.1c-0.5,0.3-1.2,0.4-1.7,0.4
		l0,0c-1.1,0-2.1-0.4-2.8-1.2s-1.2-1.8-1.3-2.8V11.1c0-2.6,2.1-4.6,4.7-4.6H79c1.2,0,3.2,0.5,7.2,5.4c1.3,1.6,2.5,3.3,3.7,5
		c1.5,1.6,1.4,4.1-0.2,5.6c-1.6,1.5-4.1,1.4-5.6-0.2l0,0l-0.2-0.4v18.1C83.9,42.2,82.1,43.8,80,44L80,44z M78.6,26.3v13.6
		c0,0.4,0.1,0.7,0.4,1.1c0.2,0.2,0.6,0.4,0.9,0.4c0.7,0,1.4-0.6,1.4-1.4V20c0-0.7,0.4-1.4,1.2-1.7c0.7-0.3,1.5-0.1,2,0.4l1.6,1.6
		c0.5,0.5,1.4,0.5,1.9,0.1c0.6-0.5,0.6-1.5,0.1-2c0,0,0,0-0.1-0.1v-0.1C85,13.9,80.8,9,79.2,9H64.8c-1.2,0-2.1,0.9-2.1,2.1v11.4
		c0,0.4,0.2,0.7,0.4,1.1c0.2,0.2,0.6,0.4,0.9,0.4l0,0c0.7,0,1.4-0.6,1.4-1.4h2.6v1.7c0,0.4,0.1,0.7,0.4,1.1c0.2,0.2,0.6,0.4,0.9,0.4
		c0.7,0,1.4-0.6,1.4-1.4l0,0h2.5v1.9c0,0.4,0.2,0.7,0.4,1.1c0.2,0.2,0.6,0.4,0.9,0.4c0.7,0,1.4-0.6,1.3-1.4h2.6V26.3z"/>
	
		<linearGradient id="SVGID_2_" gradientUnits="userSpaceOnUse" x1="27.5459" y1="982.1606" x2="48.5835" y2="982.1606" gradientTransform="matrix(1 0 0 1 0 -896.1102)">
		<stop  offset="0" style="stop-color:#FF2E79"/>
		<stop  offset="1" style="stop-color:#C22998"/>
	</linearGradient>
	<circle class="st3" cx="38.1" cy="86.1" r="10.6"/>
	<path class="st1" d="M38,98c-6.5,0-11.9-5.4-11.9-11.9c0-6.5,5.4-11.9,11.9-11.9s11.9,5.4,11.9,11.9C49.9,92.7,44.6,98,38,98L38,98
		z M38,76.8c-5.2,0-9.3,4.2-9.3,9.3c0,5.2,4.2,9.3,9.3,9.3c5.2,0,9.3-4.2,9.3-9.3l0,0C47.4,81,43.2,76.8,38,76.8z"/>
	<path class="st0" d="M53.6,102.7c-1.5,0-2.6,1.3-2.6,2.6v-1.7c0-1.5-1.2-2.7-2.6-2.7l0,0c-1.5,0-2.6,1.2-2.6,2.6v-1.8
		c0-1.5-1.2-2.7-2.7-2.7l0,0c-1.5,0-2.6,1.2-2.6,2.6V88.1c0-1.5-1.2-2.7-2.6-2.7l0,0c-1.5,0-2.6,1.2-2.6,2.6v19.9
		c0,0.3-0.2,0.5-0.5,0.5c-0.1,0-0.3-0.1-0.4-0.2l-1.6-1.7c-1.1-1.1-2.7-1.1-3.8,0s-1.1,2.7,0,3.8c0,0,6.3,9.8,9.8,9.8H53
		c1.9,0,3.4-1.5,3.4-3.4l0,0v-11.4C56.3,103.9,55.1,102.7,53.6,102.7L53.6,102.7z"/>
	<path class="st1" d="M52.9,121.5H38.5c-1.2,0-3.2-0.5-7.2-5.4c-1.3-1.6-2.5-3.3-3.7-5c-1.5-1.6-1.3-4.1,0.3-5.6
		c1.6-1.4,4-1.3,5.4,0.2l0.3,0.3v-18c0-2.1,1.7-3.9,3.9-3.9c1.1,0,2.1,0.4,2.8,1.2c0.7,0.7,1.3,1.8,1.3,2.8v9.9
		c0.4-0.3,0.8-0.3,1.3-0.3c1.1,0,2.1,0.4,2.8,1.2c0.3,0.3,0.6,0.7,0.8,1.2c0.5-0.2,1.1-0.4,1.7-0.4c1.1,0,2,0.4,2.8,1.2
		c0.3,0.3,0.6,0.6,0.7,1.1c0.5-0.2,1.2-0.4,1.7-0.3l0,0c1.1,0,2,0.3,2.8,1.1c0.7,0.7,1.2,1.8,1.3,2.8v11.3
		C57.6,119.4,55.5,121.5,52.9,121.5L52.9,121.5z M30.6,107.3c-0.3,0-0.6,0.1-0.8,0.3c-0.5,0.5-0.5,1.5,0,2c0,0,0,0,0.1,0.1l0.1,0.1
		c2.8,4.4,7.1,9.2,8.7,9.2H53c1.2,0,2.1-0.9,2.1-2.1v-11.4c0-0.4-0.1-0.7-0.4-1.1c-0.2-0.2-0.6-0.4-0.9-0.4l0,0
		c-0.7,0-1.4,0.6-1.4,1.4h-2.6v-1.7c0-0.4-0.1-0.7-0.4-1.1c-0.2-0.2-0.6-0.4-0.9-0.4c-0.7,0-1.3,0.6-1.4,1.4h-2.6v-1.8
		c0-0.4-0.1-0.7-0.4-1.1c-0.2-0.2-0.6-0.4-0.9-0.4c-0.7,0-1.4,0.6-1.4,1.4h-2.6V88.1c0-0.4-0.1-0.7-0.4-1.1
		c-0.2-0.2-0.6-0.4-0.9-0.4c-0.7,0-1.4,0.6-1.4,1.4v19.9c0,0.7-0.4,1.5-1.2,1.7c-0.7,0.3-1.5,0.1-2-0.4l-1.6-1.6
		C31.3,107.4,31,107.3,30.6,107.3z"/>
</g>
</svg>
