<?xml version="1.0" encoding="utf-8"?>
<!-- Generator: Adobe Illustrator 24.1.1, SVG Export Plug-In . SVG Version: 6.00 Build 0)  -->
<svg version="1.1" id="Capa_1" xmlns="http://www.w3.org/2000/svg" xmlns:xlink="http://www.w3.org/1999/xlink" x="0px" y="0px"
	 viewBox="0 0 118.3 118" style="enable-background:new 0 0 118.3 118;" xml:space="preserve">
<style type="text/css">
	.st0{fill:#FFFFFF;}
	.st1{fill:#494066;}
	.st2{fill:none;}
	.st3{fill:url(#SVGID_1_);}
	.st4{clip-path:url(#SVGID_3_);}
</style>
<g>
	<rect x="33.2" y="28.5" class="st0" width="51.8" height="73.1"/>
	<path class="st1" d="M86.4,102.9H31.9V27.1h54.5V102.9z M34.6,100.2h49.1V29.8H34.6V100.2z"/>
	<line class="st2" x1="50.7" y1="33.6" x2="67.6" y2="33.6"/>
	<rect x="50.7" y="32.2" class="st1" width="16.9" height="2.7"/>
	<rect x="54.3" y="16.4" class="st0" width="9.7" height="17.1"/>
	<path class="st1" d="M65.3,34.9H53V15.1h12.3V34.9z M55.7,32.2h6.9V17.8h-7L55.7,32.2L55.7,32.2z"/>
	
		<linearGradient id="SVGID_1_" gradientUnits="userSpaceOnUse" x1="43.3541" y1="-831.9681" x2="74.8831" y2="-831.9681" gradientTransform="matrix(1 0 0 -1 0 -776.1102)">
		<stop  offset="0" style="stop-color:#FF2E79"/>
		<stop  offset="1" style="stop-color:#C22998"/>
	</linearGradient>
	<circle class="st3" cx="59.1" cy="55.9" r="15.8"/>
	<line class="st2" x1="44.9" y1="77.9" x2="73.4" y2="77.9"/>
	<rect x="44.9" y="76.6" class="st1" width="28.5" height="2.7"/>
	<line class="st2" x1="44.9" y1="84.9" x2="73.4" y2="84.9"/>
	<rect x="44.9" y="83.6" class="st1" width="28.5" height="2.7"/>
	<line class="st2" x1="44.9" y1="91.9" x2="73.4" y2="91.9"/>
	<rect x="44.9" y="90.6" class="st1" width="28.5" height="2.7"/>
	<g>
		<g>
			<g>
				<defs>
					<circle id="SVGID_2_" cx="59.1" cy="55.9" r="15.8"/>
				</defs>
				<clipPath id="SVGID_3_">
					<use xlink:href="#SVGID_2_"  style="overflow:visible;"/>
				</clipPath>
				<g class="st4">
					<path class="st0" d="M59.1,82.6c-6.8,0-12.4-5.6-12.4-12.4c0-6.8,5.6-12.5,12.4-12.5s12.5,5.6,12.5,12.4l0,0
						C71.6,77,66,82.6,59.1,82.6z M59.1,59.9c-5.7,0-10.3,4.6-10.3,10.3c0,5.7,4.6,10.3,10.3,10.3S69.4,76,69.4,70.2l0,0
						C69.4,64.6,64.8,59.9,59.1,59.9z"/>
					<path class="st0" d="M59.1,59.8c-4.2,0-7.5-3.4-7.5-7.5c0-4.2,3.4-7.5,7.5-7.5c4.2,0,7.5,3.4,7.5,7.5l0,0
						C66.6,56.4,63.3,59.8,59.1,59.8z M59.1,46.9c-3,0-5.4,2.4-5.4,5.4c0,3,2.4,5.4,5.4,5.4c3,0,5.4-2.4,5.4-5.4
						C64.5,49.3,62.1,46.9,59.1,46.9z"/>
				</g>
			</g>
		</g>
	</g>
	<path class="st1" d="M59.1,73C49.7,73,42,65.4,42,55.9s7.6-17.1,17.1-17.1c9.4,0,17.1,7.6,17.1,17.1c0,0,0,0,0,0.1
		C76.2,65.4,68.5,73,59.1,73z M59.1,41.5c-8,0-14.5,6.5-14.4,14.5c0,8,6.5,14.5,14.5,14.4c8,0,14.4-6.5,14.4-14.5
		S67.1,41.4,59.1,41.5z"/>
	<circle class="st1" cx="59.2" cy="21.1" r="1.7"/>
</g>
</svg>
