<svg xmlns="http://www.w3.org/2000/svg" xmlns:xlink="http://www.w3.org/1999/xlink" viewBox="0 0 640 470.62"><defs><style>.cls-1{fill:url(#Degradado_sin_nombre_36);}.cls-2{fill:#f3f4f8;}.cls-3{fill:#494066;}.cls-4{fill:url(#Degradado_sin_nombre_36-2);}.cls-5{fill:url(#Degradado_sin_nombre_36-3);}.cls-6{fill:url(#Degradado_sin_nombre_36-4);}.cls-7{fill:url(#Degradado_sin_nombre_36-5);}.cls-8{fill:url(#Degradado_sin_nombre_36-6);}.cls-9{fill:url(#Degradado_sin_nombre_36-7);}.cls-10{fill:url(#Degradado_sin_nombre_36-8);}.cls-11{fill:url(#Degradado_sin_nombre_36-9);}.cls-12{fill:url(#Degradado_sin_nombre_36-10);}.cls-13{fill:url(#Degradado_sin_nombre_36-11);}</style><linearGradient id="Degradado_sin_nombre_36" x1="496.66" y1="60.55" x2="559.09" y2="60.55" gradientUnits="userSpaceOnUse"><stop offset="0" stop-color="#ff2e79"/><stop offset="1" stop-color="#c22998"/></linearGradient><linearGradient id="Degradado_sin_nombre_36-2" x1="297.08" y1="296.16" x2="305.08" y2="296.16" xlink:href="#Degradado_sin_nombre_36"/><linearGradient id="Degradado_sin_nombre_36-3" x1="342.99" y1="296.16" x2="350.99" y2="296.16" xlink:href="#Degradado_sin_nombre_36"/><linearGradient id="Degradado_sin_nombre_36-4" x1="241.41" y1="153.26" x2="406.88" y2="153.26" xlink:href="#Degradado_sin_nombre_36"/><linearGradient id="Degradado_sin_nombre_36-5" x1="275.86" y1="173.58" x2="307.56" y2="173.58" xlink:href="#Degradado_sin_nombre_36"/><linearGradient id="Degradado_sin_nombre_36-6" x1="340.68" y1="173.58" x2="372.38" y2="173.58" xlink:href="#Degradado_sin_nombre_36"/><linearGradient id="Degradado_sin_nombre_36-7" x1="784.49" y1="94.45" x2="914.08" y2="94.45" gradientTransform="translate(-242.97 -159.51) rotate(11.04)" xlink:href="#Degradado_sin_nombre_36"/><linearGradient id="Degradado_sin_nombre_36-8" x1="1075.61" y1="90.68" x2="1161.56" y2="90.68" gradientTransform="matrix(0.93, 0.38, -0.38, 0.93, -450.9, -362.6)" xlink:href="#Degradado_sin_nombre_36"/><linearGradient id="Degradado_sin_nombre_36-9" x1="1260.66" y1="-2880.77" x2="1340.49" y2="-2880.77" gradientTransform="translate(1404 -2631.91) rotate(180)" xlink:href="#Degradado_sin_nombre_36"/><linearGradient id="Degradado_sin_nombre_36-10" x1="971.47" y1="-2935.93" x2="1101.06" y2="-2935.93" gradientTransform="matrix(-0.98, -0.19, 0.19, -0.98, 1646.97, -2472.41)" xlink:href="#Degradado_sin_nombre_36"/><linearGradient id="Degradado_sin_nombre_36-11" x1="678.65" y1="-2918.86" x2="761.34" y2="-2918.86" gradientTransform="translate(1854.9 -2269.31) rotate(-157.91)" xlink:href="#Degradado_sin_nombre_36"/></defs><g id="Capa_2" data-name="Capa 2"><g id="Capa_1-2" data-name="Capa 1"><path class="cls-1" d="M500.66,73.54a4,4,0,0,1-1.26-7.8l54.43-18a4,4,0,1,1,2.51,7.59l-54.43,18A3.9,3.9,0,0,1,500.66,73.54Z"/><circle class="cls-2" cx="78.93" cy="254.97" r="4.83"/><circle class="cls-2" cx="101.14" cy="254.97" r="4.83"/><circle class="cls-2" cx="123.35" cy="254.97" r="4.83"/><circle class="cls-2" cx="145.55" cy="254.97" r="4.83"/><circle class="cls-2" cx="167.76" cy="254.97" r="4.83"/><circle class="cls-2" cx="189.97" cy="254.97" r="4.83"/><circle class="cls-2" cx="212.18" cy="254.97" r="4.83"/><circle class="cls-2" cx="234.38" cy="254.97" r="4.83"/><circle class="cls-2" cx="256.59" cy="254.97" r="4.83"/><circle class="cls-2" cx="278.8" cy="254.97" r="4.83"/><circle class="cls-2" cx="78.93" cy="277.41" r="4.83"/><circle class="cls-2" cx="101.14" cy="277.41" r="4.83"/><circle class="cls-2" cx="123.35" cy="277.41" r="4.83"/><circle class="cls-2" cx="145.55" cy="277.41" r="4.83"/><circle class="cls-2" cx="167.76" cy="277.41" r="4.83"/><circle class="cls-2" cx="189.97" cy="277.41" r="4.83"/><circle class="cls-2" cx="212.18" cy="277.41" r="4.83"/><circle class="cls-2" cx="234.38" cy="277.41" r="4.83"/><circle class="cls-2" cx="256.59" cy="277.41" r="4.83"/><circle class="cls-2" cx="278.8" cy="277.41" r="4.83"/><circle class="cls-2" cx="78.93" cy="299.86" r="4.83"/><circle class="cls-2" cx="101.14" cy="299.86" r="4.83"/><circle class="cls-2" cx="123.35" cy="299.86" r="4.83"/><circle class="cls-2" cx="145.55" cy="299.86" r="4.83"/><circle class="cls-2" cx="167.76" cy="299.86" r="4.83"/><circle class="cls-2" cx="189.97" cy="299.86" r="4.83"/><circle class="cls-2" cx="212.18" cy="299.86" r="4.83"/><circle class="cls-2" cx="234.38" cy="299.86" r="4.83"/><circle class="cls-2" cx="256.59" cy="299.86" r="4.83"/><circle class="cls-2" cx="278.8" cy="299.86" r="4.83"/><circle class="cls-2" cx="78.93" cy="322.31" r="4.83"/><circle class="cls-2" cx="101.14" cy="322.31" r="4.83"/><circle class="cls-2" cx="123.35" cy="322.31" r="4.83"/><circle class="cls-2" cx="145.55" cy="322.31" r="4.83"/><circle class="cls-2" cx="167.76" cy="322.31" r="4.83"/><circle class="cls-2" cx="189.97" cy="322.31" r="4.83"/><circle class="cls-2" cx="212.18" cy="322.31" r="4.83"/><circle class="cls-2" cx="234.38" cy="322.31" r="4.83"/><circle class="cls-2" cx="256.59" cy="322.31" r="4.83"/><circle class="cls-2" cx="278.8" cy="322.31" r="4.83"/><circle class="cls-2" cx="78.93" cy="344.76" r="4.83"/><circle class="cls-2" cx="101.14" cy="344.76" r="4.83"/><circle class="cls-2" cx="123.35" cy="344.76" r="4.83"/><circle class="cls-2" cx="145.55" cy="344.76" r="4.83"/><circle class="cls-2" cx="167.76" cy="344.76" r="4.83"/><circle class="cls-2" cx="189.97" cy="344.76" r="4.83"/><circle class="cls-2" cx="212.18" cy="344.76" r="4.83"/><circle class="cls-2" cx="234.38" cy="344.76" r="4.83"/><circle class="cls-2" cx="256.59" cy="344.76" r="4.83"/><circle class="cls-2" cx="278.8" cy="344.76" r="4.83"/><circle class="cls-2" cx="78.93" cy="367.21" r="4.83"/><circle class="cls-2" cx="101.14" cy="367.21" r="4.83"/><circle class="cls-2" cx="123.35" cy="367.21" r="4.83"/><circle class="cls-2" cx="145.55" cy="367.21" r="4.83"/><circle class="cls-2" cx="167.76" cy="367.21" r="4.83"/><circle class="cls-2" cx="189.97" cy="367.21" r="4.83"/><circle class="cls-2" cx="212.18" cy="367.21" r="4.83"/><circle class="cls-2" cx="234.38" cy="367.21" r="4.83"/><circle class="cls-2" cx="256.59" cy="367.21" r="4.83"/><circle class="cls-2" cx="278.8" cy="367.21" r="4.83"/><circle class="cls-2" cx="78.93" cy="389.66" r="4.83"/><circle class="cls-2" cx="101.14" cy="389.66" r="4.83"/><circle class="cls-2" cx="123.35" cy="389.66" r="4.83"/><circle class="cls-2" cx="145.55" cy="389.66" r="4.83"/><circle class="cls-2" cx="167.76" cy="389.66" r="4.83"/><circle class="cls-2" cx="189.97" cy="389.66" r="4.83"/><circle class="cls-2" cx="212.18" cy="389.66" r="4.83"/><circle class="cls-2" cx="234.38" cy="389.66" r="4.83"/><circle class="cls-2" cx="256.59" cy="389.66" r="4.83"/><circle class="cls-2" cx="278.8" cy="389.66" r="4.83"/><circle class="cls-2" cx="78.93" cy="412.11" r="4.83"/><circle class="cls-2" cx="101.14" cy="412.11" r="4.83"/><circle class="cls-2" cx="123.35" cy="412.11" r="4.83"/><circle class="cls-2" cx="145.55" cy="412.11" r="4.83"/><circle class="cls-2" cx="167.76" cy="412.11" r="4.83"/><circle class="cls-2" cx="189.97" cy="412.11" r="4.83"/><circle class="cls-2" cx="212.18" cy="412.11" r="4.83"/><circle class="cls-2" cx="234.38" cy="412.11" r="4.83"/><circle class="cls-2" cx="256.59" cy="412.11" r="4.83"/><circle class="cls-2" cx="278.8" cy="412.11" r="4.83"/><circle class="cls-2" cx="78.93" cy="434.56" r="4.83"/><circle class="cls-2" cx="101.14" cy="434.56" r="4.83"/><circle class="cls-2" cx="123.35" cy="434.56" r="4.83"/><circle class="cls-2" cx="145.55" cy="434.56" r="4.83"/><circle class="cls-2" cx="167.76" cy="434.56" r="4.83"/><circle class="cls-2" cx="189.97" cy="434.56" r="4.83"/><circle class="cls-2" cx="212.18" cy="434.56" r="4.83"/><circle class="cls-2" cx="234.38" cy="434.56" r="4.83"/><circle class="cls-2" cx="256.59" cy="434.56" r="4.83"/><circle class="cls-2" cx="278.8" cy="434.56" r="4.83"/><rect class="cls-3" x="249.65" y="376.96" width="146.92" height="25.71" rx="7"/><rect class="cls-3" x="249.65" y="410.02" width="146.92" height="25.71" rx="10.32"/><rect class="cls-3" x="275.37" y="444.91" width="95.49" height="25.71" rx="10.32"/><rect class="cls-4" x="297.08" y="235.56" width="8" height="121.21"/><rect class="cls-5" x="342.99" y="235.56" width="8" height="121.21"/><path class="cls-6" d="M398.72,135.12a6.11,6.11,0,0,1-1.31-6c4.29-14.16,1.06-27.79-12.49-35a3.85,3.85,0,0,1-1.49-2.47,19.28,19.28,0,0,0-8.09-12.76c-5.1-3.56-10.92-5-17-5.26a5.16,5.16,0,0,1-5-3c-3.45-6.17-8.87-9.24-16.1-8.47-5.27.56-9.54,3.08-13.42,7.57a31.51,31.51,0,0,0-2.34-2.91c-6.72-6.62-18.77-6.85-24.12.7-3.4,4.79-7.12,6.56-12.27,6.78a13.63,13.63,0,0,0-2.38.33c-9.28,2.51-16.32,7.24-18,17.6-.15,1-1.58,1.81-2.47,2.64-3,2.75-6.5,5.08-8.83,8.29-6,8.23-5.25,17.44-2.49,26.61.64,2.11.48,3.4-1.16,5.07-6.19,6.31-9.48,13.86-8,22.85,1,6.37,4.88,11.21,9.69,15.22a4,4,0,0,1,1,4.75c-5.5,11.67-2.8,24.34,6.64,32.32,4.41,3.73,5.32,5,7.71,10.51a20.83,20.83,0,0,0,1.33,2.57c5.1,8.25,13.1,10.39,22,10.09,2.94-.1,4.72.3,6.46,3.06,5.6,8.87,16.24,11,24.39,5.17,1-.74,2-1.6,3.1-2.48.78.67,1.48,1.31,2.22,1.91,6.77,5.48,16.88,5.58,22.08-1.29,4.2-5.57,8.87-6.47,15.05-6.68,9.85-.34,17.09-7.11,19.31-16.63a6.42,6.42,0,0,1,2.34-3.39c9.24-6.06,14.22-14.37,13.09-25.55-.42-4.19-2.05-8.26-3.22-12.73.48-.44,1.35-1.24,2.23-2C411.89,159.52,407.72,144.5,398.72,135.12Zm-7.15,31.7c-1,.85-2,1.65-3,2.42-4.06,3-4.28,4.11-1.67,8.55,6.3,10.75,4,21.85-5.66,28-4,2.6-7.51,1.35-11.59-.63a25,25,0,0,0,2.88-15.29c-.41-2.9-2.32-4.74-4.63-4.23-2.65.57-3.62,2.33-3.28,5,1.07,8.45-2.91,14.75-12.78,14.29-2.59-.11-4.24,1.31-4.29,3.81a3.68,3.68,0,0,0,4.11,4c2.35-.05,4.91.09,7-.76,3.36-1.36,6-.89,9,.93,2,1.2,4.37,1.67,6.82,2.56-1.17,4.86-4.31,7.93-9.05,8.82a38.32,38.32,0,0,1-11.21.4c-3.5-.41-5.78.1-7.24,3.56a18.28,18.28,0,0,1-3.5,5,9,9,0,0,1-14.4-.93,6.16,6.16,0,0,1-.83-3.31c0-2.17,0-4.34,0-6.51a4.1,4.1,0,0,0-4.1-4.1h0a4.09,4.09,0,0,0-4.09,4.08c0,1.92,0,3.83.17,5.74.27,3.9-2,5.71-4.86,7.14-3,1.5-6.31,2.08-9-.64a25.86,25.86,0,0,1-4.74-6,7.29,7.29,0,0,0-7.29-4,39.07,39.07,0,0,1-11.57-.39c-4.67-.83-7.66-4-8.93-8.42,3.63-1.68,7.08-3.38,10.62-4.85.74-.3,1.82.22,2.74.36,3.18.48,6.34,1.17,9.53,1.36,2.51.15,4.1-1.43,4-4-.1-2.41-1.63-3.64-4-3.74-.65,0-1.3.07-1.94.05-7.2-.22-11.76-5.32-11.2-12.52.07-.86.28-1.71.3-2.57.06-2.4-1.15-4-3.49-4.29a3.93,3.93,0,0,0-4.25,2.89,20.72,20.72,0,0,0,1,13.14c.42,1.08.91,2.14,1.36,3.18-6.67,4.54-10.72,2.71-16.21-3.36-6.14-6.78-5.41-15.33-1.33-22.89,3.17-5.89,3.26-5.89-2-9.95-.51-.39-1-.83-1.5-1.24-12.1-9.86-9.49-20.66.4-29.14,8-6.84,22.25-.57,24.06,10.32.18,1.06.34,2.13.58,3.17.58,2.52,2.37,3.26,4.66,2.79a3.58,3.58,0,0,0,3-4.27c-.33-2.43-1.05-4.8-1.64-7.39a46.58,46.58,0,0,0,6-1.27,20.57,20.57,0,0,0,11.9-10.32c1.73-3.39,1.45-5.79-.91-7s-4.28-.13-6.09,3.09c-3,5.4-7.28,7.79-13,7a10.82,10.82,0,0,1-4.8-1.68c-6.34-4.74-13.32-5.7-20.85-4.13a7,7,0,0,1-1.52,0c-4.15-9-2.36-19.51,4.19-25,5.65-4.73,11.09-5.33,15.75-2.1-1.14,4.27-2.28,8.34-3.29,12.45a9.67,9.67,0,0,0,.1,2.88c.2,2.62,1.79,4,4.25,3.82s3.82-2,3.61-4.52c-.73-8.79,5.12-13.51,12.64-13.9,2.65-.14,4.39-1.43,4.19-4.23s-2.1-4-4.72-3.61S290.65,95.49,288,96a4.9,4.9,0,0,1-2.7.08c-3.8-1.75-7.52-3.68-11.95-5.87,1.27-1.42,2.7-3.72,4.74-5.14,4.09-2.87,9-3.56,13.87-3.51.74,0,1.56.79,2.17,1.39a52.23,52.23,0,0,0,4,4.18c1.79,1.41,4,1.11,5-.81.7-1.32.87-4,0-4.85-2.64-2.63-2.92-5-.9-8A8.63,8.63,0,0,1,311.07,70a11.8,11.8,0,0,1,9,11.35v2.46a4.08,4.08,0,0,0,4.08,4.08h0a4.07,4.07,0,0,0,4.09-4.1c-.07-5.83.89-15.4,14.13-13.27,5,.81,6,6.62,2.82,10.45-1.51,1.82-1.74,3.71-.23,5.44a4.1,4.1,0,0,0,5.6.38c1-.79,2.24-1.67,2.63-2.77,1-2.89,3.23-3,5.46-2.49a70.64,70.64,0,0,1,11.06,3.25,8.16,8.16,0,0,1,4.94,5.64c-4.08,1.91-7.76,3.71-11.5,5.34a5.5,5.5,0,0,1-2.91.21c-2.85-.46-5.66-1.25-8.52-1.58A3.56,3.56,0,0,0,347.55,98a3.68,3.68,0,0,0,3.87,4.23c8.17.23,13.79,5.65,13,14.24a3.67,3.67,0,0,0,3.55,4.23c2.59.24,4.46-1.47,4.24-3.81a94.84,94.84,0,0,0-2.36-12.18,10.72,10.72,0,0,0-1.44-2.59,8.56,8.56,0,0,1,9-2.22c6.47,1.94,11.22,5.84,13,12.69a23.47,23.47,0,0,1-1,15.38c-5.17.26-9.89.19-14.5.86a17.49,17.49,0,0,0-7,3.08c-7,4.78-14.84,3.13-19-4.23-.27-.47-.48-1-.77-1.42-1.31-2.11-3.12-3.09-5.44-1.81s-2.6,3.3-1.53,5.56c3.32,7,8.6,11.43,16.47,12.44a17.46,17.46,0,0,1,2,.49c-.52,2.33-1.08,4.49-1.47,6.68-.47,2.62.47,4.56,3.23,5s4-1.18,4.63-3.77a33.55,33.55,0,0,1,2.4-7.63c4.79-9.44,19.42-8.91,24.67-2.6C400.91,150,400.78,158.84,391.57,166.82Z"/><path class="cls-7" d="M288.27,171c-2.26.63-4.56,1.15-6.76,1.93-2.51.88-4.36.1-5.29-2.17a3.72,3.72,0,0,1,2.08-5.1c11.52-5.6,25.65-1.31,29.11,13.07a3.73,3.73,0,0,1-2.32,4.72c-2.24.93-4,0-5.07-2.11-.67-1.33-1-2.84-1.72-4.15A11.13,11.13,0,0,0,288.27,171Z"/><path class="cls-8" d="M359.6,171c-5.13.33-8.28,3.08-10.35,7.37-.36.76-.49,1.64-.81,2.44-.91,2.28-2.55,3.58-5,2.77s-3.09-2.78-2.56-5.19a19.07,19.07,0,0,1,20.44-15,33.15,33.15,0,0,1,8.34,2.2c2.27.84,3.41,2.73,2.34,5.17s-2.81,3-5.3,2.16C364.36,172.18,362,171.65,359.6,171Z"/><path class="cls-3" d="M376.83,362.76H269.4a23,23,0,0,1-23-23V310.65a47.84,47.84,0,0,0-18.12-37.78,152.37,152.37,0,0,1-58.08-117.76C169,71.57,236,2,319.42,0a152.91,152.91,0,0,1,99.06,272.4,48.8,48.8,0,0,0-18.66,38.21v29.12A23,23,0,0,1,376.83,362.76ZM323.14,12c-1.14,0-2.28,0-3.43,0-76.9,1.81-138.58,65.92-137.5,142.9a140.41,140.41,0,0,0,53.53,108.52,59.79,59.79,0,0,1,22.67,47.19v29.12a11,11,0,0,0,11,11H376.83a11,11,0,0,0,11-11V310.65A60.73,60.73,0,0,1,411,263.06,140.91,140.91,0,0,0,323.14,12Z"/><path class="cls-9" d="M509,107.94a4,4,0,0,1-.5-8l127-16.11a4,4,0,1,1,1,7.93l-127,16.12A4.36,4.36,0,0,1,509,107.94Z"/><path class="cls-10" d="M592.46,148.76h-.27l-81.91-5.46a4,4,0,0,1,.53-8l81.91,5.46a4,4,0,0,1-.26,8Z"/><path class="cls-11" d="M67.51,264.72a4,4,0,0,1-1.25-7.8l71.83-23.71a4,4,0,1,1,2.51,7.59L68.77,264.52A4,4,0,0,1,67.51,264.72Z"/><path class="cls-12" d="M4,222.71a4,4,0,0,1-.5-8l127-16.12a4,4,0,0,1,1,7.94L4.5,222.68Z"/><path class="cls-13" d="M129.46,171.24h-.27L50.71,166a4,4,0,1,1,.53-8l78.48,5.23a4,4,0,0,1-.26,8Z"/></g></g></svg>