<svg xmlns="http://www.w3.org/2000/svg" xmlns:xlink="http://www.w3.org/1999/xlink" viewBox="0 0 750.61 508.96"><defs><style>.cls-1{fill:#f3f4f8;}.cls-2{fill:#494066;}.cls-10,.cls-11,.cls-12,.cls-13,.cls-14,.cls-3,.cls-4,.cls-8,.cls-9{fill:none;stroke-miterlimit:10;}.cls-10,.cls-11,.cls-12,.cls-13,.cls-14,.cls-3,.cls-4,.cls-9{stroke-width:8px;}.cls-3{stroke:url(#Degradado_sin_nombre_36);}.cls-4{stroke:url(#Degradado_sin_nombre_36-2);}.cls-5{fill:url(#Degradado_sin_nombre_36-3);}.cls-6{fill:url(#Degradado_sin_nombre_36-4);}.cls-7{fill:url(#Degradado_sin_nombre_36-5);}.cls-8{stroke:#494066;stroke-width:12px;}.cls-10,.cls-11,.cls-12,.cls-13,.cls-14,.cls-9{stroke-linecap:round;}.cls-9{stroke:url(#Degradado_sin_nombre_36-6);}.cls-10{stroke:url(#Degradado_sin_nombre_36-7);}.cls-11{stroke:url(#Degradado_sin_nombre_36-8);}.cls-12{stroke:url(#Degradado_sin_nombre_36-9);}.cls-13{stroke:url(#Degradado_sin_nombre_36-10);}.cls-14{stroke:url(#Degradado_sin_nombre_36-11);}</style><linearGradient id="Degradado_sin_nombre_36" x1="350.82" y1="320.1" x2="358.82" y2="320.1" gradientUnits="userSpaceOnUse"><stop offset="0" stop-color="#ff2e79"/><stop offset="1" stop-color="#c22998"/></linearGradient><linearGradient id="Degradado_sin_nombre_36-2" x1="400.52" y1="320.1" x2="408.52" y2="320.1" xlink:href="#Degradado_sin_nombre_36"/><linearGradient id="Degradado_sin_nombre_36-3" x1="290.23" y1="165.41" x2="469.35" y2="165.41" xlink:href="#Degradado_sin_nombre_36"/><linearGradient id="Degradado_sin_nombre_36-4" x1="327.52" y1="187.4" x2="361.84" y2="187.4" xlink:href="#Degradado_sin_nombre_36"/><linearGradient id="Degradado_sin_nombre_36-5" x1="397.69" y1="187.41" x2="432" y2="187.41" xlink:href="#Degradado_sin_nombre_36"/><linearGradient id="Degradado_sin_nombre_36-6" x1="583.58" y1="56.21" x2="655.53" y2="56.21" xlink:href="#Degradado_sin_nombre_36"/><linearGradient id="Degradado_sin_nombre_36-7" x1="610.67" y1="133.25" x2="761.53" y2="133.25" gradientTransform="translate(24.11 -164.49) rotate(11.04)" xlink:href="#Degradado_sin_nombre_36"/><linearGradient id="Degradado_sin_nombre_36-8" x1="654.51" y1="224.94" x2="754.1" y2="224.94" gradientTransform="matrix(0.93, 0.38, -0.38, 0.93, 79.28, -321.31)" xlink:href="#Degradado_sin_nombre_36"/><linearGradient id="Degradado_sin_nombre_36-9" x1="1555.58" y1="-151.56" x2="1647.98" y2="-151.56" gradientTransform="translate(1722.61 125.92) rotate(180)" xlink:href="#Degradado_sin_nombre_36"/><linearGradient id="Degradado_sin_nombre_36-10" x1="1525.51" y1="-253.55" x2="1676.38" y2="-253.55" gradientTransform="matrix(-0.98, -0.19, 0.19, -0.98, 1698.5, 290.4)" xlink:href="#Degradado_sin_nombre_36"/><linearGradient id="Degradado_sin_nombre_36-11" x1="1478.32" y1="-329.31" x2="1574.08" y2="-329.31" gradientTransform="translate(1643.33 447.22) rotate(-157.91)" xlink:href="#Degradado_sin_nombre_36"/></defs><g id="Capa_2" data-name="Capa 2"><g id="Capa_1-2" data-name="Capa 1"><circle class="cls-1" cx="114.34" cy="275.51" r="5.23"/><circle class="cls-1" cx="138.38" cy="275.51" r="5.23"/><circle class="cls-1" cx="162.42" cy="275.51" r="5.23"/><circle class="cls-1" cx="186.46" cy="275.51" r="5.23"/><circle class="cls-1" cx="210.5" cy="275.51" r="5.23"/><circle class="cls-1" cx="234.54" cy="275.51" r="5.23"/><circle class="cls-1" cx="258.58" cy="275.51" r="5.23"/><circle class="cls-1" cx="282.62" cy="275.51" r="5.23"/><circle class="cls-1" cx="306.66" cy="275.51" r="5.23"/><circle class="cls-1" cx="330.7" cy="275.51" r="5.23"/><circle class="cls-1" cx="114.34" cy="299.81" r="5.23"/><circle class="cls-1" cx="138.38" cy="299.81" r="5.23"/><circle class="cls-1" cx="162.42" cy="299.81" r="5.23"/><circle class="cls-1" cx="186.46" cy="299.81" r="5.23"/><circle class="cls-1" cx="210.5" cy="299.81" r="5.23"/><circle class="cls-1" cx="234.54" cy="299.81" r="5.23"/><circle class="cls-1" cx="258.58" cy="299.81" r="5.23"/><circle class="cls-1" cx="282.62" cy="299.81" r="5.23"/><circle class="cls-1" cx="306.66" cy="299.81" r="5.23"/><circle class="cls-1" cx="330.7" cy="299.81" r="5.23"/><circle class="cls-1" cx="114.34" cy="324.11" r="5.23"/><circle class="cls-1" cx="138.38" cy="324.11" r="5.23"/><circle class="cls-1" cx="162.42" cy="324.11" r="5.23"/><circle class="cls-1" cx="186.46" cy="324.11" r="5.23"/><circle class="cls-1" cx="210.5" cy="324.11" r="5.23"/><circle class="cls-1" cx="234.54" cy="324.11" r="5.23"/><circle class="cls-1" cx="258.58" cy="324.11" r="5.23"/><circle class="cls-1" cx="282.62" cy="324.11" r="5.23"/><circle class="cls-1" cx="306.66" cy="324.11" r="5.23"/><circle class="cls-1" cx="330.7" cy="324.11" r="5.23"/><circle class="cls-1" cx="114.34" cy="348.41" r="5.23"/><circle class="cls-1" cx="138.38" cy="348.41" r="5.23"/><circle class="cls-1" cx="162.42" cy="348.41" r="5.23"/><circle class="cls-1" cx="186.46" cy="348.41" r="5.23"/><circle class="cls-1" cx="210.5" cy="348.41" r="5.23"/><circle class="cls-1" cx="234.54" cy="348.41" r="5.23"/><circle class="cls-1" cx="258.58" cy="348.41" r="5.23"/><circle class="cls-1" cx="282.62" cy="348.41" r="5.23"/><circle class="cls-1" cx="306.66" cy="348.41" r="5.23"/><circle class="cls-1" cx="330.7" cy="348.41" r="5.23"/><circle class="cls-1" cx="114.34" cy="372.71" r="5.23"/><circle class="cls-1" cx="138.38" cy="372.71" r="5.23"/><circle class="cls-1" cx="162.42" cy="372.71" r="5.23"/><circle class="cls-1" cx="186.46" cy="372.71" r="5.23"/><circle class="cls-1" cx="210.5" cy="372.71" r="5.23"/><circle class="cls-1" cx="234.54" cy="372.71" r="5.23"/><circle class="cls-1" cx="258.58" cy="372.71" r="5.23"/><circle class="cls-1" cx="282.62" cy="372.71" r="5.23"/><circle class="cls-1" cx="306.66" cy="372.71" r="5.23"/><circle class="cls-1" cx="330.7" cy="372.71" r="5.23"/><circle class="cls-1" cx="114.34" cy="397.02" r="5.23"/><circle class="cls-1" cx="138.38" cy="397.02" r="5.23"/><circle class="cls-1" cx="162.42" cy="397.02" r="5.23"/><circle class="cls-1" cx="186.46" cy="397.02" r="5.23"/><circle class="cls-1" cx="210.5" cy="397.02" r="5.23"/><circle class="cls-1" cx="234.54" cy="397.02" r="5.23"/><circle class="cls-1" cx="258.58" cy="397.02" r="5.23"/><circle class="cls-1" cx="282.62" cy="397.02" r="5.23"/><circle class="cls-1" cx="306.66" cy="397.02" r="5.23"/><circle class="cls-1" cx="330.7" cy="397.02" r="5.23"/><circle class="cls-1" cx="114.34" cy="421.32" r="5.23"/><circle class="cls-1" cx="138.38" cy="421.32" r="5.23"/><circle class="cls-1" cx="162.42" cy="421.32" r="5.23"/><circle class="cls-1" cx="186.46" cy="421.32" r="5.23"/><circle class="cls-1" cx="210.5" cy="421.32" r="5.23"/><circle class="cls-1" cx="234.54" cy="421.32" r="5.23"/><circle class="cls-1" cx="258.58" cy="421.32" r="5.23"/><circle class="cls-1" cx="282.62" cy="421.32" r="5.23"/><circle class="cls-1" cx="306.66" cy="421.32" r="5.23"/><circle class="cls-1" cx="330.7" cy="421.32" r="5.23"/><circle class="cls-1" cx="114.34" cy="445.62" r="5.23"/><circle class="cls-1" cx="138.38" cy="445.62" r="5.23"/><circle class="cls-1" cx="162.42" cy="445.62" r="5.23"/><circle class="cls-1" cx="186.46" cy="445.62" r="5.23"/><circle class="cls-1" cx="210.5" cy="445.62" r="5.23"/><circle class="cls-1" cx="234.54" cy="445.62" r="5.23"/><circle class="cls-1" cx="258.58" cy="445.62" r="5.23"/><circle class="cls-1" cx="282.62" cy="445.62" r="5.23"/><circle class="cls-1" cx="306.66" cy="445.62" r="5.23"/><circle class="cls-1" cx="330.7" cy="445.62" r="5.23"/><circle class="cls-1" cx="114.34" cy="469.92" r="5.23"/><circle class="cls-1" cx="138.38" cy="469.92" r="5.23"/><circle class="cls-1" cx="162.42" cy="469.92" r="5.23"/><circle class="cls-1" cx="186.46" cy="469.92" r="5.23"/><circle class="cls-1" cx="210.5" cy="469.92" r="5.23"/><circle class="cls-1" cx="234.54" cy="469.92" r="5.23"/><circle class="cls-1" cx="258.58" cy="469.92" r="5.23"/><circle class="cls-1" cx="282.62" cy="469.92" r="5.23"/><circle class="cls-1" cx="306.66" cy="469.92" r="5.23"/><circle class="cls-1" cx="330.7" cy="469.92" r="5.23"/><rect class="cls-2" x="299.15" y="407.57" width="159.04" height="27.83" rx="7"/><rect class="cls-2" x="299.15" y="443.35" width="159.04" height="27.83" rx="10.32"/><rect class="cls-2" x="326.99" y="481.13" width="103.37" height="27.83" rx="10.32"/><line class="cls-3" x1="354.82" y1="254.5" x2="354.82" y2="385.7"/><line class="cls-4" x1="404.52" y1="254.5" x2="404.52" y2="385.7"/><path class="cls-5" d="M460.52,145.78a6.66,6.66,0,0,1-1.42-6.54c4.64-15.32,1.14-30.08-13.52-37.88A4.15,4.15,0,0,1,444,98.68a20.9,20.9,0,0,0-8.76-13.81c-5.53-3.86-11.82-5.43-18.46-5.69a5.58,5.58,0,0,1-5.38-3.29c-3.73-6.68-9.6-10-17.43-9.17-5.7.6-10.32,3.33-14.52,8.19a35.77,35.77,0,0,0-2.53-3.15c-7.28-7.16-20.33-7.41-26.12.76-3.68,5.19-7.71,7.1-13.27,7.34a14,14,0,0,0-2.59.36c-10,2.71-17.66,7.83-19.44,19-.17,1.07-1.72,2-2.68,2.86-3.21,3-7,5.5-9.56,9-6.46,8.91-5.69,18.88-2.69,28.81.68,2.28.51,3.67-1.26,5.48-6.7,6.84-10.26,15-8.67,24.74,1.12,6.89,5.28,12.14,10.49,16.47a4.3,4.3,0,0,1,1.12,5.15c-6,12.63-3,26.35,7.19,35,4.78,4,5.76,5.39,8.34,11.37a22.35,22.35,0,0,0,1.45,2.79c5.51,8.92,14.18,11.24,23.84,10.92,3.18-.11,5.11.33,7,3.31,6.06,9.6,17.57,11.85,26.4,5.6,1.13-.8,2.17-1.74,3.36-2.69.85.73,1.6,1.43,2.4,2.07,7.32,5.93,18.28,6,23.9-1.4,4.55-6,9.61-7,16.29-7.23,10.66-.36,18.5-7.7,20.91-18a7,7,0,0,1,2.52-3.66c10-6.56,15.41-15.55,14.18-27.66-.45-4.54-2.22-8.94-3.49-13.78.52-.47,1.46-1.34,2.41-2.18C474.78,172.19,470.26,155.93,460.52,145.78Zm-7.75,34.31c-1,.92-2.16,1.78-3.28,2.62-4.39,3.25-4.63,4.45-1.81,9.26,6.82,11.64,4.28,23.65-6.13,30.34-4.36,2.81-8.12,1.46-12.54-.68a27.14,27.14,0,0,0,3.11-16.56c-.44-3.13-2.5-5.13-5-4.58-2.86.62-3.92,2.53-3.55,5.46,1.16,9.15-3.15,16-13.84,15.47-2.8-.12-4.58,1.42-4.63,4.12s1.64,4.39,4.44,4.33c2.55-.07,5.31.09,7.59-.83,3.62-1.47,6.52-1,9.73,1,2.12,1.31,4.73,1.82,7.39,2.78-1.27,5.26-4.67,8.59-9.8,9.54a40.86,40.86,0,0,1-12.14.44c-3.78-.44-6.25.11-7.84,3.85a19.9,19.9,0,0,1-3.78,5.42,9.8,9.8,0,0,1-15.59-1,6.65,6.65,0,0,1-.9-3.58q-.06-3.53-.06-7.06A4.43,4.43,0,0,0,379.7,236h0a4.43,4.43,0,0,0-4.43,4.42c0,2.07,0,4.14.18,6.21.29,4.23-2.15,6.18-5.26,7.73-3.3,1.63-6.82,2.25-9.74-.69a28.38,28.38,0,0,1-5.13-6.52,7.9,7.9,0,0,0-7.89-4.38,42.41,42.41,0,0,1-12.52-.42c-5.07-.91-8.3-4.35-9.67-9.12,3.93-1.82,7.66-3.66,11.49-5.25.8-.33,2,.24,3,.39,3.44.51,6.86,1.26,10.31,1.47,2.72.16,4.45-1.54,4.33-4.36-.11-2.61-1.77-3.95-4.37-4.05-.7,0-1.4.07-2.1.05-7.79-.24-12.73-5.76-12.12-13.55.07-.93.31-1.85.33-2.78.06-2.59-1.25-4.29-3.78-4.64a4.24,4.24,0,0,0-4.6,3.13,22.39,22.39,0,0,0,1.12,14.22c.46,1.17,1,2.31,1.47,3.44-7.22,4.92-11.6,2.93-17.55-3.64-6.65-7.34-5.86-16.59-1.44-24.78,3.44-6.37,3.54-6.37-2.17-10.77-.56-.42-1.08-.89-1.62-1.33-13.1-10.68-10.28-22.37.43-31.55,8.64-7.41,24.08-.62,26.05,11.17.19,1.14.36,2.3.62,3.43.63,2.73,2.57,3.53,5,3a3.88,3.88,0,0,0,3.3-4.63c-.36-2.62-1.14-5.19-1.78-8a50.09,50.09,0,0,0,6.45-1.38,22.22,22.22,0,0,0,12.88-11.17c1.87-3.67,1.58-6.26-1-7.57s-4.65-.14-6.6,3.35c-3.26,5.85-7.89,8.43-14.06,7.55a11.45,11.45,0,0,1-5.19-1.82c-6.86-5.13-14.42-6.16-22.57-4.46a8.18,8.18,0,0,1-1.64,0c-4.49-9.75-2.56-21.11,4.53-27,6.11-5.12,12-5.77,17.05-2.28-1.24,4.63-2.47,9-3.56,13.48a10.29,10.29,0,0,0,.11,3.12c.22,2.83,1.94,4.37,4.6,4.13s4.13-2.11,3.9-4.89c-.78-9.51,5.55-14.63,13.69-15,2.86-.14,4.75-1.54,4.54-4.57s-2.28-4.29-5.12-3.91-5.68,1.16-8.53,1.68a5.5,5.5,0,0,1-2.92.08c-4.12-1.89-8.14-4-12.93-6.36,1.37-1.53,2.92-4,5.13-5.56,4.43-3.1,9.69-3.86,15-3.8.8,0,1.69.86,2.35,1.51,1.48,1.46,2.66,3.25,4.27,4.52,1.94,1.53,4.36,1.2,5.45-.87.76-1.43.94-4.35,0-5.26-2.85-2.84-3.16-5.46-1-8.64a9.33,9.33,0,0,1,9.53-3.7,12.79,12.79,0,0,1,9.74,12.29v2.66a4.42,4.42,0,0,0,4.42,4.42h0a4.41,4.41,0,0,0,4.42-4.44c-.07-6.3,1-16.67,15.29-14.36,5.45.88,6.51,7.17,3.06,11.31-1.64,2-1.88,4-.24,5.88a4.42,4.42,0,0,0,6.05.42c1.09-.85,2.43-1.81,2.85-3,1.12-3.12,3.49-3.25,5.91-2.69a75.58,75.58,0,0,1,12,3.51,8.88,8.88,0,0,1,5.35,6.11c-4.42,2.07-8.4,4-12.46,5.78a6,6,0,0,1-3.15.23c-3.08-.5-6.12-1.36-9.22-1.71a3.85,3.85,0,0,0-4.51,3.85,4,4,0,0,0,4.19,4.58c8.85.25,14.93,6.11,14.1,15.41a4,4,0,0,0,3.85,4.58c2.8.26,4.82-1.59,4.59-4.12a105.15,105.15,0,0,0-2.56-13.19,12,12,0,0,0-1.56-2.8,9.26,9.26,0,0,1,9.75-2.4c7,2.09,12.15,6.32,14.06,13.73A25.45,25.45,0,0,1,450.47,138c-5.6.28-10.7.2-15.7.92a19.09,19.09,0,0,0-7.59,3.34c-7.57,5.17-16.06,3.39-20.55-4.58-.29-.51-.52-1-.83-1.54-1.42-2.28-3.38-3.34-5.89-1.95s-2.82,3.57-1.66,6c3.59,7.59,9.31,12.38,17.83,13.46a22.09,22.09,0,0,1,2.18.54c-.57,2.52-1.18,4.86-1.6,7.23-.5,2.83.51,4.93,3.5,5.42s4.37-1.28,5-4.08a36.43,36.43,0,0,1,2.6-8.26c5.18-10.22,21-9.64,26.7-2.81C462.89,161.85,462.75,171.45,452.77,180.09Z"/><path class="cls-6" d="M341,184.65c-2.44.68-4.93,1.24-7.31,2.08-2.72,1-4.72.11-5.73-2.34s-.11-4.38,2.25-5.53c12.47-6.06,27.77-1.41,31.51,14.16a4,4,0,0,1-2.5,5.1c-2.43,1-4.35,0-5.5-2.27-.73-1.45-1.07-3.09-1.85-4.5A12.06,12.06,0,0,0,341,184.65Z"/><path class="cls-7" d="M418.17,184.62c-5.56.35-9,3.32-11.2,8-.4.83-.53,1.78-.88,2.64-1,2.48-2.76,3.88-5.45,3s-3.34-3-2.77-5.63A20.66,20.66,0,0,1,420,176.42a35.85,35.85,0,0,1,9,2.38c2.46.91,3.69,3,2.53,5.6-1.09,2.49-3,3.25-5.73,2.34C423.33,185.89,420.73,185.31,418.17,184.62Z"/><path class="cls-8" d="M537.71,165a159,159,0,0,0-162.88-159c-86.71,2-156.4,74.54-155.18,161.27a158.76,158.76,0,0,0,60.4,122.48,58.59,58.59,0,0,1,22.09,46v31.52a18.38,18.38,0,0,0,18.38,18.39h116.3a18.39,18.39,0,0,0,18.39-18.39V335.79a59.53,59.53,0,0,1,22.64-46.44A158.72,158.72,0,0,0,537.71,165Z"/><line class="cls-9" x1="587.58" y1="66.77" x2="651.53" y2="45.65"/><line class="cls-10" x1="597.35" y1="107.19" x2="746.61" y2="88.26"/><line class="cls-11" x1="599.2" y1="148.74" x2="695.44" y2="155.15"/><line class="cls-12" x1="163.03" y1="263.54" x2="78.63" y2="291.41"/><line class="cls-13" x1="153.26" y1="223.12" x2="4" y2="242.05"/><line class="cls-14" x1="151.41" y1="181.57" x2="59.19" y2="175.43"/></g></g></svg>