<svg xmlns="http://www.w3.org/2000/svg" viewBox="0 0 18 18"><defs><style>.cls-12{fill:#fff;}</style></defs><g id="Capa_2" data-name="Capa 2"><g id="Capa_1-2" data-name="Capa 1"><path class="cls-12" d="M9,4.39A4.61,4.61,0,1,0,13.62,9,4.6,4.6,0,0,0,9,4.39ZM9,12a3,3,0,1,1,3-3,3,3,0,0,1-3,3Zm5.88-7.8a1.08,1.08,0,1,1-1.07-1.08A1.07,1.07,0,0,1,14.88,4.2Zm3.06,1.09a5.35,5.35,0,0,0-1.45-3.77A5.38,5.38,0,0,0,12.72.06C11.23,0,6.77,0,5.29.06A5.35,5.35,0,0,0,1.52,1.51,5.38,5.38,0,0,0,.06,5.28c-.08,1.49-.08,6,0,7.43a5.32,5.32,0,0,0,1.46,3.77,5.36,5.36,0,0,0,3.77,1.46c1.48.08,5.94.08,7.43,0a5.34,5.34,0,0,0,3.77-1.46,5.35,5.35,0,0,0,1.45-3.77c.09-1.48.09-5.94,0-7.42Zm-1.92,9A3.06,3.06,0,0,1,14.31,16c-1.19.47-4,.36-5.31.36s-4.12.1-5.3-.36A3,3,0,0,1,2,14.31c-.47-1.19-.36-4-.36-5.31S1.52,4.88,2,3.69A3.06,3.06,0,0,1,3.7,2c1.18-.47,4-.36,5.3-.36s4.13-.1,5.31.36A3.06,3.06,0,0,1,16,3.69c.47,1.19.36,4,.36,5.31S16.49,13.12,16,14.31Z"/></g></g></svg>