<svg xmlns="http://www.w3.org/2000/svg" xmlns:xlink="http://www.w3.org/1999/xlink" viewBox="0 0 256.76 62.12"><defs><style>.cls-1{fill:url(#Degradado_sin_nombre_36);}</style><linearGradient id="Degradado_sin_nombre_36" x1="237.55" y1="93.92" x2="28.26" y2="-26.91" gradientUnits="userSpaceOnUse"><stop offset="0" stop-color="#ff2e79"/><stop offset="1" stop-color="#c22998"/></linearGradient></defs><g id="Capa_2" data-name="Capa 2"><g id="Capa_1-2" data-name="Capa 1"><path class="cls-1" d="M28.25,51c-7.58,0-12.6-3.91-14.19-12.59C30.94,37.54,49.53,34.48,49.53,18c0-11-7.83-18-20.67-18C11.86,0,0,13.45,0,33c0,18.71,9.91,28.86,26.66,29.1,10.39,0,19.08-3.54,24.46-12.1l-8.07-6.73C39.13,48.67,35.1,51,28.25,51Zm-.74-40c5.62,0,8.43,2.56,8.43,7.58,0,8.68-12.84,10.39-23.35,10.64C13.32,17.73,18.7,11,27.51,11ZM128,1.59h13.58L119.47,60.65H105.65L83.52,1.59H97.83l12.84,37.05L113,48.06l2.32-9.42ZM174,51c-7.58,0-12.6-3.91-14.19-12.59,16.88-.86,35.47-3.92,35.47-20.42,0-11-7.83-18-20.67-18-17,0-28.86,13.45-28.86,33,0,18.71,9.91,28.86,26.66,29.1,10.39,0,19.08-3.54,24.46-12.1l-8.07-6.73C184.89,48.67,180.86,51,174,51Zm.37-40c5.62,0,8.43,2.56,8.43,7.58,0,8.68-12.84,10.39-23.35,10.64C160.19,17.73,165.57,11,174.38,11Zm82.38,49.64L245.09,37.11c6.32-3.27,10.54-8.59,10.54-16.69,0-11.3-8.18-18.83-21-18.83H208.1V60.65h13.31V41.42a67.9,67.9,0,0,0,11.92-.71l9.38,19.94ZM221.41,31.13V12.34h13.8c4.87,0,7.94,3.12,7.94,8.29C243.15,30.11,231.5,31.13,221.41,31.13ZM81.87,36H57.1v-10H81.87Z"/></g></g></svg>