<svg xmlns="http://www.w3.org/2000/svg" xmlns:xlink="http://www.w3.org/1999/xlink" viewBox="0 0 331.85 528.68"><defs><style>.cls-1{fill:url(#Degradado_sin_nombre_36);}.cls-2,.cls-7{fill:none;}.cls-2,.cls-3,.cls-7{stroke:#494066;}.cls-2,.cls-3{stroke-linejoin:bevel;stroke-width:10px;}.cls-3,.cls-5{fill:#fff;}.cls-4{fill:url(#Degradado_sin_nombre_36-2);}.cls-6{fill:#494066;}.cls-7{stroke-miterlimit:10;stroke-width:5px;}</style><linearGradient id="Degradado_sin_nombre_36" x1="73.67" y1="348.98" x2="257.26" y2="348.98" gradientUnits="userSpaceOnUse"><stop offset="0" stop-color="#ff2e79"/><stop offset="1" stop-color="#c22998"/></linearGradient><linearGradient id="Degradado_sin_nombre_36-2" x1="149.45" y1="75.32" x2="300.09" y2="75.32" xlink:href="#Degradado_sin_nombre_36"/></defs><g id="Capa_2" data-name="Capa 2"><g id="Capa_1-2" data-name="Capa 1"><polygon class="cls-1" points="73.67 346.87 165.9 306.72 257.26 346.95 163.79 391.25 73.67 346.87"/><polygon class="cls-2" points="165.9 524.28 67.63 471.19 67.63 346.95 165.9 394.39 165.9 524.28"/><polygon class="cls-2" points="165.9 524.28 264.17 471.19 264.17 346.95 165.9 394.39 165.9 524.28"/><polygon class="cls-2" points="67.07 349.77 165.9 306.29 263.6 349.77 165.9 394.39 67.07 349.77"/><polygon class="cls-2" points="165.9 306.29 235.75 273.53 329.68 315.33 259.23 349.26 165.9 306.29"/><polygon class="cls-3" points="2.12 383.09 71.98 350.34 165.9 392.14 100.39 423.75 2.12 383.09"/><polygon class="cls-3" points="319.81 392.02 259.52 349.67 165.9 392.14 224.16 438.5 319.81 392.02"/><polygon class="cls-2" points="165.9 307 104.78 261.57 11.16 304.04 71.68 350.14 165.9 307"/><circle class="cls-4" cx="224.77" cy="75.32" r="75.32"/><path class="cls-5" d="M213.35,64.22V37.44h21.86V64.22H262V86.07H235.21v26.78H213.35V86.07H186.58V64.22Z"/><circle class="cls-3" cx="108.54" cy="184.15" r="48.9"/><path class="cls-6" d="M101.13,176.94V159.55h14.19v17.39h17.39v14.19H115.32v17.39H101.13V191.13H83.74V176.94Z"/><circle class="cls-6" cx="224.63" cy="266.71" r="39.25"/><path class="cls-5" d="M218.68,260.93V247h11.38v14h14v11.39h-14v13.95H218.68V272.32h-14V260.93Z"/><circle class="cls-7" cx="98.12" cy="91.34" r="14.95"/><line class="cls-7" x1="272.44" y1="187.38" x2="272.44" y2="216.9"/><line class="cls-7" x1="287.19" y1="202.14" x2="257.68" y2="202.14"/></g></g></svg>