<svg xmlns="http://www.w3.org/2000/svg" xmlns:xlink="http://www.w3.org/1999/xlink" viewBox="0 0 418.85 545.4"><defs><style>.cls-1{fill:#f3f4f8;}.cls-2{fill:url(#Degradado_sin_nombre_36);}.cls-3{fill:#494066;}.cls-4{fill:#fff;}.cls-5{fill:url(#Degradado_sin_nombre_36-2);}</style><linearGradient id="Degradado_sin_nombre_36" x1="152.51" y1="360.11" x2="341.95" y2="360.11" gradientUnits="userSpaceOnUse"><stop offset="0" stop-color="#ff2e79"/><stop offset="1" stop-color="#c22998"/></linearGradient><linearGradient id="Degradado_sin_nombre_36-2" x1="230.71" y1="77.72" x2="386.15" y2="77.72" xlink:href="#Degradado_sin_nombre_36"/></defs><g id="Capa_2" data-name="Capa 2"><g id="Capa_1-2" data-name="Capa 1"><circle class="cls-1" cx="4.83" cy="210.92" r="4.83"/><circle class="cls-1" cx="27.04" cy="210.92" r="4.83"/><circle class="cls-1" cx="49.24" cy="210.92" r="4.83"/><circle class="cls-1" cx="71.45" cy="210.92" r="4.83"/><circle class="cls-1" cx="93.66" cy="210.92" r="4.83"/><circle class="cls-1" cx="115.87" cy="210.92" r="4.83"/><circle class="cls-1" cx="138.07" cy="210.92" r="4.83"/><circle class="cls-1" cx="160.28" cy="210.92" r="4.83"/><circle class="cls-1" cx="182.49" cy="210.92" r="4.83"/><circle class="cls-1" cx="204.7" cy="210.92" r="4.83"/><circle class="cls-1" cx="4.83" cy="233.37" r="4.83"/><circle class="cls-1" cx="27.04" cy="233.37" r="4.83"/><circle class="cls-1" cx="49.24" cy="233.37" r="4.83"/><circle class="cls-1" cx="71.45" cy="233.37" r="4.83"/><circle class="cls-1" cx="93.66" cy="233.37" r="4.83"/><circle class="cls-1" cx="115.87" cy="233.37" r="4.83"/><circle class="cls-1" cx="138.07" cy="233.37" r="4.83"/><circle class="cls-1" cx="160.28" cy="233.37" r="4.83"/><circle class="cls-1" cx="182.49" cy="233.37" r="4.83"/><circle class="cls-1" cx="204.7" cy="233.37" r="4.83"/><circle class="cls-1" cx="4.83" cy="255.82" r="4.83"/><circle class="cls-1" cx="27.04" cy="255.82" r="4.83"/><circle class="cls-1" cx="49.24" cy="255.82" r="4.83"/><circle class="cls-1" cx="71.45" cy="255.82" r="4.83"/><circle class="cls-1" cx="93.66" cy="255.82" r="4.83"/><circle class="cls-1" cx="115.87" cy="255.82" r="4.83"/><circle class="cls-1" cx="138.07" cy="255.82" r="4.83"/><circle class="cls-1" cx="160.28" cy="255.82" r="4.83"/><circle class="cls-1" cx="182.49" cy="255.82" r="4.83"/><circle class="cls-1" cx="204.7" cy="255.82" r="4.83"/><circle class="cls-1" cx="4.83" cy="278.27" r="4.83"/><circle class="cls-1" cx="27.04" cy="278.27" r="4.83"/><circle class="cls-1" cx="49.24" cy="278.27" r="4.83"/><circle class="cls-1" cx="71.45" cy="278.27" r="4.83"/><circle class="cls-1" cx="93.66" cy="278.27" r="4.83"/><circle class="cls-1" cx="115.87" cy="278.27" r="4.83"/><circle class="cls-1" cx="138.07" cy="278.27" r="4.83"/><circle class="cls-1" cx="160.28" cy="278.27" r="4.83"/><circle class="cls-1" cx="182.49" cy="278.27" r="4.83"/><circle class="cls-1" cx="204.7" cy="278.27" r="4.83"/><circle class="cls-1" cx="4.83" cy="300.72" r="4.83"/><circle class="cls-1" cx="27.04" cy="300.72" r="4.83"/><circle class="cls-1" cx="49.24" cy="300.72" r="4.83"/><circle class="cls-1" cx="71.45" cy="300.72" r="4.83"/><circle class="cls-1" cx="93.66" cy="300.72" r="4.83"/><circle class="cls-1" cx="115.87" cy="300.72" r="4.83"/><circle class="cls-1" cx="138.07" cy="300.72" r="4.83"/><circle class="cls-1" cx="160.28" cy="300.72" r="4.83"/><circle class="cls-1" cx="182.49" cy="300.72" r="4.83"/><circle class="cls-1" cx="204.7" cy="300.72" r="4.83"/><circle class="cls-1" cx="4.83" cy="323.17" r="4.83"/><circle class="cls-1" cx="27.04" cy="323.17" r="4.83"/><circle class="cls-1" cx="49.24" cy="323.17" r="4.83"/><circle class="cls-1" cx="71.45" cy="323.17" r="4.83"/><circle class="cls-1" cx="93.66" cy="323.17" r="4.83"/><circle class="cls-1" cx="115.87" cy="323.17" r="4.83"/><circle class="cls-1" cx="138.07" cy="323.17" r="4.83"/><circle class="cls-1" cx="160.28" cy="323.17" r="4.83"/><circle class="cls-1" cx="182.49" cy="323.17" r="4.83"/><circle class="cls-1" cx="204.7" cy="323.17" r="4.83"/><circle class="cls-1" cx="4.83" cy="345.61" r="4.83"/><circle class="cls-1" cx="27.04" cy="345.61" r="4.83"/><circle class="cls-1" cx="49.24" cy="345.61" r="4.83"/><circle class="cls-1" cx="71.45" cy="345.61" r="4.83"/><circle class="cls-1" cx="93.66" cy="345.61" r="4.83"/><circle class="cls-1" cx="115.87" cy="345.61" r="4.83"/><circle class="cls-1" cx="138.07" cy="345.61" r="4.83"/><circle class="cls-1" cx="160.28" cy="345.61" r="4.83"/><circle class="cls-1" cx="182.49" cy="345.61" r="4.83"/><circle class="cls-1" cx="204.7" cy="345.61" r="4.83"/><circle class="cls-1" cx="4.83" cy="368.06" r="4.83"/><circle class="cls-1" cx="27.04" cy="368.06" r="4.83"/><circle class="cls-1" cx="49.24" cy="368.06" r="4.83"/><circle class="cls-1" cx="71.45" cy="368.06" r="4.83"/><circle class="cls-1" cx="93.66" cy="368.06" r="4.83"/><circle class="cls-1" cx="115.87" cy="368.06" r="4.83"/><circle class="cls-1" cx="138.07" cy="368.06" r="4.83"/><circle class="cls-1" cx="160.28" cy="368.06" r="4.83"/><circle class="cls-1" cx="182.49" cy="368.06" r="4.83"/><circle class="cls-1" cx="204.7" cy="368.06" r="4.83"/><circle class="cls-1" cx="4.83" cy="390.51" r="4.83"/><circle class="cls-1" cx="27.04" cy="390.51" r="4.83"/><circle class="cls-1" cx="49.24" cy="390.51" r="4.83"/><circle class="cls-1" cx="71.45" cy="390.51" r="4.83"/><circle class="cls-1" cx="93.66" cy="390.51" r="4.83"/><circle class="cls-1" cx="115.87" cy="390.51" r="4.83"/><circle class="cls-1" cx="138.07" cy="390.51" r="4.83"/><circle class="cls-1" cx="160.28" cy="390.51" r="4.83"/><circle class="cls-1" cx="182.49" cy="390.51" r="4.83"/><circle class="cls-1" cx="204.7" cy="390.51" r="4.83"/><polygon class="cls-2" points="152.51 357.93 247.68 316.5 341.95 358.01 245.5 403.72 152.51 357.93"/><path class="cls-3" d="M245.3,545.4,143.9,490.62l-2.62-4.4V358l7.17-4.5,101.4,48.95,2.83,4.51V541Zm-94-62.16,91.4,49.38V410.1L151.28,366Z"/><path class="cls-3" d="M250.06,545.4l-7.38-4.4V407l2.83-4.51,101.4-48.95,7.17,4.5V486.22l-2.62,4.4Zm2.62-135.3V532.62l91.4-49.38V366Z"/><path class="cls-3" d="M245.62,411.52l-102-46,0-9.14,102-44.87h4l100.82,44.87,0,9.12-100.81,46ZM158,361l89.69,40.48L336.33,361l-88.66-39.47Z"/><path class="cls-3" d="M341.9,364.94,245.59,320.6l0-9.07,72.08-33.8,4.16,0,96.91,43.13.14,9.08-72.69,35ZM259.54,316l84.4,38.86,60.84-29.3-85-37.82Z"/><polygon class="cls-4" points="78.68 395.31 150.76 361.51 247.68 404.65 180.08 437.27 78.68 395.31"/><path class="cls-3" d="M178.17,441.89l-101.4-42-.21-9.15L148.64,357l4.16,0,96.91,43.14.14,9.07-67.6,32.62ZM91.07,395l88.85,36.77,55.87-27-85-37.82Z"/><polygon class="cls-4" points="406.5 404.52 344.29 360.82 247.68 404.65 307.8 452.49 406.5 404.52"/><path class="cls-3" d="M310,457l-5.29-.58-60.12-47.84,1-8.47,96.61-43.83,4.94.47,62.21,43.7-.68,8.59Zm-52.79-51.16,51.26,40.79,88.23-42.87-52.93-37.19Z"/><polygon class="cls-4" points="247.68 316.79 184.61 269.91 88 313.74 150.46 361.31 247.68 316.79"/><path class="cls-3" d="M152.54,365.85l-5.11-.56L85,317.71l1-8.53,96.6-43.83,5.05.55,63.07,46.87-.9,8.56Zm-54.85-51,53.41,40.68,86.81-39.75L184,275.68Z"/><circle class="cls-5" cx="308.43" cy="77.72" r="77.72"/><path class="cls-4" d="M296.65,66.26V38.63H319.2V66.26h27.63V88.82H319.2v27.63H296.65V88.82H269V66.26Z"/><circle class="cls-4" cx="188.49" cy="190.02" r="50.46"/><path class="cls-3" d="M188.49,245.49A55.47,55.47,0,1,1,244,190,55.53,55.53,0,0,1,188.49,245.49Zm0-100.93A45.47,45.47,0,1,0,234,190,45.52,45.52,0,0,0,188.49,144.56Z"/><path class="cls-3" d="M180.84,182.58V164.64h14.65v17.94h17.94v14.65H195.49v17.94H180.84V197.23H162.9V182.58Z"/><circle class="cls-3" cx="308.28" cy="275.22" r="40.5"/><path class="cls-4" d="M302.14,269.25v-14.4h11.75v14.4h14.4V281h-14.4v14.4H302.14V281h-14.4V269.25Z"/><path class="cls-3" d="M177.74,112.17a17.92,17.92,0,1,1,17.92-17.92A17.94,17.94,0,0,1,177.74,112.17Zm0-30.84a12.92,12.92,0,1,0,12.92,12.92A12.93,12.93,0,0,0,177.74,81.33Z"/><rect class="cls-3" x="355.11" y="193.36" width="5" height="30.46"/><rect class="cls-3" x="342.38" y="206.09" width="30.46" height="5"/></g></g></svg>