<?xml version="1.0" encoding="utf-8"?>
<!-- Generator: Adobe Illustrator 24.1.1, SVG Export Plug-In . SVG Version: 6.00 Build 0)  -->
<svg version="1.1" id="Capa_1" xmlns="http://www.w3.org/2000/svg" xmlns:xlink="http://www.w3.org/1999/xlink" x="0px" y="0px"
	 viewBox="0 0 161.8 161.8" style="enable-background:new 0 0 161.8 161.8;" xml:space="preserve">
<style type="text/css">
	.st0{fill:#FFFFFF;}
	.st1{fill:none;stroke:#E6E6E6;stroke-width:4;stroke-miterlimit:10;}
	.st2{fill:#494066;}
	.st3{clip-path:url(#SVGID_2_);}
	.st4{fill:url(#SVGID_3_);}
	.st5{clip-path:url(#SVGID_5_);}
	.st6{fill:url(#SVGID_6_);}
	.st7{clip-path:url(#SVGID_8_);}
	.st8{fill:url(#SVGID_9_);}
	.st9{clip-path:url(#SVGID_11_);}
	.st10{fill:url(#SVGID_12_);}
</style>
<g>
	<g id="Capa_2_1_">
		<g id="Capa_1-2">
			
				<image style="overflow:visible;opacity:0.15;enable-background:new    ;" width="178" height="178" xlink:href="7F089DAA.png"  transform="matrix(1 0 0 1 -6.1144 -8.0195)">
			</image>
			<circle class="st0" cx="77.4" cy="76" r="65.5"/>
			<circle class="st1" cx="77.4" cy="76" r="65.5"/>
			<path class="st2" d="M45.7,108.6c-18.1-18.1-18.1-47.4,0-65.4s47.4-18.1,65.4,0s18.1,47.4,0,65.4c-8.7,8.7-20.5,13.6-32.7,13.6
				C66.1,122.1,54.3,117.3,45.7,108.6 M106,48.2C90.7,33,66.1,33,50.8,48.3s-15.2,39.9,0.1,55.2c15.2,15.2,39.9,15.2,55.1,0
				C121.2,88.2,121.2,63.5,106,48.2"/>
			<circle class="st0" cx="112.1" cy="77.4" r="22.1"/>
			<g>
				<defs>
					<path id="SVGID_1_" d="M105.8,71c3.5-3.5,9.2-3.5,12.7,0c3.5,3.5,3.5,9.2,0,12.7c-3.5,3.5-9.2,3.5-12.7,0
						C102.3,80.2,102.3,74.5,105.8,71C105.8,71,105.8,71,105.8,71 M99.8,64.9c-6.9,6.9-6.9,18,0,24.9c6.9,6.9,18,6.9,24.9,0
						c6.9-6.9,6.9-18,0-24.9c0,0,0,0,0,0C117.8,58.1,106.6,58.1,99.8,64.9"/>
				</defs>
				<clipPath id="SVGID_2_">
					<use xlink:href="#SVGID_1_"  style="overflow:visible;"/>
				</clipPath>
				<g class="st3">
					
						<linearGradient id="SVGID_3_" gradientUnits="userSpaceOnUse" x1="-2288.4629" y1="-1796.4822" x2="-2287.3728" y2="-1796.4822" gradientTransform="matrix(22.9668 22.9668 -22.9668 22.9668 11399.9834 93884.1172)">
						<stop  offset="0" style="stop-color:#FF2E79"/>
						<stop  offset="1" style="stop-color:#C22998"/>
					</linearGradient>
					<polygon class="st4" points="87.3,77.3 112.2,52.5 137.1,77.3 112.2,102.2 					"/>
				</g>
			</g>
			<circle class="st0" cx="40.8" cy="77.4" r="22.1"/>
			<g>
				<defs>
					<path id="SVGID_4_" d="M34.5,71c3.5-3.5,9.2-3.5,12.7,0c3.5,3.5,3.5,9.2,0,12.7c-3.5,3.5-9.2,3.5-12.7,0
						C31,80.2,31,74.5,34.5,71C34.5,71,34.5,71,34.5,71 M28.5,64.9c-6.9,6.9-6.9,18,0,24.9c6.9,6.9,18,6.9,24.9,0s6.9-18,0-24.9
						c0,0,0,0,0,0C46.4,58.1,35.3,58.1,28.5,64.9"/>
				</defs>
				<clipPath id="SVGID_5_">
					<use xlink:href="#SVGID_4_"  style="overflow:visible;"/>
				</clipPath>
				<g class="st5">
					
						<linearGradient id="SVGID_6_" gradientUnits="userSpaceOnUse" x1="-2290.0129" y1="-1794.9298" x2="-2288.9329" y2="-1794.9298" gradientTransform="matrix(22.9668 22.9668 -22.9668 22.9668 11399.9756 93884.1094)">
						<stop  offset="0" style="stop-color:#FF2E79"/>
						<stop  offset="1" style="stop-color:#C22998"/>
					</linearGradient>
					<polygon class="st6" points="16,77.3 40.9,52.5 65.7,77.3 40.9,102.2 					"/>
				</g>
			</g>
			<circle class="st0" cx="76.4" cy="41.8" r="22.1"/>
			<g>
				<defs>
					<path id="SVGID_7_" d="M69.9,48c-3.5-3.5-3.5-9.2,0-12.7s9.2-3.5,12.7,0c3.5,3.5,3.5,9.2,0,12.7C79.2,51.5,73.5,51.5,69.9,48
						C69.9,48,69.9,48,69.9,48 M63.9,54.1c6.9,6.9,18,6.9,24.9,0c6.9-6.9,6.9-18,0-24.9c-6.9-6.9-18-6.9-24.9,0c0,0,0,0,0,0
						C57,36.1,57,47.2,63.9,54.1"/>
				</defs>
				<clipPath id="SVGID_8_">
					<use xlink:href="#SVGID_7_"  style="overflow:visible;"/>
				</clipPath>
				<g class="st7">
					
						<linearGradient id="SVGID_9_" gradientUnits="userSpaceOnUse" x1="-2269.363" y1="-1736.3607" x2="-2268.2729" y2="-1736.3607" gradientTransform="matrix(22.9668 -22.9668 22.9668 22.9668 92063.6094 -12188.2559)">
						<stop  offset="0" style="stop-color:#FF2E79"/>
						<stop  offset="1" style="stop-color:#C22998"/>
					</linearGradient>
					<polygon class="st8" points="51.4,41.7 76.3,16.8 101.2,41.7 76.3,66.5 					"/>
				</g>
			</g>
			<circle class="st0" cx="76.4" cy="113.1" r="22.1"/>
			<g>
				<defs>
					<path id="SVGID_10_" d="M69.9,119.3c-3.5-3.5-3.5-9.2,0-12.7s9.2-3.5,12.7,0c3.5,3.5,3.5,9.2,0,12.7
						C79.2,122.8,73.5,122.8,69.9,119.3C69.9,119.3,69.9,119.3,69.9,119.3 M63.9,125.4c6.9,6.9,18,6.9,24.9,0c6.9-6.9,6.9-18,0-24.9
						s-18-6.9-24.9,0c0,0,0,0,0,0C57,107.4,57,118.5,63.9,125.4"/>
				</defs>
				<clipPath id="SVGID_11_">
					<use xlink:href="#SVGID_10_"  style="overflow:visible;"/>
				</clipPath>
				<g class="st9">
					
						<linearGradient id="SVGID_12_" gradientUnits="userSpaceOnUse" x1="-2270.9128" y1="-1734.8081" x2="-2269.833" y2="-1734.8081" gradientTransform="matrix(22.9668 -22.9668 22.9668 22.9668 92063.6016 -12188.2529)">
						<stop  offset="0" style="stop-color:#FF2E79"/>
						<stop  offset="1" style="stop-color:#C22998"/>
					</linearGradient>
					<polygon class="st10" points="51.4,113 76.3,88.1 101.2,113 76.3,137.8 					"/>
				</g>
			</g>
		</g>
	</g>
</g>
</svg>
