<?xml version="1.0" encoding="utf-8"?>
<!-- Generator: Adobe Illustrator 24.1.1, SVG Export Plug-In . SVG Version: 6.00 Build 0)  -->
<svg version="1.1" id="Capa_1" xmlns="http://www.w3.org/2000/svg" xmlns:xlink="http://www.w3.org/1999/xlink" x="0px" y="0px"
	 viewBox="0 0 161.8 161.8" style="enable-background:new 0 0 161.8 161.8;" xml:space="preserve">
<style type="text/css">
	.st0{fill:#FFFFFF;}
	.st1{fill:none;stroke:#E6E6E6;stroke-width:4;stroke-miterlimit:10;}
	.st2{fill:#494066;}
	.st3{clip-path:url(#SVGID_2_);}
	.st4{fill:url(#SVGID_3_);}
	.st5{clip-path:url(#SVGID_5_);}
	.st6{fill:url(#SVGID_6_);}
	.st7{clip-path:url(#SVGID_8_);}
	.st8{fill:url(#SVGID_9_);}
</style>
<g>
	
		<image style="overflow:visible;opacity:0.15;enable-background:new    ;" width="178" height="178" xlink:href="10CB80D9.png"  transform="matrix(1 0 0 1 -5.6544 -8.1144)">
	</image>
	<circle class="st0" cx="78.6" cy="75.6" r="65.5"/>
	<circle class="st1" cx="78.6" cy="75.6" r="65.5"/>
	<path class="st2" d="M45,109.5C26.9,91.4,26.9,62.1,45,44s47.4-18.1,65.4,0s18.1,47.4,0,65.4C101.7,118.1,90,123,77.7,123
		C65.4,123,53.6,118.2,45,109.5 M105.3,49.1C90.1,33.9,65.4,34,50.2,49.2S35,89.1,50.3,104.4c15.2,15.2,39.9,15.2,55.1,0
		C120.6,89.1,120.6,64.4,105.3,49.1"/>
	<circle class="st0" cx="64.7" cy="39.3" r="22.1"/>
	<g>
		<defs>
			<path id="SVGID_1_" d="M58.4,32.9c3.5-3.5,9.2-3.5,12.7,0c3.5,3.5,3.5,9.2,0,12.7c-3.5,3.5-9.2,3.5-12.7,0
				C54.9,42.1,54.9,36.4,58.4,32.9C58.4,32.9,58.4,32.9,58.4,32.9 M52.3,26.8c-6.9,6.9-6.9,18,0,24.9s18,6.9,24.9,0s6.9-18,0-24.9
				c0,0,0,0,0,0C70.3,19.9,59.2,19.9,52.3,26.8"/>
		</defs>
		<clipPath id="SVGID_2_">
			<use xlink:href="#SVGID_1_"  style="overflow:visible;"/>
		</clipPath>
		<g class="st3">
			
				<linearGradient id="SVGID_3_" gradientUnits="userSpaceOnUse" x1="-1851.0948" y1="-1786.505" x2="-1850.0149" y2="-1786.505" gradientTransform="matrix(22.9668 22.9668 -22.9668 22.9668 1536.6144 83571.7422)">
				<stop  offset="0" style="stop-color:#FF2E79"/>
				<stop  offset="1" style="stop-color:#C22998"/>
			</linearGradient>
			<polygon class="st4" points="40,39.2 64.8,14.4 89.7,39.2 64.8,64.1 			"/>
		</g>
	</g>
	
		<ellipse transform="matrix(5.530041e-02 -0.9985 0.9985 5.530041e-02 -56.4646 155.0128)" class="st0" cx="53.7" cy="107.3" rx="22.1" ry="22.1"/>
	<g>
		<defs>
			<path id="SVGID_4_" d="M47.4,100.9c3.5-3.5,9.2-3.5,12.7,0c3.5,3.5,3.5,9.2,0,12.7c-3.5,3.5-9.2,3.5-12.7,0
				C43.9,110.1,43.9,104.4,47.4,100.9C47.4,100.9,47.4,100.9,47.4,100.9 M41.3,94.8c-6.9,6.9-6.9,18,0,24.9s18,6.9,24.9,0
				c6.9-6.9,6.9-18,0-24.9c0,0,0,0,0,0C59.3,87.9,48.2,87.9,41.3,94.8"/>
		</defs>
		<clipPath id="SVGID_5_">
			<use xlink:href="#SVGID_4_"  style="overflow:visible;"/>
		</clipPath>
		<g class="st5">
			
				<linearGradient id="SVGID_6_" gradientUnits="userSpaceOnUse" x1="-1849.8549" y1="-1784.7853" x2="-1848.7749" y2="-1784.7853" gradientTransform="matrix(22.9668 22.9668 -22.9668 22.9668 1536.6111 83571.75)">
				<stop  offset="0" style="stop-color:#FF2E79"/>
				<stop  offset="1" style="stop-color:#C22998"/>
			</linearGradient>
			<polygon class="st6" points="29,107.2 53.8,82.4 78.7,107.2 53.8,132.1 			"/>
		</g>
	</g>
	<circle class="st0" cx="117.7" cy="85.3" r="22.1"/>
	<g>
		<defs>
			<path id="SVGID_7_" d="M111.4,78.9c3.5-3.5,9.2-3.5,12.7,0c3.5,3.5,3.5,9.2,0,12.7c-3.5,3.5-9.2,3.5-12.7,0
				C107.9,88.1,107.9,82.4,111.4,78.9C111.4,78.9,111.4,78.9,111.4,78.9 M105.3,72.8c-6.9,6.9-6.9,18,0,24.9c6.9,6.9,18,6.9,24.9,0
				s6.9-18,0-24.9c0,0,0,0,0,0C123.3,65.9,112.2,65.9,105.3,72.8"/>
		</defs>
		<clipPath id="SVGID_8_">
			<use xlink:href="#SVGID_7_"  style="overflow:visible;"/>
		</clipPath>
		<g class="st7">
			
				<linearGradient id="SVGID_9_" gradientUnits="userSpaceOnUse" x1="-1848.9348" y1="-1786.6576" x2="-1847.8549" y2="-1786.6576" gradientTransform="matrix(22.9668 22.9668 -22.9668 22.9668 1536.608 83571.75)">
				<stop  offset="0" style="stop-color:#FF2E79"/>
				<stop  offset="1" style="stop-color:#C22998"/>
			</linearGradient>
			<polygon class="st8" points="92.9,85.2 117.8,60.4 142.7,85.2 117.8,110.1 			"/>
		</g>
	</g>
</g>
</svg>
