<?xml version="1.0" encoding="utf-8"?>
<!-- Generator: Adobe Illustrator 24.1.1, SVG Export Plug-In . SVG Version: 6.00 Build 0)  -->
<svg version="1.1" id="Capa_1" xmlns="http://www.w3.org/2000/svg" xmlns:xlink="http://www.w3.org/1999/xlink" x="0px" y="0px"
	 viewBox="0 0 161.8 161.8" style="enable-background:new 0 0 161.8 161.8;" xml:space="preserve">
<style type="text/css">
	.st0{fill:#FFFFFF;}
	.st1{fill:none;stroke:#E6E6E6;stroke-width:4;stroke-miterlimit:10;}
	.st2{clip-path:url(#SVGID_2_);}
	.st3{fill:url(#SVGID_3_);}
	.st4{fill:#494066;}
</style>
<g>
	<g id="Capa_2_2_">
		<g id="Capa_1-2_1_">
			
				<image style="overflow:visible;opacity:0.15;enable-background:new    ;" width="178" height="178" xlink:href="905187E9.png"  transform="matrix(1 0 0 1 -6.0444 -7.7444)">
			</image>
			<circle class="st0" cx="78.3" cy="76" r="65.5"/>
			<circle class="st1" cx="78.3" cy="76" r="65.5"/>
			<g>
				<defs>
					<path id="SVGID_1_" d="M69,75.8c0-5.4,4.4-9.7,9.7-9.7s9.7,4.4,9.7,9.8c0,5.4-4.4,9.7-9.7,9.7C73.3,85.5,69,81.1,69,75.8
						 M59.7,75.8c0,10.5,8.5,19,19,19s19-8.5,19-19s-8.5-19-19-19C68.2,56.8,59.7,65.3,59.7,75.8"/>
				</defs>
				<clipPath id="SVGID_2_">
					<use xlink:href="#SVGID_1_"  style="overflow:visible;"/>
				</clipPath>
				<g class="st2">
					
						<linearGradient id="SVGID_3_" gradientUnits="userSpaceOnUse" x1="-1009.4787" y1="-1769.0461" x2="-1008.3075" y2="-1769.0461" gradientTransform="matrix(32.48 0 0 32.48 32848.1094 57534.3828)">
						<stop  offset="0" style="stop-color:#FF2E79"/>
						<stop  offset="1" style="stop-color:#C22998"/>
					</linearGradient>
					<rect x="59.7" y="56.7" class="st3" width="38" height="38"/>
				</g>
			</g>
			<path class="st4" d="M46.7,109.8c-18.1-18.1-18.1-47.4,0-65.4s47.4-18.1,65.4,0s18.1,47.4,0,65.4c-8.7,8.7-20.5,13.6-32.7,13.6
				C67.2,123.4,55.4,118.5,46.7,109.8 M107.1,49.5c-15.2-15.2-39.9-15.2-55.2,0.1S36.7,89.5,52,104.7c15.2,15.2,39.9,15.2,55.1,0
				C122.3,89.5,122.3,64.8,107.1,49.5"/>
		</g>
	</g>
</g>
</svg>
