<?xml version="1.0" encoding="utf-8"?>
<!-- Generator: Adobe Illustrator 24.1.1, SVG Export Plug-In . SVG Version: 6.00 Build 0)  -->
<svg version="1.1" id="Capa_1" xmlns="http://www.w3.org/2000/svg" xmlns:xlink="http://www.w3.org/1999/xlink" x="0px" y="0px"
	 viewBox="0 0 161.8 161.8" style="enable-background:new 0 0 161.8 161.8;" xml:space="preserve">
<style type="text/css">
	.st0{fill:#FFFFFF;}
	.st1{fill:none;stroke:#E6E6E6;stroke-width:4;stroke-miterlimit:10;}
	.st2{fill:#494066;}
	.st3{clip-path:url(#SVGID_2_);}
	.st4{fill:url(#SVGID_3_);}
	.st5{clip-path:url(#SVGID_5_);}
	.st6{fill:url(#SVGID_6_);}
</style>
<g>
	<g id="Capa_2_1_">
		<g id="Capa_1-2">
			
				<image style="overflow:visible;opacity:0.15;enable-background:new    ;" width="178" height="178" xlink:href="300B5969.png"  transform="matrix(1 0 0 1 -5.1144 -8.1144)">
			</image>
			<circle class="st0" cx="78.6" cy="75.6" r="65.5"/>
			<circle class="st1" cx="78.6" cy="75.6" r="65.5"/>
			<path class="st2" d="M46.7,109.5c-18.1-18.1-18.1-47.4,0-65.4s47.4-18.1,65.4,0s18.1,47.4,0,65.4c-8.7,8.7-20.5,13.6-32.7,13.6
				C67.1,123,55.3,118.2,46.7,109.5 M107,49.1C91.7,33.9,67.1,34,51.8,49.2s-15.2,39.9,0.1,55.2c15.2,15.2,39.9,15.2,55.1,0
				C122.2,89.1,122.2,64.4,107,49.1"/>
			<circle class="st0" cx="114.1" cy="78.3" r="22.1"/>
			<g>
				<defs>
					<path id="SVGID_1_" d="M106.8,71.9c3.5-3.5,9.2-3.5,12.7,0c3.5,3.5,3.5,9.2,0,12.7c-3.5,3.5-9.2,3.5-12.7,0
						C103.3,81.1,103.3,75.4,106.8,71.9C106.8,71.9,106.8,71.9,106.8,71.9 M100.8,65.8c-6.9,6.9-6.9,18,0,24.9
						c6.9,6.9,18,6.9,24.9,0c6.9-6.9,6.9-18,0-24.9c0,0,0,0,0,0C118.8,59,107.6,59,100.8,65.8"/>
				</defs>
				<clipPath id="SVGID_2_">
					<use xlink:href="#SVGID_1_"  style="overflow:visible;"/>
				</clipPath>
				<g class="st3">
					
						<linearGradient id="SVGID_3_" gradientUnits="userSpaceOnUse" x1="-1428.5532" y1="-1777.348" x2="-1427.4731" y2="-1777.348" gradientTransform="matrix(22.9668 22.9668 -22.9668 22.9668 -7909.3857 73695.75)">
						<stop  offset="0" style="stop-color:#FF2E79"/>
						<stop  offset="1" style="stop-color:#C22998"/>
					</linearGradient>
					<polygon class="st4" points="88.3,78.2 113.2,53.4 138.1,78.2 113.2,103.1 					"/>
				</g>
			</g>
			<circle class="st0" cx="42.8" cy="78.3" r="22.1"/>
			<g>
				<defs>
					<path id="SVGID_4_" d="M35.5,71.9c3.5-3.5,9.2-3.5,12.7,0c3.5,3.5,3.5,9.2,0,12.7c-3.5,3.5-9.2,3.5-12.7,0
						C32,81.1,32,75.4,35.5,71.9C35.5,71.9,35.5,71.9,35.5,71.9 M29.5,65.8c-6.9,6.9-6.9,18,0,24.9c6.9,6.9,18,6.9,24.9,0
						s6.9-18,0-24.9c0,0,0,0,0,0C47.4,59,36.3,59,29.5,65.8"/>
				</defs>
				<clipPath id="SVGID_5_">
					<use xlink:href="#SVGID_4_"  style="overflow:visible;"/>
				</clipPath>
				<g class="st5">
					
						<linearGradient id="SVGID_6_" gradientUnits="userSpaceOnUse" x1="-1430.1031" y1="-1775.7958" x2="-1429.0232" y2="-1775.7958" gradientTransform="matrix(22.9668 22.9668 -22.9668 22.9668 -7909.3784 73695.7656)">
						<stop  offset="0" style="stop-color:#FF2E79"/>
						<stop  offset="1" style="stop-color:#C22998"/>
					</linearGradient>
					<polygon class="st6" points="17,78.2 41.9,53.4 66.8,78.2 41.9,103.1 					"/>
				</g>
			</g>
		</g>
	</g>
</g>
</svg>
