<svg xmlns="http://www.w3.org/2000/svg" viewBox="0 0 69.61 54.92"><defs><style>.cls-under-1{fill:#5719c6;stroke:#5719c6;}.cls-under-1,.cls-under-2{stroke-miterlimit:10;}.cls-under-2{fill:#494066;stroke:#494066;stroke-width:0.75px;}</style></defs><g id="Capa_2" data-name="Capa 2"><g id="Capa_1-2" data-name="Capa 1"><path class="cls-under-1" d="M61.09,31.16h0l-1.45-4.55h0L58.17,22a3.32,3.32,0,0,0-6.32,0l-3.4,10.68-1.51,4.75h0L43.6,47.91a3.4,3.4,0,0,0-2.69,3.33v2.24a.93.93,0,0,0,.93.93H68.18a.92.92,0,0,0,.93-.93h0V51.23a3.4,3.4,0,0,0-2.69-3.32ZM45.58,47.84l3-9.48,11-5.59,1.17,3.68L49.31,42.26a.93.93,0,0,0,.82,1.68h0l11.24-5.69L62.27,41,48.74,47.84ZM59.07,31l-9.68,4.9,1.21-3.81,7.6-3.84ZM62.84,42.8l1.6,5H52.86ZM53.63,22.55a1.45,1.45,0,0,1,2.76,0l1.23,3.87-6.23,3.15ZM67.25,51.23v1.32H42.77V51.24A1.54,1.54,0,0,1,44.3,49.7H65.72A1.54,1.54,0,0,1,67.25,51.23Z"/><path class="cls-under-2" d="M48.94,6.64a1.47,1.47,0,1,0,1.47,1.47A1.47,1.47,0,0,0,48.94,6.64Z"/><circle class="cls-under-2" cx="54.27" cy="8.11" r="1.47"/><path class="cls-under-2" d="M59.6,6.64a1.47,1.47,0,1,0,1.47,1.47A1.47,1.47,0,0,0,59.6,6.64Z"/><path class="cls-under-2" d="M66.51.38H.51A.13.13,0,0,0,.38.51v53.9a.13.13,0,0,0,.13.14h36.4a.14.14,0,0,0,.14-.14v-2.2a.13.13,0,0,0-.14-.13H2.85V15.85H64.17V28.08a.14.14,0,0,0,.14.14h2.2a.14.14,0,0,0,.14-.14V.51A.13.13,0,0,0,66.51.38Zm-63.66,13V2.85H64.17V13.38Z"/></g></g></svg>