<svg xmlns="http://www.w3.org/2000/svg" viewBox="0 0 21.33 15"><defs><style>.cls-15{fill:#fff;}</style></defs><g id="Capa_2" data-name="Capa 2"><g id="Capa_1-2" data-name="Capa 1"><path class="cls-15" d="M20.88,2.35A2.66,2.66,0,0,0,19,.45C17.34,0,10.67,0,10.67,0S4,0,2.33.45A2.66,2.66,0,0,0,.45,2.35,27.76,27.76,0,0,0,0,7.51a27.85,27.85,0,0,0,.45,5.17,2.62,2.62,0,0,0,1.88,1.87C4,15,10.67,15,10.67,15s6.67,0,8.33-.45a2.62,2.62,0,0,0,1.88-1.87,27.85,27.85,0,0,0,.45-5.17A27.76,27.76,0,0,0,20.88,2.35ZM8.48,10.69V4.34l5.58,3.17L8.48,10.69Z"/></g></g></svg>