<?xml version="1.0" standalone="no"?>
<!DOCTYPE svg PUBLIC "-//W3C//DTD SVG 1.1//EN" "http://www.w3.org/Graphics/SVG/1.1/DTD/svg11.dtd" >
<svg xmlns="http://www.w3.org/2000/svg" xmlns:xlink="http://www.w3.org/1999/xlink" version="1.1">
<metadata></metadata>
<defs>
<font id="rotunda_regularregular" horiz-adv-x="1687" >
<font-face units-per-em="2048" ascent="1638" descent="-410" />
<missing-glyph horiz-adv-x="503" />
<glyph horiz-adv-x="0" />
<glyph unicode="&#xd;" horiz-adv-x="512" />
<glyph unicode=" "  horiz-adv-x="503" />
<glyph unicode="&#x09;" horiz-adv-x="503" />
<glyph unicode="&#xa0;" horiz-adv-x="503" />
<glyph unicode="!" horiz-adv-x="579" d="M166 102q0 53 36.5 89t88.5 36t88.5 -36t36.5 -89q0 -54 -37 -90.5t-88 -36.5t-88 36.5t-37 90.5zM180 1446h219l-20 -1049h-178z" />
<glyph unicode="&#x22;" horiz-adv-x="727" d="M121 1446h178l-25 -512h-129zM428 1446h178l-24 -512h-129z" />
<glyph unicode="#" horiz-adv-x="1429" d="M68 463l26 158h301l35 206h-301l27 158h303l71 414h177l-72 -414h252l71 414h177l-72 -414h301l-27 -158h-303l-35 -206h301l-26 -158h-303l-72 -416h-176l72 416h-252l-72 -416h-176l72 416h-299zM571 621h252l35 206h-252z" />
<glyph unicode="$" horiz-adv-x="1120" d="M63 256l170 115q108 -203 330 -203q123 0 201 60t78 137q0 22 -4.5 42t-10.5 36t-19 32t-24 27.5t-32.5 26t-36 23t-43 22.5t-46 22t-52 24t-54.5 25q-18 9 -55 25q-36 17 -54.5 25.5t-52.5 25t-52 28t-46.5 30.5t-44.5 35.5t-37 39t-32.5 46.5t-22.5 52.5t-16 61 t-5 69.5q0 141 103.5 247.5t269.5 131.5v242h191v-242q248 -41 358 -239l-158 -109q-109 168 -299 168q-118 0 -189 -52.5t-71 -139.5q0 -21 4.5 -40.5t11 -35.5t21 -32.5t25 -27.5t34 -26t37 -23.5t44.5 -23.5t47.5 -22.5t54 -24.5t55.5 -25q52 -23 85 -38.5t76 -37.5 t70.5 -41.5t58.5 -45.5t49.5 -53.5t35 -61t24 -73t7.5 -85.5q0 -145 -104.5 -255t-289.5 -134v-254h-190v254q-131 19 -234.5 88t-165.5 184z" />
<glyph unicode="%" horiz-adv-x="1613" d="M66 1130q0 142 100 240t242 98t241 -98t99 -240t-99 -238.5t-241 -96.5t-242 97t-100 238zM190 0l1057 1446h180l-1056 -1446h-181zM231 1130q0 -75 51.5 -125.5t125.5 -50.5q72 0 123 51t51 125q0 75 -51 127t-123 52q-74 0 -125.5 -52t-51.5 -127zM866 311 q0 142 100 240t242 98t241 -98t99 -240t-99 -239t-241 -97t-242 97t-100 239zM1032 311q0 -75 51 -125.5t125 -50.5q72 0 123 50.5t51 125.5t-51 126.5t-123 51.5q-74 0 -125 -51.5t-51 -126.5z" />
<glyph unicode="&#x26;" horiz-adv-x="1402" d="M88 375q0 123 78.5 218t236.5 189q-89 98 -129.5 172.5t-40.5 165.5q0 139 107 244.5t278 105.5q86 0 159 -29.5t121.5 -78t75.5 -110t27 -126.5q0 -108 -71 -190.5t-240 -185.5l320 -342q92 170 71 372h197q33 -285 -127 -522l242 -258h-256l-113 121 q-187 -146 -422 -146q-137 0 -253 47.5t-188.5 140t-72.5 212.5zM297 383q0 -69 47.5 -119.5t116 -73t145.5 -22.5q159 0 283 96l-361 383q-116 -67 -173 -126t-58 -138zM426 1122q0 -66 31 -114t108 -125q135 79 189.5 129t54.5 112q0 68 -53.5 117t-137.5 49 q-85 0 -138.5 -48.5t-53.5 -119.5z" />
<glyph unicode="'" horiz-adv-x="419" d="M121 1446h178l-25 -512h-129z" />
<glyph unicode="(" horiz-adv-x="602" d="M102 662q0 241 65 479.5t181 447.5h191q-116 -223 -175 -463.5t-59 -463.5t59 -464t175 -464h-191q-116 208 -181 447.5t-65 480.5z" />
<glyph unicode=")" horiz-adv-x="602" d="M63 -266q116 223 175 464t59 464t-59 463.5t-175 463.5h191q116 -209 181 -447.5t65 -479.5t-65 -480.5t-181 -447.5h-191z" />
<glyph unicode="*" horiz-adv-x="765" d="M96 1122v135l228 -34l-146 180l119 70l86 -216l86 216l119 -70l-146 -180l228 34v-135l-230 33l148 -178l-117 -70l-88 215l-88 -215l-117 70l148 178z" />
<glyph unicode="+" horiz-adv-x="1138" d="M68 637v174h411v410h180v-410h412v-174h-412v-412h-180v412h-411z" />
<glyph unicode="," horiz-adv-x="475" d="M113 102q0 54 35.5 89.5t89.5 35.5t89 -35.5t35 -89.5q0 -23 -16 -63l-127 -287h-100l84 230q-37 13 -63.5 46t-26.5 74z" />
<glyph unicode="-" horiz-adv-x="950" d="M137 469v172h676v-172h-676z" />
<glyph unicode="." horiz-adv-x="462" d="M106 102q0 53 36.5 89t88.5 36t88.5 -36t36.5 -89q0 -54 -37 -90.5t-88 -36.5t-88 36.5t-37 90.5z" />
<glyph unicode="/" horiz-adv-x="1060" d="M43 -287l782 1897h193l-782 -1897h-193z" />
<glyph unicode="0" horiz-adv-x="1363" d="M115 723q0 117 19 223t62 202.5t107 167t161.5 112.5t217.5 42t217.5 -42t161.5 -112.5t107 -167t62 -202.5t19 -223t-19 -223t-62 -203t-107 -167.5t-161.5 -112.5t-217.5 -42t-217.5 42t-161.5 112.5t-107 167.5t-62 203t-19 223zM324 723q0 -269 92.5 -412t265.5 -143 t265.5 143t92.5 412t-92.5 412t-265.5 143t-265.5 -143t-92.5 -412z" />
<glyph unicode="1" horiz-adv-x="1036" d="M100 1038v179q138 6 235.5 59t156.5 170h180v-1270h329v-176h-874v176h342v985q-69 -63 -158 -93t-211 -30z" />
<glyph unicode="2" horiz-adv-x="1144" d="M96 111q0 82 25 155.5t67.5 130t97 108t115.5 94t121.5 83t115 81t97 82t67.5 91.5t25 104q0 105 -73.5 171.5t-184.5 66.5q-206 0 -303 -199l-164 101q68 140 193.5 215t282.5 75q199 0 328.5 -114.5t129.5 -300.5q0 -96 -39.5 -180t-102.5 -145t-139.5 -116t-153 -104 t-140 -98t-103.5 -109t-41 -127h705v-176h-916q-10 58 -10 111z" />
<glyph unicode="3" horiz-adv-x="1142" d="M66 266l170 109q41 -100 118.5 -154.5t177.5 -54.5q124 0 206.5 73t82.5 183q0 133 -90 206.5t-252 73.5q-78 0 -143 -10v119l387 459h-592v176h864v-129l-391 -455q190 -12 308 -132.5t118 -299.5q0 -195 -141 -325t-354 -130q-160 0 -280.5 75t-188.5 216z" />
<glyph unicode="4" horiz-adv-x="1218" d="M47 360v127l641 959h246v-909h196v-177h-196v-360h-203v360h-684zM297 537h434v651z" />
<glyph unicode="5" horiz-adv-x="1146" d="M72 266l168 109q43 -102 121 -155.5t184 -53.5q137 0 219 79t82 212q0 135 -81.5 217t-215.5 82q-85 0 -147.5 -24.5t-125.5 -84.5l-124 53l81 746h740v-176h-576l-43 -391q38 24 98.5 38.5t122.5 14.5q211 0 345.5 -129.5t134.5 -337.5q0 -217 -140.5 -353.5 t-365.5 -136.5q-162 0 -286 75.5t-191 215.5z" />
<glyph unicode="6" horiz-adv-x="1185" d="M96 475q0 26 3.5 52t7 47t14 48.5t16.5 44t22 46t23 42.5t28 45.5t27.5 42.5t31 46t30.5 45l348 512h244l-379 -535q49 27 135 27q200 0 334.5 -138t134.5 -337q0 -103 -41.5 -194.5t-110.5 -155.5t-162.5 -101t-195.5 -37q-136 0 -253 65t-187 180.5t-70 254.5zM309 473 q0 -137 84 -223t213 -86q130 0 217.5 85.5t87.5 213.5q0 127 -87.5 213t-209.5 86q-133 0 -219 -83.5t-86 -205.5z" />
<glyph unicode="7" horiz-adv-x="1038" d="M61 1268v178h936v-139l-641 -1307h-223l629 1268h-701z" />
<glyph unicode="8" horiz-adv-x="1212" d="M111 393q0 133 74.5 227.5t172.5 127.5q-82 34 -142 124.5t-60 200.5q0 115 63 207t165.5 141t221.5 49t221.5 -49t166 -141t63.5 -207q0 -110 -60.5 -200.5t-142.5 -124.5q99 -33 173.5 -128t74.5 -227q0 -117 -67 -213t-180.5 -150.5t-248.5 -54.5t-248.5 54.5 t-180 150.5t-66.5 213zM324 406q0 -105 80.5 -175.5t201.5 -70.5t202 70.5t81 175.5q0 108 -81 178.5t-202 70.5q-122 0 -202 -70.5t-80 -178.5zM360 1069q0 -101 73 -165t173 -64q103 0 174.5 63.5t71.5 165.5q0 96 -72.5 156.5t-173.5 60.5t-173.5 -60.5t-72.5 -156.5z " />
<glyph unicode="9" horiz-adv-x="1185" d="M70 983q0 137 70 249.5t187 175t253 62.5t253 -64.5t187 -180t70 -254.5q0 -26 -3.5 -52t-7 -47t-14 -48.5t-16.5 -44t-22 -46t-23 -42.5t-28 -45.5t-27.5 -42.5t-31 -46t-30.5 -45l-348 -512h-244l379 535q-49 -27 -135 -27q-200 0 -334.5 138t-134.5 337zM274 983 q0 -127 87.5 -213t209.5 -86q133 0 219.5 83.5t86.5 205.5q0 137 -84 223t-213 86q-130 0 -218 -85.5t-88 -213.5z" />
<glyph unicode=":" horiz-adv-x="524" d="M137 102q0 53 36.5 89t88.5 36t88.5 -36t36.5 -89q0 -54 -36.5 -90.5t-88.5 -36.5t-88.5 36.5t-36.5 90.5zM137 936q0 53 36.5 89t88.5 36t88.5 -36t36.5 -89q0 -54 -36.5 -90.5t-88.5 -36.5t-88.5 36.5t-36.5 90.5z" />
<glyph unicode=";" horiz-adv-x="528" d="M139 102q0 54 35.5 89.5t89.5 35.5t89.5 -35.5t35.5 -89.5q0 -23 -16 -63l-127 -287h-101l84 230q-37 13 -63.5 46t-26.5 74zM139 936q0 53 36.5 89t88.5 36t88.5 -36t36.5 -89q0 -54 -36.5 -90.5t-88.5 -36.5t-88.5 36.5t-36.5 90.5z" />
<glyph unicode="&#x3c;" horiz-adv-x="1118" d="M68 629v188l901 400v-191l-695 -303l695 -303v-191z" />
<glyph unicode="=" horiz-adv-x="1126" d="M143 442v174h840v-174h-840zM143 827v174h840v-174h-840z" />
<glyph unicode="&#x3e;" horiz-adv-x="1118" d="M150 229v191l694 303l-694 303v191l901 -400v-188z" />
<glyph unicode="?" horiz-adv-x="997" d="M53 1239q59 97 177 164t247 67q196 0 318.5 -108.5t122.5 -280.5q0 -70 -21 -128.5t-54 -99t-73 -76t-80.5 -68t-73.5 -66t-54 -79t-21 -99.5v-90h-201v98q0 73 20.5 134t53.5 102.5t72.5 77t79.5 66t73 62t53.5 73.5t20.5 91q0 94 -64 148.5t-174 54.5q-84 0 -155.5 -42 t-122.5 -116zM315 102q0 53 36.5 89t88.5 36t88.5 -36t36.5 -89q0 -54 -36.5 -90.5t-88.5 -36.5t-88.5 36.5t-36.5 90.5z" />
<glyph unicode="@" horiz-adv-x="1941" d="M88 614q0 178 69.5 341.5t187 282.5t281.5 190t345 71q183 0 346 -70t277.5 -187.5t181.5 -276t67 -330.5q0 -206 -94 -341.5t-236 -135.5q-92 0 -155 49t-92 123q-42 -76 -131 -129.5t-181 -53.5q-189 0 -314.5 128.5t-125.5 328.5q0 198 122.5 327.5t297.5 129.5 q89 0 168 -38t115 -93v106h169v-571q0 -61 34.5 -107.5t92.5 -46.5q68 0 111 84.5t43 239.5q0 186 -89.5 345.5t-250 255t-356.5 95.5q-147 0 -278.5 -57t-225 -153t-148.5 -228.5t-55 -278.5q0 -195 90 -358.5t252.5 -260.5t362.5 -97q202 0 374 108l78 -145 q-209 -131 -452 -131q-180 0 -343.5 71t-281 190t-187 282.5t-69.5 340.5zM686 604q0 -130 78 -214.5t184 -84.5q113 0 194 84.5t81 214.5q0 132 -80.5 215.5t-194.5 83.5q-106 0 -184 -84.5t-78 -214.5z" />
<glyph unicode="A" horiz-adv-x="1359" d="M12 0l561 1446h213l562 -1446h-209l-152 393h-614l-152 -393h-209zM438 584h484l-242 641z" />
<glyph unicode="B" horiz-adv-x="1304" d="M199 0v1446h501q204 0 327.5 -103.5t123.5 -279.5q0 -116 -57 -203t-136 -125q93 -28 164.5 -117t71.5 -219q0 -183 -129.5 -291t-341.5 -108h-524zM401 186h326q114 0 184 66t70 166q0 95 -79 160t-200 65h-301v-457zM401 813h301q116 0 177 67t61 167q0 92 -65.5 153.5 t-178.5 61.5h-295v-449z" />
<glyph unicode="C" horiz-adv-x="1499" d="M98 723q0 157 58 296t156.5 237.5t234.5 156t287 57.5q201 0 354 -82.5t242 -211.5l-150 -138q-164 234 -446 234q-225 0 -376 -157.5t-151 -391.5q0 -153 70 -279t193.5 -198t273.5 -72q282 0 452 244l148 -127q-99 -143 -253.5 -229.5t-346.5 -86.5q-205 0 -376 97.5 t-270.5 269.5t-99.5 381z" />
<glyph unicode="D" horiz-adv-x="1529" d="M199 0v1446h503q155 0 291.5 -56.5t232.5 -153.5t151 -229.5t55 -281.5q0 -203 -93.5 -368.5t-261.5 -261t-375 -95.5h-503zM401 186h283q110 0 208.5 40.5t171 110.5t115 171t42.5 217q0 152 -72 276t-194.5 192.5t-268.5 68.5h-285v-1076z" />
<glyph unicode="E" horiz-adv-x="1210" d="M199 0v1446h897v-184h-695v-441h576v-184h-576v-451h715v-186h-917z" />
<glyph unicode="F" horiz-adv-x="1112" d="M199 0v1446h837v-184h-635v-463h547v-181h-547v-618h-202z" />
<glyph unicode="G" horiz-adv-x="1572" d="M98 723q0 157 58 296t156.5 237.5t234.5 156t287 57.5q198 0 347 -81.5t249 -212.5l-150 -138q-164 234 -446 234q-225 0 -376 -157.5t-151 -391.5t151 -391.5t376 -157.5q149 0 254 57t184 160v187h-365v176h555v-441q-105 -153 -267.5 -245.5t-360.5 -92.5 q-202 0 -370.5 97.5t-267 269.5t-98.5 381z" />
<glyph unicode="H" horiz-adv-x="1568" d="M199 0v1446h202v-635h766v635h203v-1446h-203v635h-766v-635h-202z" />
<glyph unicode="I" horiz-adv-x="600" d="M199 0v1446h202v-1446h-202z" />
<glyph unicode="J" horiz-adv-x="1064" d="M27 262l161 98q48 -98 107.5 -148t157.5 -50q111 0 168 71.5t57 184.5v1028h203v-1030q0 -193 -121.5 -317t-315.5 -124q-148 0 -255 73t-162 214z" />
<glyph unicode="K" horiz-adv-x="1339" d="M199 0v1446h202v-721l625 721h256l-522 -600l588 -846h-242l-479 698l-226 -258v-440h-202z" />
<glyph unicode="L" horiz-adv-x="1081" d="M199 0v1446h202v-1262h637v-184h-839z" />
<glyph unicode="M" horiz-adv-x="1843" d="M199 0v1446h186l537 -858l536 858h187v-1446h-203v1061l-457 -711h-127l-457 711v-1061h-202z" />
<glyph unicode="N" horiz-adv-x="1581" d="M199 0v1446h180l801 -1084v1084h202v-1446h-178l-801 1085v-1085h-204z" />
<glyph unicode="O" d="M98 723q0 209 99 381t270 269t377 97q154 0 292 -57.5t237.5 -156t157.5 -237.5t58 -296q0 -209 -98.5 -381t-269.5 -269.5t-377 -97.5t-377 97.5t-270 269.5t-99 381zM307 723q0 -155 72.5 -281.5t195.5 -197t269 -70.5t269 70.5t195 197t72 281.5t-72 281.5t-195 197 t-269 70.5t-269 -70.5t-195.5 -197t-72.5 -281.5z" />
<glyph unicode="P" horiz-adv-x="1232" d="M199 0v1446h510q125 0 230.5 -61t166.5 -165t61 -225q0 -190 -133.5 -324t-322.5 -134h-310v-537h-202zM401 713h277q116 0 198 81.5t82 200.5q0 113 -82 190t-198 77h-277v-549z" />
<glyph unicode="Q" d="M98 723q0 209 99 381t270 269t377 97q154 0 292 -57.5t237.5 -156t157.5 -237.5t58 -296q0 -211 -99.5 -382t-268.5 -267l309 -432h-246l-252 356q-104 -23 -188 -23q-206 0 -377 97.5t-270 269.5t-99 381zM307 723q0 -155 72.5 -281.5t195.5 -197t269 -70.5t269 70.5 t195 197t72 281.5t-72 281.5t-195 197t-269 70.5t-269 -70.5t-195.5 -197t-72.5 -281.5z" />
<glyph unicode="R" horiz-adv-x="1335" d="M199 0v1446h579q191 0 322 -123.5t131 -316.5q0 -150 -84 -257.5t-225 -156.5l297 -592h-232l-278 573h-308v-573h-202zM401 745h357q108 0 185 73t77 194q0 112 -77.5 181t-184.5 69h-357v-517z" />
<glyph unicode="S" horiz-adv-x="1153" d="M78 256l170 115q108 -203 330 -203q123 0 200.5 60t77.5 137q0 25 -4 46t-15.5 40t-21 33.5t-32 30.5t-36 26t-45.5 26t-49 24t-58 26.5t-60 27.5q-18 9 -55 25q-36 17 -54.5 25.5t-52.5 25t-52 28t-46.5 30.5t-44.5 35.5t-37 39t-32.5 46.5t-22.5 52.5t-16 61t-5 69.5 q0 162 133.5 274.5t335.5 112.5q136 0 259.5 -60.5t192.5 -186.5l-157 -109q-109 168 -299 168q-118 0 -189 -52.5t-71 -139.5q0 -48 19 -84.5t61 -66.5t85.5 -52.5t115.5 -54.5q34 -15 52 -23q52 -23 85 -38.5t76 -37.5t70.5 -41.5t58.5 -45.5t49.5 -53.5t35 -61t24 -73 t7.5 -85.5q0 -79 -32.5 -149.5t-92.5 -126t-154.5 -88t-210.5 -32.5q-161 0 -290.5 72t-202.5 207z" />
<glyph unicode="T" horiz-adv-x="1150" d="M39 1262v184h1071v-184h-434v-1262h-203v1262h-434z" />
<glyph unicode="U" horiz-adv-x="1478" d="M180 522v924h203v-911q0 -152 100 -258.5t256 -106.5q153 0 255 107.5t102 257.5v911h202v-924q0 -150 -72 -275t-200.5 -198.5t-286.5 -73.5t-286.5 73.5t-200.5 198.5t-72 275z" />
<glyph unicode="V" horiz-adv-x="1323" d="M14 1446h226l422 -1149l421 1149h226l-533 -1446h-229z" />
<glyph unicode="W" horiz-adv-x="2068" d="M25 1446h211l333 -1153l359 1153h213l358 -1153l334 1153h211l-436 -1446h-209l-365 1143l-364 -1143h-209z" />
<glyph unicode="X" horiz-adv-x="1245" d="M20 0l472 745l-443 701h234l340 -539l340 539h233l-442 -701l471 -745h-230l-372 586l-373 -586h-230z" />
<glyph unicode="Y" horiz-adv-x="1251" d="M10 1446h236l379 -602l381 602h235l-514 -791v-655h-203v655z" />
<glyph unicode="Z" horiz-adv-x="1142" d="M76 0v135l719 1127h-695v184h961v-133l-719 -1127h713v-186h-979z" />
<glyph unicode="[" horiz-adv-x="700" d="M193 -266v1855h446v-176h-254v-1503h254v-176h-446z" />
<glyph unicode="\" horiz-adv-x="1060" d="M43 1610h193l782 -1897h-193z" />
<glyph unicode="]" horiz-adv-x="700" d="M61 -90h254v1503h-254v176h447v-1855h-447v176z" />
<glyph unicode="^" horiz-adv-x="1056" d="M78 811l371 635h159l371 -635h-201l-250 438l-249 -438h-201z" />
<glyph unicode="_" horiz-adv-x="1112" d="M90 -152h932v-151h-932v151z" />
<glyph unicode="`" horiz-adv-x="657" d="M113 1505h237l195 -342h-168z" />
<glyph unicode="a" horiz-adv-x="1093" d="M86 274q0 247 336 312l323 63v21q0 103 -63 159t-178 56q-82 0 -157.5 -35t-131.5 -98l-102 131q153 178 409 178q195 0 308.5 -106.5t113.5 -292.5v-662h-184v160q-111 -185 -338 -185q-143 0 -239.5 85.5t-96.5 213.5zM281 287q0 -63 48 -103.5t126 -40.5 q124 0 211.5 86t87.5 199v66l-297 -58q-94 -19 -135 -54t-41 -95z" />
<glyph unicode="b" horiz-adv-x="1294" d="M170 0v1446h199v-553q46 71 141 119.5t201 48.5q137 0 249 -69t177 -193.5t65 -280.5q0 -155 -65 -279.5t-177 -194t-249 -69.5q-106 0 -205.5 51.5t-145.5 127.5v-154h-190zM356 518q0 -157 94.5 -258.5t227.5 -101.5t228 101.5t95 258.5t-95 259t-228 102 t-227.5 -100.5t-94.5 -260.5z" />
<glyph unicode="c" horiz-adv-x="1114" d="M88 520q0 149 72 273.5t196.5 196t272.5 71.5q263 0 413 -217l-131 -127q-110 160 -284 160q-145 0 -240.5 -103t-95.5 -256q0 -152 96 -255t238 -103q96 0 173 41.5t128 115.5l133 -124q-70 -101 -183 -159.5t-247 -58.5q-148 0 -272.5 72t-196.5 197.5t-72 275.5z" />
<glyph unicode="d" horiz-adv-x="1294" d="M92 518q0 155 65 280t177.5 194t249.5 69q106 0 201 -48.5t141 -119.5v553h198v-1446h-190v154q-41 -75 -142.5 -127t-207.5 -52q-209 0 -350.5 154.5t-141.5 388.5zM293 518q0 -157 95 -258.5t228 -101.5t227.5 101.5t94.5 258.5q0 160 -94.5 260.5t-227.5 100.5 t-228 -102t-95 -259z" />
<glyph unicode="e" horiz-adv-x="1181" d="M90 516q0 152 65.5 276t186 196.5t272.5 72.5q217 0 348.5 -138t131.5 -343q0 -45 -11 -113h-784q12 -143 111.5 -226t238.5 -83q175 0 293 131l121 -139q-172 -175 -418 -175t-400.5 155t-154.5 386zM305 629h594v2q-10 116 -88 184t-195 68q-122 0 -205 -68t-106 -186z " />
<glyph unicode="f" horiz-adv-x="706" d="M80 870v166h143v94q0 155 99.5 247.5t255.5 92.5q93 0 143 -28v-172q-53 24 -113 24q-80 0 -133 -41.5t-53 -128.5v-88h248v-166h-248v-870h-199v870h-143z" />
<glyph unicode="g" horiz-adv-x="1105" d="M70 -145q0 71 48 129t126 96q-68 51 -68 139q0 87 92 156q-79 52 -124.5 132t-45.5 175q0 158 120.5 268.5t293.5 110.5q77 0 150 -25h380v-166h-170q54 -85 54 -188q0 -158 -120.5 -268.5t-293.5 -110.5q-54 0 -106 12q-41 -29 -41 -69q0 -34 24 -54t57 -20h263 q154 0 249 -81.5t95 -207.5q0 -136 -143 -226.5t-373 -90.5q-218 0 -342.5 76.5t-124.5 212.5zM268 -127q0 -60 76.5 -94.5t196.5 -34.5q151 0 234 37t83 98q0 57 -47 87t-119 30h-303q-45 -12 -83 -43t-38 -80zM291 682q0 -85 64.5 -145t156.5 -60t156.5 60t64.5 145 t-64.5 145t-156.5 60t-156.5 -60t-64.5 -145z" />
<glyph unicode="h" horiz-adv-x="1255" d="M170 0v1446h199v-553q108 168 331 168q176 0 289 -117t113 -317v-627h-199v618q0 124 -70 192.5t-174 68.5q-62 0 -112.5 -20t-83 -52.5t-54 -76.5t-31 -89.5t-9.5 -93.5v-547h-199z" />
<glyph unicode="i" horiz-adv-x="538" d="M145 1346q0 53 36.5 88.5t88.5 35.5t88.5 -35.5t36.5 -88.5q0 -54 -36.5 -90.5t-88.5 -36.5t-88.5 36.5t-36.5 90.5zM170 0v1036h199v-1036h-199z" />
<glyph unicode="j" horiz-adv-x="546" d="M-72 -231q42 -25 111 -25q67 0 103 47.5t36 140.5v1104h199v-1099q0 -186 -85 -278.5t-237 -92.5q-73 0 -127 26v177zM154 1346q0 53 36.5 88.5t88.5 35.5t88 -35.5t36 -88.5q0 -54 -36.5 -90.5t-87.5 -36.5t-88 36.5t-37 90.5z" />
<glyph unicode="k" horiz-adv-x="1089" d="M170 0v1446h199v-907l434 497h237l-366 -434l403 -602h-229l-307 477l-172 -201v-276h-199z" />
<glyph unicode="l" horiz-adv-x="581" d="M158 258v1188h198v-1153q0 -67 20.5 -101t76.5 -34q35 0 67 12v-178q-46 -17 -92 -17q-55 0 -101 14t-85.5 45t-61.5 88t-22 136z" />
<glyph unicode="m" horiz-adv-x="1988" d="M170 0v1036h195v-155q97 180 335 180q123 0 216.5 -55.5t142.5 -159.5q73 112 160.5 163.5t214.5 51.5q180 0 290.5 -116.5t110.5 -317.5v-627h-199v618q0 124 -69 192.5t-174 68.5q-77 0 -135.5 -33t-91 -86.5t-48.5 -112.5t-16 -121v-526h-199v618q0 124 -69.5 192.5 t-174.5 68.5q-62 0 -112.5 -22t-83 -57.5t-54.5 -82.5t-31 -95t-9 -96v-526h-199z" />
<glyph unicode="n" horiz-adv-x="1255" d="M170 0v1036h195v-155q97 180 335 180q180 0 291 -116.5t111 -317.5v-627h-199v618q0 124 -69.5 192.5t-174.5 68.5q-62 0 -112.5 -22t-83 -57.5t-54.5 -82.5t-31 -95t-9 -96v-526h-199z" />
<glyph unicode="o" horiz-adv-x="1253" d="M90 518q0 229 154.5 386t382.5 157t382 -157t154 -386t-154 -386t-382 -157t-382.5 157t-154.5 386zM293 518q0 -146 94.5 -250t239.5 -104t239.5 104t94.5 250t-94.5 250t-239.5 104t-239.5 -104t-94.5 -250z" />
<glyph unicode="p" horiz-adv-x="1294" d="M170 -410v1446h190v-151q51 77 147.5 126.5t203.5 49.5q137 0 249 -69t177 -193.5t65 -280.5q0 -155 -65 -279.5t-177 -194t-249 -69.5q-102 0 -199 47.5t-143 118.5v-551h-199zM356 518q0 -157 94.5 -258.5t227.5 -101.5t228 101.5t95 258.5t-95 259t-228 102 t-227.5 -100.5t-94.5 -260.5z" />
<glyph unicode="q" horiz-adv-x="1292" d="M92 518q0 155 65 280t177.5 194t249.5 69q107 0 203 -49.5t147 -126.5v151h190v-1446h-198v551q-46 -71 -143 -118.5t-199 -47.5q-209 0 -350.5 154.5t-141.5 388.5zM293 518q0 -157 95 -258.5t228 -101.5t227.5 101.5t94.5 258.5q0 160 -94.5 260.5t-227.5 100.5 t-228 -102t-95 -259z" />
<glyph unicode="r" horiz-adv-x="774" d="M170 0v1036h195v-182q39 98 116.5 152.5t180.5 54.5q44 0 63 -8v-195q-16 4 -41 4q-143 0 -229 -94.5t-86 -253.5v-514h-199z" />
<glyph unicode="s" horiz-adv-x="954" d="M74 205l145 104q103 -157 260 -157q90 0 140.5 31t50.5 85q0 57 -46.5 93t-185.5 79q-167 54 -245 126.5t-78 195.5q0 121 106 210t264 89q243 0 359 -201l-144 -106q-85 133 -223 133q-75 0 -121.5 -33.5t-46.5 -87.5q0 -50 45 -83.5t168 -74.5q180 -60 261 -134.5 t81 -201.5q0 -128 -108 -212.5t-275 -84.5q-135 0 -244 62t-163 168z" />
<glyph unicode="t" horiz-adv-x="757" d="M59 870v166h162v285h193v-285h266v-166h-266v-540q0 -170 168 -170q71 0 123 33v-183q-59 -35 -166 -35q-154 0 -239 86t-85 244v565h-156z" />
<glyph unicode="u" horiz-adv-x="1255" d="M154 410v626h198v-618q0 -124 69.5 -192t174.5 -68q62 0 112.5 22t83 57.5t54.5 82.5t31.5 94.5t9.5 95.5v526h198v-1036h-194v156q-98 -181 -336 -181q-180 0 -290.5 117t-110.5 318z" />
<glyph unicode="v" horiz-adv-x="1069" d="M20 1036h213l302 -770l301 770h213l-424 -1036h-181z" />
<glyph unicode="w" horiz-adv-x="1630" d="M27 1036h206l236 -766l250 766h192l250 -766l236 766h207l-338 -1036h-193l-258 760l-258 -760h-192z" />
<glyph unicode="x" horiz-adv-x="1030" d="M31 0l348 532l-332 504h229l238 -372l238 372h229l-334 -504l348 -532h-227l-250 397l-260 -397h-227z" />
<glyph unicode="y" horiz-adv-x="1071" d="M18 1036h224l301 -784l293 784h215l-482 -1206q-32 -85 -70.5 -140t-104 -89.5t-156.5 -34.5t-150 26v179q55 -35 131 -35q67 0 111 38.5t76 125.5l43 114z" />
<glyph unicode="z" horiz-adv-x="978" d="M88 0v115l533 749h-533v172h795v-114l-537 -750h555v-172h-813z" />
<glyph unicode="{" horiz-adv-x="712" d="M68 580v163q103 1 139.5 45t36.5 156v295q0 350 342 350q36 0 59 -2v-174q-14 2 -41 2q-96 0 -132 -42t-36 -142v-287q0 -231 -129 -282q129 -51 129 -283v-287q0 -100 36 -142t132 -42q27 0 41 2v-174q-23 -2 -59 -2q-342 0 -342 350v295q0 112 -36.5 156t-139.5 45z " />
<glyph unicode="|" horiz-adv-x="577" d="M193 -287v1897h192v-1897h-192z" />
<glyph unicode="}" horiz-adv-x="712" d="M68 -90q14 -2 41 -2q96 0 131.5 42t35.5 142v287q0 231 130 283q-130 52 -130 282v287q0 100 -35.5 142t-131.5 42q-27 0 -41 -2v174q23 2 59 2q342 0 342 -350v-295q0 -112 36.5 -156t139.5 -45v-163q-103 -1 -139.5 -45t-36.5 -156v-295q0 -350 -342 -350q-36 0 -59 2 v174z" />
<glyph unicode="~" horiz-adv-x="1148" d="M135 567q0 107 71 184.5t179 77.5q57 0 114 -20.5t95 -45t86 -45t90 -20.5q54 0 84.5 45.5t36.5 98.5l133 -41q0 -107 -71 -184.5t-179 -77.5q-57 0 -114 20.5t-95 45t-86 45t-90 20.5q-54 0 -84.5 -45.5t-36.5 -98.5z" />
<glyph unicode="&#xa1;" horiz-adv-x="550" d="M152 936q0 53 36 89t88 36t88.5 -36t36.5 -89q0 -54 -36.5 -90.5t-88.5 -36.5q-51 0 -87.5 36.5t-36.5 90.5zM166 -410l20 1049h179l20 -1049h-219z" />
<glyph unicode="&#xa2;" horiz-adv-x="1126" d="M90 725q0 199 125.5 348.5t316.5 183.5v238h191v-238q204 -34 321 -208l-131 -127q-113 159 -284 159q-147 0 -241.5 -104t-94.5 -254q0 -126 66 -219.5t173 -124.5q38 -14 95 -14q192 0 301 157l133 -125q-57 -84 -144.5 -138t-193.5 -71v-237h-191v237 q-192 34 -317 184t-125 353z" />
<glyph unicode="&#xa3;" horiz-adv-x="1177" d="M111 0v186h26q47 0 73 38t26 106v295h-123v168h123v251q0 183 127 304.5t313 121.5q140 0 246 -60.5t168 -156.5l-148 -129q-41 66 -109.5 110t-156.5 44q-104 0 -171 -65.5t-67 -168.5v-251h406v-168h-406v-297q0 -87 -55 -142h713v-186h-985z" />
<glyph unicode="&#xa4;" horiz-adv-x="1417" d="M102 256l213 213q-79 113 -79 260q0 142 77 258l-211 213l134 135l213 -213q118 78 258 78q145 0 260 -80l215 215l133 -135l-213 -215q76 -120 76 -256q0 -140 -78 -258l215 -215l-135 -133l-215 213q-118 -78 -258 -78q-136 0 -256 76l-213 -211zM424 729 q0 -59 27 -125q36 -74 104 -119.5t152 -46.5q87 0 157.5 42.5t106.5 119.5q29 66 26 129q-1 84 -46.5 152t-119.5 104q-66 27 -124 27q-117 0 -200 -82.5t-83 -200.5z" />
<glyph unicode="&#xa5;" horiz-adv-x="1339" d="M53 1446h236l379 -602l381 602h235l-426 -655h272v-164h-360v-140h360v-163h-360v-324h-203v324h-358v163h358v140h-358v164h270z" />
<glyph unicode="&#xa6;" horiz-adv-x="577" d="M193 -287v697h192v-697h-192zM193 913v697h192v-697h-192z" />
<glyph unicode="&#xa7;" horiz-adv-x="1099" d="M88 29l152 104q119 -180 317 -180q90 0 151.5 37.5t61.5 101.5q0 69 -54.5 112.5t-223.5 127.5q-146 73 -224.5 133t-107.5 114.5t-29 127.5q0 109 121 208q-58 50 -84.5 104.5t-26.5 125.5q0 138 114 231.5t294 93.5q130 0 254 -61t188 -186l-151 -105 q-51 86 -129.5 128t-159.5 42q-101 0 -156 -37.5t-55 -101.5q0 -35 14 -61.5t51.5 -53.5t86.5 -53.5t136 -69.5q16 -8 25 -12q99 -48 164 -93t100 -91t48.5 -89t13.5 -98q0 -109 -117 -211q107 -101 107 -221q0 -140 -116.5 -232.5t-293.5 -92.5q-61 0 -123 14t-125 43.5 t-121 80.5t-102 120zM326 713q5 -52 52 -93t191 -114q121 -64 158 -88q30 26 44 50.5t13 57.5q0 58 -48.5 104t-196.5 115q-33 18 -85 45t-67 35q-67 -52 -61 -112z" />
<glyph unicode="&#xa8;" horiz-adv-x="1171" d="M236 1346q0 53 36 88.5t88 35.5t88.5 -35.5t36.5 -88.5q0 -54 -36.5 -90.5t-88.5 -36.5q-51 0 -87.5 36.5t-36.5 90.5zM686 1346q0 53 36.5 88.5t88.5 35.5t88.5 -35.5t36.5 -88.5q0 -54 -37 -90.5t-88 -36.5t-88 36.5t-37 90.5z" />
<glyph unicode="&#xa9;" horiz-adv-x="1699" d="M98 723q0 153 58.5 291.5t158 238.5t238 158.5t293.5 58.5q154 0 294 -58.5t241 -158.5t161 -238.5t60 -291.5t-60 -292t-161 -238.5t-241 -158.5t-294 -59q-155 0 -293.5 59t-238 159t-158 238t-58.5 292zM281 723q0 -159 73.5 -290t203.5 -206t288 -75q120 0 226 44.5 t182 120t120.5 181.5t44.5 225t-44.5 225t-120.5 181.5t-182 120t-226 44.5q-158 0 -288 -75t-203.5 -206t-73.5 -290zM438 725q0 174 120 294t298 120q100 0 182.5 -45t139.5 -121l-113 -107q-81 109 -211 109q-105 0 -173.5 -68.5t-68.5 -183.5q0 -114 69.5 -183 t172.5 -69q121 0 221 104l115 -102q-55 -76 -143.5 -121t-190.5 -45q-178 0 -298 119.5t-120 298.5z" />
<glyph unicode="&#xaa;" horiz-adv-x="841" d="M129 606v152h578v-152h-578zM160 1022q0 138 188 182l166 39v2q0 41 -28.5 63.5t-71.5 22.5q-91 0 -168 -71l-78 106q30 36 97.5 70t148.5 34q122 0 192 -61t70 -166v-377h-152v80q-20 -37 -65 -65.5t-103 -28.5q-86 0 -141 48t-55 122zM315 1036q0 -25 17.5 -39 t44.5 -14q56 0 99.5 40.5t43.5 96.5v13l-129 -33q-76 -18 -76 -64z" />
<glyph unicode="&#xab;" horiz-adv-x="1011" d="M80 518l248 402h200l-247 -402l247 -399h-200zM463 518l248 402h200l-247 -402l247 -399h-200z" />
<glyph unicode="&#xac;" horiz-adv-x="1179" d="M139 637v174h885v-410h-180v236h-705z" />
<glyph unicode="&#xad;" horiz-adv-x="892" d="M133 467v176h627v-176h-627z" />
<glyph unicode="&#xae;" horiz-adv-x="993" d="M90 1178q0 172 117.5 288.5t290.5 116.5q172 0 288.5 -116.5t116.5 -288.5q0 -173 -116.5 -290.5t-288.5 -117.5q-173 0 -290.5 117.5t-117.5 290.5zM209 1178q0 -129 81 -211t208 -82t207.5 82t80.5 211q0 128 -80.5 209t-207.5 81t-208 -81t-81 -209zM348 985v381h184 q55 0 91 -35.5t36 -89.5q0 -43 -20 -72t-47 -41l86 -143h-113l-71 129h-39v-129h-107zM455 1200h55q20 0 32.5 11.5t12.5 29.5q0 17 -12.5 28t-32.5 11h-55v-80z" />
<glyph unicode="&#xaf;" horiz-adv-x="755" d="M102 1274v143h551v-143h-551z" />
<glyph unicode="&#xb0;" horiz-adv-x="794" d="M88 1161q0 129 90.5 219t218.5 90t219 -90t91 -219t-91 -219t-219 -90t-218.5 90t-90.5 219zM250 1161q0 -65 41.5 -106t105.5 -41q67 0 109.5 41t42.5 106q0 67 -43 109.5t-109 42.5q-64 0 -105.5 -42.5t-41.5 -109.5z" />
<glyph unicode="&#xb1;" horiz-adv-x="1228" d="M133 96v174h963v-174h-963zM133 807v174h391v369h181v-369h391v-174h-391v-371h-181v371h-391z" />
<glyph unicode="&#xb2;" horiz-adv-x="735" d="M72 1290q37 78 108.5 129t181.5 51q124 0 201.5 -66.5t77.5 -176.5q0 -34 -7.5 -63.5t-25 -56.5t-33.5 -46.5t-46.5 -43.5t-49 -37.5t-56.5 -38.5t-54 -36q-105 -72 -115 -110h403v-144h-563q-14 35 -14 90q0 82 49 149.5t166 145.5q11 7 36 23.5t34 22.5t28 19.5 t26 19.5t19.5 18t17 20t11 20t8.5 23.5t2 24.5q0 47 -31 72.5t-86 25.5q-104 0 -157 -113z" />
<glyph unicode="&#xb3;" horiz-adv-x="729" d="M59 805l121 84q54 -119 170 -119q58 0 97.5 35.5t39.5 89.5q0 59 -43 93t-116 34q-40 0 -92 -10v108l184 183h-320v143h533v-103l-197 -196q97 -24 154 -92.5t57 -157.5q0 -116 -85.5 -193t-215.5 -77q-104 0 -178 50t-109 128z" />
<glyph unicode="&#xb4;" horiz-adv-x="657" d="M113 1163l194 342h238l-264 -342h-168z" />
<glyph unicode="&#xb5;" horiz-adv-x="1271" d="M170 -410v1446h199v-618q0 -124 69 -192t174 -68q62 0 112.5 22t83 57.5t54.5 82.5t31.5 94.5t9.5 95.5v526h199v-1036h-195v156q-98 -181 -336 -181q-118 0 -209 52v-437h-192z" />
<glyph unicode="&#xb6;" horiz-adv-x="1314" d="M59 1036q0 184 136 297t329 113h578v-1651h-172v1487h-158v-1487h-174v832h-74q-125 0 -230 48.5t-170 143t-65 217.5z" />
<glyph unicode="&#xb7;" horiz-adv-x="503" d="M127 623q0 53 36.5 89t88.5 36t88.5 -36t36.5 -89t-36.5 -90t-88.5 -37t-88.5 37t-36.5 90z" />
<glyph unicode="&#xb8;" horiz-adv-x="552" d="M102 -322q50 -12 97 -12q42 0 68 15.5t26 44.5q0 61 -103 61q-25 0 -45 -4l70 260l100 -43l-32 -115q72 -13 120 -57t48 -109q0 -86 -71.5 -134t-170.5 -48q-60 0 -107 14v127z" />
<glyph unicode="&#xb9;" horiz-adv-x="653" d="M86 1200v146q95 6 138.5 26.5t72.5 73.5h131v-651h174v-144h-508v144h176v442q-62 -26 -184 -37z" />
<glyph unicode="&#xba;" horiz-adv-x="880" d="M131 1161q0 129 90.5 219t218.5 90t219 -90t91 -219t-91 -219t-219 -90t-218.5 90t-90.5 219zM152 616v152h577v-152h-577zM293 1161q0 -65 41.5 -106t105.5 -41q67 0 109.5 41t42.5 106q0 67 -43 109.5t-109 42.5q-64 0 -105.5 -42.5t-41.5 -109.5z" />
<glyph unicode="&#xbb;" horiz-adv-x="1015" d="M102 119l248 401l-248 400h201l248 -400l-248 -401h-201zM485 119l248 401l-248 400h201l248 -400l-248 -401h-201z" />
<glyph unicode="&#xbc;" horiz-adv-x="1615" d="M94 1200v146q95 6 138.5 26.5t72.5 73.5h131v-651h174v-144h-508v144h177v442q-62 -26 -185 -37zM258 0l1057 1446h180l-1057 -1446h-180zM891 164v96l393 535h129v-492h119v-139h-119v-164h-153v164h-369zM1098 301h164v225z" />
<glyph unicode="&#xbd;" horiz-adv-x="1742" d="M94 1200v146q95 6 138.5 26.5t72.5 73.5h131v-651h174v-144h-508v144h177v442q-62 -26 -185 -37zM258 0l1057 1446h180l-1057 -1446h-180zM1079 639q37 78 109 129t182 51q124 0 201.5 -67t77.5 -177q0 -39 -13 -75t-28 -60t-49.5 -54.5t-53.5 -44t-66.5 -45.5t-62.5 -42 q-103 -71 -114 -111h403v-143h-563q-15 38 -15 90q0 82 49.5 149.5t166.5 145.5q12 8 36 23.5t34 22t28 19.5t25.5 19.5t20 18t17.5 20t11 20t8 23t2 24.5q0 47 -31.5 73t-85.5 26q-105 0 -158 -113z" />
<glyph unicode="&#xbe;" horiz-adv-x="1642" d="M66 805l120 84q54 -119 170 -119q58 0 98 36t40 89q0 59 -43.5 93t-116.5 34q-40 0 -92 -10v108l184 183h-320v143h533v-103l-197 -196q97 -24 154 -92.5t57 -157.5q0 -116 -85.5 -193t-215.5 -77q-104 0 -177.5 50t-108.5 128zM281 0l1056 1446h181l-1057 -1446h-180z M913 164v96l394 535h129v-492h118v-139h-118v-164h-154v164h-369zM1120 301h164v225z" />
<glyph unicode="&#xbf;" horiz-adv-x="987" d="M74 -45q0 70 21 128.5t54 99t73 76t80.5 68t73.5 66t54 79t21 99.5v91h200v-99q0 -73 -20.5 -134t-53.5 -102.5t-72.5 -77t-79 -66t-72.5 -62t-53.5 -73.5t-20.5 -91q0 -94 63.5 -148.5t173.5 -54.5q84 0 156 42t123 116l143 -115q-59 -97 -177 -164t-247 -67 q-196 0 -318 108.5t-122 280.5zM426 936q0 53 36.5 89t88.5 36t88.5 -36t36.5 -89q0 -54 -37 -90.5t-88 -36.5t-88 36.5t-37 90.5z" />
<glyph unicode="&#xc0;" horiz-adv-x="1359" d="M12 0l561 1446h213l562 -1446h-209l-152 393h-614l-152 -393h-209zM315 1915h238l195 -342h-168zM438 584h484l-242 641z" />
<glyph unicode="&#xc1;" horiz-adv-x="1359" d="M12 0l561 1446h213l562 -1446h-209l-152 393h-614l-152 -393h-209zM438 584h484l-242 641zM604 1573l195 342h237l-264 -342h-168z" />
<glyph unicode="&#xc2;" horiz-adv-x="1359" d="M12 0l561 1446h213l562 -1446h-209l-152 393h-614l-152 -393h-209zM346 1542l246 373h176l246 -373h-189l-145 234l-145 -234h-189zM438 584h484l-242 641z" />
<glyph unicode="&#xc3;" horiz-adv-x="1359" d="M12 0l561 1446h213l562 -1446h-209l-152 393h-614l-152 -393h-209zM346 1630q0 107 57.5 167.5t151.5 60.5q39 0 78 -17t64.5 -37.5t55 -37.5t50.5 -17q68 0 80 115l133 -41q0 -105 -60.5 -166.5t-148.5 -61.5q-39 0 -78 17t-64.5 37.5t-55 37.5t-50.5 17q-68 0 -80 -115 zM438 584h484l-242 641z" />
<glyph unicode="&#xc4;" horiz-adv-x="1359" d="M12 0l561 1446h213l562 -1446h-209l-152 393h-614l-152 -393h-209zM330 1755q0 53 36.5 89t88.5 36t88.5 -36t36.5 -89t-37 -90t-88 -37t-88 37t-37 90zM438 584h484l-242 641zM780 1755q0 53 36.5 89t88.5 36t88.5 -36t36.5 -89t-37 -90t-88 -37t-88 37t-37 90z" />
<glyph unicode="&#xc5;" horiz-adv-x="1359" d="M12 0l561 1446h213l562 -1446h-209l-152 393h-614l-152 -393h-209zM438 584h484l-242 641zM459 1778q0 92 64.5 156.5t156.5 64.5t156.5 -64.5t64.5 -156.5t-64.5 -157t-156.5 -65t-156.5 65t-64.5 157zM586 1778q0 -38 28 -66.5t66 -28.5t66 28.5t28 66.5t-28 66t-66 28 t-66 -28t-28 -66z" />
<glyph unicode="&#xc6;" horiz-adv-x="1931" d="M-29 0l740 1446h1106v-184h-654v-441h535v-184h-535v-451h674v-186h-876v496h-527l-254 -496h-209zM530 680h431v582h-132z" />
<glyph unicode="&#xc7;" horiz-adv-x="1499" d="M98 723q0 157 58 296t156.5 237.5t234.5 156t287 57.5q201 0 354 -82.5t242 -211.5l-150 -138q-164 234 -446 234q-225 0 -376 -157.5t-151 -391.5q0 -153 70 -279t193.5 -198t273.5 -72q282 0 452 244l148 -127q-99 -138 -243 -223.5t-324 -92.5l-27 -90q72 -13 120 -57 t48 -109q0 -86 -71.5 -134t-170.5 -48q-59 0 -106 14v127q50 -12 96 -12q42 0 68 15.5t26 44.5q0 61 -102 61q-25 0 -45 -4l53 197q-140 14 -263 76.5t-212.5 159t-141 228t-51.5 279.5z" />
<glyph unicode="&#xc8;" horiz-adv-x="1210" d="M199 0v1446h897v-184h-695v-441h576v-184h-576v-451h715v-186h-917zM301 1915h238l194 -342h-168z" />
<glyph unicode="&#xc9;" horiz-adv-x="1210" d="M199 0v1446h897v-184h-695v-441h576v-184h-576v-451h715v-186h-917zM567 1573l195 342h237l-264 -342h-168z" />
<glyph unicode="&#xca;" horiz-adv-x="1210" d="M199 0v1446h897v-184h-695v-441h576v-184h-576v-451h715v-186h-917zM305 1542l246 373h176l246 -373h-189l-145 234l-145 -234h-189z" />
<glyph unicode="&#xcb;" horiz-adv-x="1210" d="M199 0v1446h897v-184h-695v-441h576v-184h-576v-451h715v-186h-917zM311 1755q0 53 36.5 89t88.5 36t88.5 -36t36.5 -89t-36.5 -90t-88.5 -37t-88.5 37t-36.5 90zM762 1755q0 53 36.5 89t88.5 36t88.5 -36t36.5 -89t-37 -90t-88 -37t-88 37t-37 90z" />
<glyph unicode="&#xcc;" horiz-adv-x="600" d="M-61 1915h237l195 -342h-168zM199 0v1446h202v-1446h-202z" />
<glyph unicode="&#xcd;" horiz-adv-x="600" d="M199 0v1446h202v-1446h-202zM221 1573l195 342h237l-264 -342h-168z" />
<glyph unicode="&#xce;" horiz-adv-x="600" d="M-35 1542l248 373h176l246 -373h-189l-145 234l-145 -234h-191zM199 0v1446h202v-1446h-202z" />
<glyph unicode="&#xcf;" horiz-adv-x="600" d="M-49 1755q0 53 37.5 89t89.5 36t88.5 -36t36.5 -89t-36.5 -90t-88.5 -37t-89.5 37t-37.5 90zM199 0v1446h202v-1446h-202zM403 1755q0 53 36.5 89t88.5 36t88.5 -36t36.5 -89t-36.5 -90t-88.5 -37t-88.5 37t-36.5 90z" />
<glyph unicode="&#xd0;" horiz-adv-x="1550" d="M53 631v184h166v631h504q207 0 374.5 -96.5t261 -261t93.5 -363.5q0 -203 -93.5 -368.5t-261 -261t-374.5 -95.5h-504v631h-166zM422 186h283q147 0 269 68.5t194.5 192.5t72.5 278q0 114 -42 214.5t-114 171t-170.5 111t-207.5 40.5h-285v-447h369v-184h-369v-445z" />
<glyph unicode="&#xd1;" horiz-adv-x="1581" d="M199 0v1446h180l801 -1084v1084h202v-1446h-178l-801 1085v-1085h-204zM457 1630q0 107 57.5 167.5t151.5 60.5q39 0 77.5 -17t64.5 -37.5t55 -37.5t50 -17q68 0 80 115l133 -41q0 -105 -60 -166.5t-148 -61.5q-39 0 -78 17t-64.5 37.5t-55 37.5t-50.5 17q-68 0 -80 -115 z" />
<glyph unicode="&#xd2;" d="M98 723q0 209 99 381t270 269t377 97q154 0 292 -57.5t237.5 -156t157.5 -237.5t58 -296q0 -209 -98.5 -381t-269.5 -269.5t-377 -97.5t-377 97.5t-270 269.5t-99 381zM307 723q0 -155 72.5 -281.5t195.5 -197t269 -70.5t269 70.5t195 197t72 281.5t-72 281.5t-195 197 t-269 70.5t-269 -70.5t-195.5 -197t-72.5 -281.5zM481 1915h238l194 -342h-168z" />
<glyph unicode="&#xd3;" d="M98 723q0 209 99 381t270 269t377 97q154 0 292 -57.5t237.5 -156t157.5 -237.5t58 -296q0 -209 -98.5 -381t-269.5 -269.5t-377 -97.5t-377 97.5t-270 269.5t-99 381zM307 723q0 -155 72.5 -281.5t195.5 -197t269 -70.5t269 70.5t195 197t72 281.5t-72 281.5t-195 197 t-269 70.5t-269 -70.5t-195.5 -197t-72.5 -281.5zM772 1573l195 342h237l-264 -342h-168z" />
<glyph unicode="&#xd4;" d="M98 723q0 209 99 381t270 269t377 97q154 0 292 -57.5t237.5 -156t157.5 -237.5t58 -296q0 -209 -98.5 -381t-269.5 -269.5t-377 -97.5t-377 97.5t-270 269.5t-99 381zM307 723q0 -155 72.5 -281.5t195.5 -197t269 -70.5t269 70.5t195 197t72 281.5t-72 281.5t-195 197 t-269 70.5t-269 -70.5t-195.5 -197t-72.5 -281.5zM512 1542l246 373h176l246 -373h-189l-145 234l-146 -234h-188z" />
<glyph unicode="&#xd5;" d="M98 723q0 209 99 381t270 269t377 97q154 0 292 -57.5t237.5 -156t157.5 -237.5t58 -296q0 -209 -98.5 -381t-269.5 -269.5t-377 -97.5t-377 97.5t-270 269.5t-99 381zM307 723q0 -155 72.5 -281.5t195.5 -197t269 -70.5t269 70.5t195 197t72 281.5t-72 281.5t-195 197 t-269 70.5t-269 -70.5t-195.5 -197t-72.5 -281.5zM510 1630q0 107 57.5 167.5t151.5 60.5q39 0 78 -17t64.5 -37.5t55 -37.5t50.5 -17q68 0 80 115l133 -41q0 -105 -60.5 -166.5t-148.5 -61.5q-39 0 -78 17t-64.5 37.5t-55 37.5t-50.5 17q-68 0 -80 -115z" />
<glyph unicode="&#xd6;" d="M98 723q0 209 99 381t270 269t377 97q154 0 292 -57.5t237.5 -156t157.5 -237.5t58 -296q0 -209 -98.5 -381t-269.5 -269.5t-377 -97.5t-377 97.5t-270 269.5t-99 381zM307 723q0 -155 72.5 -281.5t195.5 -197t269 -70.5t269 70.5t195 197t72 281.5t-72 281.5t-195 197 t-269 70.5t-269 -70.5t-195.5 -197t-72.5 -281.5zM496 1755q0 53 36.5 89t88.5 36t88 -36t36 -89q0 -54 -36.5 -90.5t-87.5 -36.5t-88 37t-37 90zM946 1755q0 53 36.5 89t88.5 36t88.5 -36t36.5 -89t-37 -90t-88 -37t-88 37t-37 90z" />
<glyph unicode="&#xd7;" horiz-adv-x="1136" d="M115 385l336 338l-336 336l116 117l338 -336l336 336l117 -117l-336 -336l336 -338l-117 -117l-336 336l-338 -336z" />
<glyph unicode="&#xd8;" d="M98 723q0 209 99 381t270 269t377 97q209 0 375 -96l139 193l125 -86l-142 -195q119 -104 183.5 -248t64.5 -315q0 -209 -98.5 -381t-269.5 -269.5t-377 -97.5q-205 0 -373 97l-139 -193l-127 86l141 195q-119 104 -183.5 248t-64.5 315zM307 723q0 -116 42.5 -218 t117.5 -177l633 880q-116 64 -256 64q-146 0 -269 -70.5t-195.5 -197t-72.5 -281.5zM590 238q116 -64 254 -64q146 0 269 70.5t195 197t72 281.5q0 116 -42 218t-117 175z" />
<glyph unicode="&#xd9;" horiz-adv-x="1478" d="M180 522v924h203v-911q0 -152 100 -258.5t256 -106.5q153 0 255 107.5t102 257.5v911h202v-924q0 -150 -72 -275t-200.5 -198.5t-286.5 -73.5t-286.5 73.5t-200.5 198.5t-72 275zM358 1915h238l195 -342h-168z" />
<glyph unicode="&#xda;" horiz-adv-x="1478" d="M180 522v924h203v-911q0 -152 100 -258.5t256 -106.5q153 0 255 107.5t102 257.5v911h202v-924q0 -150 -72 -275t-200.5 -198.5t-286.5 -73.5t-286.5 73.5t-200.5 198.5t-72 275zM670 1573l194 342h238l-264 -342h-168z" />
<glyph unicode="&#xdb;" horiz-adv-x="1478" d="M180 522v924h203v-911q0 -152 100 -258.5t256 -106.5q153 0 255 107.5t102 257.5v911h202v-924q0 -150 -72 -275t-200.5 -198.5t-286.5 -73.5t-286.5 73.5t-200.5 198.5t-72 275zM406 1542l245 373h176l246 -373h-188l-146 234l-145 -234h-188z" />
<glyph unicode="&#xdc;" horiz-adv-x="1478" d="M180 522v924h203v-911q0 -152 100 -258.5t256 -106.5q153 0 255 107.5t102 257.5v911h202v-924q0 -150 -72 -275t-200.5 -198.5t-286.5 -73.5t-286.5 73.5t-200.5 198.5t-72 275zM389 1755q0 53 36.5 89t88.5 36t88.5 -36t36.5 -89t-36.5 -90t-88.5 -37t-88.5 37 t-36.5 90zM840 1755q0 53 36.5 89t88.5 36t88.5 -36t36.5 -89t-37 -90t-88 -37t-88 37t-37 90z" />
<glyph unicode="&#xdd;" horiz-adv-x="1251" d="M10 1446h236l379 -602l381 602h235l-514 -791v-655h-203v655zM555 1573l195 342h237l-264 -342h-168z" />
<glyph unicode="&#xde;" horiz-adv-x="1253" d="M199 0v1446h202v-270h308q125 0 230.5 -61t166.5 -165t61 -225q0 -190 -133.5 -324.5t-322.5 -134.5h-310v-266h-202zM401 440h295q130 0 205.5 76t75.5 207q0 130 -74.5 203t-204.5 73h-297v-559z" />
<glyph unicode="&#xdf;" horiz-adv-x="1202" d="M170 0v1085q0 121 65 210.5t163.5 132t213.5 42.5q182 0 302 -95.5t120 -233.5q0 -46 -11 -81t-42.5 -72.5t-60.5 -63.5t-93 -78q-15 -13 -42.5 -34.5t-37 -30t-23.5 -22t-18 -24t-4 -22.5q0 -7 2.5 -14t8.5 -14.5t12 -13.5t17.5 -14.5t20.5 -14.5t25 -15.5t27 -16 t30.5 -17.5t31.5 -18q154 -90 213 -159.5t59 -159.5q0 -89 -53 -155t-128.5 -96t-158.5 -30q-117 0 -211 53.5t-141 147.5l145 107q83 -131 207 -131q54 0 95.5 27.5t41.5 80.5q0 22 -7.5 39.5t-30.5 36t-38 28t-60.5 35t-66.5 37.5q-135 80 -184 134.5t-49 136.5 q0 57 38 111t136 132q89 69 122.5 108.5t33.5 80.5q0 63 -63 109t-169 46q-99 0 -169 -57t-70 -166v-1071h-199z" />
<glyph unicode="&#xe0;" horiz-adv-x="1093" d="M86 274q0 247 336 312l323 63v21q0 103 -63 159t-178 56q-82 0 -157.5 -35t-131.5 -98l-102 131q153 178 409 178q195 0 308.5 -106.5t113.5 -292.5v-662h-184v160q-111 -185 -338 -185q-143 0 -239.5 85.5t-96.5 213.5zM178 1505h238l194 -342h-168zM281 287 q0 -63 48 -103.5t126 -40.5q124 0 211.5 86t87.5 199v66l-297 -58q-94 -19 -135 -54t-41 -95z" />
<glyph unicode="&#xe1;" horiz-adv-x="1093" d="M86 274q0 247 336 312l323 63v21q0 103 -63 159t-178 56q-82 0 -157.5 -35t-131.5 -98l-102 131q153 178 409 178q195 0 308.5 -106.5t113.5 -292.5v-662h-184v160q-111 -185 -338 -185q-143 0 -239.5 85.5t-96.5 213.5zM281 287q0 -63 48 -103.5t126 -40.5 q124 0 211.5 86t87.5 199v66l-297 -58q-94 -19 -135 -54t-41 -95zM424 1163l194 342h238l-264 -342h-168z" />
<glyph unicode="&#xe2;" horiz-adv-x="1093" d="M86 274q0 247 336 312l323 63v21q0 103 -63 159t-178 56q-82 0 -157.5 -35t-131.5 -98l-102 131q153 178 409 178q195 0 308.5 -106.5t113.5 -292.5v-662h-184v160q-111 -185 -338 -185q-143 0 -239.5 85.5t-96.5 213.5zM184 1133l246 372h176l246 -372h-188l-146 233 l-145 -233h-189zM281 287q0 -63 48 -103.5t126 -40.5q124 0 211.5 86t87.5 199v66l-297 -58q-94 -19 -135 -54t-41 -95z" />
<glyph unicode="&#xe3;" horiz-adv-x="1093" d="M86 274q0 247 336 312l323 63v21q0 103 -63 159t-178 56q-82 0 -157.5 -35t-131.5 -98l-102 131q153 178 409 178q195 0 308.5 -106.5t113.5 -292.5v-662h-184v160q-111 -185 -338 -185q-143 0 -239.5 85.5t-96.5 213.5zM162 1221q0 107 57.5 167t151.5 60q39 0 77.5 -17 t64.5 -37.5t55 -37.5t50 -17q68 0 80 115l133 -41q0 -105 -60 -166t-148 -61q-39 0 -78 17t-64.5 37t-55 37t-50.5 17q-68 0 -80 -114zM281 287q0 -63 48 -103.5t126 -40.5q124 0 211.5 86t87.5 199v66l-297 -58q-94 -19 -135 -54t-41 -95z" />
<glyph unicode="&#xe4;" horiz-adv-x="1093" d="M86 274q0 247 336 312l323 63v21q0 103 -63 159t-178 56q-82 0 -157.5 -35t-131.5 -98l-102 131q153 178 409 178q195 0 308.5 -106.5t113.5 -292.5v-662h-184v160q-111 -185 -338 -185q-143 0 -239.5 85.5t-96.5 213.5zM156 1346q0 53 36.5 88.5t88.5 35.5t88.5 -35.5 t36.5 -88.5q0 -54 -37 -90.5t-88 -36.5t-88 36.5t-37 90.5zM281 287q0 -63 48 -103.5t126 -40.5q124 0 211.5 86t87.5 199v66l-297 -58q-94 -19 -135 -54t-41 -95zM606 1346q0 53 36.5 88.5t88.5 35.5t88.5 -35.5t36.5 -88.5q0 -54 -37 -90.5t-88 -36.5t-88 36.5t-37 90.5z " />
<glyph unicode="&#xe5;" horiz-adv-x="1093" d="M86 274q0 247 336 312l323 63v21q0 103 -63 159t-178 56q-82 0 -157.5 -35t-131.5 -98l-102 131q153 178 409 178q195 0 308.5 -106.5t113.5 -292.5v-662h-184v160q-111 -185 -338 -185q-143 0 -239.5 85.5t-96.5 213.5zM281 287q0 -63 48 -103.5t126 -40.5 q124 0 211.5 86t87.5 199v66l-297 -58q-94 -19 -135 -54t-41 -95zM305 1368q0 92 64.5 156.5t156.5 64.5t157 -64.5t65 -156.5t-65 -156.5t-157 -64.5t-156.5 64.5t-64.5 156.5zM432 1368q0 -38 28 -66t66 -28t66.5 28t28.5 66t-28.5 66t-66.5 28t-66 -28t-28 -66z" />
<glyph unicode="&#xe6;" horiz-adv-x="1855" d="M84 297q0 60 27.5 117t78 103.5t131 75t177.5 28.5h299v28q0 114 -83 175t-206 61q-82 0 -161 -35t-134 -98l-102 131q153 178 415 178q132 0 233 -54t156 -149q69 95 166.5 149t216.5 54q211 0 340 -141t129 -349q0 -77 -10 -108h-764q12 -143 106.5 -224t229.5 -81 q169 0 287 131l121 -139q-169 -175 -412 -175q-138 0 -248.5 60.5t-179.5 167.5q-66 -98 -180.5 -163t-249.5 -65q-161 0 -272 95t-111 227zM279 303q0 -66 52.5 -111t147.5 -45q120 0 223 87.5t103 193.5v35h-295q-121 0 -176 -47t-55 -113zM999 621h574v2q-10 118 -86 189 t-187 71q-117 0 -197.5 -69.5t-103.5 -192.5z" />
<glyph unicode="&#xe7;" horiz-adv-x="1116" d="M90 520q0 149 72 273.5t196.5 196t272.5 71.5q263 0 413 -217l-131 -127q-110 160 -284 160q-145 0 -240.5 -103t-95.5 -256q0 -152 96 -255t238 -103q96 0 173 41.5t128 115.5l133 -124q-68 -94 -168.5 -151.5t-220.5 -64.5l-27 -92q72 -13 120 -57t48 -109 q0 -86 -71.5 -134t-170.5 -48q-59 0 -106 14v127q50 -12 96 -12q42 0 68 15.5t26 44.5q0 61 -102 61q-25 0 -45 -4l53 197q-202 25 -336.5 177.5t-134.5 362.5z" />
<glyph unicode="&#xe8;" horiz-adv-x="1181" d="M90 516q0 152 65.5 276t186 196.5t272.5 72.5q217 0 348.5 -138t131.5 -343q0 -45 -11 -113h-784q12 -143 111.5 -226t238.5 -83q175 0 293 131l121 -139q-172 -175 -418 -175t-400.5 155t-154.5 386zM274 1505h238l195 -342h-168zM305 629h594v2q-10 116 -88 184 t-195 68q-122 0 -205 -68t-106 -186z" />
<glyph unicode="&#xe9;" horiz-adv-x="1181" d="M90 516q0 152 65.5 276t186 196.5t272.5 72.5q217 0 348.5 -138t131.5 -343q0 -45 -11 -113h-784q12 -143 111.5 -226t238.5 -83q175 0 293 131l121 -139q-172 -175 -418 -175t-400.5 155t-154.5 386zM305 629h594v2q-10 116 -88 184t-195 68q-122 0 -205 -68t-106 -186z M524 1163l195 342h237l-264 -342h-168z" />
<glyph unicode="&#xea;" horiz-adv-x="1181" d="M90 516q0 152 65.5 276t186 196.5t272.5 72.5q217 0 348.5 -138t131.5 -343q0 -45 -11 -113h-784q12 -143 111.5 -226t238.5 -83q175 0 293 131l121 -139q-172 -175 -418 -175t-400.5 155t-154.5 386zM260 1133l246 372h176l246 -372h-189l-145 233l-145 -233h-189z M305 629h594v2q-10 116 -88 184t-195 68q-122 0 -205 -68t-106 -186z" />
<glyph unicode="&#xeb;" horiz-adv-x="1181" d="M90 516q0 152 65.5 276t186 196.5t272.5 72.5q217 0 348.5 -138t131.5 -343q0 -45 -11 -113h-784q12 -143 111.5 -226t238.5 -83q175 0 293 131l121 -139q-172 -175 -418 -175t-400.5 155t-154.5 386zM244 1346q0 53 36.5 88.5t88.5 35.5t88.5 -35.5t36.5 -88.5 q0 -54 -37 -90.5t-88 -36.5t-88 36.5t-37 90.5zM305 629h594v2q-10 116 -88 184t-195 68q-122 0 -205 -68t-106 -186zM694 1346q0 53 36.5 88.5t88.5 35.5t88.5 -35.5t36.5 -88.5q0 -54 -37 -90.5t-88 -36.5t-88 36.5t-37 90.5z" />
<glyph unicode="&#xec;" horiz-adv-x="538" d="M-90 1505h237l195 -342h-168zM170 0v1036h199v-1036h-199z" />
<glyph unicode="&#xed;" horiz-adv-x="538" d="M170 0v1036h199v-1036h-199zM195 1163l194 342h238l-265 -342h-167z" />
<glyph unicode="&#xee;" horiz-adv-x="538" d="M-66 1133l248 372h176l246 -372h-188l-146 233l-145 -233h-191zM170 0v1036h199v-1036h-199z" />
<glyph unicode="&#xef;" horiz-adv-x="538" d="M-76 1346q0 54 36.5 89t90.5 35q52 0 88.5 -35.5t36.5 -88.5q0 -54 -37 -90.5t-88 -36.5q-54 0 -90.5 36.5t-36.5 90.5zM170 0v1036h199v-1036h-199zM377 1346q0 53 36.5 88.5t88.5 35.5t88.5 -35.5t36.5 -88.5q0 -54 -36.5 -90.5t-88.5 -36.5t-88.5 36.5t-36.5 90.5z " />
<glyph unicode="&#xf0;" horiz-adv-x="1198" d="M88 492q0 73 20 146t61.5 139.5t98.5 118t136.5 82t170.5 30.5q76 0 136.5 -24.5t87.5 -49.5l2 2q-64 121 -238 219l-282 -131l-58 119l183 84q-88 33 -203 55l61 188q218 -52 371 -137l264 123l57 -119l-190 -88q336 -252 336 -723q0 -79 -20 -157.5t-61.5 -149.5 t-98.5 -125.5t-137.5 -86.5t-172.5 -32q-121 0 -222 45t-166 118.5t-100.5 165.5t-35.5 188zM289 492q0 -86 35.5 -160.5t110.5 -123t175 -48.5q90 0 157 52.5t98.5 129.5t31.5 164q0 126 -85 221.5t-230 95.5q-74 0 -132.5 -30t-92.5 -79t-51 -105.5t-17 -116.5z" />
<glyph unicode="&#xf1;" horiz-adv-x="1255" d="M170 0v1036h195v-155q97 180 335 180q180 0 291 -116.5t111 -317.5v-627h-199v618q0 124 -69.5 192.5t-174.5 68.5q-62 0 -112.5 -22t-83 -57.5t-54.5 -82.5t-31 -95t-9 -96v-526h-199zM295 1221q0 107 57.5 167t151.5 60q39 0 78 -17t64.5 -37.5t55 -37.5t50.5 -17 q67 0 79 115l134 -41q0 -105 -60 -166t-149 -61q-39 0 -78 17t-64.5 37t-55 37t-50.5 17q-68 0 -80 -114z" />
<glyph unicode="&#xf2;" horiz-adv-x="1253" d="M90 518q0 229 154.5 386t382.5 157t382 -157t154 -386t-154 -386t-382 -157t-382.5 157t-154.5 386zM254 1505h238l194 -342h-168zM293 518q0 -146 94.5 -250t239.5 -104t239.5 104t94.5 250t-94.5 250t-239.5 104t-239.5 -104t-94.5 -250z" />
<glyph unicode="&#xf3;" horiz-adv-x="1253" d="M90 518q0 229 154.5 386t382.5 157t382 -157t154 -386t-154 -386t-382 -157t-382.5 157t-154.5 386zM293 518q0 -146 94.5 -250t239.5 -104t239.5 104t94.5 250t-94.5 250t-239.5 104t-239.5 -104t-94.5 -250zM535 1163l194 342h238l-265 -342h-167z" />
<glyph unicode="&#xf4;" horiz-adv-x="1253" d="M90 518q0 229 154.5 386t382.5 157t382 -157t154 -386t-154 -386t-382 -157t-382.5 157t-154.5 386zM293 518q0 -146 94.5 -250t239.5 -104t239.5 104t94.5 250t-94.5 250t-239.5 104t-239.5 -104t-94.5 -250zM293 1133l246 372h176l246 -372h-189l-145 233l-146 -233 h-188z" />
<glyph unicode="&#xf5;" horiz-adv-x="1253" d="M90 518q0 229 154.5 386t382.5 157t382 -157t154 -386t-154 -386t-382 -157t-382.5 157t-154.5 386zM293 518q0 -146 94.5 -250t239.5 -104t239.5 104t94.5 250t-94.5 250t-239.5 104t-239.5 -104t-94.5 -250zM293 1221q0 107 57.5 167t151.5 60q39 0 78 -17t64.5 -37.5 t55 -37.5t50.5 -17q67 0 79 115l134 -41q0 -105 -60 -166t-149 -61q-39 0 -78 17t-64.5 37t-55 37t-50.5 17q-68 0 -80 -114z" />
<glyph unicode="&#xf6;" horiz-adv-x="1253" d="M90 518q0 229 154.5 386t382.5 157t382 -157t154 -386t-154 -386t-382 -157t-382.5 157t-154.5 386zM276 1346q0 53 36.5 88.5t88.5 35.5t88.5 -35.5t36.5 -88.5q0 -54 -37 -90.5t-88 -36.5t-88 36.5t-37 90.5zM293 518q0 -146 94.5 -250t239.5 -104t239.5 104t94.5 250 t-94.5 250t-239.5 104t-239.5 -104t-94.5 -250zM727 1346q0 53 36.5 88.5t88.5 35.5t88.5 -35.5t36.5 -88.5q0 -54 -36.5 -90.5t-88.5 -36.5t-88.5 36.5t-36.5 90.5z" />
<glyph unicode="&#xf7;" horiz-adv-x="1101" d="M100 637v174h901v-174h-901zM426 328q0 53 36.5 89t88.5 36t88.5 -36t36.5 -89q0 -54 -37 -90.5t-88 -36.5t-88 36.5t-37 90.5zM426 1122q0 53 36.5 89t88.5 36t88.5 -36t36.5 -89q0 -54 -37 -90.5t-88 -36.5t-88 36.5t-37 90.5z" />
<glyph unicode="&#xf8;" horiz-adv-x="1253" d="M90 518q0 229 154.5 386t382.5 157q142 0 258 -64l116 164l117 -82l-119 -166q164 -155 164 -395q0 -229 -154 -386t-382 -157q-135 0 -256 62l-117 -162l-119 82l119 166q-78 72 -121 174.5t-43 220.5zM293 518q0 -133 78 -233l399 555q-65 32 -143 32 q-145 0 -239.5 -104t-94.5 -250zM483 197q67 -33 144 -33q145 0 239.5 104t94.5 250q0 132 -78 232z" />
<glyph unicode="&#xf9;" horiz-adv-x="1255" d="M154 410v626h198v-618q0 -124 69.5 -192t174.5 -68q62 0 112.5 22t83 57.5t54.5 82.5t31.5 94.5t9.5 95.5v526h198v-1036h-194v156q-98 -181 -336 -181q-180 0 -290.5 117t-110.5 318zM270 1505h238l194 -342h-167z" />
<glyph unicode="&#xfa;" horiz-adv-x="1255" d="M154 410v626h198v-618q0 -124 69.5 -192t174.5 -68q62 0 112.5 22t83 57.5t54.5 82.5t31.5 94.5t9.5 95.5v526h198v-1036h-194v156q-98 -181 -336 -181q-180 0 -290.5 117t-110.5 318zM541 1163l194 342h238l-264 -342h-168z" />
<glyph unicode="&#xfb;" horiz-adv-x="1255" d="M154 410v626h198v-618q0 -124 69.5 -192t174.5 -68q62 0 112.5 22t83 57.5t54.5 82.5t31.5 94.5t9.5 95.5v526h198v-1036h-194v156q-98 -181 -336 -181q-180 0 -290.5 117t-110.5 318zM281 1133l245 372h176l246 -372h-188l-146 233l-145 -233h-188z" />
<glyph unicode="&#xfc;" horiz-adv-x="1255" d="M154 410v626h198v-618q0 -124 69.5 -192t174.5 -68q62 0 112.5 22t83 57.5t54.5 82.5t31.5 94.5t9.5 95.5v526h198v-1036h-194v156q-98 -181 -336 -181q-180 0 -290.5 117t-110.5 318zM246 1346q0 53 36.5 88.5t88.5 35.5t88.5 -35.5t36.5 -88.5q0 -54 -37 -90.5 t-88 -36.5t-88 36.5t-37 90.5zM696 1346q0 53 36.5 88.5t88.5 35.5t88.5 -35.5t36.5 -88.5q0 -54 -37 -90.5t-88 -36.5t-88 36.5t-37 90.5z" />
<glyph unicode="&#xfd;" horiz-adv-x="1071" d="M18 1036h224l301 -784l293 784h215l-482 -1206q-32 -85 -70.5 -140t-104 -89.5t-156.5 -34.5t-150 26v179q55 -35 131 -35q67 0 111 38.5t76 125.5l43 114zM463 1163l194 342h238l-264 -342h-168z" />
<glyph unicode="&#xfe;" horiz-adv-x="1294" d="M166 856v590h203v-549q55 73 147.5 118.5t194.5 45.5q137 0 249 -69t177 -193.5t65 -280.5q0 -155 -65 -279.5t-177 -194t-249 -69.5q-102 0 -199 47.5t-143 118.5v-551h-199v1266h-4zM356 518q0 -145 89.5 -252.5t232.5 -107.5q133 0 228 101.5t95 258.5t-95 259 t-228 102q-145 0 -233.5 -106.5t-88.5 -254.5z" />
<glyph unicode="&#xff;" horiz-adv-x="1071" d="M18 1036h224l301 -784l293 784h215l-482 -1206q-32 -85 -70.5 -140t-104 -89.5t-156.5 -34.5t-150 26v179q55 -35 131 -35q67 0 111 38.5t76 125.5l43 114zM190 1346q0 53 36.5 88.5t88.5 35.5t88.5 -35.5t36.5 -88.5q0 -54 -37 -90.5t-88 -36.5t-88 36.5t-37 90.5z M641 1346q0 53 36.5 88.5t88.5 35.5t88.5 -35.5t36.5 -88.5q0 -54 -36.5 -90.5t-88.5 -36.5t-88.5 36.5t-36.5 90.5z" />
<glyph unicode="&#x152;" horiz-adv-x="2011" d="M98 723q0 209 99 381t270 269t377 97q113 0 215 -24h837v-184h-653v-441h535v-184h-535v-451h674v-186h-873q-98 -25 -200 -25q-206 0 -377 97.5t-270 269.5t-99 381zM307 723q0 -155 72.5 -281.5t195.5 -197t269 -70.5q108 0 196 27v1048q-91 23 -196 23 q-146 0 -269 -70.5t-195.5 -197t-72.5 -281.5z" />
<glyph unicode="&#x153;" horiz-adv-x="2041" d="M90 518q0 229 154.5 386t382.5 157q133 0 243 -58.5t183 -164.5q70 106 179.5 164.5t242.5 58.5q217 0 348 -138t131 -343q0 -48 -10 -113h-785q12 -143 111.5 -226t238.5 -83q175 0 293 131l121 -139q-172 -175 -418 -175q-145 0 -260.5 59.5t-189.5 166.5 q-73 -106 -184 -166t-244 -60q-228 0 -382.5 157t-154.5 386zM293 518q0 -146 94.5 -250t239.5 -104t239.5 104t94.5 250t-94.5 250t-239.5 104t-239.5 -104t-94.5 -250zM1165 629h594v2q-10 116 -87.5 184t-194.5 68q-122 0 -205.5 -68t-106.5 -186z" />
<glyph unicode="&#x178;" horiz-adv-x="1251" d="M10 1446h236l379 -602l381 602h235l-514 -791v-655h-203v655zM279 1755q0 53 36 89t88 36t88.5 -36t36.5 -89t-37 -90t-88 -37t-87.5 36.5t-36.5 90.5zM729 1755q0 53 36.5 89t88.5 36t88.5 -36t36.5 -89t-36.5 -90t-88.5 -37t-88.5 37t-36.5 90z" />
<glyph unicode="&#x2c6;" horiz-adv-x="872" d="M102 1133l246 372h176l246 -372h-188l-146 233l-145 -233h-189z" />
<glyph unicode="&#x2dc;" horiz-adv-x="874" d="M102 1221q0 107 57.5 167t151.5 60q39 0 78 -17t64.5 -37.5t55 -37.5t50.5 -17q68 0 80 115l133 -41q0 -105 -60 -166t-149 -61q-39 0 -78 17t-64.5 37t-55 37t-50.5 17q-67 0 -79 -114z" />
<glyph unicode="&#x2000;" horiz-adv-x="999" />
<glyph unicode="&#x2001;" horiz-adv-x="1999" />
<glyph unicode="&#x2002;" horiz-adv-x="999" />
<glyph unicode="&#x2003;" horiz-adv-x="1999" />
<glyph unicode="&#x2004;" horiz-adv-x="666" />
<glyph unicode="&#x2005;" horiz-adv-x="499" />
<glyph unicode="&#x2006;" horiz-adv-x="333" />
<glyph unicode="&#x2007;" horiz-adv-x="333" />
<glyph unicode="&#x2008;" horiz-adv-x="249" />
<glyph unicode="&#x2009;" horiz-adv-x="399" />
<glyph unicode="&#x200a;" horiz-adv-x="111" />
<glyph unicode="&#x2010;" horiz-adv-x="950" d="M137 469v172h676v-172h-676z" />
<glyph unicode="&#x2011;" horiz-adv-x="950" d="M137 469v172h676v-172h-676z" />
<glyph unicode="&#x2012;" horiz-adv-x="950" d="M137 469v172h676v-172h-676z" />
<glyph unicode="&#x2013;" horiz-adv-x="1380" d="M137 469v172h1106v-172h-1106z" />
<glyph unicode="&#x2014;" horiz-adv-x="1748" d="M137 469v172h1475v-172h-1475z" />
<glyph unicode="&#x2018;" horiz-adv-x="432" d="M84 1233q0 23 16 63l127 287h101l-84 -229q37 -13 63.5 -46.5t26.5 -74.5q0 -54 -35.5 -89.5t-89.5 -35.5t-89.5 35.5t-35.5 89.5z" />
<glyph unicode="&#x2019;" horiz-adv-x="434" d="M111 1458q0 54 35.5 89.5t89.5 35.5t89 -35.5t35 -89.5q0 -23 -16 -63l-127 -287h-100l84 229q-37 13 -63.5 46.5t-26.5 74.5z" />
<glyph unicode="&#x201a;" horiz-adv-x="475" d="M113 102q0 54 35.5 89.5t89.5 35.5t89 -35.5t35 -89.5q0 -23 -16 -63l-127 -287h-100l84 230q-37 13 -63.5 46t-26.5 74z" />
<glyph unicode="&#x201c;" horiz-adv-x="792" d="M84 1233q0 23 16 63l127 287h101l-84 -229q37 -13 63.5 -46.5t26.5 -74.5q0 -54 -35.5 -89.5t-89.5 -35.5t-89.5 35.5t-35.5 89.5zM444 1233q0 20 17 63l127 287h100l-84 -229q37 -13 63.5 -46.5t26.5 -74.5q0 -54 -35.5 -89.5t-89.5 -35.5t-89.5 35.5t-35.5 89.5z" />
<glyph unicode="&#x201d;" horiz-adv-x="794" d="M111 1458q0 54 35.5 89.5t89.5 35.5t89 -35.5t35 -89.5q0 -23 -16 -63l-127 -287h-100l84 229q-37 13 -63.5 46.5t-26.5 74.5zM471 1458q0 54 35.5 89.5t89.5 35.5t89.5 -35.5t35.5 -89.5q0 -23 -16 -63l-127 -287h-101l84 229q-37 13 -63.5 46.5t-26.5 74.5z" />
<glyph unicode="&#x201e;" horiz-adv-x="835" d="M113 102q0 54 35.5 89.5t89.5 35.5t89 -35.5t35 -89.5q0 -23 -16 -63l-127 -287h-100l84 230q-37 13 -63.5 46t-26.5 74zM473 102q0 54 35.5 89.5t89.5 35.5t89.5 -35.5t35.5 -89.5q0 -23 -16 -63l-127 -287h-101l84 230q-37 13 -63.5 46t-26.5 74z" />
<glyph unicode="&#x2022;" horiz-adv-x="761" d="M162 623q0 92 64 155.5t155 63.5t155 -63.5t64 -155.5q0 -91 -64.5 -156.5t-154.5 -65.5t-154.5 65.5t-64.5 156.5z" />
<glyph unicode="&#x2026;" horiz-adv-x="1294" d="M106 102q0 53 36.5 89t88.5 36t88.5 -36t36.5 -89q0 -54 -37 -90.5t-88 -36.5t-88 36.5t-37 90.5zM522 102q0 53 36.5 89t88.5 36t88.5 -36t36.5 -89q0 -54 -37 -90.5t-88 -36.5t-88 36.5t-37 90.5zM938 102q0 53 36.5 89t88.5 36t88.5 -36t36.5 -89q0 -54 -37 -90.5 t-88 -36.5t-88 36.5t-37 90.5z" />
<glyph unicode="&#x202f;" horiz-adv-x="399" />
<glyph unicode="&#x2039;" horiz-adv-x="628" d="M80 518l248 402h200l-247 -402l247 -399h-200z" />
<glyph unicode="&#x203a;" horiz-adv-x="632" d="M102 119l248 401l-248 400h201l248 -400l-248 -401h-201z" />
<glyph unicode="&#x205f;" horiz-adv-x="499" />
<glyph unicode="&#x20ac;" horiz-adv-x="1419" d="M78 485v170h155q-2 23 -2 68q0 36 2 59h-155v170h180q59 240 218.5 379t377.5 139q308 0 483 -239l-147 -129q-51 71 -139.5 122.5t-196.5 51.5q-140 0 -239 -84.5t-142 -239.5h535l-23 -170h-539q-2 -18 -2 -59q0 -45 2 -68h539l-20 -170h-488q45 -149 146 -232t241 -83 q64 0 118 15t96 44.5t70 57.5t60 69l144 -120q-181 -261 -488 -261q-219 0 -382.5 138t-221.5 372h-182z" />
<glyph unicode="&#x2122;" horiz-adv-x="1263" d="M72 1337v109h422v-109h-156v-401h-111v401h-155zM565 936v510h156l119 -229l121 229h155v-510h-115v367l-120 -232h-82l-123 232v-367h-111z" />
<glyph unicode="&#x25fc;" horiz-adv-x="1034" d="M0 0v1034h1034v-1034h-1034z" />
</font>
</defs>
</svg>
