<?xml version="1.0" standalone="no"?>
<!DOCTYPE svg PUBLIC "-//W3C//DTD SVG 1.1//EN" "http://www.w3.org/Graphics/SVG/1.1/DTD/svg11.dtd" >
<svg xmlns="http://www.w3.org/2000/svg" xmlns:xlink="http://www.w3.org/1999/xlink" version="1.1">
<metadata></metadata>
<defs>
<font id="rotundalight" horiz-adv-x="1708" >
<font-face units-per-em="2048" ascent="1638" descent="-410" />
<missing-glyph horiz-adv-x="536" />
<glyph horiz-adv-x="0" />
<glyph unicode="&#xd;" horiz-adv-x="512" />
<glyph unicode=" "  horiz-adv-x="536" />
<glyph unicode="&#x09;" horiz-adv-x="536" />
<glyph unicode="&#xa0;" horiz-adv-x="536" />
<glyph unicode="!" horiz-adv-x="573" d="M182 90q0 42 31.5 73.5t73.5 31.5q44 0 75 -31t31 -74t-31 -73.5t-75 -30.5q-42 0 -73.5 31t-31.5 73zM211 1440h154l-15 -1071h-123z" />
<glyph unicode="&#x22;" horiz-adv-x="698" d="M137 1440h137l-18 -475h-100zM424 1440h137l-18 -475h-101z" />
<glyph unicode="#" horiz-adv-x="1411" d="M84 477l18 115h304l43 256h-302l19 115h303l74 432h129l-74 -432h301l74 432h129l-74 -432h301l-18 -115h-303l-45 -256h303l-19 -115h-303l-76 -434h-125l74 434h-303l-76 -434h-127l74 434h-301zM532 592h304l45 256h-303z" />
<glyph unicode="$" horiz-adv-x="1101" d="M80 236l121 81q118 -206 358 -206q138 0 222.5 68.5t84.5 174.5q0 36 -9 67t-23.5 55t-39.5 47t-50 40t-61.5 36t-67.5 33t-74 33q-7 3 -11.5 5t-9.5 4q-163 69 -228 111q-156 101 -173 260q-2 20 -2 42q0 145 102 249t277 124v221h135v-221q112 -13 204.5 -69 t147.5 -156l-109 -76q-105 172 -313 172q-134 0 -216.5 -68t-82.5 -173q0 -44 16 -80.5t38.5 -62t65 -51.5t77 -43t94.5 -43q28 -12 43 -19q43 -18 65 -28t61 -27.5t60 -30t53.5 -32.5t50.5 -37t41.5 -40.5t36 -48t25.5 -53.5t18 -63t5 -71q0 -148 -104.5 -254t-289.5 -126 v-228h-135v228q-132 13 -237 81t-166 175z" />
<glyph unicode="%" horiz-adv-x="1613" d="M82 1135q0 137 97.5 232t236.5 95t234 -94.5t95 -232.5q0 -141 -94.5 -234.5t-234.5 -93.5q-139 0 -236.5 94t-97.5 234zM207 1135q0 -91 60 -151t149 -60q87 0 146 60t59 151q0 90 -59 150.5t-146 60.5q-88 0 -148.5 -60.5t-60.5 -150.5zM213 0l1053 1440h131 l-1051 -1440h-133zM866 303q0 140 97.5 234t236.5 94q140 0 236 -94t96 -234t-96 -234t-236 -94q-139 0 -236.5 94t-97.5 234zM991 303q0 -91 60 -151t149 -60q88 0 147.5 59.5t59.5 151.5q0 90 -59.5 150.5t-147.5 60.5t-148.5 -60.5t-60.5 -150.5z" />
<glyph unicode="&#x26;" horiz-adv-x="1415" d="M104 367q0 126 83 219.5t264 197.5q-105 112 -152 187t-47 166q0 63 25 121.5t71 104.5t118 73.5t159 27.5q169 0 270.5 -97.5t101.5 -229.5q0 -106 -77 -192.5t-254 -188.5l385 -404q112 187 84 422h137q34 -290 -121 -524l238 -250h-185l-141 147q-183 -172 -445 -172 q-139 0 -256 48.5t-187.5 139t-70.5 204.5zM248 373q0 -116 112 -189t261 -73q201 0 346 135l-424 444q-157 -91 -225.5 -158t-69.5 -159zM389 1139q0 -24 6 -47.5t11 -40t23.5 -42t25.5 -36.5t36.5 -41.5t37 -38t44.5 -43.5q158 91 222.5 153t64.5 132q0 82 -66.5 141 t-168.5 59q-106 0 -171 -56t-65 -140z" />
<glyph unicode="'" horiz-adv-x="411" d="M137 1440h137l-18 -475h-100z" />
<glyph unicode="(" horiz-adv-x="567" d="M119 657q0 480 233 926h135q-225 -440 -225 -926t225 -923h-135q-233 446 -233 923z" />
<glyph unicode=")" horiz-adv-x="567" d="M80 -268q225 440 225 925q0 487 -225 924h135q234 -448 234 -924q0 -477 -234 -925h-135z" />
<glyph unicode="*" horiz-adv-x="780" d="M113 1133v110l229 -26l-139 184l96 57l92 -211l92 209l97 -55l-140 -184l228 26v-110l-228 26l140 -184l-97 -55l-92 208l-92 -210l-96 57l139 184z" />
<glyph unicode="+" horiz-adv-x="1146" d="M84 657v127h424v422h131v-422h424v-127h-424v-424h-131v424h-424z" />
<glyph unicode="," horiz-adv-x="473" d="M129 -242l82 222q-31 11 -52.5 38.5t-21.5 61.5q0 43 30 72.5t73 29.5q44 0 74 -29.5t30 -72.5q0 -21 -12 -53l-121 -269h-82z" />
<glyph unicode="-" horiz-adv-x="950" d="M154 492v126h643v-126h-643z" />
<glyph unicode="." horiz-adv-x="452" d="M123 80q0 42 30 72t72 30q43 0 74 -30t31 -72q0 -43 -31 -74t-74 -31q-41 0 -71.5 31t-30.5 74z" />
<glyph unicode="/" horiz-adv-x="1034" d="M59 -287l781 1891h135l-780 -1891h-136z" />
<glyph unicode="0" horiz-adv-x="1353" d="M131 719q0 116 18 221t59.5 201.5t103.5 166.5t155.5 112t210.5 42t210.5 -42t155 -112t102.5 -166.5t59 -201.5t18 -221t-18 -221t-59 -202t-102.5 -167t-155 -112t-210.5 -42t-210.5 42t-155.5 112.5t-103.5 167t-59.5 201.5t-18 221zM279 719q0 -130 23 -237.5 t69.5 -192t124.5 -131.5t182 -47q83 0 150.5 31t113 86t76 132t44 166.5t13.5 192.5t-13.5 192.5t-44 166.5t-76 132t-113 86t-150.5 31q-104 0 -182 -47t-124.5 -131.5t-69.5 -192t-23 -237.5z" />
<glyph unicode="1" horiz-adv-x="1009" d="M117 1100v129q279 14 381 211h125v-1315h335v-125h-819v125h344v1104q-151 -126 -366 -129z" />
<glyph unicode="2" horiz-adv-x="1148" d="M113 92q0 103 41.5 191.5t107.5 153t146 123t160.5 112.5t146.5 109t107.5 125t41.5 149q0 120 -82.5 197t-216.5 77q-228 0 -327 -209l-117 72q65 132 182.5 202t265.5 70q199 0 321 -115.5t122 -287.5q0 -77 -25.5 -146t-69 -122.5t-100 -102.5t-118.5 -91.5 t-124 -83.5t-118.5 -84t-100 -88.5t-69 -101t-25.5 -116.5h762v-125h-903q-8 41 -8 92z" />
<glyph unicode="3" horiz-adv-x="1140" d="M82 248l119 76q46 -103 135 -158t196 -55q136 0 235 84.5t99 220.5q0 148 -98 234.5t-274 86.5q-71 0 -115 -8v88l416 498h-650v125h834v-97l-408 -489q196 -4 318.5 -128t122.5 -306q0 -191 -137 -318t-347 -127q-149 0 -264.5 71t-181.5 202z" />
<glyph unicode="4" horiz-adv-x="1220" d="M63 381v92l689 967h157v-934h207v-125h-207v-381h-141v381h-705zM244 506h524v735z" />
<glyph unicode="5" horiz-adv-x="1130" d="M88 248l117 76q95 -213 330 -213q148 0 245 94t97 241q0 149 -97 247t-243 98q-168 0 -291 -129l-92 40l82 738h708v-125h-592l-53 -481q40 33 107 57t147 24q202 0 335.5 -131t133.5 -333q0 -204 -138 -340t-347 -136q-149 0 -266 71t-183 202z" />
<glyph unicode="6" horiz-adv-x="1177" d="M113 457q0 61 13.5 116.5t46.5 117t60 104t82 120.5l351 523h168l-392 -570q65 47 183 47q198 0 332.5 -134.5t134.5 -331.5q0 -132 -66 -242t-178.5 -172t-245.5 -62q-203 0 -346 140.5t-143 343.5zM260 453q0 -152 97 -249.5t245 -97.5q147 0 245.5 98t98.5 245 q0 144 -99 241.5t-241 97.5q-152 0 -249 -95.5t-97 -239.5z" />
<glyph unicode="7" horiz-adv-x="1050" d="M78 1313v127h915v-99l-674 -1341h-151l663 1313h-753z" />
<glyph unicode="8" horiz-adv-x="1214" d="M127 391q0 129 76 227.5t188 137.5q-91 39 -153 127t-62 200q0 108 59.5 196.5t158 136.5t212.5 48q115 0 213.5 -48t158.5 -136t60 -197q0 -112 -62 -200t-153 -127q112 -39 188 -137.5t76 -227.5q0 -179 -139.5 -297.5t-341.5 -118.5q-201 0 -340 118.5t-139 297.5z M274 397q0 -126 95.5 -208.5t236.5 -82.5q142 0 238 82.5t96 208.5t-97 208.5t-237 82.5q-141 0 -236.5 -82.5t-95.5 -208.5zM319 1079q0 -114 84 -187t203 -73q120 0 204.5 73t84.5 187q0 110 -85.5 182t-203.5 72q-117 0 -202 -72t-85 -182z" />
<glyph unicode="9" horiz-adv-x="1177" d="M86 989q0 201 142.5 338t346.5 137q133 0 245.5 -63.5t178.5 -175t66 -244.5q0 -61 -13.5 -116.5t-47 -117.5t-60.5 -104.5t-82 -120.5l-350 -522h-168l391 569q-65 -47 -182 -47q-198 0 -332.5 135t-134.5 332zM231 989q0 -144 99 -242t241 -98q152 0 249.5 96t97.5 240 q0 151 -97 248.5t-246 97.5q-147 0 -245.5 -97.5t-98.5 -244.5z" />
<glyph unicode=":" horiz-adv-x="514" d="M154 80q0 42 31 73t73 31q43 0 72.5 -30.5t29.5 -73.5t-29.5 -73t-72.5 -30q-42 0 -73 30.5t-31 72.5zM154 950q0 42 31 73.5t73 31.5t72 -31t30 -74t-29.5 -72.5t-72.5 -29.5q-42 0 -73 30t-31 72z" />
<glyph unicode=";" horiz-adv-x="526" d="M156 -242l82 222q-31 11 -52.5 38.5t-21.5 61.5q0 43 29.5 72.5t72.5 29.5q44 0 74.5 -29.5t30.5 -72.5q0 -18 -13 -53l-120 -269h-82zM164 950q0 43 30.5 74t71.5 31q43 0 74 -31t31 -74q0 -42 -31 -72t-74 -30q-42 0 -72 30t-30 72z" />
<glyph unicode="&#x3c;" horiz-adv-x="1114" d="M84 655v129l864 387v-137l-702 -315l702 -313v-140z" />
<glyph unicode="=" horiz-adv-x="1177" d="M160 457v127h858v-127h-858zM160 856v125h858v-125h-858z" />
<glyph unicode="&#x3e;" horiz-adv-x="1114" d="M166 266v137l702 316l-702 313v139l864 -389v-129z" />
<glyph unicode="?" horiz-adv-x="970" d="M70 1237q23 39 56 75t81.5 72t117 58t146.5 22q178 0 290.5 -103t112.5 -269q0 -69 -20.5 -127.5t-53.5 -99.5t-72.5 -78t-79 -71.5t-72.5 -70.5t-53.5 -84.5t-20.5 -105.5v-97h-140v99q0 71 20.5 130.5t53 101t71.5 78.5t78.5 71t72 69.5t53 82t20.5 100.5 q0 105 -72 173t-188 68q-188 0 -299 -172zM330 76q0 41 29.5 70.5t70.5 29.5t70.5 -29.5t29.5 -70.5t-29.5 -71t-70.5 -30t-70.5 30t-29.5 71z" />
<glyph unicode="@" horiz-adv-x="1929" d="M104 614q0 176 68.5 335.5t183.5 275t274.5 184t334.5 68.5q176 0 334.5 -68t271 -182.5t178.5 -271.5t66 -330q0 -198 -91 -335.5t-225 -137.5q-88 0 -147.5 49t-79.5 121q-54 -76 -136 -125.5t-190 -49.5q-185 0 -312.5 131.5t-127.5 323.5q0 194 125 325.5t305 131.5 q108 0 187.5 -43.5t123.5 -106.5v125h125v-622q0 -60 33.5 -103t93.5 -43q79 0 133 101.5t54 257.5q0 200 -92.5 367t-258.5 265.5t-370 98.5q-152 0 -288 -58t-233 -156.5t-154 -236.5t-57 -291q0 -154 54.5 -291t148.5 -236t228.5 -156.5t287.5 -57.5q231 0 439 143 l57 -104q-49 -33 -86.5 -54t-101 -49t-141.5 -42.5t-167 -14.5q-173 0 -330 68.5t-270.5 184t-180.5 275t-67 334.5zM633 602q0 -141 91 -238.5t220 -97.5q130 0 220.5 89.5t90.5 246.5q0 158 -90.5 248t-220.5 90q-129 0 -220 -97.5t-91 -240.5z" />
<glyph unicode="A" horiz-adv-x="1339" d="M29 0l567 1440h149l566 -1440h-146l-178 449h-633l-178 -449h-147zM401 580h539l-270 694z" />
<glyph unicode="B" horiz-adv-x="1306" d="M215 0v1440h485q196 0 316.5 -103t120.5 -274q0 -118 -60 -205.5t-151 -124.5q108 -31 181 -117.5t73 -222.5q0 -176 -127.5 -284.5t-331.5 -108.5h-506zM356 131h377q131 0 215 77t84 195q0 117 -90 190t-227 73h-359v-535zM356 788h359q131 0 202.5 74t71.5 191 q0 115 -75.5 185.5t-208.5 70.5h-349v-521z" />
<glyph unicode="C" horiz-adv-x="1505" d="M115 719q0 156 56.5 294.5t153.5 237.5t232.5 156t286.5 57q353 0 563 -266l-102 -98q-171 225 -457 225q-165 0 -299.5 -79t-210.5 -217.5t-76 -307.5q0 -127 45.5 -239.5t123.5 -193t187.5 -127t233.5 -46.5q302 0 475 252l107 -88q-101 -144 -250 -224t-336 -80 q-152 0 -288 57.5t-233.5 156.5t-154.5 237t-57 293z" />
<glyph unicode="D" horiz-adv-x="1531" d="M215 0v1440h477q151 0 286 -56.5t231 -153t152 -229.5t56 -280q0 -148 -56 -281.5t-152 -230t-231 -153t-286 -56.5h-477zM356 131h320q163 0 299 76t215.5 211.5t79.5 302.5q0 165 -78.5 300t-214.5 211.5t-301 76.5h-320v-1178z" />
<glyph unicode="E" horiz-adv-x="1224" d="M215 0v1440h870v-129h-729v-518h607v-131h-607v-531h758v-131h-899z" />
<glyph unicode="F" horiz-adv-x="1107" d="M215 0v1440h801v-129h-660v-537h574v-127h-574v-647h-141z" />
<glyph unicode="G" horiz-adv-x="1570" d="M115 719q0 156 57 294.5t155 237t233 156t286 57.5q336 0 559 -254l-100 -102q-81 102 -196.5 159.5t-258.5 57.5q-165 0 -300.5 -79t-212.5 -217.5t-77 -307.5q0 -127 45.5 -239.5t123.5 -193t187.5 -127t233.5 -46.5q146 0 266 56.5t193 156.5v278h-400v127h535v-457 h-4l4 -2q-103 -139 -257 -219t-341 -80q-151 0 -286.5 57.5t-233 156.5t-154.5 237t-57 293z" />
<glyph unicode="H" horiz-adv-x="1558" d="M215 0v1440h141v-656h846v656h141v-1440h-141v657h-846v-657h-141z" />
<glyph unicode="I" horiz-adv-x="571" d="M215 0v1440h141v-1440h-141z" />
<glyph unicode="J" horiz-adv-x="1040" d="M43 256l113 68q82 -218 278 -218q127 0 195.5 83.5t68.5 211.5v1039h142v-1037q0 -189 -112 -308.5t-298 -119.5q-140 0 -241.5 74t-145.5 207z" />
<glyph unicode="K" horiz-adv-x="1304" d="M215 0v1440h141v-807l686 807h183l-512 -596l583 -844h-170l-508 737l-262 -309v-428h-141z" />
<glyph unicode="L" horiz-adv-x="1077" d="M215 0v1440h141v-1309h662v-131h-803z" />
<glyph unicode="M" horiz-adv-x="1843" d="M215 0v1440h123l584 -924l583 924h123v-1440h-141v1157l-518 -803h-95l-518 803v-1157h-141z" />
<glyph unicode="N" horiz-adv-x="1562" d="M215 0v1440h119l874 -1180v1180h140v-1440h-119l-875 1180v-1180h-139z" />
<glyph unicode="O" d="M115 721q0 208 98 379t267.5 267.5t373.5 96.5q154 0 290.5 -57t235 -155t156 -236.5t57.5 -294.5q0 -209 -97.5 -380t-267 -268.5t-374.5 -97.5q-204 0 -373.5 97.5t-267.5 269t-98 379.5zM260 721q0 -127 46.5 -239.5t126 -193t189.5 -127t232 -46.5t232 46.5 t189.5 127t126 193t46.5 239.5q0 169 -79.5 308t-215.5 217.5t-299 78.5t-299 -78.5t-215.5 -217.5t-79.5 -308z" />
<glyph unicode="P" horiz-adv-x="1232" d="M215 0v1440h496q119 0 220 -57.5t160.5 -159t59.5 -222.5q0 -184 -129 -311t-309 -127h-357v-563h-141zM356 690h338q126 0 219 91t93 223q0 126 -93.5 215.5t-218.5 89.5h-338v-619z" />
<glyph unicode="Q" d="M115 721q0 208 98 379t267.5 267.5t373.5 96.5q154 0 290.5 -57t235 -155t156 -236.5t57.5 -294.5q0 -213 -100 -383.5t-274 -269.5l299 -414h-172l-259 358q-107 -37 -233 -37q-204 0 -373.5 97.5t-267.5 269t-98 379.5zM260 721q0 -127 46.5 -239.5t126 -193 t189.5 -127t232 -46.5t232 46.5t189.5 127t126 193t46.5 239.5q0 169 -79.5 308t-215.5 217.5t-299 78.5t-299 -78.5t-215.5 -217.5t-79.5 -308z" />
<glyph unicode="R" horiz-adv-x="1325" d="M215 0v1440h551q181 0 309.5 -121t128.5 -303q0 -146 -88 -253.5t-227 -148.5l309 -614h-162l-299 598h-381v-598h-141zM356 721h400q122 0 211.5 84.5t89.5 214.5q0 125 -90 207t-213 82h-398v-588z" />
<glyph unicode="S" horiz-adv-x="1134" d="M94 236l121 81q118 -206 358 -206q138 0 223 68.5t85 174.5q0 36 -9 67t-23.5 55t-39.5 47t-50 40t-61.5 36t-67.5 33t-74 33q-7 3 -11.5 5t-9.5 4q-164 69 -229 111q-156 101 -173 260q-2 20 -2 42q0 157 123.5 267t323.5 110q133 0 244.5 -56.5t174.5 -172.5l-108 -76 q-105 172 -314 172q-134 0 -216.5 -68t-82.5 -173q0 -44 16 -80.5t38.5 -62t65 -51.5t77 -43t94.5 -43q28 -12 43 -19q43 -18 65 -28t61 -27.5t60 -30t53.5 -32.5t50.5 -37t41.5 -40.5t36 -48t25.5 -53.5t18 -63t5 -71q0 -78 -31 -147.5t-88.5 -122.5t-147 -84t-198.5 -31 q-155 0 -277 70.5t-190 190.5z" />
<glyph unicode="T" horiz-adv-x="1163" d="M55 1311v129h1051v-129h-455v-1311h-141v1311h-455z" />
<glyph unicode="U" horiz-adv-x="1482" d="M197 518v922h141v-910q0 -181 110.5 -299t292.5 -118t293 118t111 299v910h141v-922q0 -152 -68.5 -275.5t-193.5 -195.5t-283 -72t-283 72t-193 195.5t-68 275.5z" />
<glyph unicode="V" horiz-adv-x="1310" d="M31 1440h155l469 -1233l469 1233h156l-545 -1440h-160z" />
<glyph unicode="W" horiz-adv-x="2023" d="M41 1440h149l381 -1235l367 1235h147l367 -1235l381 1235h149l-450 -1440h-156l-364 1217l-365 -1217h-155z" />
<glyph unicode="X" horiz-adv-x="1216" d="M37 0l479 752l-440 688h166l366 -580l367 580h166l-441 -688l480 -752h-162l-410 645l-409 -645h-162z" />
<glyph unicode="Y" horiz-adv-x="1218" d="M27 1440h161l420 -639l422 639h162l-512 -768v-672h-141v672z" />
<glyph unicode="Z" horiz-adv-x="1146" d="M92 0v100l774 1209h-743v131h926v-103l-773 -1206h764v-131h-948z" />
<glyph unicode="[" horiz-adv-x="696" d="M209 -266v1849h409v-127h-274v-1595h274v-127h-409z" />
<glyph unicode="\" horiz-adv-x="1034" d="M59 1602h136l780 -1891h-135z" />
<glyph unicode="]" horiz-adv-x="696" d="M78 -141h274v1595h-274v127h409v-1849h-409v127z" />
<glyph unicode="^" horiz-adv-x="1034" d="M94 821l363 619h121l362 -619h-141l-281 488l-282 -488h-142z" />
<glyph unicode="_" horiz-adv-x="1124" d="M106 -162h912v-114h-912v114z" />
<glyph unicode="`" horiz-adv-x="618" d="M129 1489h172l188 -326h-122z" />
<glyph unicode="a" horiz-adv-x="1095" d="M102 262q0 116 84 193t240 108l367 74v37q0 122 -72 188t-205 66q-96 0 -175.5 -41.5t-131.5 -104.5l-78 92q155 181 395 181q187 0 295.5 -103t108.5 -282v-670h-131v184q-56 -99 -151.5 -154t-217.5 -55q-142 0 -235 81t-93 206zM240 268q0 -75 59 -122.5t150 -47.5 q146 0 247 101.5t101 234.5v86l-346 -67q-211 -43 -211 -185z" />
<glyph unicode="b" horiz-adv-x="1302" d="M186 0v1440h138v-586q51 92 152.5 146.5t223.5 54.5q134 0 247.5 -70.5t180 -195t66.5 -275.5q0 -227 -144.5 -383t-349.5 -156q-122 0 -225 56t-158 149v-180h-131zM313 514q0 -98 30.5 -177.5t82 -129.5t116 -76.5t136.5 -26.5q157 0 266 117.5t109 292.5 q0 177 -109 294.5t-266 117.5q-72 0 -137 -27t-116 -77t-81.5 -130t-30.5 -178z" />
<glyph unicode="c" horiz-adv-x="1130" d="M104 516q0 149 70.5 273t192 195t266.5 71q255 0 405 -205l-94 -90q-124 164 -311 164q-165 0 -276 -118.5t-111 -289.5q0 -176 110.5 -293t274.5 -117q212 0 334 175l94 -86q-69 -101 -181 -160.5t-245 -59.5q-109 0 -207 42t-168.5 114.5t-112 172.5t-41.5 212z" />
<glyph unicode="d" horiz-adv-x="1302" d="M109 514q0 113 39 213.5t105 172.5t157 113.5t192 41.5q122 0 224 -54.5t153 -146.5v586h137v-1440h-131v180q-55 -93 -158 -149t-225 -56q-205 0 -349 156t-144 383zM250 514q0 -175 109 -292.5t266 -117.5q72 0 136.5 26.5t115.5 76.5t81.5 129.5t30.5 177.5 t-30.5 177.5t-81.5 130t-115.5 77.5t-136.5 27q-157 0 -266 -117.5t-109 -294.5z" />
<glyph unicode="e" horiz-adv-x="1198" d="M106 514q0 150 67 274t186.5 195.5t267.5 71.5q206 0 336.5 -133.5t130.5 -331.5q0 -48 -9 -101h-833q12 -173 123.5 -279t273.5 -106q96 0 180.5 39.5t145.5 110.5l84 -94q-159 -185 -414 -185q-114 0 -214.5 42t-171.5 113.5t-112 171.5t-41 212zM256 604h700v8 q-4 144 -98.5 230t-232.5 86q-142 0 -245.5 -90.5t-123.5 -233.5z" />
<glyph unicode="f" horiz-adv-x="692" d="M96 909v121h160v125q0 145 83.5 227t221.5 82q83 0 129 -26v-123q-47 24 -112 24q-83 0 -134 -46t-51 -140v-123h262v-121h-262v-909h-137v909h-160z" />
<glyph unicode="g" horiz-adv-x="1105" d="M86 -141q0 77 48 135.5t124 93.5q-65 50 -65 129q0 84 102 154q-87 50 -135.5 132t-48.5 181q0 155 115 263t284 108q75 0 145 -25h371v-121h-197q80 -95 80 -225q0 -155 -115 -263t-284 -108q-62 0 -109 15q-24 -14 -38 -24.5t-26.5 -29.5t-12.5 -41q0 -35 26.5 -57 t67.5 -22h297q142 0 231.5 -76.5t89.5 -200.5q0 -135 -139.5 -223t-359.5 -88q-204 0 -327.5 80t-123.5 213zM225 -133q0 -79 87 -126.5t227 -47.5q162 0 260 51t98 131q0 73 -55.5 113.5t-143.5 40.5h-323q-150 -53 -150 -162zM248 684q0 -102 74 -173t188 -71 q111 0 186.5 71.5t75.5 172.5q0 102 -75.5 174t-186.5 72q-114 0 -188 -71.5t-74 -174.5z" />
<glyph unicode="h" horiz-adv-x="1245" d="M186 0v1440h138v-594q52 100 143 154.5t217 54.5q170 0 280.5 -116t110.5 -304v-635h-137v629q0 137 -78 217t-203 80q-152 0 -242.5 -110t-90.5 -267v-549h-138z" />
<glyph unicode="i" horiz-adv-x="509" d="M154 1356q0 41 29.5 70.5t70.5 29.5t70.5 -29.5t29.5 -70.5t-29.5 -71t-70.5 -30t-70.5 30t-29.5 71zM186 0v1030h138v-1030h-138z" />
<glyph unicode="j" horiz-adv-x="542" d="M-55 -285q48 -22 108 -22q75 0 118.5 48.5t43.5 143.5v1145h137v-1143q0 -157 -77.5 -239t-211.5 -82q-63 0 -118 22v127zM182 1356q0 41 30 70.5t71 29.5t70.5 -29.5t29.5 -70.5t-29.5 -71t-70.5 -30t-71 30t-30 71z" />
<glyph unicode="k" horiz-adv-x="1052" d="M186 0v1440h138v-967l491 557h168l-371 -424l412 -606h-162l-342 512l-196 -227v-285h-138z" />
<glyph unicode="l" horiz-adv-x="557" d="M174 205v1235h137v-1211q0 -127 105 -127q31 0 63 11v-125q-37 -13 -78 -13q-104 0 -165.5 56t-61.5 174z" />
<glyph unicode="m" horiz-adv-x="1996" d="M186 0v1030h133v-194q50 105 143.5 162t221.5 57t222.5 -65t137.5 -181q70 125 160 185.5t232 60.5q173 0 282 -115.5t109 -304.5v-635h-137v629q0 137 -78 217t-203 80q-151 0 -242.5 -115.5t-91.5 -271.5v-539h-137v629q0 137 -78 217t-203 80q-101 0 -178.5 -56 t-116 -143t-38.5 -188v-539h-138z" />
<glyph unicode="n" horiz-adv-x="1245" d="M186 0v1030h133v-194q50 105 143.5 162t221.5 57q173 0 282 -115.5t109 -304.5v-635h-137v629q0 137 -78 217t-203 80q-101 0 -178.5 -56t-116 -143t-38.5 -188v-539h-138z" />
<glyph unicode="o" horiz-adv-x="1269" d="M106 514q0 149 68.5 273t190 196t270.5 72q111 0 209.5 -42.5t168.5 -115t110 -172.5t40 -211t-40 -211t-110 -172t-168 -114t-210 -42q-149 0 -270.5 71.5t-190 195t-68.5 272.5zM248 514q0 -169 110 -288.5t277 -119.5t277 119.5t110 288.5t-110 288.5t-277 119.5 t-277 -119.5t-110 -288.5z" />
<glyph unicode="p" horiz-adv-x="1300" d="M186 -410v1440h131v-180q56 94 158 149.5t225 55.5q204 0 348 -155.5t144 -383.5q0 -150 -66.5 -275t-179 -195.5t-246.5 -70.5q-120 0 -222.5 54t-153.5 145v-584h-138zM313 516q0 -98 30.5 -178t81.5 -130t116 -77t137 -27q157 0 265 117t108 293q0 177 -108 294.5 t-265 117.5q-72 0 -136.5 -26.5t-116 -76.5t-82 -129.5t-30.5 -177.5z" />
<glyph unicode="q" horiz-adv-x="1298" d="M109 516q0 228 143.5 383.5t347.5 155.5q123 0 225 -55.5t158 -149.5v180h131v-1440h-137v584q-50 -91 -153.5 -145t-223.5 -54q-133 0 -246 70.5t-179 195t-66 275.5zM250 514q0 -176 108 -293t265 -117q72 0 136.5 27t115.5 77.5t81.5 130t30.5 177.5t-30.5 177.5 t-81.5 129.5t-115.5 76.5t-136.5 26.5q-157 0 -265 -117.5t-108 -294.5z" />
<glyph unicode="r" horiz-adv-x="757" d="M186 0v1030h136v-203q40 112 122.5 170t190.5 58q15 0 57 -6v-136q-14 2 -45 2q-148 0 -235.5 -101.5t-87.5 -283.5v-530h-138z" />
<glyph unicode="s" horiz-adv-x="950" d="M90 182l100 80q14 -22 36 -45t58 -51t88 -46t109 -18q98 0 162 44t64 116q0 69 -59 108.5t-199 86.5q-61 19 -105.5 38t-88.5 45.5t-72 57t-45 73t-17 93.5q0 126 103 208.5t257 82.5q71 0 133 -21t104 -54t67.5 -61.5t39.5 -54.5l-102 -80q-11 19 -29 40t-48.5 47 t-74 42.5t-92.5 16.5q-95 0 -157 -43t-62 -119q0 -67 58.5 -108t185.5 -82q66 -23 110.5 -41t91.5 -46t74.5 -58t45.5 -73t18 -96q0 -125 -102 -207t-261 -82q-79 0 -150 22.5t-118.5 57t-78 67t-44.5 60.5z" />
<glyph unicode="t" horiz-adv-x="753" d="M76 909v121h162v285h137v-285h268v-121h-268v-608q0 -97 49.5 -146t138.5 -49q62 0 121 29v-131q-72 -29 -149 -29q-137 0 -218 82t-81 232v620h-160z" />
<glyph unicode="u" horiz-adv-x="1245" d="M170 395v635h137v-629q0 -137 78 -217t203 -80q101 0 179 56.5t116.5 144t38.5 187.5v538h137v-1030h-133v195q-50 -105 -143.5 -162.5t-221.5 -57.5q-173 0 -282 115.5t-109 304.5z" />
<glyph unicode="v" horiz-adv-x="1044" d="M37 1030h147l338 -850l338 850h148l-422 -1030h-127z" />
<glyph unicode="w" horiz-adv-x="1648" d="M43 1030h145l279 -846l287 844h141l287 -844l278 846h146l-351 -1030h-139l-291 836l-293 -836h-139z" />
<glyph unicode="x" horiz-adv-x="1015" d="M47 0l365 535l-334 495h162l266 -405l266 405h162l-334 -495l365 -535h-164l-295 440l-295 -440h-164z" />
<glyph unicode="y" horiz-adv-x="1052" d="M35 1030h151l342 -852l338 852h150l-508 -1239q-43 -108 -109.5 -166.5t-179.5 -58.5q-87 0 -147 31v129q61 -37 143 -37q67 0 108.5 43.5t77.5 130.5l60 147z" />
<glyph unicode="z" horiz-adv-x="972" d="M104 0v90l570 817h-568v123h750v-90l-571 -817h594v-123h-775z" />
<glyph unicode="{" horiz-adv-x="688" d="M84 596v127q102 1 138 49.5t36 165.5v334q0 323 295 323q33 0 51 -2v-120q-116 0 -163.5 -42t-47.5 -157v-336q0 -114 -30 -185t-103 -94q73 -23 103 -93.5t30 -184.5v-338q0 -118 47 -158.5t164 -40.5v-120q-27 -3 -51 -3q-295 0 -295 324v336q0 119 -35.5 166.5 t-138.5 48.5z" />
<glyph unicode="|" horiz-adv-x="552" d="M209 -287v1891h135v-1891h-135z" />
<glyph unicode="}" horiz-adv-x="688" d="M84 -156q118 0 164.5 41.5t46.5 157.5v336q0 114 30 184.5t103 93.5q-73 23 -103 94t-30 185v338q0 118 -46 158.5t-165 40.5v120q18 2 51 2q295 0 295 -323v-336q0 -117 36 -165.5t138 -49.5v-127q-103 -1 -138.5 -48.5t-35.5 -166.5v-334q0 -324 -295 -324q-24 0 -51 3 v120z" />
<glyph unicode="~" horiz-adv-x="1171" d="M152 571q2 107 69 178.5t170 71.5q58 0 116 -25.5t97.5 -55.5t90.5 -55.5t96 -25.5q64 0 99 50.5t40 119.5l100 -32q0 -105 -68.5 -177.5t-170.5 -72.5q-48 0 -94.5 16.5t-83 40t-72 47t-75 40t-77.5 16.5q-62 0 -97 -51t-40 -117z" />
<glyph unicode="&#xa1;" horiz-adv-x="544" d="M168 963q0 42 31 73t73 31q44 0 75.5 -30.5t31.5 -73.5t-31.5 -74t-75.5 -31q-42 0 -73 31t-31 74zM197 -410l14 1072h123l16 -1072h-153z" />
<glyph unicode="&#xa2;" horiz-adv-x="1142" d="M106 721q0 208 131.5 358.5t329.5 175.5v220h135v-220q209 -24 338 -200l-94 -90q-124 163 -311 163q-166 0 -276.5 -119t-110.5 -288t109 -289.5t276 -120.5q213 0 334 174l94 -86q-62 -89 -154 -145.5t-205 -69.5v-221h-135v221q-198 25 -329.5 176.5t-131.5 360.5z " />
<glyph unicode="&#xa3;" horiz-adv-x="1175" d="M127 0v131h39q43 0 70.5 37t27.5 106v369h-135v123h135v289q0 176 117.5 292.5t290.5 116.5q257 0 395 -229l-109 -82q-95 176 -286 176q-116 0 -192.5 -76.5t-76.5 -197.5v-289h418v-123h-418v-371q0 -103 -53 -141h727v-131h-950z" />
<glyph unicode="&#xa4;" horiz-adv-x="1378" d="M119 254l198 199q-92 123 -92 276q0 154 92 277l-198 198l94 96l199 -200q123 92 276 92q154 0 277 -92l200 200l95 -96l-201 -200q90 -120 90 -275q0 -154 -90 -274l201 -203l-97 -94l-200 200q-123 -92 -275 -92q-154 0 -274 90l-199 -198zM360 729q0 -135 95.5 -231 t232.5 -101q138 0 235 96.5t97 235.5q-5 137 -101 232.5t-231 95.5t-231.5 -96.5t-96.5 -231.5z" />
<glyph unicode="&#xa5;" horiz-adv-x="1306" d="M70 1440h161l420 -639l422 639h162l-451 -676h308v-121h-369v-174h369v-121h-369v-348h-141v348h-363v121h363v174h-363v121h301z" />
<glyph unicode="&#xa6;" horiz-adv-x="552" d="M209 -287v697h135v-697h-135zM209 907v697h135v-697h-135z" />
<glyph unicode="&#xa7;" horiz-adv-x="1067" d="M104 4l107 76q117 -180 328 -180q110 0 182 51.5t72 132.5t-60 133t-231 135q-212 104 -292.5 185.5t-80.5 197.5q0 112 102 201q-90 84 -90 211q0 136 110 226.5t275 90.5q129 0 238 -58t168 -171l-109 -74q-98 174 -297 174q-108 0 -176.5 -52t-68.5 -132t62 -132 t243 -140q200 -98 278 -182t78 -199q0 -110 -100 -203q88 -88 88 -207q0 -136 -111.5 -226.5t-277.5 -90.5q-128 0 -245 59.5t-192 173.5zM268 739q0 -73 60.5 -126t228.5 -138q120 -59 182 -100q64 54 64 119q0 75 -63.5 135t-227.5 135q-120 58 -182 96q-65 -56 -62 -121z " />
<glyph unicode="&#xa8;" horiz-adv-x="1146" d="M252 1323q0 41 29.5 70.5t70.5 29.5t71 -29.5t30 -70.5t-30 -70.5t-71 -29.5t-70.5 29.5t-29.5 70.5zM694 1323q0 41 30 70.5t71 29.5t70.5 -29.5t29.5 -70.5t-29.5 -70.5t-70.5 -29.5t-71 29.5t-30 70.5z" />
<glyph unicode="&#xa9;" horiz-adv-x="1703" d="M115 719q0 205 97 376t265.5 270t370.5 99q151 0 288 -58.5t236.5 -157.5t158 -237.5t58.5 -291.5q0 -154 -58.5 -292t-158 -237t-236.5 -157t-288 -58t-287 58t-233.5 157t-155 237t-57.5 292zM248 719q0 -129 46.5 -243.5t126.5 -196.5t191 -129.5t236 -47.5 q127 0 240 47.5t193.5 129.5t127.5 196.5t47 243.5q0 172 -79.5 313.5t-219.5 223t-309 81.5q-166 0 -304 -81.5t-217 -223.5t-79 -313zM436 721q0 179 121 300.5t299 121.5q196 0 324 -154l-84 -84q-99 115 -240 115q-124 0 -207.5 -85.5t-83.5 -213.5q0 -130 82.5 -215.5 t206.5 -85.5q153 0 254 123l88 -78q-56 -78 -146.5 -123t-195.5 -45q-175 0 -296.5 122.5t-121.5 301.5z" />
<glyph unicode="&#xaa;" horiz-adv-x="837" d="M145 653v113h541v-113h-541zM174 1034q0 65 48 108.5t130 61.5l185 41v12q0 47 -34 75t-89 28q-88 0 -166 -72l-62 76q31 38 91.5 69t138.5 31q109 0 174 -56.5t65 -154.5v-364h-112v90q-20 -42 -69.5 -72t-111.5 -30q-82 0 -135 44.5t-53 112.5zM291 1042 q0 -29 22.5 -47t57.5 -18q68 0 118 44.5t50 104.5v29l-156 -35q-92 -18 -92 -78z" />
<glyph unicode="&#xab;" horiz-adv-x="950" d="M96 514l244 391h141l-243 -391l243 -389h-141zM449 514l243 391h142l-244 -391l244 -389h-142z" />
<glyph unicode="&#xac;" horiz-adv-x="1206" d="M156 657v127h878v-374h-129v247h-749z" />
<glyph unicode="&#xad;" horiz-adv-x="892" d="M150 492v126h593v-126h-593z" />
<glyph unicode="&#xae;" horiz-adv-x="1013" d="M106 1180q0 167 116 282t286 115q169 0 284 -115t115 -282q0 -170 -115 -286t-284 -116q-170 0 -286 116t-116 286zM201 1180q0 -134 86.5 -223t220.5 -89q132 0 218.5 89t86.5 223q0 131 -87 219t-218 88q-134 0 -220.5 -87.5t-86.5 -219.5zM371 989v375h166 q53 0 85.5 -35t32.5 -86q0 -39 -21 -66.5t-50 -39.5l88 -148h-92l-74 133h-53v-133h-82zM453 1192h65q23 0 38 14t15 37t-15 37t-38 14h-65v-102z" />
<glyph unicode="&#xaf;" horiz-adv-x="768" d="M119 1268v112h530v-112h-530z" />
<glyph unicode="&#xb0;" horiz-adv-x="796" d="M104 1169q0 124 86.5 209.5t208.5 85.5q120 0 206.5 -86t86.5 -209q0 -122 -86.5 -207t-206.5 -85q-122 0 -208.5 85t-86.5 207zM227 1169q0 -77 49 -125.5t123 -48.5q75 0 124.5 48.5t49.5 125.5t-50 127t-124 50t-123 -50t-49 -127z" />
<glyph unicode="&#xb1;" horiz-adv-x="1236" d="M150 123v127h937v-127h-937zM150 819v127h403v383h131v-383h403v-127h-403v-381h-131v381h-403z" />
<glyph unicode="&#xb2;" horiz-adv-x="716" d="M88 1296q38 77 104 122.5t160 45.5q118 0 186 -63.5t68 -163.5q0 -50 -16.5 -92t-58 -81.5t-66 -58t-85.5 -58.5q-9 -6 -13 -9q-68 -47 -104.5 -82t-43.5 -72h404v-110h-521q-10 38 -10 71q0 90 52 154t161 135q99 69 123 91q55 51 55 112q0 52 -35.5 83.5t-97.5 31.5 q-57 0 -98.5 -32t-63.5 -85z" />
<glyph unicode="&#xb3;" horiz-adv-x="714" d="M76 815l96 62q48 -117 170 -117q62 0 109 39.5t47 99.5q0 64 -46.5 103.5t-125.5 39.5q-47 0 -78 -8v84l190 213h-323v109h487v-80l-196 -219q98 -19 154 -84t56 -156q0 -107 -78 -179.5t-200 -72.5q-89 0 -156.5 44.5t-105.5 121.5z" />
<glyph unicode="&#xb4;" horiz-adv-x="618" d="M129 1163l188 326h172l-237 -326h-123z" />
<glyph unicode="&#xb5;" horiz-adv-x="1261" d="M186 -410v1438h138v-629q0 -137 77.5 -217t202.5 -80q151 0 242.5 115.5t91.5 271.5v539h137v-1030h-133v195q-51 -105 -143.5 -162.5t-220.5 -57.5q-149 0 -256 90v-473h-136z" />
<glyph unicode="&#xb6;" horiz-adv-x="1271" d="M76 1042q0 118 61.5 210t162 140t220.5 48h522v-1645h-127v1524h-176v-1524h-127v854h-92q-120 0 -220.5 47.5t-162 138.5t-61.5 207z" />
<glyph unicode="&#xb7;" horiz-adv-x="493" d="M143 621q0 42 30.5 72t72.5 30q43 0 73.5 -29.5t30.5 -72.5t-30.5 -74t-73.5 -31q-41 0 -72 31t-31 74z" />
<glyph unicode="&#xb8;" horiz-adv-x="546" d="M119 -336q70 -10 90 -10q102 0 102 67q0 32 -30 51t-84 19q-6 0 -14 -0.5t-13 -1t-6 -0.5l57 246l82 -35l-29 -127q68 -11 111 -52t43 -100q0 -81 -61 -124t-150 -43q-75 0 -98 10v100z" />
<glyph unicode="&#xb9;" horiz-adv-x="643" d="M102 1217v112q77 5 125 27t76 71h100v-643h172v-110h-464v110h174v478q-76 -39 -183 -45z" />
<glyph unicode="&#xba;" horiz-adv-x="880" d="M147 1169q0 124 85 209.5t208 85.5t208 -85.5t85 -209.5q0 -123 -85 -207.5t-208 -84.5t-208 84.5t-85 207.5zM168 657v115h545v-115h-545zM268 1169q0 -77 49.5 -125.5t122.5 -48.5q75 0 124.5 48.5t49.5 125.5t-50 127t-124 50q-73 0 -122.5 -50t-49.5 -127z" />
<glyph unicode="&#xbb;" horiz-adv-x="954" d="M119 125l243 391l-243 389h141l244 -389l-244 -391h-141zM471 125l244 391l-244 389h141l244 -389l-244 -391h-141z" />
<glyph unicode="&#xbc;" horiz-adv-x="1558" d="M111 1217v112q77 5 124.5 27t75.5 71h101v-643h172v-110h-465v110h174v478q-76 -39 -182 -45zM246 0l1052 1440h132l-1051 -1440h-133zM868 178v74l377 516h98v-483h115v-107h-115v-176h-114v176h-361zM1022 285h207v284z" />
<glyph unicode="&#xbd;" horiz-adv-x="1652" d="M111 1217v112q77 5 124.5 27t75.5 71h101v-643h172v-110h-465v110h174v478q-76 -39 -182 -45zM246 0l1052 1440h132l-1051 -1440h-133zM1024 625q38 77 104 122.5t160 45.5q118 0 186 -64t68 -164q0 -50 -16.5 -92t-58 -81.5t-66 -58t-85.5 -58.5q-4 -3 -7 -5l-6 -4 q-69 -47 -105 -81.5t-43 -71.5h404v-111h-521q-10 38 -10 72q0 90 52 153.5t161 134.5q99 69 123 91q55 52 55 112q0 52 -35.5 83.5t-97.5 31.5q-57 0 -98.5 -32t-63.5 -85z" />
<glyph unicode="&#xbe;" horiz-adv-x="1566" d="M82 815l96 62q48 -117 170 -117q62 0 109 39.5t47 99.5q0 64 -46.5 103.5t-125.5 39.5q-47 0 -78 -8v84l190 213h-323v109h487v-80l-196 -219q98 -19 154.5 -84t56.5 -156q0 -107 -78.5 -179.5t-200.5 -72.5q-89 0 -156.5 44.5t-105.5 121.5zM250 0l1053 1440h131 l-1051 -1440h-133zM872 178v74l377 516h99v-483h114v-107h-114v-176h-115v176h-361zM1026 285h207v284z" />
<glyph unicode="&#xbf;" horiz-adv-x="960" d="M90 -61q0 69 20.5 127.5t53.5 99.5t72.5 78t79.5 71t73 70t53.5 84.5t20.5 105.5v97h139v-99q0 -70 -20.5 -129.5t-53 -101t-71.5 -78.5t-78.5 -71t-72 -69.5t-53 -82t-20.5 -100.5q0 -105 72.5 -173.5t188.5 -68.5q188 0 299 172l102 -78q-23 -39 -56 -75t-81.5 -72 t-117 -58t-146.5 -22q-178 0 -291 103.5t-113 269.5zM434 954q0 41 30 71t71 30t70.5 -30t29.5 -71t-29.5 -70.5t-70.5 -29.5t-71 29.5t-30 70.5z" />
<glyph unicode="&#xc0;" horiz-adv-x="1339" d="M29 0l567 1440h149l566 -1440h-146l-178 449h-633l-178 -449h-147zM346 1898h172l189 -325h-123zM401 580h539l-270 694z" />
<glyph unicode="&#xc1;" horiz-adv-x="1339" d="M29 0l567 1440h149l566 -1440h-146l-178 449h-633l-178 -449h-147zM401 580h539l-270 694zM631 1573l188 325h172l-237 -325h-123z" />
<glyph unicode="&#xc2;" horiz-adv-x="1339" d="M29 0l567 1440h149l566 -1440h-146l-178 449h-633l-178 -449h-147zM365 1542l245 356h121l246 -356h-135l-172 254l-170 -254h-135zM401 580h539l-270 694z" />
<glyph unicode="&#xc3;" horiz-adv-x="1339" d="M29 0l567 1440h149l566 -1440h-146l-178 449h-633l-178 -449h-147zM360 1628q0 99 50 155t137 56q33 0 63.5 -13.5t53.5 -32.5t44.5 -37.5t43.5 -32t43 -13.5t36.5 9t24 21t14.5 32.5t8.5 35t4.5 37.5l98 -33q0 -98 -50.5 -154t-135.5 -56q-41 0 -79 20.5t-61.5 45 t-52.5 45t-55 20.5t-43 -12t-26 -36t-12.5 -42.5t-6.5 -47.5zM401 580h539l-270 694z" />
<glyph unicode="&#xc4;" horiz-adv-x="1339" d="M29 0l567 1440h149l566 -1440h-146l-178 449h-633l-178 -449h-147zM348 1733q0 41 30 70.5t71 29.5t70.5 -29.5t29.5 -70.5t-29.5 -71t-70.5 -30t-71 30t-30 71zM401 580h539l-270 694zM788 1733q0 41 30 70.5t71 29.5t70.5 -29.5t29.5 -70.5t-29.5 -71t-70.5 -30t-71 30 t-30 71z" />
<glyph unicode="&#xc5;" horiz-adv-x="1339" d="M29 0l567 1440h149l566 -1440h-146l-178 449h-633l-178 -449h-147zM401 580h539l-270 694zM467 1743q0 85 58.5 145t144.5 60t145 -59.5t59 -145.5t-59 -144.5t-145 -58.5t-144.5 58.5t-58.5 144.5zM565 1743q0 -44 30.5 -74.5t74.5 -30.5q47 0 76.5 30t29.5 75 q0 47 -29.5 76.5t-76.5 29.5q-45 0 -75 -29.5t-30 -76.5z" />
<glyph unicode="&#xc6;" horiz-adv-x="1894" d="M-12 0l737 1440h1030v-131h-676v-516h555v-131h-555v-531h705v-131h-846v496h-549l-254 -496h-147zM457 625h481v684h-131z" />
<glyph unicode="&#xc7;" horiz-adv-x="1505" d="M115 719q0 156 56.5 294.5t153.5 237.5t232.5 156t286.5 57q353 0 563 -266l-102 -98q-171 225 -457 225q-165 0 -299.5 -79t-210.5 -217.5t-76 -307.5q0 -127 45.5 -239.5t123.5 -193t187.5 -127t233.5 -46.5q302 0 475 252l107 -88q-215 -295 -574 -304l-22 -102 q67 -11 110 -52t43 -100q0 -81 -61 -124t-150 -43q-75 0 -98 10v100q70 -10 90 -10q102 0 102 67q0 32 -30 51t-84 19q-6 0 -14 -0.5t-13 -1t-6 -0.5l45 191q-186 19 -336 119.5t-235.5 263t-85.5 356.5z" />
<glyph unicode="&#xc8;" horiz-adv-x="1224" d="M215 0v1440h870v-129h-729v-518h607v-131h-607v-531h758v-131h-899zM332 1898h172l188 -325h-123z" />
<glyph unicode="&#xc9;" horiz-adv-x="1224" d="M215 0v1440h870v-129h-729v-518h607v-131h-607v-531h758v-131h-899zM600 1573l188 325h173l-238 -325h-123z" />
<glyph unicode="&#xca;" horiz-adv-x="1224" d="M215 0v1440h870v-129h-729v-518h607v-131h-607v-531h758v-131h-899zM346 1542l246 356h121l245 -356h-135l-172 254l-170 -254h-135z" />
<glyph unicode="&#xcb;" horiz-adv-x="1224" d="M215 0v1440h870v-129h-729v-518h607v-131h-607v-531h758v-131h-899zM334 1733q0 41 29.5 70.5t70.5 29.5t71 -29.5t30 -70.5t-30 -71t-71 -30t-70.5 30t-29.5 71zM776 1733q0 41 30 70.5t71 29.5t70.5 -29.5t29.5 -70.5t-29.5 -71t-70.5 -30t-71 30t-30 71z" />
<glyph unicode="&#xcc;" horiz-adv-x="561" d="M-45 1898h172l188 -325h-122zM205 0v1440h141v-1440h-141z" />
<glyph unicode="&#xcd;" horiz-adv-x="567" d="M215 0v1440h141v-1440h-141zM244 1573l188 325h172l-237 -325h-123z" />
<glyph unicode="&#xce;" horiz-adv-x="577" d="M-16 1542l245 356h121l246 -356h-135l-172 254l-170 -254h-135zM217 0v1440h141v-1440h-141z" />
<glyph unicode="&#xcf;" horiz-adv-x="573" d="M-31 1733q0 41 30 70.5t71 29.5t70.5 -29.5t29.5 -70.5t-29.5 -71t-70.5 -30t-71 30t-30 71zM217 0v1440h141v-1440h-141zM408 1733q0 41 29.5 70.5t70.5 29.5t70.5 -29.5t29.5 -70.5t-29.5 -71t-70.5 -30t-70.5 30t-29.5 71z" />
<glyph unicode="&#xd0;" horiz-adv-x="1550" d="M70 655v131h163v654h478q151 0 286 -56.5t231 -153t152 -229.5t56 -280q0 -148 -56 -281.5t-152 -230t-231 -153t-286 -56.5h-478v655h-163zM375 131h319q163 0 299 76t215.5 211.5t79.5 302.5q0 165 -78.5 300t-214.5 211.5t-301 76.5h-319v-523h422v-131h-422v-524z " />
<glyph unicode="&#xd1;" horiz-adv-x="1562" d="M215 0v1440h119l874 -1180v1180h140v-1440h-119l-875 1180v-1180h-139zM469 1628q0 99 49.5 155t136.5 56q33 0 63.5 -13.5t53.5 -32.5t44.5 -37.5t43.5 -32t43 -13.5t36.5 9t24 21t14.5 32.5t8.5 35t4.5 37.5l99 -33q0 -98 -51 -154t-136 -56q-41 0 -79 20.5t-61.5 45 t-52.5 45t-55 20.5t-43 -12t-26 -36t-12.5 -42.5t-6.5 -47.5z" />
<glyph unicode="&#xd2;" d="M115 721q0 208 98 379t267.5 267.5t373.5 96.5q154 0 290.5 -57t235 -155t156 -236.5t57.5 -294.5q0 -209 -97.5 -380t-267 -268.5t-374.5 -97.5q-204 0 -373.5 97.5t-267.5 269t-98 379.5zM260 721q0 -127 46.5 -239.5t126 -193t189.5 -127t232 -46.5t232 46.5 t189.5 127t126 193t46.5 239.5q0 169 -79.5 308t-215.5 217.5t-299 78.5t-299 -78.5t-215.5 -217.5t-79.5 -308zM541 1898h172l188 -325h-123z" />
<glyph unicode="&#xd3;" d="M115 721q0 208 98 379t267.5 267.5t373.5 96.5q154 0 290.5 -57t235 -155t156 -236.5t57.5 -294.5q0 -209 -97.5 -380t-267 -268.5t-374.5 -97.5q-204 0 -373.5 97.5t-267.5 269t-98 379.5zM260 721q0 -127 46.5 -239.5t126 -193t189.5 -127t232 -46.5t232 46.5 t189.5 127t126 193t46.5 239.5q0 169 -79.5 308t-215.5 217.5t-299 78.5t-299 -78.5t-215.5 -217.5t-79.5 -308zM811 1573l188 325h172l-237 -325h-123z" />
<glyph unicode="&#xd4;" d="M115 721q0 208 98 379t267.5 267.5t373.5 96.5q154 0 290.5 -57t235 -155t156 -236.5t57.5 -294.5q0 -209 -97.5 -380t-267 -268.5t-374.5 -97.5q-204 0 -373.5 97.5t-267.5 269t-98 379.5zM260 721q0 -127 46.5 -239.5t126 -193t189.5 -127t232 -46.5t232 46.5 t189.5 127t126 193t46.5 239.5q0 169 -79.5 308t-215.5 217.5t-299 78.5t-299 -78.5t-215.5 -217.5t-79.5 -308zM549 1542l246 356h120l246 -356h-135l-172 254l-170 -254h-135z" />
<glyph unicode="&#xd5;" d="M115 721q0 208 98 379t267.5 267.5t373.5 96.5q154 0 290.5 -57t235 -155t156 -236.5t57.5 -294.5q0 -209 -97.5 -380t-267 -268.5t-374.5 -97.5q-204 0 -373.5 97.5t-267.5 269t-98 379.5zM260 721q0 -127 46.5 -239.5t126 -193t189.5 -127t232 -46.5t232 46.5 t189.5 127t126 193t46.5 239.5q0 169 -79.5 308t-215.5 217.5t-299 78.5t-299 -78.5t-215.5 -217.5t-79.5 -308zM545 1628q0 99 49.5 155t136.5 56q33 0 63.5 -13.5t53.5 -32.5t44.5 -37.5t43.5 -32t43 -13.5t36.5 9t24 21t14.5 32.5t8.5 35t4.5 37.5l98 -33 q0 -98 -50.5 -154t-135.5 -56q-41 0 -79 20.5t-61.5 45t-52.5 45t-55 20.5t-43 -12t-26 -36t-12.5 -42.5t-6.5 -47.5z" />
<glyph unicode="&#xd6;" d="M115 721q0 208 98 379t267.5 267.5t373.5 96.5q154 0 290.5 -57t235 -155t156 -236.5t57.5 -294.5q0 -209 -97.5 -380t-267 -268.5t-374.5 -97.5q-204 0 -373.5 97.5t-267.5 269t-98 379.5zM260 721q0 -127 46.5 -239.5t126 -193t189.5 -127t232 -46.5t232 46.5 t189.5 127t126 193t46.5 239.5q0 169 -79.5 308t-215.5 217.5t-299 78.5t-299 -78.5t-215.5 -217.5t-79.5 -308zM532 1733q0 41 30 70.5t71 29.5t70.5 -29.5t29.5 -70.5t-29.5 -71t-70.5 -30t-71 30t-30 71zM975 1733q0 41 29.5 70.5t70.5 29.5t71 -29.5t30 -70.5t-30 -71 t-71 -30t-70.5 30t-29.5 71z" />
<glyph unicode="&#xd7;" horiz-adv-x="1138" d="M131 367l352 352l-352 352l86 86l352 -352l355 352l84 -86l-353 -352l353 -352l-86 -86l-353 352l-354 -352z" />
<glyph unicode="&#xd8;" d="M115 721q0 208 98 379t267.5 267.5t373.5 96.5q218 0 391 -108l129 180l94 -63l-131 -183q122 -105 189 -250.5t67 -318.5q0 -209 -97.5 -380t-267 -268.5t-374.5 -97.5t-385 105l-129 -178l-94 65l129 180q-124 105 -192 252t-68 322zM260 721q0 -138 52.5 -256 t146.5 -201l702 977q-134 84 -307 84q-163 0 -299 -78.5t-215.5 -217.5t-79.5 -308zM551 197q137 -82 303 -82q122 0 232 46.5t189.5 127t126 193t46.5 239.5q0 271 -195 453z" />
<glyph unicode="&#xd9;" horiz-adv-x="1482" d="M197 518v922h141v-910q0 -181 110.5 -299t292.5 -118t293 118t111 299v910h141v-922q0 -152 -68.5 -275.5t-193.5 -195.5t-283 -72t-283 72t-193 195.5t-68 275.5zM420 1898h172l188 -325h-123z" />
<glyph unicode="&#xda;" horiz-adv-x="1482" d="M197 518v922h141v-910q0 -181 110.5 -299t292.5 -118t293 118t111 299v910h141v-922q0 -152 -68.5 -275.5t-193.5 -195.5t-283 -72t-283 72t-193 195.5t-68 275.5zM698 1573l189 325h172l-238 -325h-123z" />
<glyph unicode="&#xdb;" horiz-adv-x="1482" d="M197 518v922h141v-910q0 -181 110.5 -299t292.5 -118t293 118t111 299v910h141v-922q0 -152 -68.5 -275.5t-193.5 -195.5t-283 -72t-283 72t-193 195.5t-68 275.5zM436 1542l246 356h121l246 -356h-136l-172 254l-170 -254h-135z" />
<glyph unicode="&#xdc;" horiz-adv-x="1482" d="M197 518v922h141v-910q0 -181 110.5 -299t292.5 -118t293 118t111 299v910h141v-922q0 -152 -68.5 -275.5t-193.5 -195.5t-283 -72t-283 72t-193 195.5t-68 275.5zM420 1733q0 41 29.5 70.5t70.5 29.5t71 -29.5t30 -70.5t-30 -71t-71 -30t-70.5 30t-29.5 71zM860 1733 q0 41 30 70.5t71 29.5t70.5 -29.5t29.5 -70.5t-29.5 -71t-70.5 -30t-71 30t-30 71z" />
<glyph unicode="&#xdd;" horiz-adv-x="1218" d="M27 1440h161l420 -639l422 639h162l-512 -768v-672h-141v672zM563 1573l189 325h172l-238 -325h-123z" />
<glyph unicode="&#xde;" horiz-adv-x="1253" d="M215 0v1440h141v-283h355q181 0 310.5 -126.5t129.5 -309.5q0 -184 -129 -311t-309 -127h-357v-283h-141zM356 408h349q134 0 221.5 86.5t87.5 224.5q0 136 -89 224.5t-223 88.5h-346v-624z" />
<glyph unicode="&#xdf;" horiz-adv-x="1232" d="M195 0v1087q0 89 36 162t96.5 119t135.5 71t155 25q173 0 280.5 -93t107.5 -222q0 -24 -5 -47t-11 -40.5t-20 -37.5t-24 -32.5t-32 -32.5t-34 -30.5t-39 -33t-40 -33.5q-12 -10 -41 -34t-39 -33t-26 -26.5t-21.5 -31.5t-5.5 -30q0 -15 6 -29t22 -29.5t28.5 -25.5 t43 -27.5t45.5 -25.5t55 -29q132 -73 193 -139.5t61 -159.5q0 -84 -47.5 -146.5t-118 -91.5t-151.5 -29q-70 0 -132.5 20t-104 50.5t-68 59t-39.5 53.5l100 80q95 -136 244 -136q72 0 124 37t52 105q0 26 -11 49t-23 38t-45 37.5t-50.5 32.5t-65.5 37q-131 74 -172 108 q-81 68 -82 156q0 33 11 62t38 60t52 54.5t72 63.5q95 80 118 104q45 51 45 101q0 74 -69.5 132t-184.5 58q-72 0 -135 -28t-105 -89t-42 -143v-1077h-137z" />
<glyph unicode="&#xe0;" horiz-adv-x="1095" d="M102 262q0 116 84 193t240 108l367 74v37q0 122 -72 188t-205 66q-96 0 -175.5 -41.5t-131.5 -104.5l-78 92q155 181 395 181q187 0 295.5 -103t108.5 -282v-670h-131v184q-56 -99 -151.5 -154t-217.5 -55q-142 0 -235 81t-93 206zM215 1489h172l188 -326h-122zM240 268 q0 -75 59 -122.5t150 -47.5q146 0 247 101.5t101 234.5v86l-346 -67q-211 -43 -211 -185z" />
<glyph unicode="&#xe1;" horiz-adv-x="1095" d="M102 262q0 116 84 193t240 108l367 74v37q0 122 -72 188t-205 66q-96 0 -175.5 -41.5t-131.5 -104.5l-78 92q155 181 395 181q187 0 295.5 -103t108.5 -282v-670h-131v184q-56 -99 -151.5 -154t-217.5 -55q-142 0 -235 81t-93 206zM240 268q0 -75 59 -122.5t150 -47.5 q146 0 247 101.5t101 234.5v86l-346 -67q-211 -43 -211 -185zM469 1163l188 326h172l-237 -326h-123z" />
<glyph unicode="&#xe2;" horiz-adv-x="1095" d="M102 262q0 116 84 193t240 108l367 74v37q0 122 -72 188t-205 66q-96 0 -175.5 -41.5t-131.5 -104.5l-78 92q155 181 395 181q187 0 295.5 -103t108.5 -282v-670h-131v184q-56 -99 -151.5 -154t-217.5 -55q-142 0 -235 81t-93 206zM213 1133l246 356h121l245 -356h-135 l-172 253l-170 -253h-135zM240 268q0 -75 59 -122.5t150 -47.5q146 0 247 101.5t101 234.5v86l-346 -67q-211 -43 -211 -185z" />
<glyph unicode="&#xe3;" horiz-adv-x="1095" d="M102 262q0 116 84 193t240 108l367 74v37q0 122 -72 188t-205 66q-96 0 -175.5 -41.5t-131.5 -104.5l-78 92q155 181 395 181q187 0 295.5 -103t108.5 -282v-670h-131v184q-56 -99 -151.5 -154t-217.5 -55q-142 0 -235 81t-93 206zM193 1219q0 99 49.5 155t136.5 56 q40 0 78 -20.5t62 -44.5t53.5 -44.5t54.5 -20.5q26 0 43 12t26 35t12.5 41.5t6.5 47.5l98 -33q0 -98 -50.5 -154.5t-135.5 -56.5q-41 0 -79 20.5t-61.5 45t-52.5 45t-55 20.5t-43 -12t-26 -35.5t-12.5 -42t-6.5 -47.5zM240 268q0 -75 59 -122.5t150 -47.5q146 0 247 101.5 t101 234.5v86l-346 -67q-211 -43 -211 -185z" />
<glyph unicode="&#xe4;" horiz-adv-x="1095" d="M102 262q0 116 84 193t240 108l367 74v37q0 122 -72 188t-205 66q-96 0 -175.5 -41.5t-131.5 -104.5l-78 92q155 181 395 181q187 0 295.5 -103t108.5 -282v-670h-131v184q-56 -99 -151.5 -154t-217.5 -55q-142 0 -235 81t-93 206zM190 1323q0 41 30 70.5t71 29.5 t70.5 -29.5t29.5 -70.5t-29.5 -70.5t-70.5 -29.5t-71 29.5t-30 70.5zM240 268q0 -75 59 -122.5t150 -47.5q146 0 247 101.5t101 234.5v86l-346 -67q-211 -43 -211 -185zM631 1323q0 41 29.5 70.5t70.5 29.5t70.5 -29.5t29.5 -70.5t-29.5 -70.5t-70.5 -29.5t-70.5 29.5 t-29.5 70.5z" />
<glyph unicode="&#xe5;" horiz-adv-x="1095" d="M102 262q0 116 84 193t240 108l367 74v37q0 122 -72 188t-205 66q-96 0 -175.5 -41.5t-131.5 -104.5l-78 92q155 181 395 181q187 0 295.5 -103t108.5 -282v-670h-131v184q-56 -99 -151.5 -154t-217.5 -55q-142 0 -235 81t-93 206zM240 268q0 -75 59 -122.5t150 -47.5 q146 0 247 101.5t101 234.5v86l-346 -67q-211 -43 -211 -185zM317 1333q0 85 58.5 145t144.5 60t145.5 -59.5t59.5 -145.5t-59.5 -144.5t-145.5 -58.5t-144.5 58.5t-58.5 144.5zM416 1333q0 -44 30 -74t74 -30q47 0 77 29.5t30 74.5q0 47 -30 77t-77 30q-45 0 -74.5 -30 t-29.5 -77z" />
<glyph unicode="&#xe6;" horiz-adv-x="1892" d="M100 281q0 127 110.5 217t307.5 90h324v76q0 124 -89.5 194t-220.5 70q-94 0 -181.5 -42.5t-139.5 -105.5l-78 94q69 79 174.5 130t233.5 51q135 0 241 -64t150 -174q65 110 169.5 174t233.5 64q134 0 238 -63t159.5 -170t55.5 -238q0 -68 -10 -109h-801 q12 -166 118 -269.5t261 -103.5q183 0 313 150l84 -94q-157 -183 -399 -183q-146 0 -261.5 72t-179.5 197q-60 -113 -178.5 -191t-273.5 -78t-258 86t-103 220zM238 285q0 -85 63.5 -136t167.5 -51q152 0 264.5 102.5t112.5 233.5v41h-318q-149 0 -219.5 -52.5t-70.5 -137.5 zM981 588h670v18q-4 145 -94.5 233.5t-221.5 88.5q-139 0 -236 -95t-118 -245z" />
<glyph unicode="&#xe7;" horiz-adv-x="1132" d="M106 516q0 149 70.5 273t192 195t266.5 71q255 0 405 -205l-94 -90q-124 164 -311 164q-165 0 -276 -118.5t-111 -289.5q0 -176 110.5 -293t274.5 -117q212 0 334 175l94 -86q-68 -96 -173 -155t-231 -65l-22 -102q67 -11 110 -52t43 -100q0 -81 -60.5 -124t-149.5 -43 q-76 0 -99 10v100q70 -10 90 -10q103 0 103 67q0 32 -30.5 51t-84.5 19q-6 0 -14 -0.5t-13 -1t-6 -0.5l45 191q-200 25 -331.5 175.5t-131.5 360.5z" />
<glyph unicode="&#xe8;" horiz-adv-x="1198" d="M106 514q0 150 67 274t186.5 195.5t267.5 71.5q206 0 336.5 -133.5t130.5 -331.5q0 -48 -9 -101h-833q12 -173 123.5 -279t273.5 -106q96 0 180.5 39.5t145.5 110.5l84 -94q-159 -185 -414 -185q-114 0 -214.5 42t-171.5 113.5t-112 171.5t-41 212zM256 604h700v8 q-4 144 -98.5 230t-232.5 86q-142 0 -245.5 -90.5t-123.5 -233.5zM309 1489h172l189 -326h-123z" />
<glyph unicode="&#xe9;" horiz-adv-x="1198" d="M106 514q0 150 67 274t186.5 195.5t267.5 71.5q206 0 336.5 -133.5t130.5 -331.5q0 -48 -9 -101h-833q12 -173 123.5 -279t273.5 -106q96 0 180.5 39.5t145.5 110.5l84 -94q-159 -185 -414 -185q-114 0 -214.5 42t-171.5 113.5t-112 171.5t-41 212zM256 604h700v8 q-4 144 -98.5 230t-232.5 86q-142 0 -245.5 -90.5t-123.5 -233.5zM573 1163l189 326h172l-238 -326h-123z" />
<glyph unicode="&#xea;" horiz-adv-x="1198" d="M106 514q0 150 67 274t186.5 195.5t267.5 71.5q206 0 336.5 -133.5t130.5 -331.5q0 -48 -9 -101h-833q12 -173 123.5 -279t273.5 -106q96 0 180.5 39.5t145.5 110.5l84 -94q-159 -185 -414 -185q-114 0 -214.5 42t-171.5 113.5t-112 171.5t-41 212zM256 604h700v8 q-4 144 -98.5 230t-232.5 86q-142 0 -245.5 -90.5t-123.5 -233.5zM299 1133l246 356h121l245 -356h-135l-172 253l-170 -253h-135z" />
<glyph unicode="&#xeb;" horiz-adv-x="1198" d="M106 514q0 150 67 274t186.5 195.5t267.5 71.5q206 0 336.5 -133.5t130.5 -331.5q0 -48 -9 -101h-833q12 -173 123.5 -279t273.5 -106q96 0 180.5 39.5t145.5 110.5l84 -94q-159 -185 -414 -185q-114 0 -214.5 42t-171.5 113.5t-112 171.5t-41 212zM256 604h700v8 q-4 144 -98.5 230t-232.5 86q-142 0 -245.5 -90.5t-123.5 -233.5zM279 1323q0 41 29.5 70.5t70.5 29.5t70.5 -29.5t29.5 -70.5t-29.5 -70.5t-70.5 -29.5t-70.5 29.5t-29.5 70.5zM721 1323q0 41 29.5 70.5t70.5 29.5t71 -29.5t30 -70.5t-30 -70.5t-71 -29.5t-70.5 29.5 t-29.5 70.5z" />
<glyph unicode="&#xec;" horiz-adv-x="509" d="M-63 1489h172l188 -326h-123zM186 0v1030h138v-1030h-138z" />
<glyph unicode="&#xed;" horiz-adv-x="509" d="M186 0v1030h138v-1030h-138zM215 1163l188 326h172l-237 -326h-123z" />
<glyph unicode="&#xee;" horiz-adv-x="509" d="M-49 1133l246 356h120l246 -356h-135l-172 253l-170 -253h-135zM186 0v1030h138v-1030h-138z" />
<glyph unicode="&#xef;" horiz-adv-x="509" d="M-63 1323q0 41 29.5 70.5t70.5 29.5t70.5 -29.5t29.5 -70.5t-29.5 -70.5t-70.5 -29.5t-70.5 29.5t-29.5 70.5zM186 0v1030h138v-1030h-138zM377 1323q0 41 29.5 70.5t70.5 29.5t71 -29.5t30 -70.5t-30 -70.5t-71 -29.5t-70.5 29.5t-29.5 70.5z" />
<glyph unicode="&#xf0;" horiz-adv-x="1239" d="M117 483q0 95 32 184.5t92 162.5t155.5 117t211.5 44q56 0 108.5 -15.5t88 -39t55.5 -40t29 -28.5l2 2q-79 202 -260 318l-320 -148l-43 90l248 115q-106 52 -266 90l41 129q237 -60 379 -147l258 121l43 -92l-201 -93q155 -124 242.5 -313t87.5 -436q0 -97 -31 -189.5 t-88.5 -169t-152 -123.5t-210.5 -47q-115 0 -212 44t-159 116t-96 162t-34 186zM258 483q0 -73 24 -140.5t68.5 -120.5t113.5 -84.5t152 -31.5q84 0 151 34t107 90t61 122t21 135q0 159 -94.5 267t-253.5 108q-87 0 -156 -33t-110 -88.5t-62.5 -121t-21.5 -136.5z" />
<glyph unicode="&#xf1;" horiz-adv-x="1245" d="M186 0v1030h133v-194q50 105 143.5 162t221.5 57q173 0 282 -115.5t109 -304.5v-635h-137v629q0 137 -78 217t-203 80q-101 0 -178.5 -56t-116 -143t-38.5 -188v-539h-138zM307 1219q0 99 50 155t137 56q40 0 78 -20.5t62 -44.5t53 -44.5t54 -20.5q26 0 43 12t26 35 t12.5 41.5t6.5 47.5l99 -33q0 -98 -51 -154.5t-136 -56.5q-41 0 -78.5 20.5t-61 45t-52.5 45t-55 20.5t-43 -12t-26 -35.5t-12.5 -42t-6.5 -47.5z" />
<glyph unicode="&#xf2;" horiz-adv-x="1269" d="M106 514q0 149 68.5 273t190 196t270.5 72q111 0 209.5 -42.5t168.5 -115t110 -172.5t40 -211t-40 -211t-110 -172t-168 -114t-210 -42q-149 0 -270.5 71.5t-190 195t-68.5 272.5zM248 514q0 -169 110 -288.5t277 -119.5t277 119.5t110 288.5t-110 288.5t-277 119.5 t-277 -119.5t-110 -288.5zM313 1489h172l189 -326h-123z" />
<glyph unicode="&#xf3;" horiz-adv-x="1269" d="M106 514q0 149 68.5 273t190 196t270.5 72q111 0 209.5 -42.5t168.5 -115t110 -172.5t40 -211t-40 -211t-110 -172t-168 -114t-210 -42q-149 0 -270.5 71.5t-190 195t-68.5 272.5zM248 514q0 -169 110 -288.5t277 -119.5t277 119.5t110 288.5t-110 288.5t-277 119.5 t-277 -119.5t-110 -288.5zM580 1163l188 326h172l-238 -326h-122z" />
<glyph unicode="&#xf4;" horiz-adv-x="1269" d="M106 514q0 149 68.5 273t190 196t270.5 72q111 0 209.5 -42.5t168.5 -115t110 -172.5t40 -211t-40 -211t-110 -172t-168 -114t-210 -42q-149 0 -270.5 71.5t-190 195t-68.5 272.5zM248 514q0 -169 110 -288.5t277 -119.5t277 119.5t110 288.5t-110 288.5t-277 119.5 t-277 -119.5t-110 -288.5zM330 1133l245 356h121l246 -356h-135l-172 253l-170 -253h-135z" />
<glyph unicode="&#xf5;" horiz-adv-x="1269" d="M106 514q0 149 68.5 273t190 196t270.5 72q111 0 209.5 -42.5t168.5 -115t110 -172.5t40 -211t-40 -211t-110 -172t-168 -114t-210 -42q-149 0 -270.5 71.5t-190 195t-68.5 272.5zM248 514q0 -169 110 -288.5t277 -119.5t277 119.5t110 288.5t-110 288.5t-277 119.5 t-277 -119.5t-110 -288.5zM326 1219q0 99 49.5 155t136.5 56q40 0 78 -20.5t62 -44.5t53.5 -44.5t54.5 -20.5q26 0 43 12t26 35t12.5 41.5t6.5 47.5l98 -33q0 -98 -50.5 -154.5t-135.5 -56.5q-41 0 -79 20.5t-61.5 45t-52.5 45t-55 20.5t-43 -12t-26 -35.5t-12.5 -42 t-6.5 -47.5z" />
<glyph unicode="&#xf6;" horiz-adv-x="1269" d="M106 514q0 149 68.5 273t190 196t270.5 72q111 0 209.5 -42.5t168.5 -115t110 -172.5t40 -211t-40 -211t-110 -172t-168 -114t-210 -42q-149 0 -270.5 71.5t-190 195t-68.5 272.5zM248 514q0 -169 110 -288.5t277 -119.5t277 119.5t110 288.5t-110 288.5t-277 119.5 t-277 -119.5t-110 -288.5zM313 1323q0 41 30 70.5t71 29.5t70.5 -29.5t29.5 -70.5t-29.5 -70.5t-70.5 -29.5t-71 29.5t-30 70.5zM756 1323q0 41 29.5 70.5t70.5 29.5t70.5 -29.5t29.5 -70.5t-29.5 -70.5t-70.5 -29.5t-70.5 29.5t-29.5 70.5z" />
<glyph unicode="&#xf7;" horiz-adv-x="1120" d="M117 657v127h887v-127h-887zM457 324q0 43 30.5 73.5t71.5 30.5q43 0 74 -30.5t31 -73.5t-31 -73t-74 -30q-41 0 -71.5 30.5t-30.5 72.5zM457 1116q0 43 30.5 74t71.5 31q43 0 74 -31t31 -74t-31 -73.5t-74 -30.5q-41 0 -71.5 30.5t-30.5 73.5z" />
<glyph unicode="&#xf8;" horiz-adv-x="1269" d="M106 514q0 149 68.5 273t190 196t270.5 72q151 0 278 -78l105 145l88 -61l-109 -150q79 -74 122.5 -177t43.5 -220q0 -111 -40 -211t-110 -172t-168 -114t-210 -42q-138 0 -260 66l-96 -133l-91 61l99 135q-86 74 -133.5 180.5t-47.5 229.5zM248 514q0 -181 119 -297 l467 649q-91 56 -199 56q-167 0 -277 -119.5t-110 -288.5zM453 152q82 -46 182 -46q167 0 277 119.5t110 288.5q0 166 -104 283z" />
<glyph unicode="&#xf9;" horiz-adv-x="1245" d="M170 395v635h137v-629q0 -137 78 -217t203 -80q101 0 179 56.5t116.5 144t38.5 187.5v538h137v-1030h-133v195q-50 -105 -143.5 -162.5t-221.5 -57.5q-173 0 -282 115.5t-109 304.5zM289 1489h172l188 -326h-123z" />
<glyph unicode="&#xfa;" horiz-adv-x="1245" d="M170 395v635h137v-629q0 -137 78 -217t203 -80q101 0 179 56.5t116.5 144t38.5 187.5v538h137v-1030h-133v195q-50 -105 -143.5 -162.5t-221.5 -57.5q-173 0 -282 115.5t-109 304.5zM557 1163l188 326h173l-238 -326h-123z" />
<glyph unicode="&#xfb;" horiz-adv-x="1245" d="M170 395v635h137v-629q0 -137 78 -217t203 -80q101 0 179 56.5t116.5 144t38.5 187.5v538h137v-1030h-133v195q-50 -105 -143.5 -162.5t-221.5 -57.5q-173 0 -282 115.5t-109 304.5zM303 1133l246 356h121l245 -356h-135l-172 253l-170 -253h-135z" />
<glyph unicode="&#xfc;" horiz-adv-x="1245" d="M170 395v635h137v-629q0 -137 78 -217t203 -80q101 0 179 56.5t116.5 144t38.5 187.5v538h137v-1030h-133v195q-50 -105 -143.5 -162.5t-221.5 -57.5q-173 0 -282 115.5t-109 304.5zM287 1323q0 41 29.5 70.5t70.5 29.5t70.5 -29.5t29.5 -70.5t-29.5 -70.5t-70.5 -29.5 t-70.5 29.5t-29.5 70.5zM727 1323q0 41 29.5 70.5t70.5 29.5t71 -29.5t30 -70.5t-30 -70.5t-71 -29.5t-70.5 29.5t-29.5 70.5z" />
<glyph unicode="&#xfd;" horiz-adv-x="1052" d="M35 1030h151l342 -852l338 852h150l-508 -1239q-43 -108 -109.5 -166.5t-179.5 -58.5q-87 0 -147 31v129q61 -37 143 -37q67 0 108.5 43.5t77.5 130.5l60 147zM492 1163l188 326h172l-238 -326h-122z" />
<glyph unicode="&#xfe;" horiz-adv-x="1298" d="M182 825v615h140v-580q59 89 157.5 142t218.5 53q204 0 348 -155.5t144 -383.5q0 -150 -66.5 -275t-179 -195.5t-246.5 -70.5q-120 0 -222.5 54t-153.5 145v-584h-138v1235h-2zM311 516q0 -110 40.5 -202t125.5 -151t199 -59q157 0 265 117t108 293q0 177 -108 294.5 t-265 117.5q-115 0 -199.5 -58t-125 -149.5t-40.5 -202.5z" />
<glyph unicode="&#xff;" horiz-adv-x="1052" d="M35 1030h151l342 -852l338 852h150l-508 -1239q-43 -108 -109.5 -166.5t-179.5 -58.5q-87 0 -147 31v129q61 -37 143 -37q67 0 108.5 43.5t77.5 130.5l60 147zM205 1323q0 41 29.5 70.5t70.5 29.5t71 -29.5t30 -70.5t-30 -70.5t-71 -29.5t-70.5 29.5t-29.5 70.5z M647 1323q0 41 30 70.5t71 29.5t70.5 -29.5t29.5 -70.5t-29.5 -70.5t-70.5 -29.5t-71 29.5t-30 70.5z" />
<glyph unicode="&#x152;" horiz-adv-x="1992" d="M115 721q0 210 94.5 379.5t265 266.5t383.5 97q114 0 213 -24h782v-129h-675v-518h555v-131h-555v-531h704v-131h-817q-106 -25 -207 -25q-213 0 -383.5 97.5t-265 268t-94.5 380.5zM260 721q0 -171 76 -309.5t213 -218.5t309 -80q99 0 178 20v1178q-83 18 -178 18 q-172 0 -309 -79.5t-213 -218.5t-76 -310z" />
<glyph unicode="&#x153;" horiz-adv-x="2136" d="M119 516q0 111 40 211t110 172t168 114t210 42q147 0 266.5 -74t186.5 -199q65 126 182 199.5t266 73.5q206 0 336.5 -133.5t130.5 -331.5q0 -54 -8 -101h-836q12 -172 125.5 -278.5t274.5 -106.5q96 0 180 39.5t145 110.5l84 -94q-164 -185 -413 -185q-152 0 -276 74.5 t-191 200.5q-68 -126 -187.5 -200.5t-265.5 -74.5q-111 0 -209.5 42.5t-168.5 115t-110 172.5t-40 211zM260 516q0 -169 110 -288t277 -119q165 0 275 119.5t110 287.5t-110 288t-275 120q-167 0 -277 -119.5t-110 -288.5zM1178 604h700v8q-4 143 -100.5 229.5t-231.5 86.5 q-144 0 -246 -90.5t-122 -233.5z" />
<glyph unicode="&#x178;" horiz-adv-x="1218" d="M27 1440h161l420 -639l422 639h162l-512 -768v-672h-141v672zM291 1733q0 41 29.5 70.5t70.5 29.5t71 -29.5t30 -70.5t-30 -71t-71 -30t-70.5 30t-29.5 71zM731 1733q0 41 29.5 70.5t70.5 29.5t71 -29.5t30 -70.5t-30 -71t-71 -30t-70.5 30t-29.5 71z" />
<glyph unicode="&#x2c6;" horiz-adv-x="849" d="M119 1133l246 356h120l246 -356h-135l-172 253l-170 -253h-135z" />
<glyph unicode="&#x2dc;" horiz-adv-x="858" d="M119 1219q0 99 49.5 155t136.5 56q40 0 78 -20.5t62 -44.5t53.5 -44.5t54.5 -20.5q26 0 43 12t26 35t12.5 41.5t6.5 47.5l98 -33q0 -98 -50.5 -154.5t-135.5 -56.5q-41 0 -79 20.5t-61.5 45t-52.5 45t-55 20.5t-43 -12t-26 -35.5t-12.5 -42t-6.5 -47.5z" />
<glyph unicode="&#x2000;" horiz-adv-x="974" />
<glyph unicode="&#x2001;" horiz-adv-x="1948" />
<glyph unicode="&#x2002;" horiz-adv-x="974" />
<glyph unicode="&#x2003;" horiz-adv-x="1948" />
<glyph unicode="&#x2004;" horiz-adv-x="649" />
<glyph unicode="&#x2005;" horiz-adv-x="487" />
<glyph unicode="&#x2006;" horiz-adv-x="324" />
<glyph unicode="&#x2007;" horiz-adv-x="324" />
<glyph unicode="&#x2008;" horiz-adv-x="243" />
<glyph unicode="&#x2009;" horiz-adv-x="389" />
<glyph unicode="&#x200a;" horiz-adv-x="108" />
<glyph unicode="&#x2010;" horiz-adv-x="950" d="M154 492v126h643v-126h-643z" />
<glyph unicode="&#x2011;" horiz-adv-x="950" d="M154 492v126h643v-126h-643z" />
<glyph unicode="&#x2012;" horiz-adv-x="950" d="M154 492v126h643v-126h-643z" />
<glyph unicode="&#x2013;" horiz-adv-x="1310" d="M119 494v122h1073v-122h-1073z" />
<glyph unicode="&#x2014;" horiz-adv-x="1656" d="M119 494v122h1419v-122h-1419z" />
<glyph unicode="&#x2018;" horiz-adv-x="430" d="M100 1249q0 19 13 54l120 268h82l-82 -221q31 -11 52.5 -39t21.5 -62q0 -43 -29.5 -72.5t-72.5 -29.5q-44 0 -74.5 29.5t-30.5 72.5z" />
<glyph unicode="&#x2019;" horiz-adv-x="432" d="M127 1157l82 221q-31 11 -52.5 39t-21.5 62q0 43 30 72.5t73 29.5q44 0 74 -29.5t30 -72.5q0 -22 -12 -54l-121 -268h-82z" />
<glyph unicode="&#x201a;" horiz-adv-x="473" d="M129 -242l82 222q-31 11 -52.5 38.5t-21.5 61.5q0 43 30 72.5t73 29.5q44 0 74 -29.5t30 -72.5q0 -21 -12 -53l-121 -269h-82z" />
<glyph unicode="&#x201c;" horiz-adv-x="739" d="M100 1249q0 19 13 54l120 268h82l-82 -221q31 -11 52.5 -39t21.5 -62q0 -43 -29.5 -72.5t-72.5 -29.5q-44 0 -74.5 29.5t-30.5 72.5zM410 1249q0 22 12 54l121 268h82l-82 -221q31 -11 52 -39t21 -62q0 -43 -29.5 -72.5t-72.5 -29.5q-44 0 -74 29.5t-30 72.5z" />
<glyph unicode="&#x201d;" horiz-adv-x="741" d="M127 1157l82 221q-31 11 -52.5 39t-21.5 62q0 43 30 72.5t73 29.5q44 0 74 -29.5t30 -72.5q0 -22 -12 -54l-121 -268h-82zM436 1157l82 221q-31 11 -52.5 39t-21.5 62q0 43 30 72.5t73 29.5q44 0 74 -29.5t30 -72.5q0 -22 -12 -54l-121 -268h-82z" />
<glyph unicode="&#x201e;" horiz-adv-x="782" d="M129 -242l82 222q-31 11 -52.5 38.5t-21.5 61.5q0 43 30 72.5t73 29.5q44 0 74 -29.5t30 -72.5q0 -21 -12 -53l-121 -269h-82zM438 -242l82 222q-31 11 -52.5 38.5t-21.5 61.5q0 43 30 72.5t73 29.5q44 0 74 -29.5t30 -72.5q0 -21 -12 -53l-121 -269h-82z" />
<glyph unicode="&#x2022;" horiz-adv-x="712" d="M180 621q0 73 52 124.5t124 51.5q74 0 127.5 -51.5t53.5 -124.5t-53.5 -127t-127.5 -54q-72 0 -124 53.5t-52 127.5z" />
<glyph unicode="&#x2026;" horiz-adv-x="1232" d="M123 80q0 42 30 72t72 30q43 0 74 -30t31 -72q0 -43 -31 -74t-74 -31q-41 0 -71.5 31t-30.5 74zM512 80q0 42 30 72t72 30q43 0 74 -30t31 -72q0 -43 -31 -74t-74 -31q-41 0 -71.5 31t-30.5 74zM903 80q0 42 30.5 72t72.5 30q43 0 73.5 -29.5t30.5 -72.5t-30.5 -74 t-73.5 -31q-41 0 -72 31t-31 74z" />
<glyph unicode="&#x202f;" horiz-adv-x="389" />
<glyph unicode="&#x2039;" horiz-adv-x="598" d="M96 514l244 391h141l-243 -391l243 -389h-141z" />
<glyph unicode="&#x203a;" horiz-adv-x="602" d="M119 125l243 391l-243 389h141l244 -389l-244 -391h-141z" />
<glyph unicode="&#x205f;" horiz-adv-x="487" />
<glyph unicode="&#x20ac;" horiz-adv-x="1427" d="M94 512v123h166q-4 54 -4 84t4 84h-166v125h182q53 248 216 392t380 144q276 0 449 -209l-100 -92q-149 164 -347 164q-166 0 -285 -105t-163 -294h573l-16 -125h-575q-5 -68 -5 -82q0 -9 5 -86h569l-14 -123h-537q44 -189 163 -294t285 -105q126 0 212 49.5t155 142.5 l102 -86q-86 -115 -196.5 -179.5t-276.5 -64.5q-218 0 -379 144t-215 393h-182z" />
<glyph unicode="&#x2122;" horiz-adv-x="1167" d="M47 1354v86h395v-86h-155v-418h-84v418h-156zM526 936v504h121l139 -260l140 260h123v-504h-91v395l-141 -266h-63l-144 266v-395h-84z" />
<glyph unicode="&#x25fc;" horiz-adv-x="1034" d="M0 0v1034h1034v-1034h-1034z" />
</font>
</defs>
</svg>
