<?xml version="1.0" standalone="no"?>
<!DOCTYPE svg PUBLIC "-//W3C//DTD SVG 1.1//EN" "http://www.w3.org/Graphics/SVG/1.1/DTD/svg11.dtd" >
<svg xmlns="http://www.w3.org/2000/svg" xmlns:xlink="http://www.w3.org/1999/xlink" version="1.1">
<metadata></metadata>
<defs>
<font id="rotundaextra_bold" horiz-adv-x="1406" >
<font-face units-per-em="2048" ascent="1638" descent="-410" />
<missing-glyph horiz-adv-x="479" />
<glyph horiz-adv-x="0" />
<glyph unicode="&#xd;" horiz-adv-x="600" />
<glyph unicode=" "  horiz-adv-x="479" />
<glyph unicode="&#x09;" horiz-adv-x="479" />
<glyph unicode="&#xa0;" horiz-adv-x="479" />
<glyph unicode="!" horiz-adv-x="630" d="M125 160q0 79 54 131.5t136 52.5t137.5 -52.5t55.5 -131.5t-55.5 -132t-137.5 -53t-136 52.5t-54 132.5zM137 1464h359l-33 -1013h-293z" />
<glyph unicode="&#x22;" horiz-adv-x="757" d="M80 1464h250l-35 -573h-180zM428 1464h250l-35 -573h-180z" />
<glyph unicode="#" horiz-adv-x="1458" d="M27 371l47 270h268l29 166h-269l48 270h268l59 342h289l-59 -342h170l59 342h289l-60 -342h269l-48 -270h-268l-28 -166h268l-47 -270h-271l-59 -344h-289l60 344h-170l-60 -344h-289l60 344h-266zM631 641h170l28 166h-170z" />
<glyph unicode="$" horiz-adv-x="1142" d="M23 272l247 209q52 -80 131 -132t172 -52q78 0 128.5 29.5t50.5 81.5q0 20 -6 36.5t-21.5 31t-31.5 25t-47 24.5t-57 24t-72 28t-81 33q-71 32 -119 57t-99.5 63t-82 79t-50 99t-19.5 128q0 173 114.5 294t296.5 151v254h203v-252q133 -20 235 -88.5t164 -177.5 l-260 -201q-90 151 -237 151q-65 0 -111.5 -32.5t-46.5 -90.5q0 -19 10.5 -36.5t25 -29.5t42.5 -26.5t50.5 -24t63 -26t66.5 -27.5q54 -23 88 -39t79.5 -39t74 -43t62 -47.5t53 -56t37.5 -64t26 -77.5t8 -90q0 -107 -52 -200t-154 -157.5t-236 -80.5v-250h-203v252 q-143 24 -260 98t-182 192z" />
<glyph unicode="%" horiz-adv-x="1558" d="M25 1116q0 149 103 250.5t251 101.5t251 -101.5t103 -250.5q0 -150 -102.5 -250t-251.5 -100t-251.5 100t-102.5 250zM156 0l1071 1464h192l-1071 -1464h-192zM254 1116q0 -57 33 -91t92 -34t92 34t33 91q0 60 -32.5 91.5t-92.5 31.5t-92.5 -31.5t-32.5 -91.5zM825 326 q0 149 103.5 250.5t251.5 101.5t251 -101.5t103 -250.5q0 -150 -102.5 -250.5t-251.5 -100.5t-252 100.5t-103 250.5zM1055 326q0 -57 33 -91t92 -34t92 34t33 91q0 60 -32.5 91.5t-92.5 31.5t-92.5 -31.5t-32.5 -91.5z" />
<glyph unicode="&#x26;" horiz-adv-x="1429" d="M47 381q0 124 70.5 220t212.5 187q-89 93 -130.5 164t-41.5 156q0 74 32.5 142.5t90.5 121.5t145.5 85t191.5 32q130 0 235 -54.5t160.5 -139.5t55.5 -181q0 -113 -66 -199.5t-221 -185.5l213 -229q68 133 47 288h299q17 -136 -21.5 -266.5t-119.5 -240.5l260 -281h-389 l-82 86q-177 -111 -375 -111q-152 0 -280 47.5t-207.5 141.5t-79.5 217zM383 418q0 -76 68 -116t157 -40q105 0 183 37l-279 295q-64 -41 -96 -82t-33 -94zM485 1110q0 -43 26 -81t85 -99q83 54 119.5 94t36.5 88t-39 78.5t-95 30.5q-58 0 -95.5 -32.5t-37.5 -78.5z" />
<glyph unicode="'" horiz-adv-x="409" d="M80 1464h250l-35 -573h-180z" />
<glyph unicode="(" horiz-adv-x="677" d="M61 670q0 242 67.5 484.5t184.5 453.5h342q-114 -231 -173.5 -472.5t-59.5 -465.5t59.5 -464.5t173.5 -471.5h-342q-117 211 -184.5 452.5t-67.5 483.5z" />
<glyph unicode=")" horiz-adv-x="677" d="M23 -266q114 231 173.5 472.5t59.5 465.5t-59.5 464.5t-173.5 471.5h342q117 -210 184 -451.5t67 -484.5t-67 -485.5t-184 -452.5h-342z" />
<glyph unicode="*" horiz-adv-x="716" d="M55 1096v225l217 -61l-155 157l182 107l59 -213l60 213l182 -107l-154 -157l216 61v-225l-218 61l156 -158l-182 -106l-60 213l-59 -213l-182 106l153 158z" />
<glyph unicode="+" horiz-adv-x="1120" d="M27 580v309h379v379h309v-379h379v-309h-379v-379h-309v379h-379z" />
<glyph unicode="," horiz-adv-x="526" d="M72 160q0 79 54 131.5t136 52.5t137.5 -52.5t55.5 -131.5q0 -39 -17 -78l-172 -381h-155l96 283q-61 18 -98 64.5t-37 111.5z" />
<glyph unicode="-" horiz-adv-x="929" d="M96 416v291h738v-291h-738z" />
<glyph unicode="." horiz-adv-x="514" d="M66 160q0 79 54 131.5t136 52.5t137.5 -52.5t55.5 -131.5t-55.5 -132t-137.5 -53t-136 52.5t-54 132.5z" />
<glyph unicode="/" horiz-adv-x="1157" d="M2 -287l784 1903h369l-784 -1903h-369z" />
<glyph unicode="0" horiz-adv-x="1355" d="M74 731q0 129 20.5 240.5t67 207.5t115.5 164t171 107t230 39t230.5 -39t171.5 -107t115 -164t66.5 -207.5t20.5 -240.5q0 -130 -20.5 -241t-66.5 -207t-115 -163.5t-171.5 -106t-230.5 -38.5q-159 0 -277.5 58t-188.5 162.5t-104 238.5t-34 297zM434 731 q0 -97 11.5 -171.5t38.5 -134t76 -91t118 -31.5t118 31.5t76 91t38.5 134t11.5 171.5q0 77 -7 139.5t-24.5 118t-44.5 92.5t-69.5 58.5t-98.5 21.5t-98.5 -21.5t-69.5 -58.5t-44.5 -92.5t-24.5 -118t-7 -139.5z" />
<glyph unicode="1" horiz-adv-x="1046" d="M59 950v328q261 10 433 186h258v-1128h303v-336h-975v336h311v700q-92 -79 -330 -86z" />
<glyph unicode="2" horiz-adv-x="1167" d="M55 1188q70 137 212 219t319 82q95 0 184.5 -28.5t164 -82t120 -141.5t45.5 -197q0 -87 -33.5 -164.5t-87 -134.5t-118 -107t-130 -90t-119.5 -75.5t-88.5 -72t-36.5 -70.5h613v-326h-1024q-13 106 -13 195q0 99 37 187t96.5 152t131 120.5t143 102t131 86.5t96.5 85.5 t37 87.5q0 62 -43.5 97.5t-120.5 35.5q-76 0 -146.5 -45.5t-107.5 -110.5z" />
<glyph unicode="3" horiz-adv-x="1179" d="M25 252l254 215q49 -73 119.5 -114.5t142.5 -41.5q92 0 149.5 45t57.5 117q0 88 -70.5 139.5t-192.5 51.5q-123 0 -194 -21v223l270 267h-450v331h933v-243l-327 -314q162 -18 276.5 -137.5t114.5 -286.5q0 -226 -159 -367t-408 -141q-170 0 -301.5 75.5t-214.5 201.5z " />
<glyph unicode="4" horiz-adv-x="1230" d="M6 336v235l565 893h439v-802h174v-326h-174v-336h-340v336h-664zM424 651h256l-2 412z" />
<glyph unicode="5" horiz-adv-x="1163" d="M31 283l268 196q118 -168 254 -168q93 0 146 48t53 128q0 82 -57.5 135.5t-157.5 53.5q-65 0 -122.5 -18t-90.5 -48l-211 88l59 766h829v-331h-518l-12 -179q40 15 137 15q235 0 369.5 -125t134.5 -346q0 -228 -147 -375.5t-396 -147.5q-177 0 -318 82.5t-220 225.5z" />
<glyph unicode="6" horiz-adv-x="1146" d="M55 485q0 103 30.5 187.5t94.5 183.5l402 608h405l-336 -506q207 -18 337 -148t130 -331q0 -141 -68.5 -256.5t-190 -181.5t-271.5 -66q-228 0 -380.5 148t-152.5 362zM397 473q0 -86 52.5 -138t138.5 -52t138 52t52 138t-52 138.5t-138 52.5t-138.5 -52.5t-52.5 -138.5z " />
<glyph unicode="7" horiz-adv-x="1013" d="M20 1128v336h994v-272l-592 -1192h-375l547 1128h-574z" />
<glyph unicode="8" horiz-adv-x="1200" d="M70 422q0 115 65.5 199t155.5 122q-75 40 -130 125t-55 185q0 192 140.5 314t353.5 122t353.5 -122t140.5 -314q0 -100 -55 -185t-130 -125q90 -38 155.5 -122t65.5 -199q0 -197 -148 -322t-382 -125t-382 125t-148 322zM414 436q0 -68 52.5 -110.5t133.5 -42.5 t133.5 42.5t52.5 110.5q0 72 -52.5 114t-133.5 42t-133.5 -42t-52.5 -114zM442 1040q0 -64 45 -101.5t113 -37.5t113 37.5t45 101.5t-45 102t-113 38t-113 -38t-45 -102z" />
<glyph unicode="9" horiz-adv-x="1146" d="M29 985q0 141 68.5 256.5t190 181.5t271.5 66q151 0 273.5 -68t191 -184.5t68.5 -257.5q0 -103 -30.5 -187.5t-94.5 -183.5l-402 -608h-405l336 506q-207 18 -337 148t-130 331zM369 991q0 -86 52 -138t138 -52t138.5 52t52.5 138t-52.5 138.5t-138.5 52.5t-138 -52.5 t-52 -138.5z" />
<glyph unicode=":" horiz-adv-x="575" d="M96 160q0 79 54.5 131.5t136.5 52.5t137 -52.5t55 -131.5t-55 -132t-137 -53t-136.5 53t-54.5 132zM96 895q0 79 54.5 131.5t136.5 52.5t137 -52.5t55 -131.5t-55 -131.5t-137 -52.5t-136.5 52.5t-54.5 131.5z" />
<glyph unicode=";" horiz-adv-x="581" d="M98 160q0 79 54.5 131.5t136.5 52.5t137 -52.5t55 -131.5q0 -41 -16 -78l-172 -381h-156l96 283q-61 18 -98 64.5t-37 111.5zM100 895q0 79 54.5 131.5t136.5 52.5t137 -52.5t55 -131.5t-55 -131.5t-137 -52.5t-136.5 52.5t-54.5 131.5z" />
<glyph unicode="&#x3c;" horiz-adv-x="1077" d="M27 596v270l942 420v-328l-520 -227l520 -227v-328z" />
<glyph unicode="=" horiz-adv-x="1146" d="M102 346v309h942v-309h-942zM102 817v309h942v-309h-942z" />
<glyph unicode="&#x3e;" horiz-adv-x="1077" d="M109 176v328l520 227l-520 227v328l942 -420v-270z" />
<glyph unicode="?" horiz-adv-x="1013" d="M12 1227q31 50 72 93.5t98.5 83t135.5 62.5t167 23q77 0 148.5 -17t134 -53t108.5 -87.5t72.5 -125.5t26.5 -162q0 -68 -20 -127.5t-51.5 -101t-69.5 -77.5t-76.5 -65.5t-70 -56t-51.5 -56t-20 -60.5v-76h-325v119q0 59 18.5 109.5t48 86t65 66.5t71 57t65 50.5t48 53.5 t18.5 60q0 62 -45.5 98.5t-114.5 36.5q-70 0 -128.5 -41.5t-90.5 -101.5zM264 160q0 79 54.5 131.5t136.5 52.5t137 -52.5t55 -131.5t-55 -132t-137 -53t-136.5 53t-54.5 132z" />
<glyph unicode="@" horiz-adv-x="1961" d="M47 614q0 187 72.5 357t197 295.5t300.5 199.5t374 74q194 0 365.5 -72t291 -193t188.5 -282.5t69 -337.5q0 -223 -110.5 -365.5t-287.5 -142.5q-178 0 -284 154q-111 -154 -293 -154q-178 0 -297 129t-119 328q0 198 121 327.5t295 129.5q76 0 142.5 -34t96.5 -83v92 h258v-549q0 -46 25.5 -75t63.5 -29q50 0 82 69t32 203q0 125 -47.5 238.5t-130 197.5t-203 133.5t-258.5 49.5q-142 0 -266.5 -52t-212.5 -141t-139 -210.5t-51 -256.5q0 -180 82 -331t236 -242.5t349 -91.5q83 0 189.5 30t183.5 74l111 -225q-82 -57 -224 -98t-260 -41 q-199 0 -375.5 74.5t-300 199.5t-195 295t-71.5 356zM788 604q0 -91 56.5 -151t132.5 -60q77 0 132.5 59.5t55.5 151.5q0 94 -55 152.5t-133 58.5q-76 0 -132.5 -60t-56.5 -151z" />
<glyph unicode="A" d="M-29 0l559 1464h347l559 -1464h-365l-117 309h-501l-117 -309h-365zM557 608h291l-146 449z" />
<glyph unicode="B" horiz-adv-x="1320" d="M158 0v1464h587q198 0 323.5 -109t125.5 -292q0 -114 -60.5 -201t-140.5 -114q49 -13 93.5 -40t82 -69t60 -104.5t22.5 -137.5q0 -180 -140.5 -288.5t-360.5 -108.5h-592zM516 307h223q61 0 102.5 45t41.5 109q0 61 -48 105t-114 44h-205v-303zM516 897h176q64 0 103 39 t39 96q0 55 -40 90t-106 35h-172v-260z" />
<glyph unicode="C" horiz-adv-x="1472" d="M57 733q0 156 56 294.5t155 240.5t244 161.5t315 59.5q208 0 372 -93t255 -270l-272 -208q-50 104 -150.5 166.5t-210.5 62.5q-177 0 -285 -117t-108 -297q0 -178 108.5 -297t274.5 -119q232 0 371 232l276 -207q-96 -168 -266 -267.5t-375 -99.5q-163 0 -305.5 59.5 t-241.5 161.5t-156 241.5t-57 295.5z" />
<glyph unicode="D" horiz-adv-x="1513" d="M158 0v1464h547q162 0 302.5 -58t238.5 -156t154 -232t56 -283q0 -152 -56 -287.5t-154 -234t-238.5 -156t-302.5 -57.5h-547zM516 307h158q171 0 291 123.5t120 302.5q0 178 -118.5 301t-290.5 123h-160v-850z" />
<glyph unicode="E" horiz-adv-x="1218" d="M158 0v1464h979v-311h-621v-262h508v-309h-508v-271h649v-311h-1007z" />
<glyph unicode="F" horiz-adv-x="1130" d="M158 0v1464h938v-311h-580v-303h467v-309h-467v-541h-358z" />
<glyph unicode="G" horiz-adv-x="1546" d="M57 733q0 156 57.5 294.5t158.5 240.5t248.5 161.5t318.5 59.5q210 0 366 -87t252 -237l-264 -217q-62 89 -153.5 146t-206.5 57q-182 0 -294 -118.5t-112 -299.5q0 -180 109.5 -300t281.5 -120q109 0 183.5 36t136.5 112v76h-289v299h627v-508q-96 -157 -264 -255 t-388 -98q-166 0 -310.5 59.5t-244 161.5t-156.5 241.5t-57 295.5z" />
<glyph unicode="H" horiz-adv-x="1568" d="M158 0v1464h360v-549h533v549h360v-1464h-360v580h-533v-580h-360z" />
<glyph unicode="I" horiz-adv-x="673" d="M158 0v1464h358v-1464h-358z" />
<glyph unicode="J" horiz-adv-x="1087" d="M-14 303l280 172q64 -172 180 -172q63 0 101.5 44.5t38.5 113.5v1003h358v-1011q0 -211 -137 -344.5t-358 -133.5q-165 0 -287 87t-176 241z" />
<glyph unicode="K" d="M158 0v1464h360v-608l496 608h436l-520 -641l526 -823h-418l-360 571l-160 -190v-381h-360z" />
<glyph unicode="L" horiz-adv-x="1089" d="M158 0v1464h358v-1153h571v-311h-929z" />
<glyph unicode="M" horiz-adv-x="1863" d="M158 0v1464h319l455 -704l454 704h320v-1464h-360v827l-340 -528h-148l-340 528v-827h-360z" />
<glyph unicode="N" horiz-adv-x="1593" d="M158 0v1464h301l618 -848v848h359v-1464h-299l-621 862v-862h-358z" />
<glyph unicode="O" horiz-adv-x="1646" d="M57 733q0 155 57 294t156.5 241t243 161.5t309.5 59.5t309.5 -59.5t243 -161.5t156.5 -241t57 -294q0 -156 -57 -295.5t-156.5 -241.5t-243 -161.5t-309.5 -59.5t-309.5 59.5t-243 161.5t-156.5 241.5t-57 295.5zM428 733q0 -180 110 -300t285 -120t285.5 120t110.5 300 t-110.5 299t-285.5 119t-285 -118.5t-110 -299.5z" />
<glyph unicode="P" horiz-adv-x="1267" d="M158 0v1464h567q222 0 370 -143.5t148 -359.5q0 -220 -149 -365t-367 -145h-211v-451h-358zM516 760h162q84 0 139 58t55 145q0 86 -54.5 140t-139.5 54h-162v-397z" />
<glyph unicode="Q" horiz-adv-x="1646" d="M57 733q0 155 57 294t156.5 241t243 161.5t309.5 59.5t309.5 -59.5t243 -161.5t156.5 -241t57 -294q0 -206 -93.5 -375.5t-258.5 -269.5l315 -477h-381l-239 371q-61 -7 -109 -7q-166 0 -309.5 59.5t-243 161.5t-156.5 241.5t-57 295.5zM428 733q0 -180 110 -300 t285 -120t285.5 120t110.5 300t-110.5 299t-285.5 119t-285 -118.5t-110 -299.5z" />
<glyph unicode="R" horiz-adv-x="1382" d="M158 0v1464h637q226 0 365.5 -132.5t139.5 -342.5q0 -135 -67 -242.5t-184 -168.5l270 -578h-387l-213 508h-201v-508h-360zM518 803h211q95 0 147 51.5t52 130.5q0 78 -50 125t-145 47h-215v-354z" />
<glyph unicode="S" horiz-adv-x="1175" d="M37 272l248 209q52 -80 131 -132t172 -52q78 0 128 29.5t50 81.5q0 20 -6 36.5t-21.5 31t-31.5 25t-47 24.5t-56.5 24t-71.5 28t-81 33q-72 32 -119.5 57t-99.5 63t-82 79t-50 99t-20 128q0 199 148.5 326t371.5 127q164 0 292.5 -71.5t201.5 -200.5l-260 -201 q-90 151 -238 151q-65 0 -111.5 -32.5t-46.5 -90.5q0 -19 10.5 -36.5t25 -29.5t42.5 -26.5t50.5 -24t63 -26t66.5 -27.5q54 -23 88 -39t79.5 -39t74 -43t62 -47.5t53 -56t37.5 -64t26 -77.5t8 -90q0 -89 -37.5 -170t-105 -142t-169.5 -97t-224 -36q-170 0 -321 78.5 t-230 220.5z" />
<glyph unicode="T" horiz-adv-x="1148" d="M-2 1153v311h1151v-311h-395v-1153h-361v1153h-395z" />
<glyph unicode="U" horiz-adv-x="1511" d="M139 565v899h361v-870q0 -128 69.5 -204.5t186.5 -76.5t186.5 76.5t69.5 204.5v870h360v-899q0 -122 -45 -230.5t-124.5 -188t-195.5 -125.5t-251 -46t-251.5 46t-196 125.5t-124.5 188t-45 230.5z" />
<glyph unicode="V" horiz-adv-x="1380" d="M-27 1464h365l352 -1042l352 1042h365l-551 -1464h-332z" />
<glyph unicode="W" horiz-adv-x="2035" d="M-16 1464h362l254 -987l262 987h312l262 -987l254 987h362l-426 -1464h-354l-254 938l-254 -938h-354z" />
<glyph unicode="X" horiz-adv-x="1314" d="M-20 1464h407l270 -475l271 475h407l-444 -737l442 -727h-399l-277 467l-276 -467h-399l442 727z" />
<glyph unicode="Y" horiz-adv-x="1347" d="M-31 1464h391l314 -522l313 522h391l-526 -823v-641h-358v641z" />
<glyph unicode="Z" horiz-adv-x="1146" d="M35 0v225l616 932h-581v307h1036v-221l-617 -936h607v-307h-1061z" />
<glyph unicode="[" horiz-adv-x="765" d="M152 -266v1874h593v-316h-243v-1243h243v-315h-593z" />
<glyph unicode="\" horiz-adv-x="1157" d="M2 1616h369l784 -1903h-369z" />
<glyph unicode="]" horiz-adv-x="765" d="M20 49h244v1243h-244v316h594v-1874h-594v315z" />
<glyph unicode="^" horiz-adv-x="1071" d="M37 768l409 696h177l411 -696h-315l-184 328l-183 -328h-315z" />
<glyph unicode="_" horiz-adv-x="1122" d="M49 -102h1024v-283h-1024v283z" />
<glyph unicode="`" horiz-adv-x="806" d="M72 1581h434l229 -428h-291z" />
<glyph unicode="a" horiz-adv-x="1110" d="M45 293q0 116 88.5 194.5t255.5 114.5l273 53v2q0 62 -45.5 90.5t-118.5 28.5q-153 0 -262 -125l-187 223q71 91 194.5 148t272.5 57q228 0 356.5 -111.5t128.5 -308.5v-659h-329v117q-33 -64 -103 -103t-170 -39q-154 0 -254 89.5t-100 228.5zM385 315q0 -39 25.5 -61.5 t72.5 -22.5q84 0 131.5 52t47.5 141v16l-173 -32q-104 -23 -104 -93z" />
<glyph unicode="b" horiz-adv-x="1318" d="M129 0v1464h356v-528q50 76 126.5 109.5t160.5 33.5q145 0 258.5 -73t175.5 -198.5t62 -281.5q0 -160 -67 -287t-177.5 -195.5t-241.5 -68.5q-37 0 -77 7.5t-86.5 24.5t-89.5 52t-72 84v-143h-328zM477 530q0 -111 61.5 -177t157.5 -66q90 0 151.5 67.5t61.5 175.5 q0 107 -61.5 172.5t-151.5 65.5q-96 0 -157.5 -65t-61.5 -173z" />
<glyph unicode="c" horiz-adv-x="1081" d="M47 528q0 154 72 280t202 198.5t293 72.5q298 0 453 -245l-236 -203q-73 137 -206 137q-96 0 -156.5 -67.5t-60.5 -172.5q0 -106 61.5 -173.5t159.5 -67.5q63 0 110.5 29.5t100.5 89.5l225 -203q-75 -106 -192 -167t-257 -61q-164 0 -294.5 73t-202.5 199.5t-72 280.5z " />
<glyph unicode="d" horiz-adv-x="1318" d="M51 526q0 156 62 281.5t175.5 198.5t258.5 73q84 0 160.5 -33.5t126.5 -109.5v528h356v-1464h-328v143q-38 -64 -101.5 -104t-117 -52t-106.5 -12q-131 0 -241.5 68.5t-177.5 195.5t-67 287zM410 530q0 -108 61.5 -175.5t151.5 -67.5q96 0 157.5 66t61.5 177 q0 108 -61.5 173t-157.5 65q-90 0 -151.5 -65.5t-61.5 -172.5z" />
<glyph unicode="e" horiz-adv-x="1150" d="M49 526q0 153 72 280t198 200t279 73q226 0 366 -134t140 -351q0 -83 -21 -152h-667q11 -84 82.5 -127t169.5 -43q147 0 250 99l180 -226q-102 -91 -211 -130.5t-246 -39.5q-176 0 -312 73t-208 198t-72 280zM410 647h350v2q-4 67 -52 107.5t-118 40.5q-72 0 -124 -40.5 t-56 -109.5z" />
<glyph unicode="f" horiz-adv-x="720" d="M39 778v277h147v39q0 183 109.5 289t310.5 106q105 0 170 -35v-285q-46 21 -102 21q-131 0 -131 -103v-32h194v-277h-194v-778h-357v778h-147z" />
<glyph unicode="g" horiz-adv-x="1132" d="M29 -150q0 70 43 120.5t116 78.5q-88 58 -88 160q0 58 41.5 109.5t110.5 84.5q-88 50 -137 129.5t-49 176.5q0 156 130.5 263t321.5 107q68 0 141 -24h451v-256h-154q17 -53 17 -90q0 -75 -28.5 -138t-76.5 -105.5t-110.5 -71.5t-129.5 -42.5t-136 -13.5 q-45 -11 -68 -28.5t-23 -33.5q0 -45 86 -45h263q163 0 266.5 -89t103.5 -228q0 -150 -155.5 -249t-407.5 -99q-238 0 -383 78t-145 206zM369 -92q0 -41 50.5 -63.5t139.5 -22.5q213 0 213 86q0 31 -28 49t-66 18h-264q-45 -25 -45 -67zM371 709q0 -54 42 -90.5t105 -36.5 t105.5 36.5t42.5 90.5q0 55 -42.5 91t-105.5 36t-105 -36t-42 -91z" />
<glyph unicode="h" horiz-adv-x="1294" d="M129 0v1464h356v-512q102 127 285 127q192 0 302 -116t110 -320v-643h-357v580q0 92 -43 140t-125 48q-78 0 -125 -57.5t-47 -155.5v-555h-356z" />
<glyph unicode="i" horiz-adv-x="614" d="M115 1350q0 79 54 131.5t136 52.5t137.5 -52.5t55.5 -131.5t-55.5 -132t-137.5 -53t-136 52.5t-54 132.5zM129 0v1055h356v-1055h-356z" />
<glyph unicode="j" horiz-adv-x="583" d="M-113 -117q49 -12 95 -12q58 0 94.5 27t36.5 90v1067h356v-1098q0 -88 -24 -157t-63.5 -112t-94.5 -71.5t-111.5 -39.5t-118.5 -11q-118 0 -170 28v289zM98 1350q0 79 54.5 131.5t136.5 52.5t137 -52.5t55 -131.5t-55 -132t-137 -53t-136.5 53t-54.5 132z" />
<glyph unicode="k" horiz-adv-x="1224" d="M129 0v1464h356v-753l310 344h419l-397 -437l436 -618h-426l-280 422l-62 -68v-354h-356z" />
<glyph unicode="l" horiz-adv-x="651" d="M117 315v1149h356v-1083q0 -22 2.5 -37t10.5 -31t27 -24t48 -8q38 0 70 12v-287q-67 -31 -166 -31q-167 0 -257.5 87.5t-90.5 252.5z" />
<glyph unicode="m" horiz-adv-x="1974" d="M129 0v1055h340v-125q101 149 297 149q232 0 342 -172q41 52 82.5 86.5t110.5 60t153 25.5q192 0 300 -116t108 -320v-643h-357v580q0 92 -42 140t-122 48q-73 0 -120 -58t-47 -155v-555h-357v580q0 92 -42 140t-122 48q-76 0 -122 -58t-46 -155v-555h-356z" />
<glyph unicode="n" horiz-adv-x="1294" d="M129 0v1055h340v-125q101 149 301 149q192 0 302 -116t110 -320v-643h-357v580q0 92 -43 140t-125 48q-78 0 -125 -57.5t-47 -155.5v-555h-356z" />
<glyph unicode="o" horiz-adv-x="1245" d="M49 528q0 115 43 217t118 175.5t182 116t231 42.5q165 0 296.5 -72.5t204 -198.5t72.5 -280t-72.5 -280.5t-204 -199.5t-296.5 -73q-124 0 -231 43t-182 117t-118 176t-43 217zM410 528q0 -113 59.5 -177t153.5 -64t154.5 64.5t60.5 176.5t-60.5 176t-154.5 64 t-153.5 -64t-59.5 -176z" />
<glyph unicode="p" horiz-adv-x="1318" d="M129 -410v1465h328v-144q41 64 103.5 104t113.5 52t102 12q131 0 243 -68.5t180.5 -196t68.5 -286.5q0 -156 -62 -281.5t-175.5 -198.5t-258.5 -73q-86 0 -163 29.5t-124 97.5v-512h-356zM477 524q0 -108 61.5 -172.5t157.5 -64.5q90 0 151.5 65t61.5 172 q0 108 -61.5 176t-151.5 68q-95 0 -157 -66.5t-62 -177.5z" />
<glyph unicode="q" horiz-adv-x="1316" d="M51 528q0 159 68.5 286.5t180.5 196t243 68.5q51 0 102 -12t113.5 -52t103.5 -104v144h328v-1465h-356v512q-47 -68 -124 -97.5t-163 -29.5q-145 0 -258.5 73t-175.5 198.5t-62 281.5zM410 524q0 -107 61.5 -172t151.5 -65q96 0 157.5 64.5t61.5 172.5q0 111 -62 177.5 t-157 66.5q-90 0 -151.5 -68t-61.5 -176z" />
<glyph unicode="r" horiz-adv-x="854" d="M129 0v1055h354v-181q42 98 118 151.5t179 53.5q45 0 66 -8v-338q-24 12 -80 12q-134 0 -207.5 -95.5t-73.5 -262.5v-387h-356z" />
<glyph unicode="s" horiz-adv-x="980" d="M33 217l227 174q39 -67 100.5 -108t137.5 -41q110 0 110 59q0 34 -37.5 55t-138.5 56q-27 9 -41 14q-166 59 -244.5 133t-78.5 195q0 152 124.5 238.5t311.5 86.5q133 0 241 -59t158 -154l-221 -159q-63 106 -188 106q-43 0 -73 -16.5t-30 -44.5q0 -11 6.5 -20t26.5 -19 t39 -17.5t62.5 -24.5t78.5 -32q138 -55 186 -84q121 -73 139 -196q3 -24 3 -50q0 -143 -122 -238.5t-316 -95.5q-150 0 -273 63.5t-188 178.5z" />
<glyph unicode="t" horiz-adv-x="774" d="M18 778v277h146v284h346v-284h223v-277h-223v-362q0 -65 31.5 -97t83.5 -32q83 0 137 39v-301q-102 -50 -240 -50q-173 0 -270.5 99t-97.5 282v422h-136z" />
<glyph unicode="u" horiz-adv-x="1294" d="M113 412v643h356v-580q0 -92 43 -140t125 -48q78 0 125 57.5t47 155.5v555h356v-1055h-340v125q-102 -150 -301 -150q-192 0 -301.5 116.5t-109.5 320.5z" />
<glyph unicode="v" horiz-adv-x="1122" d="M-20 1055h356l225 -652l225 652h357l-424 -1055h-316z" />
<glyph unicode="w" horiz-adv-x="1671" d="M-14 1055h340l182 -649l203 649h250l202 -649l183 649h340l-353 -1055h-317l-180 565l-181 -565h-317z" />
<glyph unicode="x" horiz-adv-x="1134" d="M-10 1055h405l170 -293l170 293h406l-371 -533l363 -522h-396l-172 279l-172 -279h-395l362 522z" />
<glyph unicode="y" horiz-adv-x="1130" d="M-23 1055h367l221 -649l228 649h358l-451 -1106q-87 -213 -199 -298t-272 -85q-118 0 -202 45v289q73 -33 147 -33q36 0 62.5 5.5t56.5 22.5t53.5 54.5t38.5 95.5z" />
<glyph unicode="z" horiz-adv-x="958" d="M47 0v176l434 602h-420v277h844v-178l-436 -601h453v-276h-875z" />
<glyph unicode="{" horiz-adv-x="706" d="M27 553v235q82 1 111.5 44t29.5 135v258q0 383 436 383q49 0 76 -2v-306q-84 0 -123 -28.5t-39 -110.5v-194q0 -242 -143 -295q143 -61 143 -297v-195q0 -82 39 -110.5t123 -28.5v-305q-27 -2 -76 -2q-436 0 -436 383v258q0 92 -29.5 134.5t-111.5 43.5z" />
<glyph unicode="|" horiz-adv-x="643" d="M152 -287v1915h340v-1915h-340z" />
<glyph unicode="}" horiz-adv-x="706" d="M27 41q84 0 122.5 28.5t38.5 110.5v195q0 241 144 295q-144 61 -144 297v194q0 82 -38.5 110.5t-122.5 28.5v306q27 2 75 2q437 0 437 -383v-258q0 -92 29.5 -135t111.5 -44v-235q-82 -1 -111.5 -43.5t-29.5 -134.5v-258q0 -383 -437 -383q-48 0 -75 2v305z" />
<glyph unicode="~" horiz-adv-x="1110" d="M94 535q0 153 77 246t216 93q54 0 118 -23t117.5 -46t82.5 -23q46 0 65.5 23t24.5 76l231 -47q0 -153 -77 -246.5t-216 -93.5q-54 0 -117.5 23t-117 46t-82.5 23q-46 0 -65.5 -23.5t-24.5 -75.5z" />
<glyph unicode="&#xa1;" horiz-adv-x="602" d="M111 895q0 79 54 131.5t136 52.5t137.5 -52.5t55.5 -131.5t-55.5 -131.5t-137.5 -52.5t-136 52.5t-54 131.5zM123 -410l33 1014h293l32 -1014h-358z" />
<glyph unicode="&#xa2;" horiz-adv-x="1093" d="M49 725q0 208 128.5 359.5t334.5 183.5v237h203v-237q221 -34 354 -238l-235 -203q-72 138 -207 138q-97 0 -157 -70t-60 -170q0 -103 60 -172.5t161 -69.5q64 0 112 30.5t99 88.5l225 -203q-129 -181 -352 -219v-237h-203v237q-206 32 -334.5 184.5t-128.5 360.5z" />
<glyph unicode="&#xa3;" horiz-adv-x="1177" d="M70 0v326h41q73 0 73 67v234h-112v174h112v200q0 106 34 195t97.5 154.5t160 102t216.5 36.5q146 0 262 -67t183 -169l-205 -221q-98 123 -238 123q-77 0 -120.5 -42.5t-43.5 -111.5v-200h367v-174h-367v-201q0 -62 -38 -100h645v-326h-1067z" />
<glyph unicode="&#xa4;" horiz-adv-x="1433" d="M61 1190l193 192l215 -215q110 64 246 64q132 0 248 -66l217 217l192 -192l-217 -217q62 -114 62 -244q0 -136 -64 -246l217 -217l-192 -192l-217 217q-110 -64 -246 -64q-130 0 -244 62l-215 -215l-193 192l216 215q-66 116 -66 248q0 138 63 246zM549 729q0 -23 2 -29 q8 -60 45.5 -98.5t97.5 -44.5q4 -2 21 -2h22q66 5 106.5 45.5t45.5 106.5v22q0 15 -2 21q-6 60 -44 97.5t-100 45.5q-6 2 -28 2q-19 0 -25 -2q-60 -6 -96.5 -42.5t-42.5 -96.5q-2 -6 -2 -25z" />
<glyph unicode="&#xa5;" horiz-adv-x="1435" d="M12 1464h391l314 -522l313 522h391l-430 -673h207v-175h-303v-118h303v-174h-303v-324h-358v324h-301v174h301v118h-301v175h206z" />
<glyph unicode="&#xa6;" horiz-adv-x="643" d="M152 -287v721h340v-721h-340zM152 907v721h340v-721h-340z" />
<glyph unicode="&#xa7;" horiz-adv-x="1089" d="M47 51l207 158q112 -178 295 -178q71 0 116.5 23t45.5 63q0 36 -47.5 69.5t-210.5 110.5q-196 96 -275.5 176.5t-79.5 190.5q0 132 148 235q-73 55 -105 111.5t-32 128.5q0 105 61.5 186t161.5 122.5t219 41.5q158 0 278 -67.5t187 -190.5l-203 -162q-41 70 -109.5 115 t-150.5 45q-65 0 -104 -24.5t-39 -61.5q0 -36 47.5 -69.5t210.5 -110.5q193 -91 273.5 -174.5t80.5 -192.5q0 -133 -148 -236q74 -56 106 -111.5t32 -127.5q0 -105 -66.5 -186t-170.5 -122.5t-224 -41.5q-168 0 -299 74t-205 206zM389 686q4 -38 42.5 -66t159.5 -92 q8 -4 12.5 -6.5t12 -6.5t13.5 -7q7 -4 21.5 -11.5t21.5 -11.5q34 20 48.5 40t10.5 48q-4 41 -48 71.5t-191 107.5q-7 4 -20.5 11t-20.5 11q-65 -41 -62 -88z" />
<glyph unicode="&#xa8;" horiz-adv-x="1257" d="M195 1350q0 79 54 131.5t136 52.5t137.5 -52.5t55.5 -131.5t-55.5 -132t-137.5 -53t-136 52.5t-54 132.5zM680 1350q0 79 54 131.5t136 52.5t137.5 -52.5t55.5 -131.5t-55.5 -132t-137.5 -53t-136 52.5t-54 132.5z" />
<glyph unicode="&#xa9;" horiz-adv-x="1679" d="M57 731q0 144 55.5 280t154 242.5t247.5 171t324 64.5q173 0 322 -64.5t249 -171t156.5 -242.5t56.5 -280q0 -143 -57 -279t-157 -242t-249 -170.5t-321 -64.5t-321 64.5t-248.5 170.5t-155.5 242t-56 279zM307 731q0 -103 38.5 -197.5t106 -167t168.5 -116t218 -43.5 t218.5 43.5t170 116t107 167t38.5 197.5q0 102 -38.5 197t-107 168t-170 117t-218.5 44q-156 0 -279 -75t-187.5 -194.5t-64.5 -256.5zM410 735q0 108 52 202t154 154t232 60q216 0 348 -190l-158 -152q-76 117 -192 117q-89 0 -141 -56t-52 -139q0 -81 52 -136.5t141 -55.5 q114 0 198 108l160 -141q-138 -193 -356 -193q-99 0 -183.5 36t-139 95.5t-85 135t-30.5 155.5z" />
<glyph unicode="&#xaa;" horiz-adv-x="786" d="M88 537v225h604v-225h-604zM109 1022q0 140 196 186l152 37v2q0 18 -19.5 29.5t-54.5 11.5q-102 0 -193 -71l-81 178q40 34 116.5 64t171.5 30q125 0 200 -61.5t75 -155.5v-408h-207v58q-19 -34 -60.5 -55t-93.5 -21q-97 0 -149.5 48t-52.5 128zM324 1055q0 -33 38 -33 q36 0 63.5 28t27.5 66v2l-88 -24q-41 -9 -41 -39z" />
<glyph unicode="&#xab;" horiz-adv-x="1179" d="M39 528l262 428h334l-264 -428l264 -426h-334zM524 528l262 428h334l-264 -428l264 -426h-334z" />
<glyph unicode="&#xac;" horiz-adv-x="1226" d="M98 580v309h1014v-586h-309v277h-705z" />
<glyph unicode="&#xad;" horiz-adv-x="872" d="M92 416v291h688v-291h-688z" />
<glyph unicode="&#xae;" horiz-adv-x="942" d="M49 1200q0 179 121 299.5t301 120.5t301 -120.5t121 -299.5q0 -180 -121 -302t-301 -122t-301 122t-121 302zM201 1200q0 -122 74.5 -197t195.5 -75q119 0 193.5 75.5t74.5 196.5q0 119 -75 194.5t-193 75.5q-121 0 -195.5 -75.5t-74.5 -194.5zM305 1010v381h195 q58 0 96.5 -36t38.5 -95q0 -79 -60 -117l74 -133h-141l-53 110h-17v-110h-133zM432 1223h33q37 0 37 32q0 18 -11 27.5t-26 9.5h-33v-69z" />
<glyph unicode="&#xaf;" horiz-adv-x="788" d="M61 1217v270h666v-270h-666z" />
<glyph unicode="&#xb0;" horiz-adv-x="778" d="M47 1149q0 144 99.5 242t242.5 98t242.5 -98t99.5 -242q0 -143 -99.5 -242.5t-242.5 -99.5t-242.5 99.5t-99.5 242.5zM283 1149q0 -43 31 -74t75 -31t75.5 31t31.5 74t-31.5 73.5t-75.5 30.5t-75 -30.5t-31 -73.5z" />
<glyph unicode="&#xb1;" horiz-adv-x="1167" d="M92 55v310h983v-310h-983zM102 780v310h328v317h309v-317h328v-310h-328v-317h-309v317h-328z" />
<glyph unicode="&#xb2;" horiz-adv-x="704" d="M31 1311q44 78 132.5 128t184.5 50q132 0 218.5 -73t86.5 -195q0 -94 -50 -154t-132 -106q-21 -12 -62 -32t-59.5 -32.5t-23.5 -26.5h342v-219h-619q-8 63 -8 140q0 55 16.5 100.5t47.5 79.5t61.5 57t73.5 47q16 9 50 27t48.5 26.5t34.5 22.5t27.5 27t7.5 28q0 54 -66 54 q-75 0 -139 -89z" />
<glyph unicode="&#xb3;" horiz-adv-x="710" d="M18 807l179 131q49 -92 137 -92q38 0 63 19t25 50q0 78 -107 78q-90 0 -131 -8v129l138 131h-248v219h565v-161l-182 -158q94 -12 153.5 -75t59.5 -159q0 -132 -93 -208t-231 -76q-107 0 -194.5 50t-133.5 130z" />
<glyph unicode="&#xb4;" horiz-adv-x="806" d="M72 1153l229 428h434l-373 -428h-290z" />
<glyph unicode="&#xb5;" horiz-adv-x="1310" d="M129 -410v1465h356v-580q0 -92 43 -140t125 -48q78 0 125 57.5t47 155.5v555h357v-1055h-340v125q-102 -150 -301 -150q-40 0 -58 2v-387h-354z" />
<glyph unicode="&#xb6;" horiz-adv-x="1388" d="M18 1032q0 186 133.5 309t333.5 123h732v-1669h-277v1358h-143v-1358h-277v799h-37q-194 0 -329.5 125t-135.5 313z" />
<glyph unicode="&#xb7;" horiz-adv-x="555" d="M86 623q0 79 54 131.5t136 52.5t137.5 -52.5t55.5 -131.5t-55.5 -132t-137.5 -53t-136 52.5t-54 132.5z" />
<glyph unicode="&#xb8;" horiz-adv-x="557" d="M61 -270q59 -19 113 -19q94 0 94 41q0 45 -100 45q-40 0 -72 -4l88 275l164 -68l-29 -88q33 -11 59 -23.5t55.5 -35t46 -58.5t16.5 -82q0 -91 -78 -145.5t-207 -54.5q-98 0 -150 18v199z" />
<glyph unicode="&#xb9;" horiz-adv-x="653" d="M45 1141v221q152 0 254 102h174v-585h170v-228h-588v228h174v292q-66 -30 -184 -30z" />
<glyph unicode="&#xba;" horiz-adv-x="851" d="M90 1167q0 135 98 228.5t238 93.5t238 -93.5t98 -228.5t-98 -228t-238 -93t-238 93t-98 228zM117 537v225h618v-225h-618zM324 1167q0 -41 30.5 -70.5t71.5 -29.5t71.5 29.5t30.5 70.5t-30.5 71t-71.5 30t-71.5 -30t-30.5 -71z" />
<glyph unicode="&#xbb;" horiz-adv-x="1183" d="M61 102l265 428l-265 426h334l262 -426l-262 -428h-334zM547 102l264 428l-264 426h334l262 -426l-262 -428h-334z" />
<glyph unicode="&#xbc;" horiz-adv-x="1560" d="M53 1141v221q152 0 254 102h174v-585h170v-228h-588v228h175v292q-66 -30 -185 -30zM242 0l1071 1464h192l-1071 -1464h-192zM831 164v151l340 498h252v-457h95v-196h-95v-160h-229v164h-363zM1077 352h133v197z" />
<glyph unicode="&#xbd;" horiz-adv-x="1703" d="M53 1141v221q152 0 254 102h174v-585h170v-228h-588v228h175v292q-66 -30 -185 -30zM262 0l1071 1464h193l-1071 -1464h-193zM1030 659q45 78 133.5 128.5t184.5 50.5q132 0 218.5 -73.5t86.5 -195.5q0 -50 -15.5 -91.5t-44 -73t-57 -53t-66.5 -42.5q-22 -13 -62 -32 t-59 -31.5t-24 -26.5h342v-219h-618q-9 70 -9 139q0 55 16.5 100.5t47.5 80t61.5 57.5t73.5 47q16 9 50 27t48.5 26.5t34.5 22.5t27.5 27t7.5 28q0 53 -66 53q-76 0 -139 -88z" />
<glyph unicode="&#xbe;" horiz-adv-x="1525" d="M25 807l178 131q49 -92 137 -92q38 0 63 19t25 50q0 78 -106 78q-91 0 -132 -8v129l138 131h-248v219h565v-161l-182 -158q94 -12 153.5 -75t59.5 -159q0 -132 -93 -208t-231 -76q-107 0 -194 49.5t-133 130.5zM203 0l1071 1464h192l-1071 -1464h-192zM793 164v151 l340 498h251v-457h95v-196h-95v-160h-229v164h-362zM1038 352h133v197z" />
<glyph unicode="&#xbf;" horiz-adv-x="1003" d="M33 10q0 68 19.5 127.5t51.5 101t70 78t76 65.5t70 56t51.5 56.5t19.5 60.5v76h326v-119q0 -59 -18.5 -109.5t-48 -86t-65 -66.5t-71 -57t-65 -50.5t-48 -53.5t-18.5 -60q0 -62 45.5 -98.5t114.5 -36.5q70 0 128.5 41.5t90.5 101.5l233 -209q-28 -49 -70 -93t-99.5 -83.5 t-136.5 -62.5t-167 -23q-97 0 -183.5 27.5t-155.5 80.5t-109.5 139.5t-40.5 196.5zM360 895q0 79 54.5 131.5t136.5 52.5t137 -52.5t55 -131.5t-55 -131.5t-137 -52.5t-136.5 52.5t-54.5 131.5z" />
<glyph unicode="&#xc0;" d="M-29 0l559 1464h347l559 -1464h-365l-117 309h-501l-117 -309h-365zM184 1991h434l230 -428h-291zM557 608h291l-146 449z" />
<glyph unicode="&#xc1;" d="M-29 0l559 1464h347l559 -1464h-365l-117 309h-501l-117 -309h-365zM557 608h291l-146 449zM557 1563l229 428h435l-373 -428h-291z" />
<glyph unicode="&#xc2;" d="M-29 0l559 1464h347l559 -1464h-365l-117 309h-501l-117 -309h-365zM279 1563l278 438h295l278 -438h-307l-118 221l-119 -221h-307zM557 608h291l-146 449z" />
<glyph unicode="&#xc3;" d="M-29 0l559 1464h347l559 -1464h-365l-117 309h-501l-117 -309h-365zM291 1620q0 143 72.5 230t199.5 87q51 0 102 -20.5t90.5 -41t63.5 -20.5q67 0 70 91l231 -48q0 -143 -72.5 -230t-199.5 -87q-51 0 -102 20.5t-90.5 41t-63.5 20.5q-67 0 -70 -90zM557 608h291 l-146 449z" />
<glyph unicode="&#xc4;" d="M-29 0l559 1464h347l559 -1464h-365l-117 309h-501l-117 -309h-365zM270 1759q0 79 54.5 132t136.5 53t137 -53t55 -132t-55 -131.5t-137 -52.5t-136.5 52.5t-54.5 131.5zM557 608h291l-146 449zM756 1759q0 80 54 132.5t136 52.5t137.5 -53t55.5 -132t-55.5 -131.5 t-137.5 -52.5t-136 52.5t-54 131.5z" />
<glyph unicode="&#xc5;" d="M-29 0l559 1464h347l559 -1464h-365l-117 309h-501l-117 -309h-365zM436 1759q0 106 72 176t197 70q124 0 196 -70t72 -176t-72 -176t-196 -70q-125 0 -197 70t-72 176zM557 608h291l-146 449zM641 1759q0 -27 17.5 -44t46.5 -17t46 17t17 44t-17 44.5t-46 17.5 t-46.5 -17.5t-17.5 -44.5z" />
<glyph unicode="&#xc6;" horiz-adv-x="2023" d="M-70 0l727 1464h1285v-311h-580v-262h467v-309h-467v-271h608v-311h-966v385h-492l-186 -385h-396zM672 715h332v440h-119z" />
<glyph unicode="&#xc7;" horiz-adv-x="1472" d="M57 733q0 156 56 294.5t155 240.5t244 161.5t315 59.5q208 0 372 -93t255 -270l-272 -208q-50 104 -150.5 166.5t-210.5 62.5q-177 0 -285 -117t-108 -297q0 -178 108.5 -297t274.5 -119q232 0 371 232l276 -207q-89 -156 -243 -254t-343 -111l-20 -65q33 -11 59 -23.5 t55 -35t45.5 -58.5t16.5 -82q0 -91 -78 -145.5t-207 -54.5q-97 0 -149 18v199q59 -19 113 -19q94 0 94 41q0 45 -101 45q-39 0 -71 -4l61 193q-186 29 -330.5 134t-223.5 264.5t-79 348.5z" />
<glyph unicode="&#xc8;" horiz-adv-x="1243" d="M158 1991h434l229 -428h-291zM182 0v1464h979v-311h-620v-262h508v-309h-508v-271h649v-311h-1008z" />
<glyph unicode="&#xc9;" horiz-adv-x="1218" d="M158 0v1464h979v-311h-621v-262h508v-309h-508v-271h649v-311h-1007zM440 1563l230 428h434l-373 -428h-291z" />
<glyph unicode="&#xca;" horiz-adv-x="1218" d="M158 0v1464h979v-311h-621v-262h508v-309h-508v-271h649v-311h-1007zM205 1563l278 438h295l279 -438h-307l-119 221l-119 -221h-307z" />
<glyph unicode="&#xcb;" horiz-adv-x="1218" d="M158 0v1464h979v-311h-621v-262h508v-309h-508v-271h649v-311h-1007zM213 1759q0 80 54 132.5t136 52.5t137.5 -53t55.5 -132t-55.5 -131.5t-137.5 -52.5t-136 52.5t-54 131.5zM698 1759q0 79 54.5 132t136.5 53t137 -53t55 -132t-55 -131.5t-137 -52.5t-136.5 52.5 t-54.5 131.5z" />
<glyph unicode="&#xcc;" horiz-adv-x="673" d="M-174 1991h434l229 -428h-290zM158 0v1464h358v-1464h-358z" />
<glyph unicode="&#xcd;" horiz-adv-x="673" d="M158 0v1464h358v-1464h-358zM184 1563l230 428h434l-373 -428h-291z" />
<glyph unicode="&#xce;" horiz-adv-x="673" d="M-88 1563l278 438h295l279 -438h-307l-119 221l-119 -221h-307zM158 0v1464h358v-1464h-358z" />
<glyph unicode="&#xcf;" horiz-adv-x="673" d="M-96 1759q0 80 54 132.5t136 52.5t137.5 -53t55.5 -132t-55.5 -131.5t-137.5 -52.5t-136 52.5t-54 131.5zM158 0v1464h358v-1464h-358zM387 1759q0 79 54.5 132t136.5 53t137 -53t55 -132t-55 -131.5t-137 -52.5t-136.5 52.5t-54.5 131.5z" />
<glyph unicode="&#xd0;" horiz-adv-x="1515" d="M12 647v176h148v641h547q162 0 302.5 -58t238.5 -156t154 -232t56 -283q0 -152 -56 -287.5t-154 -234t-238.5 -156t-302.5 -57.5h-547v647h-148zM518 307h158q171 0 291 123.5t120 302.5q0 178 -118.5 301t-290.5 123h-160v-334h293v-176h-293v-340z" />
<glyph unicode="&#xd1;" horiz-adv-x="1593" d="M158 0v1464h301l618 -848v848h359v-1464h-299l-621 862v-862h-358zM367 1620q0 143 72.5 230t199.5 87q51 0 102 -20.5t90.5 -41t63.5 -20.5q67 0 70 91l231 -48q0 -143 -72.5 -230t-199.5 -87q-51 0 -102 20.5t-90.5 41t-63.5 20.5q-67 0 -70 -90z" />
<glyph unicode="&#xd2;" horiz-adv-x="1646" d="M57 733q0 155 57 294t156.5 241t243 161.5t309.5 59.5t309.5 -59.5t243 -161.5t156.5 -241t57 -294q0 -156 -57 -295.5t-156.5 -241.5t-243 -161.5t-309.5 -59.5t-309.5 59.5t-243 161.5t-156.5 241.5t-57 295.5zM330 1991h434l229 -428h-291zM428 733q0 -180 110 -300 t285 -120t285.5 120t110.5 300t-110.5 299t-285.5 119t-285 -118.5t-110 -299.5z" />
<glyph unicode="&#xd3;" horiz-adv-x="1646" d="M57 733q0 155 57 294t156.5 241t243 161.5t309.5 59.5t309.5 -59.5t243 -161.5t156.5 -241t57 -294q0 -156 -57 -295.5t-156.5 -241.5t-243 -161.5t-309.5 -59.5t-309.5 59.5t-243 161.5t-156.5 241.5t-57 295.5zM428 733q0 -180 110 -300t285 -120t285.5 120t110.5 300 t-110.5 299t-285.5 119t-285 -118.5t-110 -299.5zM657 1563l230 428h434l-373 -428h-291z" />
<glyph unicode="&#xd4;" horiz-adv-x="1646" d="M57 733q0 155 57 294t156.5 241t243 161.5t309.5 59.5t309.5 -59.5t243 -161.5t156.5 -241t57 -294q0 -156 -57 -295.5t-156.5 -241.5t-243 -161.5t-309.5 -59.5t-309.5 59.5t-243 161.5t-156.5 241.5t-57 295.5zM397 1563l279 438h295l278 -438h-307l-119 221l-118 -221 h-308zM428 733q0 -180 110 -300t285 -120t285.5 120t110.5 300t-110.5 299t-285.5 119t-285 -118.5t-110 -299.5z" />
<glyph unicode="&#xd5;" horiz-adv-x="1646" d="M57 733q0 155 57 294t156.5 241t243 161.5t309.5 59.5t309.5 -59.5t243 -161.5t156.5 -241t57 -294q0 -156 -57 -295.5t-156.5 -241.5t-243 -161.5t-309.5 -59.5t-309.5 59.5t-243 161.5t-156.5 241.5t-57 295.5zM408 1620q0 143 72.5 230t199.5 87q51 0 102 -20.5 t90.5 -41t63.5 -20.5q67 0 70 91l231 -48q0 -143 -72.5 -230t-199.5 -87q-51 0 -102 20.5t-90.5 41t-63.5 20.5q-67 0 -70 -90zM428 733q0 -180 110 -300t285 -120t285.5 120t110.5 300t-110.5 299t-285.5 119t-285 -118.5t-110 -299.5z" />
<glyph unicode="&#xd6;" horiz-adv-x="1646" d="M57 733q0 155 57 294t156.5 241t243 161.5t309.5 59.5t309.5 -59.5t243 -161.5t156.5 -241t57 -294q0 -156 -57 -295.5t-156.5 -241.5t-243 -161.5t-309.5 -59.5t-309.5 59.5t-243 161.5t-156.5 241.5t-57 295.5zM389 1759q0 79 54.5 132t136.5 53t137 -53t55 -132 t-55 -131.5t-137 -52.5t-136.5 52.5t-54.5 131.5zM428 733q0 -180 110 -300t285 -120t285.5 120t110.5 300t-110.5 299t-285.5 119t-285 -118.5t-110 -299.5zM874 1759q0 79 54.5 132t136.5 53t137 -53t55 -132t-55 -131.5t-137 -52.5t-136.5 52.5t-54.5 131.5z" />
<glyph unicode="&#xd7;" horiz-adv-x="1148" d="M74 453l282 280l-282 283l219 219l282 -283l281 283l219 -219l-282 -283l282 -280l-219 -220l-281 283l-282 -283z" />
<glyph unicode="&#xd8;" horiz-adv-x="1646" d="M57 733q0 155 57 294t156.5 241t243 161.5t309.5 59.5q209 0 379 -92l146 202l133 -90l-146 -202q122 -105 188 -253t66 -321q0 -156 -57 -295.5t-156.5 -241.5t-243 -161.5t-309.5 -59.5q-201 0 -379 93l-143 -201l-135 90l145 203q-122 105 -188 253t-66 320zM428 733 q0 -162 94 -280l475 659q-79 39 -174 39q-175 0 -285 -118.5t-110 -299.5zM649 352q79 -39 174 -39q175 0 285.5 120t110.5 300q0 162 -95 281z" />
<glyph unicode="&#xd9;" horiz-adv-x="1511" d="M139 565v899h361v-870q0 -128 69.5 -204.5t186.5 -76.5t186.5 76.5t69.5 204.5v870h360v-899q0 -122 -45 -230.5t-124.5 -188t-195.5 -125.5t-251 -46t-251.5 46t-196 125.5t-124.5 188t-45 230.5zM252 1991h434l229 -428h-290z" />
<glyph unicode="&#xda;" horiz-adv-x="1511" d="M139 565v899h361v-870q0 -128 69.5 -204.5t186.5 -76.5t186.5 76.5t69.5 204.5v870h360v-899q0 -122 -45 -230.5t-124.5 -188t-195.5 -125.5t-251 -46t-251.5 46t-196 125.5t-124.5 188t-45 230.5zM592 1563l229 428h434l-372 -428h-291z" />
<glyph unicode="&#xdb;" horiz-adv-x="1511" d="M139 565v899h361v-870q0 -128 69.5 -204.5t186.5 -76.5t186.5 76.5t69.5 204.5v870h360v-899q0 -122 -45 -230.5t-124.5 -188t-195.5 -125.5t-251 -46t-251.5 46t-196 125.5t-124.5 188t-45 230.5zM328 1563l278 438h295l279 -438h-308l-118 221l-119 -221h-307z" />
<glyph unicode="&#xdc;" horiz-adv-x="1511" d="M139 565v899h361v-870q0 -128 69.5 -204.5t186.5 -76.5t186.5 76.5t69.5 204.5v870h360v-899q0 -122 -45 -230.5t-124.5 -188t-195.5 -125.5t-251 -46t-251.5 46t-196 125.5t-124.5 188t-45 230.5zM319 1759q0 79 54.5 132t136.5 53t137 -53t55 -132t-55 -131.5 t-137 -52.5t-136.5 52.5t-54.5 131.5zM805 1759q0 80 54 132.5t136 52.5t137.5 -53t55.5 -132t-55.5 -131.5t-137.5 -52.5t-136 52.5t-54 131.5z" />
<glyph unicode="&#xdd;" horiz-adv-x="1347" d="M-31 1464h391l314 -522l313 522h391l-526 -823v-641h-358v641zM526 1563l230 428h434l-373 -428h-291z" />
<glyph unicode="&#xde;" horiz-adv-x="1288" d="M158 0v1464h358v-229h209q222 0 370 -144t148 -360q0 -220 -149 -365t-367 -145h-211v-221h-358zM516 530h162q84 0 139 58t55 145q0 86 -54.5 140.5t-139.5 54.5h-162v-398z" />
<glyph unicode="&#xdf;" horiz-adv-x="1282" d="M90 0v1044q0 83 38 162t107 142.5t177.5 102t238.5 38.5q138 0 257.5 -52t189 -138.5t69.5 -184.5q0 -44 -13.5 -82.5t-43 -74t-49.5 -55.5t-60 -54q-73 -60 -88 -79q-16 -21 -16 -38q0 -8 3.5 -16t12.5 -17t17.5 -16.5t24.5 -17.5t27.5 -17.5t32.5 -20t34 -20.5 q51 -31 87 -58t75.5 -67t60 -90t20.5 -108q0 -127 -113 -217.5t-286 -90.5q-130 0 -236.5 59t-162.5 167l217 164q30 -50 74.5 -86.5t91.5 -36.5q32 0 52.5 16.5t20.5 40.5q0 14 -10.5 28t-33 30t-43.5 29t-57.5 34.5t-60.5 36.5q-92 62 -143 119.5t-51 132.5q0 62 36.5 111 t104.5 104q6 5 20.5 17.5t20.5 18t18.5 17t18 17.5t14.5 16.5t13.5 18.5t9 18t6.5 20t2 20q0 58 -50 90.5t-128 32.5q-86 0 -142.5 -50t-56.5 -128v-1032h-348z" />
<glyph unicode="&#xe0;" horiz-adv-x="1107" d="M10 1581h434l230 -428h-291zM45 293q0 116 88.5 194.5t255.5 114.5l273 53v2q0 62 -45.5 90.5t-118.5 28.5q-153 0 -262 -125l-187 223q71 91 194.5 148t272.5 57q228 0 356.5 -111.5t128.5 -308.5v-659h-329v117q-33 -64 -103 -103t-170 -39q-154 0 -254 89.5 t-100 228.5zM385 315q0 -39 25.5 -61.5t72.5 -22.5q84 0 131.5 52t47.5 141v16l-173 -32q-104 -23 -104 -93z" />
<glyph unicode="&#xe1;" horiz-adv-x="1110" d="M45 293q0 116 88.5 194.5t255.5 114.5l273 53v2q0 62 -45.5 90.5t-118.5 28.5q-153 0 -262 -125l-187 223q71 91 194.5 148t272.5 57q228 0 356.5 -111.5t128.5 -308.5v-659h-329v117q-33 -64 -103 -103t-170 -39q-154 0 -254 89.5t-100 228.5zM371 1153l229 428h434 l-372 -428h-291zM385 315q0 -39 25.5 -61.5t72.5 -22.5q84 0 131.5 52t47.5 141v16l-173 -32q-104 -23 -104 -93z" />
<glyph unicode="&#xe2;" horiz-adv-x="1110" d="M45 293q0 116 88.5 194.5t255.5 114.5l273 53v2q0 62 -45.5 90.5t-118.5 28.5q-153 0 -262 -125l-187 223q71 91 194.5 148t272.5 57q228 0 356.5 -111.5t128.5 -308.5v-659h-329v117q-33 -64 -103 -103t-170 -39q-154 0 -254 89.5t-100 228.5zM113 1153l278 438h295 l279 -438h-308l-118 221l-119 -221h-307zM385 315q0 -39 25.5 -61.5t72.5 -22.5q84 0 131.5 52t47.5 141v16l-173 -32q-104 -23 -104 -93z" />
<glyph unicode="&#xe3;" horiz-adv-x="1110" d="M45 293q0 116 88.5 194.5t255.5 114.5l273 53v2q0 62 -45.5 90.5t-118.5 28.5q-153 0 -262 -125l-187 223q71 91 194.5 148t272.5 57q228 0 356.5 -111.5t128.5 -308.5v-659h-329v117q-33 -64 -103 -103t-170 -39q-154 0 -254 89.5t-100 228.5zM117 1210 q0 143 72.5 230.5t199.5 87.5q51 0 102 -20.5t90.5 -41t63.5 -20.5q67 0 70 90l231 -47q0 -143 -72.5 -230.5t-199.5 -87.5q-51 0 -102 20.5t-90.5 41t-63.5 20.5q-67 0 -70 -90zM385 315q0 -39 25.5 -61.5t72.5 -22.5q84 0 131.5 52t47.5 141v16l-173 -32 q-104 -23 -104 -93z" />
<glyph unicode="&#xe4;" horiz-adv-x="1110" d="M45 293q0 116 88.5 194.5t255.5 114.5l273 53v2q0 62 -45.5 90.5t-118.5 28.5q-153 0 -262 -125l-187 223q71 91 194.5 148t272.5 57q228 0 356.5 -111.5t128.5 -308.5v-659h-329v117q-33 -64 -103 -103t-170 -39q-154 0 -254 89.5t-100 228.5zM104 1350q0 79 54.5 131.5 t136.5 52.5t137 -52.5t55 -131.5t-55 -132t-137 -53t-136.5 53t-54.5 132zM385 315q0 -39 25.5 -61.5t72.5 -22.5q84 0 131.5 52t47.5 141v16l-173 -32q-104 -23 -104 -93zM590 1350q0 79 54 131.5t136 52.5t137.5 -52.5t55.5 -131.5t-55.5 -132t-137.5 -53t-136 52.5 t-54 132.5z" />
<glyph unicode="&#xe5;" horiz-adv-x="1110" d="M45 293q0 116 88.5 194.5t255.5 114.5l273 53v2q0 62 -45.5 90.5t-118.5 28.5q-153 0 -262 -125l-187 223q71 91 194.5 148t272.5 57q228 0 356.5 -111.5t128.5 -308.5v-659h-329v117q-33 -64 -103 -103t-170 -39q-154 0 -254 89.5t-100 228.5zM270 1350q0 106 72 175.5 t197 69.5q124 0 196 -69.5t72 -175.5t-72 -176t-196 -70q-125 0 -197 70t-72 176zM385 315q0 -39 25.5 -61.5t72.5 -22.5q84 0 131.5 52t47.5 141v16l-173 -32q-104 -23 -104 -93zM475 1350q0 -27 17.5 -44.5t46.5 -17.5t46 17.5t17 44.5t-17 44t-46 17t-46.5 -17t-17.5 -44 z" />
<glyph unicode="&#xe6;" horiz-adv-x="1769" d="M43 309q0 63 25 117.5t66 92.5t94.5 65t110.5 40t114 13h256v12q0 67 -65 106.5t-142 39.5q-150 0 -269 -119l-186 213q56 71 177 130.5t263 59.5q246 0 383 -137q66 66 157 101.5t194 35.5q219 0 358 -137.5t139 -357.5q0 -81 -20 -142h-654q17 -85 80.5 -132.5 t151.5 -47.5q81 0 152.5 28.5t113.5 69.5l180 -215q-187 -170 -452 -170q-238 0 -408 177q-72 -82 -179.5 -129.5t-223.5 -47.5q-176 0 -296 92t-120 242zM383 344q0 -42 35 -70t94 -28q76 0 136.5 47.5t60.5 120.5v28h-199q-56 0 -91.5 -26t-35.5 -72zM1038 637h346v2 q-4 71 -53.5 114.5t-118.5 43.5q-71 0 -120.5 -43.5t-53.5 -116.5z" />
<glyph unicode="&#xe7;" horiz-adv-x="1083" d="M49 528q0 154 72 280t202 198.5t293 72.5q298 0 453 -245l-235 -203q-73 137 -207 137q-96 0 -156.5 -67.5t-60.5 -172.5q0 -106 61.5 -173.5t159.5 -67.5q63 0 110.5 29.5t100.5 89.5l225 -203q-68 -95 -165.5 -153t-217.5 -70l-22 -68q33 -11 59 -23.5t55 -35 t45.5 -58.5t16.5 -82q0 -91 -78 -145.5t-207 -54.5q-98 0 -150 18v199q59 -19 113 -19q94 0 94 41q0 45 -100 45q-40 0 -72 -4l62 193q-202 37 -326.5 187t-124.5 355z" />
<glyph unicode="&#xe8;" horiz-adv-x="1150" d="M49 526q0 153 72 280t198 200t279 73q226 0 366 -134t140 -351q0 -83 -21 -152h-667q11 -84 82.5 -127t169.5 -43q147 0 250 99l180 -226q-102 -91 -211 -130.5t-246 -39.5q-176 0 -312 73t-208 198t-72 280zM86 1581h434l230 -428h-291zM410 647h350v2q-4 67 -52 107.5 t-118 40.5q-72 0 -124 -40.5t-56 -109.5z" />
<glyph unicode="&#xe9;" horiz-adv-x="1150" d="M49 526q0 153 72 280t198 200t279 73q226 0 366 -134t140 -351q0 -83 -21 -152h-667q11 -84 82.5 -127t169.5 -43q147 0 250 99l180 -226q-102 -91 -211 -130.5t-246 -39.5q-176 0 -312 73t-208 198t-72 280zM410 647h350v2q-4 67 -52 107.5t-118 40.5q-72 0 -124 -40.5 t-56 -109.5zM449 1153l229 428h434l-373 -428h-290z" />
<glyph unicode="&#xea;" horiz-adv-x="1150" d="M49 526q0 153 72 280t198 200t279 73q226 0 366 -134t140 -351q0 -83 -21 -152h-667q11 -84 82.5 -127t169.5 -43q147 0 250 99l180 -226q-102 -91 -211 -130.5t-246 -39.5q-176 0 -312 73t-208 198t-72 280zM156 1153l278 438h295l279 -438h-308l-118 221l-119 -221 h-307zM410 647h350v2q-4 67 -52 107.5t-118 40.5q-72 0 -124 -40.5t-56 -109.5z" />
<glyph unicode="&#xeb;" horiz-adv-x="1150" d="M49 526q0 153 72 280t198 200t279 73q226 0 366 -134t140 -351q0 -83 -21 -152h-667q11 -84 82.5 -127t169.5 -43q147 0 250 99l180 -226q-102 -91 -211 -130.5t-246 -39.5q-176 0 -312 73t-208 198t-72 280zM168 1350q0 79 54 131.5t136 52.5t137.5 -52.5t55.5 -131.5 t-55.5 -132t-137.5 -53t-136 52.5t-54 132.5zM410 647h350v2q-4 67 -52 107.5t-118 40.5q-72 0 -124 -40.5t-56 -109.5zM653 1350q0 79 54.5 131.5t136.5 52.5t137 -52.5t55 -131.5t-55 -132t-137 -53t-136.5 53t-54.5 132z" />
<glyph unicode="&#xec;" horiz-adv-x="614" d="M-207 1581h434l230 -428h-291zM129 0v1055h356v-1055h-356z" />
<glyph unicode="&#xed;" horiz-adv-x="614" d="M129 0v1055h356v-1055h-356zM162 1153l229 428h434l-372 -428h-291z" />
<glyph unicode="&#xee;" horiz-adv-x="614" d="M-119 1153l279 438h295l278 -438h-307l-119 221l-119 -221h-307zM129 0v1055h356v-1055h-356z" />
<glyph unicode="&#xef;" horiz-adv-x="614" d="M-127 1350q0 79 54 131.5t136 52.5t137.5 -52.5t55.5 -131.5t-55.5 -132t-137.5 -53t-136 52.5t-54 132.5zM129 0v1055h356v-1055h-356zM356 1350q0 79 54.5 131.5t136.5 52.5t137 -52.5t55 -131.5t-55 -132t-137 -53t-136.5 53t-54.5 132z" />
<glyph unicode="&#xf0;" horiz-adv-x="1138" d="M20 504q0 97 33 189.5t92.5 166.5t150.5 119t198 45q82 0 143 -37l2 2q-83 72 -221 129l-236 -108l-53 110l123 58q-85 24 -135 34l98 277q215 -51 393 -148l238 111l53 -111l-166 -75q361 -262 361 -707q0 -85 -17 -165t-57.5 -157t-100.5 -134.5t-153.5 -92.5 t-208.5 -35q-124 0 -227.5 46t-170 122t-103 169.5t-36.5 191.5zM377 504q0 -108 48.5 -169t131.5 -61t131.5 61t48.5 169q0 109 -48 173t-130 64t-132 -64.5t-50 -172.5z" />
<glyph unicode="&#xf1;" horiz-adv-x="1294" d="M129 0v1055h340v-125q101 149 301 149q192 0 302 -116t110 -320v-643h-357v580q0 92 -43 140t-125 48q-78 0 -125 -57.5t-47 -155.5v-555h-356zM233 1210q0 143 73 230.5t200 87.5q51 0 102 -20.5t90.5 -41t63.5 -20.5q66 0 69 90l232 -47q0 -143 -72.5 -230.5 t-199.5 -87.5q-51 0 -102 20.5t-90.5 41t-63.5 20.5q-67 0 -70 -90z" />
<glyph unicode="&#xf2;" horiz-adv-x="1245" d="M49 528q0 115 43 217t118 175.5t182 116t231 42.5q165 0 296.5 -72.5t204 -198.5t72.5 -280t-72.5 -280.5t-204 -199.5t-296.5 -73q-124 0 -231 43t-182 117t-118 176t-43 217zM109 1581h434l229 -428h-291zM410 528q0 -113 59.5 -177t153.5 -64t154.5 64.5t60.5 176.5 t-60.5 176t-154.5 64t-153.5 -64t-59.5 -176z" />
<glyph unicode="&#xf3;" horiz-adv-x="1245" d="M49 528q0 115 43 217t118 175.5t182 116t231 42.5q165 0 296.5 -72.5t204 -198.5t72.5 -280t-72.5 -280.5t-204 -199.5t-296.5 -73q-124 0 -231 43t-182 117t-118 176t-43 217zM410 528q0 -113 59.5 -177t153.5 -64t154.5 64.5t60.5 176.5t-60.5 176t-154.5 64 t-153.5 -64t-59.5 -176zM473 1153l229 428h435l-373 -428h-291z" />
<glyph unicode="&#xf4;" horiz-adv-x="1245" d="M49 528q0 115 43 217t118 175.5t182 116t231 42.5q165 0 296.5 -72.5t204 -198.5t72.5 -280t-72.5 -280.5t-204 -199.5t-296.5 -73q-124 0 -231 43t-182 117t-118 176t-43 217zM199 1153l278 438h295l279 -438h-308l-118 221l-119 -221h-307zM410 528q0 -113 59.5 -177 t153.5 -64t154.5 64.5t60.5 176.5t-60.5 176t-154.5 64t-153.5 -64t-59.5 -176z" />
<glyph unicode="&#xf5;" horiz-adv-x="1245" d="M49 528q0 115 43 217t118 175.5t182 116t231 42.5q165 0 296.5 -72.5t204 -198.5t72.5 -280t-72.5 -280.5t-204 -199.5t-296.5 -73q-124 0 -231 43t-182 117t-118 176t-43 217zM209 1210q0 143 72.5 230.5t199.5 87.5q51 0 102 -20.5t90.5 -41t63.5 -20.5q67 0 70 90 l231 -47q0 -143 -72.5 -230.5t-199.5 -87.5q-51 0 -102 20.5t-90.5 41t-63.5 20.5q-67 0 -70 -90zM410 528q0 -113 59.5 -177t153.5 -64t154.5 64.5t60.5 176.5t-60.5 176t-154.5 64t-153.5 -64t-59.5 -176z" />
<glyph unicode="&#xf6;" horiz-adv-x="1245" d="M49 528q0 115 43 217t118 175.5t182 116t231 42.5q165 0 296.5 -72.5t204 -198.5t72.5 -280t-72.5 -280.5t-204 -199.5t-296.5 -73q-124 0 -231 43t-182 117t-118 176t-43 217zM190 1350q0 79 54.5 131.5t136.5 52.5t137 -52.5t55 -131.5t-55 -132t-137 -53t-136.5 53 t-54.5 132zM410 528q0 -113 59.5 -177t153.5 -64t154.5 64.5t60.5 176.5t-60.5 176t-154.5 64t-153.5 -64t-59.5 -176zM676 1350q0 79 54 131.5t136 52.5t137.5 -52.5t55.5 -131.5t-55.5 -132t-137.5 -53t-136 52.5t-54 132.5z" />
<glyph unicode="&#xf7;" horiz-adv-x="1081" d="M59 545v309h963v-309h-963zM348 268q0 79 54.5 132t136.5 53t137 -53t55 -132t-55 -131.5t-137 -52.5t-136.5 52.5t-54.5 131.5zM348 1130q0 79 54.5 132t136.5 53t137 -53t55 -132t-55 -131.5t-137 -52.5t-136.5 52.5t-54.5 131.5z" />
<glyph unicode="&#xf8;" horiz-adv-x="1245" d="M49 528q0 115 43 217t118 175.5t182 116t231 42.5q136 0 262 -55l133 186l127 -90l-129 -180q87 -75 133.5 -181.5t46.5 -230.5q0 -154 -72.5 -280.5t-204 -199.5t-296.5 -73q-139 0 -261 56l-133 -185l-129 91l129 180q-87 75 -133.5 181t-46.5 230zM410 528 q0 -69 26 -125l256 355q-42 10 -69 10q-94 0 -153.5 -64t-59.5 -176zM553 297q42 -10 70 -10q94 0 154.5 64.5t60.5 176.5q0 68 -27 127z" />
<glyph unicode="&#xf9;" horiz-adv-x="1294" d="M113 412v643h356v-580q0 -92 43 -140t125 -48q78 0 125 57.5t47 155.5v555h356v-1055h-340v125q-102 -150 -301 -150q-192 0 -301.5 116.5t-109.5 320.5zM115 1581h434l229 -428h-291z" />
<glyph unicode="&#xfa;" horiz-adv-x="1294" d="M113 412v643h356v-580q0 -92 43 -140t125 -48q78 0 125 57.5t47 155.5v555h356v-1055h-340v125q-102 -150 -301 -150q-192 0 -301.5 116.5t-109.5 320.5zM481 1153l230 428h434l-373 -428h-291z" />
<glyph unicode="&#xfb;" horiz-adv-x="1294" d="M113 412v643h356v-580q0 -92 43 -140t125 -48q78 0 125 57.5t47 155.5v555h356v-1055h-340v125q-102 -150 -301 -150q-192 0 -301.5 116.5t-109.5 320.5zM205 1153l278 438h295l279 -438h-307l-119 221l-119 -221h-307z" />
<glyph unicode="&#xfc;" horiz-adv-x="1294" d="M113 412v643h356v-580q0 -92 43 -140t125 -48q78 0 125 57.5t47 155.5v555h356v-1055h-340v125q-102 -150 -301 -150q-192 0 -301.5 116.5t-109.5 320.5zM197 1350q0 79 54 131.5t136 52.5t137.5 -52.5t55.5 -131.5t-55.5 -132t-137.5 -53t-136 52.5t-54 132.5zM682 1350 q0 79 54 131.5t136 52.5t137.5 -52.5t55.5 -131.5t-55.5 -132t-137.5 -53t-136 52.5t-54 132.5z" />
<glyph unicode="&#xfd;" horiz-adv-x="1130" d="M-23 1055h367l221 -649l228 649h358l-451 -1106q-87 -213 -199 -298t-272 -85q-118 0 -202 45v289q73 -33 147 -33q36 0 62.5 5.5t56.5 22.5t53.5 54.5t38.5 95.5zM408 1153l229 428h434l-373 -428h-290z" />
<glyph unicode="&#xfe;" horiz-adv-x="1314" d="M125 -410v1465h2v409h354v-514q58 69 139 99t152 30q131 0 243 -68.5t180.5 -196t68.5 -286.5q0 -156 -62 -281.5t-175.5 -198.5t-258.5 -73q-86 0 -163 29.5t-124 97.5v-512h-356zM473 524q0 -102 58.5 -169.5t160.5 -67.5q90 0 151.5 65t61.5 172q0 108 -61.5 176 t-151.5 68q-79 0 -135.5 -45.5t-75.5 -126.5q-8 -24 -8 -72z" />
<glyph unicode="&#xff;" horiz-adv-x="1130" d="M-23 1055h367l221 -649l228 649h358l-451 -1106q-87 -213 -199 -298t-272 -85q-118 0 -202 45v289q73 -33 147 -33q36 0 62.5 5.5t56.5 22.5t53.5 54.5t38.5 95.5zM121 1350q0 79 54 131.5t136 52.5t137.5 -52.5t55.5 -131.5t-55.5 -132t-137.5 -53t-136 52.5t-54 132.5z M604 1350q0 79 54.5 131.5t136.5 52.5t137 -52.5t55 -131.5t-55 -132t-137 -53t-136.5 53t-54.5 132z" />
<glyph unicode="&#x152;" horiz-adv-x="2048" d="M57 733q0 155 57.5 294t159 241t247 161.5t313.5 59.5q103 0 198 -25h934v-311h-580v-262h467v-309h-467v-271h609v-311h-963q-95 -25 -198 -25q-168 0 -313.5 59.5t-247 161.5t-159 241.5t-57.5 295.5zM428 733q0 -182 114 -304t292 -122q109 0 194 39v772 q-85 39 -194 39q-178 0 -292 -121t-114 -303z" />
<glyph unicode="&#x153;" horiz-adv-x="1896" d="M37 528q0 154 72 280t203 198.5t296 72.5q233 0 375 -151q145 151 365 151q223 0 362 -134.5t139 -350.5q0 -105 -20 -152h-660q11 -83 82 -126.5t166 -43.5q143 0 246 99l180 -226q-102 -91 -210 -130.5t-242 -39.5q-249 0 -406 154q-144 -154 -377 -154q-165 0 -296 73 t-203 199.5t-72 280.5zM397 528q0 -113 59 -177t152 -64q99 0 157 63.5t58 177.5t-57.5 177t-157.5 63q-93 0 -152 -63.5t-59 -176.5zM1163 647h342v2q-4 67 -51 107.5t-115 40.5q-71 0 -121.5 -40.5t-54.5 -109.5z" />
<glyph unicode="&#x178;" horiz-adv-x="1347" d="M-31 1464h391l314 -522l313 522h391l-526 -823v-641h-358v641zM240 1759q0 80 54 132.5t136 52.5t137.5 -53t55.5 -132t-55.5 -131.5t-137.5 -52.5t-136 52.5t-54 131.5zM725 1759q0 80 54 132.5t136 52.5t137.5 -53t55.5 -132t-55.5 -131.5t-137.5 -52.5t-136 52.5 t-54 131.5z" />
<glyph unicode="&#x2c6;" horiz-adv-x="974" d="M61 1153l279 438h295l278 -438h-307l-119 221l-118 -221h-308z" />
<glyph unicode="&#x2dc;" horiz-adv-x="952" d="M61 1210q0 143 73 230.5t200 87.5q51 0 102 -20.5t90.5 -41t63.5 -20.5q66 0 69 90l232 -47q0 -143 -73 -230.5t-200 -87.5q-51 0 -102 20.5t-90.5 41t-63.5 20.5q-66 0 -69 -90z" />
<glyph unicode="&#x2000;" horiz-adv-x="1002" />
<glyph unicode="&#x2001;" horiz-adv-x="2005" />
<glyph unicode="&#x2002;" horiz-adv-x="1002" />
<glyph unicode="&#x2003;" horiz-adv-x="2005" />
<glyph unicode="&#x2004;" horiz-adv-x="668" />
<glyph unicode="&#x2005;" horiz-adv-x="501" />
<glyph unicode="&#x2006;" horiz-adv-x="334" />
<glyph unicode="&#x2007;" horiz-adv-x="334" />
<glyph unicode="&#x2008;" horiz-adv-x="250" />
<glyph unicode="&#x2009;" horiz-adv-x="401" />
<glyph unicode="&#x200a;" horiz-adv-x="111" />
<glyph unicode="&#x2010;" horiz-adv-x="929" d="M96 416v291h738v-291h-738z" />
<glyph unicode="&#x2011;" horiz-adv-x="929" d="M96 416v291h738v-291h-738z" />
<glyph unicode="&#x2012;" horiz-adv-x="929" d="M96 416v291h738v-291h-738z" />
<glyph unicode="&#x2013;" horiz-adv-x="1331" d="M61 420v282h1209v-282h-1209z" />
<glyph unicode="&#x2014;" horiz-adv-x="1699" d="M61 424v274h1577v-274h-1577z" />
<glyph unicode="&#x2018;" horiz-adv-x="483" d="M43 1151q0 41 16 78l172 381h156l-96 -283q61 -18 98 -64.5t37 -111.5q0 -79 -54 -131.5t-136 -52.5t-137.5 52.5t-55.5 131.5z" />
<glyph unicode="&#x2019;" horiz-adv-x="485" d="M70 1425q0 80 54 132.5t136 52.5t137.5 -53t55.5 -132q0 -38 -17 -77l-172 -381h-155l96 282q-61 18 -98 64.5t-37 111.5z" />
<glyph unicode="&#x201a;" horiz-adv-x="526" d="M72 160q0 79 54 131.5t136 52.5t137.5 -52.5t55.5 -131.5q0 -39 -17 -78l-172 -381h-155l96 283q-61 18 -98 64.5t-37 111.5z" />
<glyph unicode="&#x201c;" horiz-adv-x="944" d="M43 1151q0 41 16 78l172 381h156l-96 -283q61 -18 98 -64.5t37 -111.5q0 -79 -54 -131.5t-136 -52.5t-137.5 52.5t-55.5 131.5zM504 1151q0 41 16 78l172 381h156l-96 -283q61 -18 98 -64.5t37 -111.5q0 -79 -54.5 -131.5t-136.5 -52.5t-137 52.5t-55 131.5z" />
<glyph unicode="&#x201d;" horiz-adv-x="946" d="M70 1425q0 80 54 132.5t136 52.5t137.5 -53t55.5 -132q0 -38 -17 -77l-172 -381h-155l96 282q-61 18 -98 64.5t-37 111.5zM530 1425q0 79 54.5 132t136.5 53t137 -53t55 -132q0 -40 -16 -77l-172 -381h-156l97 282q-61 18 -98.5 64.5t-37.5 111.5z" />
<glyph unicode="&#x201e;" horiz-adv-x="976" d="M72 160q0 79 54 131.5t136 52.5t137.5 -52.5t55.5 -131.5q0 -39 -17 -78l-172 -381h-155l96 283q-61 18 -98 64.5t-37 111.5zM522 160q0 79 54.5 131.5t136.5 52.5t137 -52.5t55 -131.5q0 -41 -16 -78l-172 -381h-156l96 283q-61 18 -98 64.5t-37 111.5z" />
<glyph unicode="&#x2022;" horiz-adv-x="833" d="M123 623q0 123 84.5 203.5t210.5 80.5q128 0 212.5 -80.5t84.5 -203.5q0 -124 -84.5 -205.5t-212.5 -81.5q-126 0 -210.5 81.5t-84.5 205.5z" />
<glyph unicode="&#x2026;" horiz-adv-x="1527" d="M66 160q0 79 54 131.5t136 52.5t137.5 -52.5t55.5 -131.5t-55.5 -132t-137.5 -53t-136 52.5t-54 132.5zM573 160q0 79 54.5 131.5t136.5 52.5t137 -52.5t55 -131.5t-55 -132t-137 -53t-136.5 53t-54.5 132zM1079 160q0 79 54.5 131.5t136.5 52.5t137 -52.5t55 -131.5 t-55 -132t-137 -53t-136.5 53t-54.5 132z" />
<glyph unicode="&#x202f;" horiz-adv-x="401" />
<glyph unicode="&#x2039;" horiz-adv-x="694" d="M39 528l262 428h334l-264 -428l264 -426h-334z" />
<glyph unicode="&#x203a;" horiz-adv-x="698" d="M61 102l265 428l-265 426h334l262 -426l-262 -428h-334z" />
<glyph unicode="&#x205f;" horiz-adv-x="501" />
<glyph unicode="&#x20ac;" horiz-adv-x="1390" d="M37 784v172h139q57 243 239 388t437 145q94 0 178.5 -27t144.5 -71t101 -89t67 -92l-233 -200q-15 24 -36.5 49t-54.5 51.5t-79 43.5t-96 17q-106 0 -181 -56.5t-114 -158.5h418l-25 -172h-428q-2 -16 -2 -51t2 -51h432l-22 -172h-377q37 -104 110.5 -160.5t176.5 -56.5 q56 0 105 17.5t84 46.5t56.5 54t36.5 50l248 -182q-23 -50 -69 -101t-111 -97.5t-154.5 -76t-185.5 -29.5q-252 0 -431.5 145t-238.5 390h-135v172h113q-2 16 -2 51t2 51h-115z" />
<glyph unicode="&#x2122;" horiz-adv-x="1130" d="M0 1325v139h422v-139h-135v-371h-152v371h-135zM477 954v510h207l88 -188l90 188h207v-510h-162v312l-94 -197h-82l-96 197v-312h-158z" />
<glyph unicode="&#x25fc;" horiz-adv-x="1054" d="M0 0v1055h1055v-1055h-1055z" />
</font>
</defs>
</svg>
